<?xml version="1.0" encoding="UTF-8" standalone="no"?>
<!-- Created with Inkscape (http://www.inkscape.org/) -->

<svg
   xmlns:dc="http://purl.org/dc/elements/1.1/"
   xmlns:cc="http://creativecommons.org/ns#"
   xmlns:rdf="http://www.w3.org/1999/02/22-rdf-syntax-ns#"
   xmlns:svg="http://www.w3.org/2000/svg"
   xmlns="http://www.w3.org/2000/svg"
   xmlns:sodipodi="http://sodipodi.sourceforge.net/DTD/sodipodi-0.dtd"
   xmlns:inkscape="http://www.inkscape.org/namespaces/inkscape"
   width="441"
   height="171.41656"
   id="svg3089"
   version="1.1"
   inkscape:version="0.48.4 r9939"
   sodipodi:docname="New document 2">
  <defs
     id="defs3091" />
  <sodipodi:namedview
     id="base"
     pagecolor="#ffffff"
     bordercolor="#666666"
     borderopacity="1.0"
     inkscape:pageopacity="0.0"
     inkscape:pageshadow="2"
     inkscape:zoom="1.3152344"
     inkscape:cx="295.5"
     inkscape:cy="-349.08343"
     inkscape:document-units="px"
     inkscape:current-layer="layer1"
     showgrid="true"
     fit-margin-top="0"
     fit-margin-left="0"
     fit-margin-right="0"
     fit-margin-bottom="0"
     inkscape:window-width="1050"
     inkscape:window-height="1658"
     inkscape:window-x="1042"
     inkscape:window-y="-8"
     inkscape:window-maximized="1">
    <inkscape:grid
       type="xygrid"
       id="grid3097"
       empspacing="5"
       visible="true"
       enabled="true"
       snapvisiblegridlinesonly="true"
       originx="-79.5px"
       originy="-869.08343px" />
  </sodipodi:namedview>
  <metadata
     id="metadata3094">
    <rdf:RDF>
      <cc:Work
         rdf:about="">
        <dc:format>image/svg+xml</dc:format>
        <dc:type
           rdf:resource="http://purl.org/dc/dcmitype/StillImage" />
        <dc:title></dc:title>
      </cc:Work>
    </rdf:RDF>
  </metadata>
  <g
     inkscape:label="Layer 1"
     inkscape:groupmode="layer"
     id="layer1"
     transform="translate(-79.5,-11.862183)">
    <path
       sodipodi:type="arc"
       style="fill:#89a02c;fill-opacity:1;stroke:#ffffff;stroke-linecap:round;stroke-linejoin:bevel;stroke-opacity:0"
       id="path3099"
       sodipodi:cx="110"
       sodipodi:cy="102.36218"
       sodipodi:rx="30"
       sodipodi:ry="30"
       d="m 140,102.36218 c 0,16.56855 -13.43146,30 -30,30 -16.568542,0 -30,-13.43145 -30,-30 0,-16.56854 13.431458,-29.999997 30,-29.999997 16.56854,0 30,13.431457 30,29.999997 z" />
    <path
       sodipodi:type="arc"
       style="fill:#89a02c;fill-opacity:1;stroke:#ffffff;stroke-linecap:round;stroke-linejoin:bevel;stroke-opacity:0"
       id="path3101"
       sodipodi:cx="220"
       sodipodi:cy="42.362183"
       sodipodi:rx="30"
       sodipodi:ry="30"
       d="m 250,42.362183 c 0,16.568542 -13.43146,30 -30,30 -16.56854,0 -30,-13.431458 -30,-30 0,-16.568543 13.43146,-30 30,-30 16.56854,0 30,13.431457 30,30 z" />
    <path
       sodipodi:type="arc"
       style="fill:#89a02c;fill-opacity:1;stroke:#ffffff;stroke-linecap:round;stroke-linejoin:bevel;stroke-opacity:0"
       id="path3103"
       sodipodi:cx="220"
       sodipodi:cy="152.36218"
       sodipodi:rx="30"
       sodipodi:ry="30"
       d="m 250,152.36218 c 0,16.56855 -13.43146,30 -30,30 -16.56854,0 -30,-13.43145 -30,-30 0,-16.56854 13.43146,-30 30,-30 16.56854,0 30,13.43146 30,30 z"
       transform="translate(79.730627,0.41656883)" />
    <path
       sodipodi:type="arc"
       style="fill:#89a02c;fill-opacity:1;stroke:#ffffff;stroke-linecap:round;stroke-linejoin:bevel;stroke-opacity:0"
       id="path3105"
       sodipodi:cx="380"
       sodipodi:cy="42.362183"
       sodipodi:rx="30"
       sodipodi:ry="30"
       d="m 410,42.362183 c 0,16.568542 -13.43146,30 -30,30 -16.56854,0 -30,-13.431458 -30,-30 0,-16.568543 13.43146,-30 30,-30 16.56854,0 30,13.431457 30,30 z" />
    <path
       sodipodi:type="arc"
       style="fill:#89a02c;fill-opacity:1;stroke:#ffffff;stroke-linecap:round;stroke-linejoin:bevel;stroke-opacity:0"
       id="path3107"
       sodipodi:cx="490"
       sodipodi:cy="102.36218"
       sodipodi:rx="30"
       sodipodi:ry="30"
       d="m 520,102.36218 c 0,16.56855 -13.43146,30 -30,30 -16.56854,0 -30,-13.43145 -30,-30 0,-16.56854 13.43146,-29.999997 30,-29.999997 16.56854,0 30,13.431457 30,29.999997 z" />
    <path
       style="fill:#ff7f2a;fill-opacity:1;stroke:#ffffff;stroke-linecap:round;stroke-linejoin:bevel;stroke-opacity:0"
       id="path3115"
       d="m 139.75712,76.686574 c 11.61698,-3.237651 23.09765,-6.937704 34.6871,-10.275324 6.01834,-1.629321 12.04719,-3.323695 18.21361,-4.315034 1.0353,-0.166439 2.07826,-0.299525 3.12509,-0.360182 0.49467,-0.02866 1.06819,-0.176995 1.48357,0.09314 0.45605,0.296594 0.54998,0.938798 0.82497,1.408197 -1.95587,1.309652 -0.89273,0.739494 -3.21034,1.670863 -0.0613,0.04584 -0.70964,-0.821603 -0.6483,-0.867445 l 0,0 c 1.81466,-1.117647 0.98004,-0.765225 2.41456,-1.247765 0.35741,0.247327 1.11346,0.309302 1.07223,0.741981 -0.0367,0.385066 -0.77382,0.04952 -1.15429,0.119232 -0.97116,0.177949 -1.93541,0.393573 -2.89574,0.622874 -5.98316,1.428617 -11.88925,3.164532 -17.81768,4.797936 -11.71282,3.351429 -23.3603,7.085534 -35.30181,9.539013 -0.13629,0.05607 -0.92926,-1.871418 -0.79297,-1.927489 z"
       inkscape:connector-curvature="0" />
    <path
       style="fill:#ff7f2a;fill-opacity:1;stroke:#ffffff;stroke-linecap:round;stroke-linejoin:bevel;stroke-opacity:0"
       id="path3121"
       d="m 268.56133,45.969513 c 13.63513,0.559561 27.27376,1.025769 40.90892,1.585118 10.76886,0.537653 21.54461,0.977803 32.30969,1.589297 0.12519,0.01595 0.38629,-0.07791 0.37558,0.04784 -0.0391,0.458655 -0.12698,1.007712 -0.48962,1.291232 -0.18667,0.145939 -3.62382,-0.436552 -4.09906,-0.585327 -0.0478,-0.01326 0.13971,-0.689456 0.18752,-0.676196 l 0,0 c 0.63705,-0.141341 4.18814,-0.416509 4.53833,-0.08813 0.39119,0.366836 0.53602,0.981834 0.53269,1.518108 -10e-4,0.198993 -0.36245,0.164425 -0.54367,0.246638 -11.20207,0.905837 -22.46808,-0.210155 -33.67395,-0.424651 -13.56131,-0.606484 -27.20575,-0.949715 -40.65286,-2.911355 -0.11261,-0.04288 0.49382,-1.635457 0.60643,-1.592576 z"
       inkscape:connector-curvature="0" />
    <path
       style="fill:#ff7f2a;fill-opacity:1;stroke:#ffffff;stroke-linecap:round;stroke-linejoin:bevel;stroke-opacity:0"
       id="path3123"
       d="m 424.7722,68.155757 c 8.1039,1.271768 15.58872,5.233189 22.17662,10.002213 1.76851,1.280239 3.41882,2.716292 5.12823,4.074438 4.19239,3.529939 7.86544,7.589544 11.56614,11.611174 1.81365,1.970934 3.509,3.900758 5.69972,5.44252 0.19389,0.0099 0.77422,0.05446 0.58167,0.02964 -1.05631,-0.136165 -0.89206,0.07708 -0.9578,-1.027082 -0.0245,-0.07438 1.02741,-0.420538 1.05189,-0.346158 l 0,0 c 0.22481,0.343467 0.56554,0.634608 0.67445,1.030401 0.53979,1.961747 -1.33278,2.478987 -2.79012,1.858727 -2.49697,-1.626249 -4.17895,-3.369257 -6.26241,-5.529191 -2.88003,-2.985749 -3.9156,-4.243042 -7.02471,-7.198965 -1.45672,-1.384954 -2.97649,-2.702043 -4.46474,-4.053065 -1.66339,-1.314531 -3.27477,-2.697705 -4.99019,-3.943595 -6.30159,-4.576795 -13.34844,-8.415007 -20.99616,-10.114756 -0.12984,-0.04295 0.47756,-1.879254 0.60741,-1.836304 z"
       inkscape:connector-curvature="0" />
    <path
       style="fill:#ff7f2a;fill-opacity:1;stroke:#ffffff;stroke-linecap:round;stroke-linejoin:bevel;stroke-opacity:0"
       id="path3125"
       d="m 331.37857,153.30506 c 19.62524,-0.61919 38.88687,-5.25051 57.95081,-9.5839 21.82873,-5.44061 43.61134,-11.63208 64.12155,-20.99254 1.64738,-4.28019 2.87827,-0.55987 2.29335,0.0389 -0.45737,0.46817 -1.24493,0.40498 -1.86198,0.62322 -1.55133,0.54868 -2.69401,1.00496 -4.21619,1.59605 -1.82474,0.67935 -1.00603,0.40764 -2.4439,0.85107 -0.0375,0.0341 -0.51981,-0.49585 -0.48233,-0.52996 l 0,0 c 1.0054,-1.15358 0.37567,-0.55811 1.99971,-1.66175 1.0972,-0.55764 5.247,-2.65969 6.34025,-2.58218 4.667,0.33084 1.28146,2.59448 -0.22591,3.54381 -1.52458,0.83296 -3.01722,1.72725 -4.57373,2.49887 -18.76795,9.30403 -39.1385,14.88088 -59.34167,20.05909 -13.19406,2.93189 -16.02382,3.78182 -29.04086,5.8524 -9.06584,1.44207 -18.23723,2.55813 -27.43375,2.38214 -1.22828,-0.0235 -2.4503,-0.18129 -3.67545,-0.27194 -0.12893,-0.0417 0.46117,-1.86498 0.5901,-1.82325 z"
       inkscape:connector-curvature="0" />
    <path
       style="fill:#ff7f2a;fill-opacity:1;stroke:#ffffff;stroke-linecap:round;stroke-linejoin:bevel;stroke-opacity:0"
       id="path3129"
       d="m 132.35073,122.40598 c 2.10908,5.74086 5.97849,10.62442 10.71384,14.45949 1.72132,1.39406 3.59436,2.58958 5.39153,3.88437 2.34616,1.28574 4.61409,2.72586 7.03846,3.85723 14.13585,6.59668 29.79474,9.11536 45.24776,10.0152 4.74342,0.27622 9.49974,0.24551 14.24961,0.36826 13.14458,0.10101 26.23655,-1.08555 39.33661,-1.93795 4.80021,-0.31234 12.03289,-0.84707 17.09787,-0.48482 1.58671,0.11349 3.13824,0.52308 4.70736,0.78462 0.52539,0.48808 1.40105,0.76884 1.57617,1.46425 0.49644,1.9713 -1.8779,2.83492 -2.93918,3.51872 -0.0326,0.0316 -0.47915,-0.42989 -0.44652,-0.46146 l 0,0 c 0.57958,-0.45841 1.18466,-0.88631 1.73875,-1.37523 0.2629,-0.23199 0.82192,-0.45041 0.70474,-0.78088 -0.16063,-0.45298 -0.82773,-0.48872 -1.24159,-0.73308 -1.16678,-0.0823 -2.33073,-0.26088 -3.50032,-0.24702 -4.73645,0.0561 -12.37328,0.85711 -16.72579,1.24899 -13.71878,1.23518 -27.45347,2.46675 -41.24769,2.32273 -4.80997,-0.15683 -9.62881,-0.13899 -14.4299,-0.47049 -15.69989,-1.08402 -31.67079,-4.01652 -45.84992,-11.12437 -2.45961,-1.23298 -4.74493,-2.78664 -7.1174,-4.17996 -1.81112,-1.39842 -3.7061,-2.69451 -5.43337,-4.19528 -4.77208,-4.1463 -8.80055,-9.41333 -10.32419,-15.62532 -0.0218,-0.10275 1.43139,-0.41075 1.45317,-0.308 z"
       inkscape:connector-curvature="0" />
    <path
       style="fill:#ff7f2a;fill-opacity:1;stroke:#ffffff;stroke-linecap:round;stroke-linejoin:bevel;stroke-opacity:0"
       id="path3131"
       d="m 261.29078,143.87961 c 5.57465,0.0204 11.06601,1.55337 16.04201,4.03476 0.94789,0.47269 1.84635,1.03858 2.76953,1.55787 0.95505,0.42744 6.76853,4.51091 3.46649,5.92585 -0.49362,0.21152 -1.07406,0.003 -1.61109,0.005 -0.74819,-0.0834 -1.38954,-0.74574 -2.16649,-0.67861 -0.0554,0.005 -0.0365,0.1189 -0.0869,0.14252 -0.34114,0.15992 -0.71612,0.23886 -1.05913,0.39473 -0.57032,0.25917 -1.1179,0.56572 -1.67685,0.84858 -5.36034,3.01908 -10.542,6.34061 -15.78084,9.56261 -1.28814,0.64237 -2.9327,2.549 -3.47574,-0.26264 -0.0217,-0.11261 1.69262,-1.71066 2.20035,-2.2369 0.0331,-0.0601 0.88344,0.40775 0.85036,0.46788 l 0,0 c -0.12584,0.26995 -1.35583,2.72244 -1.63574,2.68126 -3.51668,-0.51731 -0.26131,-1.62515 0.5791,-2.29879 5.15948,-3.47736 10.37401,-6.89376 15.90152,-9.76646 2.86908,-1.36043 4.08584,-2.05618 7.12138,-0.82713 -0.0823,0.0676 -0.21477,0.10136 -0.24679,0.20294 -0.076,0.24121 -0.0703,0.5042 -0.0556,0.75668 0.002,0.035 0.12187,0.0564 0.10123,0.0281 -0.99019,-1.35758 -2.54946,-2.17239 -3.9115,-3.07753 -5.23813,-2.78664 -10.79982,-4.87892 -16.76024,-5.4018 -0.14557,0.04 -0.71058,-2.01865 -0.56501,-2.0586 z"
       inkscape:connector-curvature="0" />
    <path
       style="fill:#ff7f2a;fill-opacity:1;stroke:#ffffff;stroke-linecap:round;stroke-linejoin:bevel;stroke-opacity:0"
       id="path3133"
       d="m 448.97407,119.0733 c 3.16542,-1.11889 6.46199,-2.40646 9.85796,-2.59369 0.68914,-0.038 1.38015,0.0242 2.07023,0.0363 0.41452,0.18075 0.87813,0.27589 1.24357,0.54227 1.7168,1.25139 1.61648,3.6779 1.49171,5.54774 -0.1,1.53363 -0.62926,2.71259 -1.54696,3.92959 -2.11649,2.33592 -4.52079,4.39369 -7.00523,6.32594 -0.91236,0.61243 -1.69239,1.43626 -1.88449,-1.00205 -0.0198,-0.25132 0.48154,-0.14946 0.72231,-0.2242 0.0269,-0.0381 0.5652,0.34293 0.53826,0.38099 l 0,0 c -0.0263,0.22179 0.14424,0.6701 -0.079,0.66536 -2.78751,-0.0592 -1.67479,-0.72339 -0.97457,-1.35557 2.28038,-1.98565 4.61369,-3.91635 6.76471,-6.04487 0.79345,-0.85621 1.26179,-1.58475 1.30064,-2.78636 0.0424,-0.77528 0.23865,-3.09456 -0.52155,-3.59658 -0.19596,-0.12941 -0.44311,-0.1557 -0.66467,-0.23355 -3.09599,-0.25742 -7.16543,1.52998 -10.18407,2.25622 -0.13064,0.0798 -1.25945,-1.76774 -1.1288,-1.84756 z"
       inkscape:connector-curvature="0" />
    <path
       style="fill:#ff7f2a;fill-opacity:1;stroke:#ffffff;stroke-linecap:round;stroke-linejoin:bevel;stroke-opacity:0"
       id="path3135"
       d="m 458.83092,99.851916 c 2.22625,2.413954 4.68897,5.030084 7.97683,5.915784 0.51409,0.13849 1.05321,0.15692 1.57981,0.23538 2.53837,-0.22749 3.48183,-0.59192 3.38188,-3.22803 -0.75778,-4.158521 -3.44355,-7.938373 -5.43234,-11.640007 -0.50947,-1.350753 -3.39723,-6.167059 -2.30133,-7.710024 0.24285,-0.341917 0.65086,-0.529066 0.97629,-0.793599 0.50268,0.192685 1.05631,0.285224 1.50806,0.578055 0.71561,0.46388 0.88591,2.047857 0.64426,2.786574 -0.026,0.135517 -1.94251,-0.23229 -1.9165,-0.367807 l 0,0 c -0.0583,-0.07875 -0.21011,-0.543974 -0.30174,-0.763867 -0.0291,-0.06985 -0.17268,-0.188394 -0.0987,-0.204422 0.28935,-0.06271 0.59171,0.0223 0.88757,0.03345 0.14291,-0.245806 0.30236,-0.482707 0.42871,-0.737418 0.0152,-0.03062 -0.0897,0.01753 -0.0885,0.05169 0.009,0.261748 0.0501,0.523617 0.11614,0.777049 0.49585,1.903065 1.46941,3.640058 2.31297,5.399196 2.14777,4.010587 4.91265,7.99148 5.42094,12.60947 -0.0219,0.5122 0.027,1.03239 -0.0656,1.53661 -0.56754,3.08767 -3.58639,3.76968 -6.28415,3.6077 -0.63834,-0.12626 -1.29316,-0.18718 -1.91502,-0.37878 -3.54664,-1.09274 -6.29103,-3.83805 -8.51259,-6.68593 -0.0722,-0.11901 1.61091,-1.140088 1.68311,-1.021074 z"
       inkscape:connector-curvature="0" />
    <path
       style="fill:#ff7f2a;fill-opacity:1;stroke:#ffffff;stroke-linecap:round;stroke-linejoin:bevel;stroke-opacity:0"
       id="path3137"
       d="m 341.71802,42.516112 c 2.17088,2.722852 4.35117,5.43897 6.64278,8.061732 1.0782,0.772864 -0.25783,1.616615 -0.41565,2.492523 -0.24307,2.153807 -1.96429,3.3431 -3.72295,4.290901 -2.65376,1.056395 -5.58746,1.113845 -8.31052,0.288258 -1.23442,-0.64671 -1.00298,-0.471926 -0.009,-1.613584 0.0149,-0.01479 0.22407,0.195968 0.20917,0.210759 l 0,0 c 0.15053,-0.575248 0.0629,-0.546709 0.67255,-0.444421 2.05602,0.305341 4.1295,0.537663 6.13852,-0.186385 1.45343,-0.654713 2.817,-1.378292 3.06886,-3.090881 0.0246,-0.06368 0.83867,-1.959676 1.09906,-1.532932 0.26156,0.428648 0.1571,1.810439 -0.39473,0.797752 -2.4935,-2.52839 -4.71374,-5.319331 -6.74564,-8.228568 -0.0739,-0.124997 1.69383,-1.170151 1.76773,-1.045154 z"
       inkscape:connector-curvature="0" />
    <path
       style="fill:#ff7f2a;fill-opacity:1;stroke:#ffffff;stroke-linecap:round;stroke-linejoin:bevel;stroke-opacity:0"
       id="path3139"
       d="m 181.38413,59.997285 c 3.95262,-0.145634 7.87097,0.307801 11.69389,1.290133 0.12866,0.03752 1.41862,0.418106 1.67884,0.480342 0.22629,0.05412 0.92402,0.106481 0.6949,0.06594 -0.13622,-0.0047 -0.27245,-0.0095 -0.40868,-0.0142 -0.003,0.0066 -0.007,0.01312 -0.0103,0.01967 0.60595,-0.425314 1.18759,-0.440806 1.91576,-0.453828 1.16755,0.0077 1.31994,0.958209 0.92155,2.140572 -0.338,1.940806 -1.45492,3.356262 -2.79849,4.727551 -2.45462,2.159135 -5.11088,4.100377 -7.93324,5.751201 -1.10297,0.510057 -1.45996,0.797211 -1.55435,-1.456148 -0.0168,-0.401201 1.37808,-0.586131 1.60946,-0.597822 0.0399,-0.03793 0.57636,0.526956 0.53641,0.564886 l 0,0 c -0.0504,0.181208 -0.54879,1.33966 -0.85945,1.212735 -2.11802,-0.86534 -1.88302,-0.861468 -1.20408,-1.366528 2.56488,-1.807175 5.1868,-3.541671 7.61086,-5.539656 1.26448,-1.150081 2.23067,-2.269283 2.57713,-3.987732 0.0899,-0.201142 0.0772,-0.710284 0.26985,-0.603425 0.66854,0.370746 0.96971,1.266379 0.28927,1.110596 0.65784,-0.04437 -0.0263,-0.161136 -0.27621,0.130509 -1.25956,0.59848 -2.67457,-0.09848 -3.93171,-0.366013 -3.40753,-0.741686 -6.86293,-1.087543 -10.34516,-1.25388 -0.13116,0.03368 -0.60742,-1.821232 -0.47626,-1.854909 z"
       inkscape:connector-curvature="0" />
    <path
       style="fill:#ffffff;fill-opacity:1;stroke:#ffffff;stroke-linecap:round;stroke-linejoin:bevel;stroke-opacity:0"
       id="path3141"
       d="m 107.50342,89.126719 c -1.55046,5.927987 -3.44504,11.758631 -5.20734,17.625561 -0.31439,-0.36355 -0.75021,3.25938 -0.93954,3.12292 -0.37574,-0.27081 -0.88687,-0.51706 -0.9981,-0.96666 -0.0589,-0.23808 1.07394,-1.84162 1.33701,-2.23408 0.006,-0.0186 0.26829,0.0637 0.26247,0.0823 l 0,0 c -0.21186,1.69185 0.18663,3.03936 -2.109652,3.1771 -0.646768,0.0388 0.754192,-3.82304 0.387272,-3.65465 1.49363,-5.95417 3.38821,-11.793803 5.32125,-17.618041 0.0329,-0.137648 1.97955,0.327913 1.94663,0.46556 z"
       inkscape:connector-curvature="0" />
    <path
       style="fill:#ffffff;fill-opacity:1;stroke:#ffffff;stroke-linecap:round;stroke-linejoin:bevel;stroke-opacity:0"
       id="path3145"
       d="m 110.38344,86.498603 c 2.12476,5.308963 3.90636,10.746672 5.68927,16.177437 0.62174,1.94684 1.24824,3.89483 1.75793,5.87494 0.16052,0.62364 0.40377,1.3934 0.37768,2.06112 -2.11665,0.0322 -1.96414,0.17701 -2.09635,-1.29557 -0.0453,-0.50495 -0.0172,-0.72313 0.003,-0.7204 0.38864,0.0527 0.72873,0.29019 1.09309,0.43529 -0.0217,0.93179 0.0215,0.46987 -0.12899,1.38583 0.002,0.0379 -0.53438,0.0608 -0.536,0.0229 l 0,0 c -0.24333,-0.9052 -0.15576,-0.44483 -0.26157,-1.38132 0.35114,-0.23052 0.65995,-0.54451 1.05341,-0.69157 0.08,-0.0299 0.74998,1.66774 0.6835,1.72772 -0.46564,0.42013 -1.13185,0.54057 -1.69777,0.81086 -0.29455,-0.44228 -0.49925,-1.38882 -0.63817,-1.82614 -0.61251,-1.92813 -1.23444,-3.85329 -1.89701,-5.76497 -1.85148,-5.385785 -3.70147,-10.773353 -5.45701,-16.191143 -0.0442,-0.145314 2.01085,-0.770297 2.05504,-0.624984 z"
       inkscape:connector-curvature="0" />
    <path
       style="fill:#ffffff;fill-opacity:1;stroke:#ffffff;stroke-linecap:round;stroke-linejoin:bevel;stroke-opacity:0"
       id="path3147"
       d="m 105.22236,99.177655 c 4.06329,1.791145 8.42348,2.653645 12.65069,3.921275 0.0718,0.0246 -0.27599,1.03953 -0.34776,1.01494 l 0,0 c -0.5544,0.0412 -1.10764,0.14371 -1.66321,0.12357 -4.11177,-0.14899 -8.13128,-1.68404 -11.88419,-3.22426 -0.12979,-0.088 1.11468,-1.923525 1.24447,-1.835525 z"
       inkscape:connector-curvature="0" />
    <path
       style="fill:#ffffff;fill-opacity:1;stroke:#ffffff;stroke-linecap:round;stroke-linejoin:bevel;stroke-opacity:0"
       id="path3157"
       d="m 216.14093,29.658551 c -1.62377,5.756016 -1.96079,11.749908 -2.08355,17.696366 -2.6e-4,2.338607 0.0673,4.679646 0.27586,7.009719 0.0312,0.348489 0.0713,0.696258 0.11881,1.0429 0.0153,0.111829 0.18233,0.335339 0.0695,0.331408 -0.64006,-0.02231 -1.2536,-0.263014 -1.88041,-0.394521 7e-5,-1.238711 0.13294,-2.453249 0.46244,-3.646043 -0.003,-0.05554 0.78289,-0.0927 0.78552,-0.03716 l 0,0 c 0.52332,1.265302 0.91792,2.535396 0.73065,3.927549 -0.67723,0.210798 -1.3229,0.60634 -2.0317,0.632395 -0.19452,0.0072 -0.14876,-0.361386 -0.1946,-0.550557 -0.0901,-0.372011 -0.15667,-0.749826 -0.2123,-1.128541 -0.35107,-2.390168 -0.44156,-4.810204 -0.47789,-7.222388 0.0927,-6.154118 0.44788,-12.410111 2.56668,-18.251137 0.0417,-0.132297 1.91269,0.457711 1.87097,0.590008 z"
       inkscape:connector-curvature="0" />
    <path
       style="fill:#ffffff;fill-opacity:1;stroke:#ffffff;stroke-linecap:round;stroke-linejoin:bevel;stroke-opacity:0"
       id="path3159"
       d="m 215.14586,28.13408 c 3.44284,-0.20211 8.09484,-1.00042 11.27725,0.667704 0.40968,0.214744 0.72966,0.568694 1.0945,0.853041 0.17463,0.409403 0.46578,0.786927 0.52388,1.22821 0.3056,2.320969 -2.57533,5.201831 -3.98644,6.694343 -3.27047,3.08074 -7.28756,4.865198 -11.75639,5.111519 -2.67095,0.415045 -4.48049,-2.369576 -1.11194,-3.117899 1.03489,-0.09328 2.0125,0.137981 2.98599,0.449861 0.029,0.0087 -0.0936,0.41805 -0.12257,0.409383 l 0,0 c -0.74038,0.14317 -1.4767,0.298376 -2.21568,0.447585 -0.15205,0.04741 -0.63441,0.203908 -0.65063,0.188542 -0.0939,-0.08899 -0.0488,-0.258445 -0.11076,-0.372002 -0.0407,-0.07458 -0.26909,-0.151496 -0.18696,-0.173301 0.27161,-0.07211 0.52563,0.377428 0.81717,0.20734 3.99946,-0.191858 7.59802,-1.812967 10.5761,-4.492624 1.04155,-1.043758 3.64974,-3.530885 3.75489,-5.10716 -2.6747,-1.834978 -7.23181,-1.031049 -10.31366,-1.152655 -0.13025,0.04064 -0.70499,-1.801246 -0.57475,-1.841887 z"
       inkscape:connector-curvature="0" />
    <path
       style="fill:#ffffff;fill-opacity:1;stroke:#ffffff;stroke-linecap:round;stroke-linejoin:bevel;stroke-opacity:0"
       id="path3161"
       d="m 217.72252,40.986862 c 3.39592,0.316386 7.57038,0.912932 9.81015,3.844025 0.34273,0.44851 0.52104,1.001506 0.78155,1.502259 0.0563,0.532067 0.19582,1.061845 0.16886,1.596202 -0.17666,3.502166 -3.62684,5.312185 -6.32979,6.714907 -3.87972,1.746621 -8.08977,2.396482 -12.23499,3.172246 -0.16014,0.03578 -0.3564,0.214786 -0.48044,0.107349 -0.1012,-0.08766 0.19082,-0.211406 0.20684,-0.344339 0.093,-0.771023 -0.36866,-0.881999 0.68968,-0.144485 0.0163,-0.0048 0.0849,0.225617 0.0686,0.230465 l 0,0 c -0.24459,0.108482 -1.18586,0.651928 -1.58335,0.418272 -1.20192,-0.70654 -0.63448,-1.528874 0.22686,-1.99005 3.84608,-1.31242 7.96535,-1.713535 11.72833,-3.310859 2.40878,-1.129746 5.70046,-2.470433 5.55619,-5.625796 -0.15537,-0.320533 -0.24495,-0.682366 -0.4661,-0.961601 -1.98709,-2.508953 -5.82783,-2.776809 -8.71071,-3.283954 -0.13609,-0.04019 0.43227,-1.96483 0.56836,-1.924641 z"
       inkscape:connector-curvature="0" />
    <path
       style="fill:#ffffff;fill-opacity:1;stroke:#ffffff;stroke-linecap:round;stroke-linejoin:bevel;stroke-opacity:0"
       id="path3163"
       d="m 307.42921,142.42842 c -3.9234,-1.22468 -8.08889,-0.31933 -11.74764,1.38044 -0.9408,0.43708 -1.81452,1.00604 -2.72178,1.50905 -3.5322,2.48145 -5.60056,5.27253 -4.74199,9.73217 0.13431,0.69764 0.39432,1.36509 0.59148,2.04764 0.34485,0.58854 0.60019,1.23966 1.03455,1.76563 2.85054,3.45173 8.18745,2.83719 12.1133,2.50345 2.40152,-0.1665 4.65916,-0.8552 6.89448,-1.68384 0.0654,-0.0547 0.83849,0.87069 0.77306,0.92536 l 0,0 c -0.50489,0.41397 -0.95076,0.91282 -1.51466,1.24191 -1.81266,1.05786 -3.35582,1.26773 -5.39172,1.77508 -5.22023,0.4695 -11.57139,1.06153 -15.12716,-3.73738 -0.50261,-0.67832 -0.79541,-1.48938 -1.19311,-2.23408 -0.21553,-0.80943 -0.50843,-1.60213 -0.64657,-2.4283 -0.87945,-5.25936 1.44802,-8.88537 5.58344,-11.90782 0.99119,-0.56637 1.94236,-1.2094 2.97358,-1.69912 4.50272,-2.13831 9.79628,-2.99441 14.46344,-0.92072 0.12237,0.0949 -1.22033,1.82547 -1.3427,1.73053 z"
       inkscape:connector-curvature="0" />
    <path
       style="fill:#ffffff;fill-opacity:1;stroke:#ffffff;stroke-linecap:round;stroke-linejoin:bevel;stroke-opacity:0"
       id="path3165"
       d="m 376.66381,28.763212 c -0.17829,6.237762 -1.07138,12.421826 -2.14664,18.559032 -0.44059,2.45227 -0.98323,4.884214 -1.46212,7.328891 -0.0831,0.42416 -0.16254,0.849056 -0.23779,1.274677 -0.0346,0.195406 0.1004,0.638403 -0.0916,0.588223 -0.70618,-0.184577 -1.25987,-0.737405 -1.8898,-1.106107 0.60664,-1.800291 0.53912,-3.711499 0.70014,-5.57928 -0.008,-0.06337 0.88855,-0.171396 0.89619,-0.108026 l 0,0 c 0.76459,2.045723 1.14727,4.149456 0.50365,6.295214 -0.79813,0.113763 -1.59831,0.468517 -2.39441,0.341287 -0.23731,-0.03793 -8.2e-4,-0.481303 0.0204,-0.720686 0.0398,-0.448456 0.0977,-0.895327 0.16263,-1.340837 0.35829,-2.457119 0.88669,-4.885206 1.29387,-7.333988 1.0322,-6.093926 1.83042,-12.217492 2.43791,-18.368686 0.012,-0.156096 2.21956,0.01419 2.20752,0.170286 z"
       inkscape:connector-curvature="0" />
    <path
       style="fill:#ffffff;fill-opacity:1;stroke:#ffffff;stroke-linecap:round;stroke-linejoin:bevel;stroke-opacity:0"
       id="path3167"
       d="m 379.41279,26.845254 c 4.16152,1.195842 8.19441,3.297285 11.00687,6.676097 0.53878,0.64727 0.95492,1.387469 1.43239,2.081203 1.6314,3.290802 1.51325,7.001603 -0.27252,10.231034 -0.37336,0.675203 -0.86605,1.277167 -1.29907,1.91575 -4.3947,4.719073 -9.328,5.951996 -15.55333,6.364561 -1.04671,0.01292 -7.78028,0.120447 -6.36952,-2.907672 0.1395,-0.299416 0.51606,-0.41246 0.77408,-0.618689 0.2835,-0.109085 0.567,-0.218169 0.8505,-0.327254 0.0484,-0.04519 0.68753,0.638904 0.63916,0.6841 l 0,0 c -0.16225,0.19286 -0.3245,0.38572 -0.48676,0.57858 -0.21313,0.174973 -0.44206,0.481515 -0.42682,-0.296415 6.6e-4,-0.03405 0.43639,0.151142 1.14719,0.268558 1.33903,0.221192 1.8016,0.210148 3.14524,0.283372 5.20901,-0.27816 10.43207,-1.350832 14.24401,-5.193127 0.39162,-0.52089 0.83329,-1.007668 1.17484,-1.56267 1.14244,-1.856384 1.80717,-4.429313 1.20173,-6.580175 -0.17014,-0.604403 -0.4878,-1.157172 -0.7317,-1.735757 -0.42432,-0.596518 -0.79591,-1.234301 -1.27296,-1.789554 -2.63241,-3.063928 -6.35342,-4.940655 -10.07716,-6.316417 -0.12414,-0.06179 0.7497,-1.817314 0.87383,-1.755525 z"
       inkscape:connector-curvature="0" />
    <path
       style="fill:#ffffff;fill-opacity:1;stroke:#ffffff;stroke-linecap:round;stroke-linejoin:bevel;stroke-opacity:0"
       id="path3169"
       d="m 486.3816,88.740784 c -1.3184,6.971348 -2.74398,13.914656 -3.64346,20.955896 -0.15363,2.07385 -0.46044,4.18671 -0.21612,6.27056 0.0178,0.15144 0.24481,0.53535 0.12606,0.43971 -1.2308,-0.99134 0.65107,-0.82528 -1.69439,-0.56453 1.29978,-2.72433 4.16251,-3.29493 6.8985,-3.51644 2.25829,-0.22101 4.32735,0.4925 6.45437,1.05452 0.43522,0.16481 1.78981,-0.78545 2.58028,-1.51436 0.51953,-0.58154 0.95998,-1.20723 1.49717,-1.77168 0.002,-0.0176 0.25142,0.0148 0.24913,0.0324 l 0,0 c 0.39273,1.12902 0.24371,1.63816 -0.33678,2.7116 -1.23911,1.68674 -2.73489,3.04003 -4.98851,2.60142 -1.56301,-0.35282 -3.12188,-0.72137 -4.73431,-0.76922 -2.08014,0.056 -4.45652,0.12132 -5.54636,2.19086 -0.57556,0.31326 -1.0725,0.90187 -1.72669,0.93979 -1.99166,0.11544 -1.33103,-7.58767 -1.25901,-8.37571 0.79807,-7.11568 2.15199,-14.146668 3.99341,-21.068374 0.0271,-0.165937 2.37383,0.21763 2.34671,0.383568 z"
       inkscape:connector-curvature="0" />
    <path
       style="fill:#ffffff;fill-opacity:1;stroke:#ffffff;stroke-linecap:round;stroke-linejoin:bevel;stroke-opacity:0"
       id="path3171"
       d="m 486.5293,98.676002 c 3.23053,-0.0416 6.50423,-0.20034 9.71216,0.27599 0.46957,0.16398 0.40164,-0.001 0.41884,0.33501 0.0502,-0.0292 0.46358,0.68029 0.41341,0.70953 l 0,0 c -0.18808,0.346808 -0.0464,0.204298 -0.46578,0.382758 -3.15521,0.50717 -6.39022,0.29735 -9.57044,0.27598 -0.13995,0.0359 -0.64814,-1.943328 -0.50819,-1.979268 z"
       inkscape:connector-curvature="0" />
    <path
       style="fill:#ffffff;fill-opacity:1;stroke:#ffffff;stroke-linecap:round;stroke-linejoin:bevel;stroke-opacity:0"
       id="path3173"
       d="m 489.66066,85.434771 c 3.3605,0.549668 6.73491,1.013248 10.08712,1.61273 0.37453,0.321363 0.1234,0.128749 0.80178,0.508558 0.02,-0.0084 0.1389,0.274238 0.11891,0.282647 l 0,0 c -0.56762,0.787786 -0.16337,0.457754 -1.37076,0.756354 -3.53776,0.288108 -7.0593,-0.500768 -10.50668,-1.206894 -0.13812,-0.06149 0.73151,-2.014887 0.86963,-1.953395 z"
       inkscape:connector-curvature="0" />
  </g>
</svg>
