<?xml version="1.0" encoding="utf-8"?>
<!-- Generator: Adobe Illustrator 14.0.0, SVG Export Plug-In . SVG Version: 6.00 Build 43363)  -->
<!DOCTYPE svg PUBLIC "-//W3C//DTD SVG 1.1//EN" "http://www.w3.org/Graphics/SVG/1.1/DTD/svg11.dtd">
<svg version="1.1" id="Layer_1" xmlns="http://www.w3.org/2000/svg" xmlns:xlink="http://www.w3.org/1999/xlink" x="0px" y="0px"
	 width="279px" height="270px" viewBox="-4 -3 279 270" enable-background="new -4 -3 279 270" xml:space="preserve">
<rect x="41" y="33" fill="#B5DEFF" stroke="#1FC2FF" stroke-width="2" stroke-linecap="round" width="27" height="198"/>
<rect x="68" y="42" fill="#B5DEFF" stroke="#1FC2FF" stroke-width="2" stroke-linecap="round" width="54" height="189"/>
<rect x="122" y="53.5" fill="#B5DEFF" stroke="#1FC2FF" stroke-width="2" stroke-linecap="round" width="54" height="177.5"/>
<rect x="176" y="78" fill="#B5DEFF" stroke="#1FC2FF" stroke-width="2" stroke-linecap="round" width="54" height="153"/>
<g>
	<defs>
		<rect id="SVGID_1_" x="41" y="24" width="198" height="207"/>
	</defs>
	<clipPath id="SVGID_2_">
		<use xlink:href="#SVGID_1_"  overflow="visible"/>
	</clipPath>
	
		<rect x="230" y="114" clip-path="url(#SVGID_2_)" fill="#B5DEFF" stroke="#1FC2FF" stroke-width="2" stroke-linecap="round" width="54" height="117"/>
	<path clip-path="url(#SVGID_2_)" fill="none" stroke="#FF0000" stroke-width="5" stroke-linecap="round" d="M338,231
		C338,121.785,205.162,33.409,41,33.409"/>
</g>
<line fill="none" stroke="#bbbbbb" stroke-width="2" stroke-linecap="round" x1="41"  y1="24"  x2="41"  y2="231"/>
<line fill="none" stroke="#bbbbbb" stroke-width="2" stroke-linecap="round" x1="140" y1="231" x2="140" y2="240"/>
<line fill="none" stroke="#bbbbbb" stroke-width="2" stroke-linecap="round" x1="239" y1="231" x2="239" y2="240"/>
<line fill="none" stroke="#bbbbbb" stroke-width="2" stroke-linecap="round" x1="239" y1="231" x2="41" y2="231"/>
<line fill="none" stroke="#bbbbbb" stroke-width="2" stroke-linecap="round" x1="41" y1="231" x2="41" y2="240"/>
<line fill="none" stroke="#bbbbbb" stroke-width="2" stroke-linecap="round" x1="32" y1="231" x2="41" y2="231"/>
<line fill="none" stroke="#bbbbbb" stroke-width="2" stroke-linecap="round" x1="32" y1="33" x2="41" y2="33"/>
<text transform="matrix(1 0 0 1 234.2805 258)" fill="#bbbbbb" stroke="#bbbbbb" font-family="'Trebuchet MS'" font-size="18" letter-spacing="-7">1</text>
<text transform="matrix(1 0 0 1 36.2805 258)" fill="#bbbbbb" stroke="#bbbbbb" font-family="'Trebuchet MS'" font-size="18" letter-spacing="-7">0</text>
<text transform="matrix(1 0 0 1 18.2805 42)" fill="#bbbbbb" stroke="#bbbbbb" font-family="'Trebuchet MS'" font-size="18" letter-spacing="-7">4</text>
<text transform="matrix(1 0 0 1 18.2805 240)" fill="#bbbbbb" stroke="#bbbbbb" font-family="'Trebuchet MS'" font-size="18" letter-spacing="-7">0</text>
<line stroke="#bbbbbb" stroke-width="2" x1="41" y1="132" x2="32" y2="132"/>
</svg>
