<?xml version="1.0" encoding="UTF-8" standalone="no"?>
<!-- Created with Inkscape (http://www.inkscape.org/) -->

<svg
   xmlns:dc="http://purl.org/dc/elements/1.1/"
   xmlns:cc="http://creativecommons.org/ns#"
   xmlns:rdf="http://www.w3.org/1999/02/22-rdf-syntax-ns#"
   xmlns:svg="http://www.w3.org/2000/svg"
   xmlns="http://www.w3.org/2000/svg"
   xmlns:sodipodi="http://sodipodi.sourceforge.net/DTD/sodipodi-0.dtd"
   xmlns:inkscape="http://www.inkscape.org/namespaces/inkscape"
   width="501"
   height="61"
   id="svg2"
   version="1.1"
   inkscape:version="0.48.4 r9939"
   sodipodi:docname="serial.svg">
  <defs
     id="defs4" />
  <sodipodi:namedview
     id="base"
     pagecolor="#ffffff"
     bordercolor="#666666"
     borderopacity="1.0"
     inkscape:pageopacity="0.0"
     inkscape:pageshadow="2"
     inkscape:zoom="1.3152344"
     inkscape:cx="265.5"
     inkscape:cy="-249.5"
     inkscape:document-units="px"
     inkscape:current-layer="layer1"
     showgrid="true"
     inkscape:window-width="1050"
     inkscape:window-height="1628"
     inkscape:window-x="-8"
     inkscape:window-y="-8"
     inkscape:window-maximized="1"
     fit-margin-top="0"
     fit-margin-left="0"
     fit-margin-right="0"
     fit-margin-bottom="0">
    <inkscape:grid
       type="xygrid"
       id="grid2985"
       empspacing="5"
       visible="true"
       enabled="true"
       snapvisiblegridlinesonly="true"
       originx="-109.5px"
       originy="-769.5px" />
  </sodipodi:namedview>
  <metadata
     id="metadata7">
    <rdf:RDF>
      <cc:Work
         rdf:about="">
        <dc:format>image/svg+xml</dc:format>
        <dc:type
           rdf:resource="http://purl.org/dc/dcmitype/StillImage" />
      </cc:Work>
    </rdf:RDF>
  </metadata>
  <g
     inkscape:label="Layer 1"
     inkscape:groupmode="layer"
     id="layer1"
     transform="translate(-109.5,-221.86218)">
    <path
       sodipodi:type="arc"
       style="fill:#89a02c;fill-opacity:1;stroke:#ffffff;stroke-linecap:round;stroke-linejoin:bevel;stroke-opacity:0"
       id="path2987"
       sodipodi:cx="140"
       sodipodi:cy="252.36218"
       sodipodi:rx="30"
       sodipodi:ry="30"
       d="m 170,252.36218 c 0,16.56855 -13.43146,30 -30,30 -16.56854,0 -30,-13.43145 -30,-30 0,-16.56854 13.43146,-30 30,-30 16.56854,0 30,13.43146 30,30 z" />
    <path
       sodipodi:type="arc"
       style="fill:#89a02c;fill-opacity:1;stroke:#ffffff;stroke-linecap:round;stroke-linejoin:bevel;stroke-opacity:0"
       id="path2989"
       sodipodi:cx="250"
       sodipodi:cy="252.36218"
       sodipodi:rx="30"
       sodipodi:ry="30"
       d="m 280,252.36218 c 0,16.56855 -13.43146,30 -30,30 -16.56854,0 -30,-13.43145 -30,-30 0,-16.56854 13.43146,-30 30,-30 16.56854,0 30,13.43146 30,30 z" />
    <path
       sodipodi:type="arc"
       style="fill:#89a02c;fill-opacity:1;stroke:#ffffff;stroke-linecap:round;stroke-linejoin:bevel;stroke-opacity:0"
       id="path2993"
       sodipodi:cx="360"
       sodipodi:cy="252.36218"
       sodipodi:rx="30"
       sodipodi:ry="30"
       d="m 390,252.36218 c 0,16.56855 -13.43146,30 -30,30 -16.56854,0 -30,-13.43145 -30,-30 0,-16.56854 13.43146,-30 30,-30 16.56854,0 30,13.43146 30,30 z" />
    <path
       sodipodi:type="arc"
       style="fill:#89a02c;fill-opacity:1;stroke:#ffffff;stroke-linecap:round;stroke-linejoin:bevel;stroke-opacity:0"
       id="path2995"
       sodipodi:cx="470"
       sodipodi:cy="252.36218"
       sodipodi:rx="30"
       sodipodi:ry="30"
       d="m 500,252.36218 c 0,16.56855 -13.43146,30 -30,30 -16.56854,0 -30,-13.43145 -30,-30 0,-16.56854 13.43146,-30 30,-30 16.56854,0 30,13.43146 30,30 z" />
    <path
       sodipodi:type="arc"
       style="fill:#89a02c;fill-opacity:1;stroke:#ffffff;stroke-linecap:round;stroke-linejoin:bevel;stroke-opacity:0"
       id="path2997"
       sodipodi:cx="580"
       sodipodi:cy="252.36218"
       sodipodi:rx="30"
       sodipodi:ry="30"
       d="m 610,252.36218 c 0,16.56855 -13.43146,30 -30,30 -16.56854,0 -30,-13.43145 -30,-30 0,-16.56854 13.43146,-30 30,-30 16.56854,0 30,13.43146 30,30 z" />
    <path
       style="fill:#ff9955;fill-opacity:1;stroke:#ffffff;stroke-linecap:round;stroke-linejoin:bevel;stroke-opacity:0"
       id="path3027"
       d="m 177.4975,252.41695 c 9.96336,-0.68815 19.96999,-0.49798 29.95125,-0.45079 4.30926,0.0221 8.61811,-0.0386 12.92645,-0.11786 0.70244,-0.0129 1.40475,-0.0342 2.10727,-0.0408 0.26568,-0.003 0.82856,-0.25035 0.79697,0.0135 -0.0687,0.57358 -0.64701,0.9572 -0.97051,1.4358 -0.45036,-0.0663 -0.90071,-0.13252 -1.35107,-0.19878 -0.0725,-0.0198 0.2081,-1.04463 0.28056,-1.02479 l 0,0 c 0.50029,-0.0483 1.00058,-0.0965 1.50087,-0.14479 0.39878,0.52457 1.06661,0.92766 1.19634,1.5737 0.057,0.28385 -0.54256,0.21177 -0.82714,0.26494 -0.6887,0.12865 -1.38619,0.20841 -2.08326,0.27873 -4.73973,0.47817 -9.51128,0.57481 -14.27041,0.63982 -9.53089,-0.002 -19.06017,-0.15631 -28.59086,-0.17961 -0.1449,0.0471 -0.81135,-2.00194 -0.66646,-2.04907 z"
       inkscape:connector-curvature="0" />
    <path
       style="fill:#ff9955;fill-opacity:1;stroke:#ffffff;stroke-linecap:round;stroke-linejoin:bevel;stroke-opacity:0"
       id="path3031"
       d="m 215.73918,244.92117 c 3.99264,3.41233 7.83027,7.00535 11.23731,11.00687 0.16029,0.16017 1.90226,2.53462 1.64589,2.73338 -1.75203,1.35829 -1.88195,0.91872 -3.01919,0.006 -0.24883,0.1169 -0.34321,-0.5186 -0.59956,-0.48947 -0.0635,0.007 -0.0512,0.12546 -0.0378,0.18793 0.0125,0.0583 0.16179,0.11514 0.10859,0.14198 -0.33646,0.16977 -0.72203,0.21767 -1.07628,0.34629 -0.55547,0.20169 -1.10112,0.42946 -1.65168,0.64419 -4.47232,1.83556 -8.65303,4.25998 -12.3824,7.33228 -0.25646,0.2543 -0.51883,0.50278 -0.76938,0.7629 -0.54294,0.56366 -0.0147,-0.25105 -0.55354,-0.48699 0.0629,-0.0347 0.55393,0.85532 0.49099,0.89004 l 0,0 c -0.44302,0.0784 -0.91099,0.40154 -1.32907,0.23531 -1.39676,-0.55533 0.10139,-2.40135 0.48355,-2.83312 3.67097,-3.53953 8.09837,-6.05238 12.85149,-7.87362 1.8532,-0.65369 4.40642,-2.01829 6.01582,-0.23643 0.9485,0.86622 1.17836,0.50285 -0.42225,1.90848 -0.0464,0.0407 -0.0463,-0.11555 -0.081,-0.16658 -0.16288,-0.23915 -0.33049,-0.47553 -0.51056,-0.70202 -0.31132,-0.39157 -0.64188,-0.76745 -0.96283,-1.15118 -3.49473,-3.82434 -7.3041,-7.32855 -11.00958,-10.9447 -0.0927,-0.11112 1.47877,-1.42272 1.57151,-1.31159 z"
       inkscape:connector-curvature="0" />
    <path
       style="fill:#ff9955;fill-opacity:1;stroke:#ffffff;stroke-linecap:round;stroke-linejoin:bevel;stroke-opacity:0"
       id="path3033"
       d="m 284.54711,252.57095 c 8.43752,-0.3311 16.88413,-0.33331 25.3255,-0.59696 5.77835,-0.22996 11.55281,-0.5489 17.33214,-0.75539 3.30602,-0.11812 6.47633,-0.19065 9.75914,0.16995 0.27961,0.19702 0.75222,0.26015 0.83881,0.59105 0.70769,2.70429 -3.35824,2.90093 -5.05391,3.04389 -1.50937,-0.12761 -1.54939,0.235 -1.10319,-1.3958 0.0265,-0.0422 0.62283,0.33336 0.59628,0.37553 l 0,0 c -0.37556,-0.49926 -0.9255,-0.48334 -0.0572,-0.51852 0.45537,-0.0732 3.81935,-0.90284 3.86719,-0.87849 0.29083,0.14799 0.41616,0.52069 0.5179,0.83074 0.0286,0.0873 -0.17819,-0.0447 -0.26729,-0.067 -2.78229,-0.086 -5.57253,0.17726 -8.34684,0.34131 -5.78114,0.34185 -11.56387,0.66666 -17.35209,0.86455 -8.50574,0.19147 -17.00877,0.14555 -25.51162,-0.16823 -0.12987,0.0385 -0.67469,-1.79806 -0.54482,-1.83658 z"
       inkscape:connector-curvature="0" />
    <path
       style="fill:#ff9955;fill-opacity:1;stroke:#ffffff;stroke-linecap:round;stroke-linejoin:bevel;stroke-opacity:0"
       id="path3035"
       d="m 325.01769,246.03447 c 4.85254,-0.23038 9.74492,0.34894 14.22906,2.25914 2.95475,1.86987 2.38789,3.64411 0.51203,6.00854 -2.34693,2.92537 -5.87788,4.32695 -9.22491,5.76932 -2.68422,1.11386 -5.39555,2.16527 -8.13887,3.12513 -1.38403,0.48426 -2.74646,1.01146 -4.21487,1.11512 -0.0385,-0.36076 -0.077,-0.72152 -0.11552,-1.08228 0.0242,-0.0226 0.34312,0.31976 0.31891,0.34231 l 0,0 c -0.28866,-0.19192 -0.57732,-0.38385 -0.86598,-0.57577 3.67835,-1.98907 7.94507,-3.11787 11.74707,-4.84959 3.1135,-1.2517 6.50006,-2.37219 8.78761,-4.95775 1.26688,-1.4801 2.23582,-1.85628 0.0464,-3.10928 -4.01117,-1.49482 -8.26634,-1.96927 -12.52295,-2.18784 -0.13132,0.0394 -0.68927,-1.8176 -0.55796,-1.85705 z"
       inkscape:connector-curvature="0" />
    <path
       style="fill:#ff9955;fill-opacity:1;stroke:#ffffff;stroke-linecap:round;stroke-linejoin:bevel;stroke-opacity:0"
       id="path3039"
       d="m 389.72169,252.36063 c 8.24589,-0.32031 16.5001,-0.32428 24.74939,-0.53896 8.22306,-0.16126 16.44863,-0.97664 24.67337,-0.55624 1.15484,0.23884 2.83661,0.61301 2.13448,2.33302 -0.38181,0.93533 -1.95952,1.03132 -2.75879,1.12595 -0.72356,-0.0623 -1.9218,0.16167 -1.80773,-0.85517 -0.004,-0.006 0.0781,-0.0663 0.0824,-0.0605 l 0,0 c 0.37856,-0.25257 0.64766,-0.44067 1.1248,-0.48913 0.44096,-0.11957 0.86303,-0.31346 1.31269,-0.39438 0.32041,-0.0577 1.2366,0.72509 0.44277,0.59595 -0.37958,-0.0618 -0.76376,-0.0908 -1.14563,-0.13623 -7.78991,-0.0909 -15.56623,0.92045 -23.35541,0.97322 -8.32988,0.16058 -16.66566,0.1669 -24.99084,-0.20022 -0.12709,0.0326 -0.58855,-1.76466 -0.46147,-1.79729 z"
       inkscape:connector-curvature="0" />
    <path
       style="fill:#ff9955;fill-opacity:1;stroke:#ffffff;stroke-linecap:round;stroke-linejoin:bevel;stroke-opacity:0"
       id="path3043"
       d="m 434.71886,247.5157 c 3.89269,2.02214 7.89574,4.41179 10.43486,8.08669 0.59664,1.85041 -0.42913,2.26517 -2.12219,1.82611 -0.70401,-0.18257 -1.43291,-0.93189 -2.01097,-1.35558 -2.27747,-0.75968 -5.50608,0.67295 -7.62336,1.43581 -2.11733,0.82753 -4.12966,1.892 -6.05241,3.10008 -0.85914,0.5398 -1.6409,1.18323 -2.50209,1.71312 -4.9e-4,-0.255 -9.9e-4,-0.50999 -10e-4,-0.76499 0.0131,-0.008 0.13091,0.17675 0.11782,0.18508 l 0,0 c -0.49654,-0.0594 -0.99308,-0.1187 -1.48963,-0.17805 1.11399,-2.79219 6.22618,-4.83731 8.75242,-6.01367 3.14719,-1.12349 7.05472,-2.72745 10.24097,-0.92247 0.32104,0.23743 1.57214,1.04411 1.5735,1.05914 0.0151,0.16744 -0.37691,0.066 -0.45667,0.21404 -0.28655,0.53171 -0.0738,1.33526 -0.20547,0.77784 -2.68303,-3.18007 -6.34528,-5.36525 -9.88786,-7.45623 -0.1207,-0.0872 1.11187,-1.79407 1.23256,-1.70692 z"
       inkscape:connector-curvature="0" />
    <path
       style="fill:#ff9955;fill-opacity:1;stroke:#ffffff;stroke-linecap:round;stroke-linejoin:bevel;stroke-opacity:0"
       id="path3051"
       d="m 501.04201,252.47573 c 9.32078,-0.42181 18.6563,-0.37863 27.98363,-0.26931 3.38881,0.0915 6.7839,0.12025 10.16507,0.39284 0.48077,0.0388 0.96149,0.0848 1.43861,0.15544 0.19696,0.0292 0.59096,-0.0552 0.5798,0.14355 -0.0393,0.70019 -0.46613,1.32286 -0.6992,1.98429 -1.31357,0.0718 -3.15457,0.8543 -2.1357,-1.66477 0.0294,-0.0728 1.26587,0.0622 1.31276,0.0667 0.67147,0.17957 0.37642,0.0289 0.89524,0.43167 0.0276,-0.008 0.13911,0.38215 0.11154,0.39004 l 0,0 c -0.2728,0.4394 -0.0814,0.26292 -0.60665,0.49181 -1.38442,0.30128 -1.54365,0.51929 -2.28654,-1.48091 -0.0276,-0.0744 1.92541,-0.11218 1.9985,-0.13936 0.23425,0.60223 0.63297,1.16429 0.70275,1.8067 0.0182,0.16772 -0.33739,0.005 -0.50608,0.004 -0.47816,-0.004 -0.95626,-0.0132 -1.4344,-0.0182 -3.39846,-0.0356 -6.79707,-0.0346 -10.19562,-0.0586 -8.95024,-0.0285 -17.90659,-0.005 -26.85005,-0.39092 -0.13044,0.0335 -0.60411,-1.81132 -0.47366,-1.84481 z"
       inkscape:connector-curvature="0" />
    <path
       style="fill:#ff9955;fill-opacity:1;stroke:#ffffff;stroke-linecap:round;stroke-linejoin:bevel;stroke-opacity:0"
       id="path3053"
       d="m 536.7006,245.80523 c 3.08546,0.16494 7.03132,0.0195 9.74412,1.78725 0.32633,0.21265 0.57571,0.52479 0.86357,0.78719 1.03323,1.74409 -0.0413,3.17365 -0.87652,4.70513 -0.47852,1.6983 -0.82899,2.00659 -2.49955,2.89704 -4.21551,1.73673 -8.7655,2.28297 -13.29047,2.25047 -1.1543,-0.0786 -2.34573,0.01 -3.21438,-0.82578 -0.0588,-0.0414 0.52642,-0.8732 0.58524,-0.83182 l 0,0 c 0.68424,-0.18168 1.40296,-0.0705 2.09756,-0.20063 4.24398,-0.31947 8.49549,-0.85474 12.55659,-2.18667 1.91716,-0.70991 1.16682,-0.20766 1.96135,-1.95621 0.46188,-0.75204 1.40043,-1.66734 1.23582,-2.58324 -2.36753,-1.87057 -5.8758,-1.49236 -8.68689,-1.98713 -0.13121,0.0337 -0.60765,-1.82191 -0.47644,-1.8556 z"
       inkscape:connector-curvature="0" />
    <path
       style="fill:#ffffff;fill-opacity:1;stroke:#ffffff;stroke-linecap:round;stroke-linejoin:bevel;stroke-opacity:0"
       id="path3055"
       d="m 137.88779,239.02567 c -1.21605,6.92848 -2.57514,13.82953 -3.72393,20.77016 -0.31149,2.11248 -0.5013,3.1902 -0.70068,5.21902 -0.0459,0.46685 -0.0783,0.93523 -0.0972,1.40395 -0.008,0.18672 0.20395,0.57803 0.0179,0.56032 -1.69909,-0.16174 -1.23285,-0.56633 -0.86674,-1.23223 0.50188,-0.95356 0.22577,-0.46992 0.83539,-1.44685 0.001,-0.009 0.13407,0.006 0.13296,0.0157 l 0,0 c 0.30889,1.19601 0.2461,0.60099 0.21069,1.78257 -0.23952,1.0203 -0.0988,1.62788 -1.93504,1.0845 -0.57328,-0.16964 0.13136,-7.20594 0.24667,-7.66891 1.02493,-6.98641 2.35197,-13.9236 4.02707,-20.78492 0.021,-0.13102 1.87386,0.16569 1.85288,0.29671 z"
       inkscape:connector-curvature="0" />
    <path
       style="fill:#ffffff;fill-opacity:1;stroke:#ffffff;stroke-linecap:round;stroke-linejoin:bevel;stroke-opacity:0"
       id="path3057"
       d="m 139.52511,237.13566 c 4.62273,5.56984 7.42276,12.29444 9.71108,19.08519 0.55541,2.307 2.59136,8.51153 1.57725,10.89509 -0.1028,0.24164 -0.31704,0.4187 -0.47556,0.62805 -0.5032,-0.094 -1.07117,-0.0177 -1.50958,-0.28194 -0.53977,-0.32533 -0.27429,-1.90373 -0.21729,-2.35272 -0.005,-0.0394 0.55152,-0.1117 0.55663,-0.0723 l 0,0 c 0.21298,0.41782 0.38068,0.78235 0.64161,1.16925 0.0639,0.0947 0.31619,0.20478 0.21848,0.26386 -0.28778,0.174 -0.659,0.13449 -0.9885,0.20173 -0.0904,0.79122 0.0598,-0.82356 -0.0627,-1.78051 -0.3514,-2.74377 -1.11448,-5.41438 -1.93379,-8.04848 -2.26861,-6.55973 -4.98885,-13.00736 -9.11194,-18.64539 -0.0751,-0.11274 1.51928,-1.17453 1.59436,-1.06179 z"
       inkscape:connector-curvature="0" />
    <path
       style="fill:#ffffff;fill-opacity:1;stroke:#ffffff;stroke-linecap:round;stroke-linejoin:bevel;stroke-opacity:0"
       id="path3059"
       d="m 137.72234,254.74319 c 3.96654,-1.41438 8.00897,-2.60173 11.94345,-4.10696 0.80429,-0.3262 0.50664,-0.41523 0.8996,-0.24387 0.0672,-0.0858 1.28041,0.86467 1.2132,0.95046 l 0,0 c -0.39219,0.71522 -0.10079,0.35757 -1.02427,0.93079 -3.87504,1.78567 -7.99122,2.96255 -12.09181,4.10976 -0.11598,0.0665 -1.05615,-1.5737 -0.94017,-1.64018 z"
       inkscape:connector-curvature="0" />
    <path
       style="fill:#ffffff;fill-opacity:1;stroke:#ffffff;stroke-linecap:round;stroke-linejoin:bevel;stroke-opacity:0"
       id="path3061"
       d="m 240.13547,240.02686 c 1.57243,6.30348 1.7175,12.84901 1.88635,19.31008 -0.16545,2.63003 0.34423,5.32915 0.0362,7.95698 -0.0836,0.71338 -1.41452,-0.25105 -2.1193,-0.38964 -0.0195,-1.95844 0.23992,-3.87466 0.70951,-5.7706 -1.9e-4,-0.0304 0.42996,-0.0331 0.43015,-0.003 l 0,0 c 0.49638,1.87986 0.80157,3.78535 0.90227,5.72983 -0.67853,0.1911 -1.34914,0.41294 -2.03559,0.57328 -0.1097,0.0256 -0.1285,-0.58211 -0.1507,-0.86844 -0.0419,-0.54054 -0.073,-1.08188 -0.10208,-1.62325 -0.11984,-2.23175 -0.14384,-3.20145 -0.22932,-5.54115 -0.21356,-6.31809 -0.39276,-12.66558 -1.46501,-18.90994 -0.0328,-0.15114 2.10464,-0.61565 2.13748,-0.46451 z"
       inkscape:connector-curvature="0" />
    <path
       style="fill:#ffffff;fill-opacity:1;stroke:#ffffff;stroke-linecap:round;stroke-linejoin:bevel;stroke-opacity:0"
       id="path3065"
       d="m 243.04469,239.24579 c 3.73012,-1.61963 7.86087,-2.95321 11.97976,-2.92838 0.87938,0.005 1.75261,0.14732 2.62891,0.22098 0.51394,0.2136 1.08147,0.32801 1.54182,0.64079 2.59382,1.76232 0.60002,4.84955 -0.61118,6.73135 -2.64177,3.62948 -6.23498,6.31011 -10.00461,8.66025 -1.56392,0.64314 -3.40333,2.1798 -5.23988,1.93343 -0.25155,-0.0337 -0.4815,-0.16066 -0.72225,-0.24099 -0.0592,-0.0332 0.40972,-0.8705 0.46893,-0.83734 l 0,0 c -0.0969,-0.0345 -0.34167,-0.0141 -0.2907,-0.10346 0.2215,-0.38819 4.43056,-1.74208 4.40322,-2.28838 3.47461,-2.31471 6.80781,-4.90241 9.43366,-8.18143 0.81708,-1.15984 0.81026,-1.05794 1.41673,-2.23913 0.71337,-1.38941 0.45985,-1.58321 -1.10177,-2.04785 -4.32415,-0.57782 -8.70394,0.92893 -12.77983,2.20661 -0.10794,0.0794 -1.23074,-1.44705 -1.12281,-1.52645 z"
       inkscape:connector-curvature="0" />
    <path
       style="fill:#ffffff;fill-opacity:1;stroke:#ffffff;stroke-linecap:round;stroke-linejoin:bevel;stroke-opacity:0"
       id="path3067"
       d="m 246.13269,251.95604 c 4.10633,-2.39431 8.49554,-4.30335 13.17828,-5.18041 0.63888,0.0552 1.33371,-0.10155 1.91663,0.16568 2.78698,1.27766 -0.30412,7.7014 -1.01451,9.42013 -2.05515,4.44746 -5.03644,8.42436 -9.24082,11.04266 -0.75442,0.46982 -1.57125,0.83109 -2.35687,1.24664 -1.77256,0.7263 -3.62749,1.2951 -5.56351,1.25 -0.80546,-0.0188 -1.87208,-0.13743 -1.88775,-0.40014 -0.0296,-0.49607 0.25873,-0.95962 0.38809,-1.43943 0.82445,0.006 0.42077,-0.0504 1.21129,0.1667 0.0495,-0.0143 0.25129,0.68633 0.20175,0.70059 l 0,0 c -0.48681,0.24729 -0.25346,0.13948 -0.69736,0.32912 -0.0853,-0.40325 -0.24579,-0.7977 -0.25593,-1.20975 -0.004,-0.15235 0.30494,-0.002 0.45707,-0.0105 0.39093,-0.0231 0.78495,-0.0255 1.17153,-0.0881 1.61268,-0.26115 1.97614,-0.49463 3.58893,-1.09118 0.7102,-0.37132 1.44751,-0.69487 2.13061,-1.11398 3.91157,-2.39993 6.65422,-6.08261 8.62109,-10.16753 0.84257,-1.91847 1.5458,-3.78655 2.16068,-5.78496 0.0666,-0.21644 0.14093,-0.43051 0.21829,-0.64334 0.0233,-0.0641 0.11438,-0.12597 0.0834,-0.18672 -0.0438,-0.0859 -0.16764,-0.0954 -0.25146,-0.14314 -4.52478,0.85218 -8.7089,2.77642 -12.88873,4.6499 -0.10693,0.0828 -1.27767,-1.42947 -1.17074,-1.51225 z"
       inkscape:connector-curvature="0" />
    <path
       style="fill:#ffffff;fill-opacity:1;stroke:#ffffff;stroke-linecap:round;stroke-linejoin:bevel;stroke-opacity:0"
       id="path3075"
       d="m 362.02048,242.32831 c -5.09145,2.03886 -10.06915,5.03613 -13.37793,9.52519 -0.62189,0.84372 -1.06566,1.80522 -1.59849,2.70783 -0.64597,1.84978 -1.59838,4.43474 0.34793,5.95555 2.36107,1.8449 6.45522,1.22681 9.10822,1.16854 7.10144,-0.69604 13.75653,-3.23016 20.32909,-5.83712 0.0829,-0.059 0.91691,1.11324 0.83403,1.17221 l 0,0 c -1.62564,0.87981 -3.20352,1.85423 -4.8769,2.63943 -5.35613,2.51324 -11.00995,4.14737 -16.93234,4.49933 -2.82564,-0.0845 -5.37516,0.13799 -8.04552,-0.97407 -2.87106,-1.19564 -4.17968,-3.65977 -3.72876,-6.68707 0.15016,-1.00813 0.58476,-1.95282 0.87714,-2.92923 0.58721,-1.016 1.07373,-2.09729 1.76164,-3.048 3.49959,-4.83656 8.85135,-8.09572 14.42776,-9.96228 0.12514,-0.0618 0.99927,1.70788 0.87413,1.76969 z"
       inkscape:connector-curvature="0" />
    <path
       style="fill:#ffffff;fill-opacity:1;stroke:#ffffff;stroke-linecap:round;stroke-linejoin:bevel;stroke-opacity:0"
       id="path3077"
       d="m 465.31606,238.88865 c 0.36099,7.36004 0.35813,14.73184 0.20881,22.09726 -0.0436,1.09948 -0.0753,2.1995 -0.13093,3.29844 -0.0423,0.835 -0.16582,2.94628 -0.32266,3.96026 -0.0312,0.20201 0.0415,0.60836 -0.16219,0.59139 -2.42478,-0.20195 -2.0575,-0.48101 -2.2534,-2.11266 -0.31159,-2.38928 -0.1783,-1.13578 -0.38236,-3.76232 -0.007,-0.0304 0.42349,-0.12619 0.43026,-0.0958 l 0,0 c 1.15123,2.4507 0.66366,1.24956 1.4933,3.59085 0.449,1.51122 0.96266,1.68639 -1.36137,2.19284 -0.16603,0.0362 -0.0402,-0.338 -0.044,-0.50788 -0.0111,-0.49254 -0.003,-0.98533 -7.1e-4,-1.47798 0.008,-1.43497 0.0453,-4.43511 0.0601,-5.70856 0.0562,-7.34558 0.0128,-14.69221 0.15408,-22.03671 -0.002,-0.16341 2.30901,-0.19258 2.31108,-0.0292 z"
       inkscape:connector-curvature="0" />
    <path
       style="fill:#ffffff;fill-opacity:1;stroke:#ffffff;stroke-linecap:round;stroke-linejoin:bevel;stroke-opacity:0"
       id="path3081"
       d="m 458.16802,242.33935 c 3.93124,-3.05538 8.25403,-5.81257 13.13007,-7.06213 0.84499,-0.21654 1.71679,-0.31012 2.57519,-0.46519 0.92421,0.0182 1.86174,-0.10283 2.77264,0.0545 3.96726,0.68539 5.09008,5.06431 5.74805,8.35937 0.61811,4.98947 -0.26745,9.84797 -3.19841,14.01414 -0.73199,1.04048 -1.62189,1.96037 -2.43284,2.94056 -5.18406,5.01709 -11.5114,8.94728 -18.56781,10.62438 -0.55093,-0.01 -2.12985,0.21516 -2.29057,-0.84154 -0.17483,-1.14951 1.66306,-1.46965 2.1904,-1.65705 0.0358,-0.0256 0.39781,0.48038 0.36203,0.50598 l 0,0 c -0.33997,0.21614 -0.64628,0.49777 -1.01991,0.64843 -0.27084,0.1092 -2.16086,-0.59976 -0.16795,-0.42898 6.44858,-2.13099 12.44731,-5.62796 17.44485,-10.22996 0.76842,-0.87553 1.60594,-1.69495 2.30527,-2.6266 2.78027,-3.70389 3.63325,-8.05294 3.13881,-12.59146 -0.65128,-3.58609 -1.16895,-6.50752 -5.4089,-6.67946 -0.77362,0.12955 -1.55923,0.20099 -2.32084,0.38863 -4.71366,1.16134 -8.84917,3.83949 -12.88124,6.42999 -0.0978,0.0975 -1.47668,-1.28614 -1.37884,-1.38364 z"
       inkscape:connector-curvature="0" />
    <path
       style="fill:#ffffff;fill-opacity:1;stroke:#ffffff;stroke-linecap:round;stroke-linejoin:bevel;stroke-opacity:0"
       id="path3083"
       d="m 573.8603,235.95924 c 0.86812,7.24753 0.80213,14.54034 0.31337,21.80859 -0.29033,3.2995 -0.74074,6.58984 -1.42877,9.83119 -0.1228,0.5785 -0.26311,1.15358 -0.42131,1.72342 -0.0833,0.2999 0.007,0.85234 -0.30237,0.88343 -0.76166,0.0764 -1.47195,-0.421 -2.20793,-0.63149 -0.0114,-1.37472 -0.0359,-2.8664 0.54266,-4.14653 1.89906,0.71491 2.46169,1.56871 2.16684,0.1956 -0.0153,-0.0714 -0.11043,-0.17722 -0.0473,-0.21385 0.36984,-0.21453 0.80281,-0.2949 1.19947,-0.4545 0.55377,-0.2228 1.10093,-0.46169 1.6514,-0.69253 3.31763,-1.48042 6.83474,-2.40797 10.25843,-3.59258 0.94841,-0.41185 0.49039,-0.18009 1.16315,-0.56107 0.1921,-0.10879 0.18376,0.59065 0.25141,0.0984 -0.0457,-0.0219 0.26398,-0.66878 0.30972,-0.64688 l 0,0 c 0.21334,-0.0176 0.43947,-0.12772 0.64003,-0.0529 1.77259,0.66167 -0.11038,2.87254 -1.0958,3.1682 -3.31056,1.43276 -6.85452,2.24769 -10.16992,3.67907 -1.46,0.57463 -3.42908,1.67772 -5.07793,1.39382 -0.41879,-0.0721 -0.78033,-0.38004 -1.07348,-0.6877 -0.1762,-0.18491 -0.50601,-0.63002 -0.26639,-0.71846 0.67759,-0.25008 1.44449,0.0114 2.16674,0.0171 0.0691,-0.28059 -0.016,0.0623 -0.0384,0.17841 -0.13725,0.71149 -0.22942,1.43065 -0.31262,2.15008 -0.0253,0.2184 -0.0471,0.43719 -0.0706,0.65578 -0.69561,0.11216 -1.39896,0.48909 -2.08684,0.33649 -0.25408,-0.0564 0.13839,-0.50217 0.19123,-0.75701 0.11428,-0.5512 0.21709,-1.10487 0.30992,-1.66009 0.53395,-3.19353 0.93651,-6.41005 1.19728,-9.63748 0.469,-7.17297 0.49257,-14.34239 0.14894,-21.52378 -0.0101,-0.14773 2.07904,-0.29044 2.08913,-0.14272 z"
       inkscape:connector-curvature="0" />
    <path
       style="fill:#ffffff;fill-opacity:1;stroke:#ffffff;stroke-linecap:round;stroke-linejoin:bevel;stroke-opacity:0"
       id="path3085"
       d="m 573.93348,250.96733 c 4.64951,-1.44937 9.3609,-2.69324 13.89438,-4.4855 2.02162,-1.09634 2.92726,-0.98204 2.08298,-3.12698 -0.0269,-0.0367 0.49229,-0.41733 0.5192,-0.38062 l 0,0 c 3.19745,1.94626 1.10817,4.07908 -1.27649,5.48558 -4.52984,2.07508 -9.34795,3.36962 -14.18354,4.53073 -0.14306,0.0733 -1.17959,-1.94992 -1.03653,-2.02321 z"
       inkscape:connector-curvature="0" />
    <path
       style="fill:#ffffff;fill-opacity:1;stroke:#ffffff;stroke-linecap:round;stroke-linejoin:bevel;stroke-opacity:0"
       id="path3087"
       d="m 572.43678,238.65549 c 5.21872,-1.55211 10.4915,-2.92024 15.75317,-4.31907 1.17113,-0.24439 3.17034,-1.60798 2.54971,1.14497 -0.009,0.038 -0.84219,-0.10753 -1.58422,-0.23082 -0.0377,0.0181 -0.29427,-0.51456 -0.2566,-0.53271 l 0,0 c 0.076,-0.0611 1.12698,-0.9808 1.33199,-0.84403 2.8402,1.89476 0.44899,1.99712 -0.93766,2.56277 -5.23969,1.58302 -10.5326,2.9914 -15.89425,4.1016 -0.13312,0.068 -1.09527,-1.81467 -0.96214,-1.88271 z"
       inkscape:connector-curvature="0" />
  </g>
</svg>
