<?xml version="1.0" encoding="UTF-8" standalone="no"?>
<!-- Created with Inkscape (http://www.inkscape.org/) -->

<svg
   xmlns:dc="http://purl.org/dc/elements/1.1/"
   xmlns:cc="http://creativecommons.org/ns#"
   xmlns:rdf="http://www.w3.org/1999/02/22-rdf-syntax-ns#"
   xmlns:svg="http://www.w3.org/2000/svg"
   xmlns="http://www.w3.org/2000/svg"
   xmlns:sodipodi="http://sodipodi.sourceforge.net/DTD/sodipodi-0.dtd"
   xmlns:inkscape="http://www.inkscape.org/namespaces/inkscape"
   width="570.7561"
   height="281"
   id="svg2"
   version="1.1"
   inkscape:version="0.48.4 r9939"
   sodipodi:docname="terminal-ssh.svg">
  <defs
     id="defs4">
    <inkscape:perspective
       sodipodi:type="inkscape:persp3d"
       inkscape:vp_x="0 : 526.18109 : 1"
       inkscape:vp_y="0 : 1000 : 0"
       inkscape:vp_z="744.09448 : 526.18109 : 1"
       inkscape:persp3d-origin="372.04724 : 350.78739 : 1"
       id="perspective3006" />
  </defs>
  <sodipodi:namedview
     id="base"
     pagecolor="#ffffff"
     bordercolor="#666666"
     borderopacity="1.0"
     inkscape:pageopacity="0.0"
     inkscape:pageshadow="2"
     inkscape:zoom="1.5301741"
     inkscape:cx="278.95898"
     inkscape:cy="-35.85973"
     inkscape:document-units="px"
     inkscape:current-layer="layer1"
     showgrid="true"
     inkscape:snap-global="true"
     fit-margin-top="0"
     fit-margin-left="0"
     fit-margin-right="0"
     fit-margin-bottom="0"
     inkscape:window-width="1048"
     inkscape:window-height="1630"
     inkscape:window-x="0"
     inkscape:window-y="0"
     inkscape:window-maximized="1">
    <inkscape:grid
       type="xygrid"
       id="grid2985"
       empspacing="5"
       visible="true"
       enabled="true"
       snapvisiblegridlinesonly="true"
       originx="-99.5px"
       originy="-679.9065px" />
  </sodipodi:namedview>
  <metadata
     id="metadata7">
    <rdf:RDF>
      <cc:Work
         rdf:about="">
        <dc:format>image/svg+xml</dc:format>
        <dc:type
           rdf:resource="http://purl.org/dc/dcmitype/StillImage" />
        <dc:title />
      </cc:Work>
    </rdf:RDF>
  </metadata>
  <g
     inkscape:label="Layer 1"
     inkscape:groupmode="layer"
     id="layer1"
     transform="translate(-99.5,-91.455681)">
    <path
       style="fill:#ececec;fill-opacity:1;stroke:#000000;stroke-linecap:round;stroke-linejoin:bevel;stroke-opacity:0"
       id="path3984"
       d="m 73.328929,57.121738 c 1.671892,13.857615 3.025074,27.751399 4.465451,41.634373 1.088171,11.146529 2.542162,22.242189 4.539008,33.260949 0.01991,0.0811 -1.127391,0.36269 -1.147301,0.28156 l 0,0 c -0.793467,-1.93492 -1.771179,-3.80417 -2.3804,-5.80476 -0.793909,-2.60708 -1.300148,-5.29564 -1.814865,-7.97188 -1.39996,-7.27899 -1.84971,-12.05233 -2.755176,-19.459005 -1.414569,-13.89974 -2.696526,-27.821402 -3.433676,-41.775511 -0.01172,-0.178683 2.515241,-0.344409 2.526959,-0.165726 z"
       inkscape:connector-curvature="0"
       transform="translate(99.5,91.455681)" />
    <rect
       style="fill:#b3b3b3;fill-opacity:1;stroke:#000000;stroke-width:1.02316201;stroke-linecap:round;stroke-linejoin:bevel;stroke-opacity:1"
       id="rect3022"
       width="198.91992"
       height="279.97684"
       x="470.82458"
       y="91.967262" />
    <path
       style="fill:#ececec;fill-opacity:1;stroke:#000000;stroke-linecap:round;stroke-linejoin:bevel;stroke-opacity:0"
       id="path3914"
       d="m 206.70651,123.95035 c 19.83433,-1.98953 39.73969,-3.24248 59.63121,-4.50632 40.15874,-2.05555 80.45369,-3.11422 120.63207,-0.86838 8.58415,0.47983 17.1473,1.28134 25.72095,1.92201 20.568,2.0055 41.08831,4.85608 61.20372,9.6709 6.43214,1.53959 14.26209,3.73115 20.57007,6.30149 1.45211,0.5917 2.79608,1.42017 4.19412,2.13025 0.35186,0.4774 1.20259,0.85763 1.05559,1.43218 -0.85877,3.35627 -7.1453,0.78229 -8.90826,0.25214 -0.048,-0.0202 0.23793,-0.69917 0.28594,-0.67895 l 0,0 c 1.23991,0.0758 2.48119,0.13173 3.71973,0.22734 0.79238,0.0612 1.62454,-0.0276 2.37181,0.24292 0.47136,0.17065 0.87559,0.57272 1.10796,1.01691 0.16741,0.32003 -0.59684,-0.40688 -0.89526,-0.61032 -8.21352,-2.87326 -16.6175,-4.85773 -25.15906,-6.54759 -20.21137,-3.99862 -40.66807,-6.62627 -61.20168,-8.27019 -8.54591,-0.55766 -17.08464,-1.23928 -25.63774,-1.67297 -39.22672,-1.98902 -78.53755,-1.5384 -117.77965,-0.3389 -20.08469,0.82979 -40.16112,1.96778 -60.25976,2.39495 -0.14831,0.0461 -0.80008,-2.05139 -0.65176,-2.09747 z"
       inkscape:connector-curvature="0" />
    <path
       style="fill:#ececec;fill-opacity:1;stroke:#000000;stroke-width:1.29720949999999990;stroke-linecap:round;stroke-linejoin:bevel;stroke-opacity:0"
       id="path3066"
       d="m 573.87575,167.80798 c 0.2195,1.77704 0.49745,3.53002 0.65848,5.33111 1.01233,11.32314 1.07769,23.02145 1.12886,34.47446 0.0565,12.65587 -0.0737,20.71917 -0.20358,33.43309 -0.13529,13.62287 -0.57311,27.22748 -0.68286,40.85159 -0.0176,2.18674 -0.0199,4.3747 0.007,6.56105 0.0103,0.8131 0.27722,1.69075 0.10602,2.43113 -0.091,0.39356 -0.29877,-0.63436 -0.44816,-0.95154 0.0405,-0.0819 0.62907,1.04609 0.58851,1.12794 l 0,0 c -0.46454,0.15518 -0.98413,0.92402 -1.39364,0.46555 -0.47023,-0.52644 -0.60315,-1.81491 -0.73395,-2.84752 -0.28015,-2.2115 -0.39676,-4.49801 -0.48444,-6.77058 -0.52597,-13.63419 0.0313,-27.33969 0.0733,-40.97881 0.12439,-9.6763 0.31852,-23.5417 0.38216,-33.28058 0.0735,-11.25013 0.17026,-22.60846 -0.45228,-33.81689 -0.0953,-1.71517 -0.27279,-3.40877 -0.40919,-5.11315 -0.0329,-0.25909 1.83007,-1.17594 1.86303,-0.91685 z"
       inkscape:connector-curvature="0" />
    <rect
       style="fill:#de8787;fill-opacity:1;stroke:#000000;stroke-width:1.02578378;stroke-linecap:round;stroke-linejoin:bevel;stroke-opacity:1"
       id="rect3024"
       width="178.91731"
       height="49.989433"
       x="480.8259"
       y="191.96857" />
    <rect
       style="fill:#de8787;fill-opacity:1;stroke:#000000;stroke-width:1.02578378;stroke-linecap:round;stroke-linejoin:bevel;stroke-opacity:1"
       id="rect3026"
       width="178.91731"
       height="49.989433"
       x="480.8259"
       y="263.95337" />
    <text
       xml:space="preserve"
       style="font-size:20px;font-style:normal;font-weight:normal;line-height:125%;letter-spacing:0px;word-spacing:0px;fill:#ffffff;fill-opacity:1;stroke:none;font-family:Liberation Sans;-inkscape-font-specification:Liberation Sans;font-stretch:normal;font-variant:normal;text-anchor:start;text-align:start;writing-mode:lr"
       x="490"
       y="222.36218"
       id="text3041"
       sodipodi:linespacing="125%"><tspan
         sodipodi:role="line"
         id="tspan3043"
         x="490"
         y="222.36218">Shell</tspan></text>
    <text
       xml:space="preserve"
       style="font-size:20px;font-style:normal;font-weight:normal;line-height:125%;letter-spacing:0px;word-spacing:0px;fill:#ffffff;fill-opacity:1;stroke:none;font-family:Liberation Sans;-inkscape-font-specification:Liberation Sans;font-stretch:normal;font-variant:normal;text-anchor:start;text-align:start;writing-mode:lr"
       x="490"
       y="292.36218"
       id="text3045"
       sodipodi:linespacing="125%"><tspan
         sodipodi:role="line"
         id="tspan3047"
         x="490"
         y="292.36218">Operating System</tspan></text>
    <text
       xml:space="preserve"
       style="font-size:20px;font-style:normal;font-weight:normal;line-height:125%;letter-spacing:0px;word-spacing:0px;fill:#d35f5f;fill-opacity:1;stroke:none;font-family:Liberation Sans;-inkscape-font-specification:Liberation Sans;font-stretch:normal;font-variant:normal;text-anchor:start;text-align:start;writing-mode:lr"
       x="134"
       y="294.36218"
       id="text3906"
       sodipodi:linespacing="125%"><tspan
         sodipodi:role="line"
         id="tspan3908"
         x="134"
         y="294.36218">Terminal</tspan><tspan
         sodipodi:role="line"
         x="134"
         y="319.36218"
         id="tspan3927">Emulator</tspan></text>
    <text
       xml:space="preserve"
       style="font-size:20px;font-style:normal;font-weight:normal;line-height:125%;letter-spacing:0px;word-spacing:0px;fill:#ffffff;fill-opacity:1;stroke:none;font-family:Liberation Sans;-inkscape-font-specification:Liberation Sans;font-stretch:normal;font-variant:normal;text-anchor:start;text-align:start;writing-mode:lr"
       x="530"
       y="352.36218"
       id="text3910"
       sodipodi:linespacing="125%"><tspan
         sodipodi:role="line"
         id="tspan3912"
         x="530"
         y="352.36218">Computer</tspan></text>
    <g
       id="g3929"
       transform="translate(0,98)">
      <rect
         y="102.36218"
         x="120"
         height="70"
         width="110"
         id="rect2987"
         style="fill:#cccccc;fill-opacity:1;stroke:#000000;stroke-linecap:round;stroke-linejoin:bevel;stroke-opacity:1" />
      <rect
         y="112.36218"
         x="130"
         height="50"
         width="90"
         id="rect2991"
         style="fill:#000000;fill-opacity:1;stroke:#000000;stroke-linecap:round;stroke-linejoin:bevel;stroke-opacity:1" />
      <text
         sodipodi:linespacing="125%"
         id="text3002"
         y="131.9431"
         x="133.33173"
         style="font-size:20px;font-style:normal;font-weight:normal;line-height:125%;letter-spacing:0px;word-spacing:0px;fill:#ffffff;fill-opacity:1;stroke:none;font-family:Sans"
         xml:space="preserve"><tspan
           y="131.9431"
           x="133.33173"
           id="tspan3004"
           sodipodi:role="line">$_</tspan></text>
      <rect
         transform="translate(99.5,91.455681)"
         y="10.9065"
         x="30.5"
         height="10"
         width="80"
         id="rect3919"
         style="fill:#000080;fill-opacity:1;stroke:#000000;stroke-linecap:round;stroke-linejoin:bevel;stroke-opacity:0" />
      <path
         transform="translate(99.5,91.455681)"
         inkscape:connector-curvature="0"
         id="path3921"
         d="m 20.5,20.9065 c 10,0 100,0 100,0 l 0,-10 0,0"
         style="fill:none;stroke:#000000;stroke-width:1px;stroke-linecap:butt;stroke-linejoin:miter;stroke-opacity:1" />
      <path
         transform="translate(99.5,91.455681)"
         inkscape:connector-curvature="0"
         id="path3923"
         d="m 120.5,20.9065 10,0"
         style="fill:none;stroke:#000000;stroke-width:1px;stroke-linecap:butt;stroke-linejoin:miter;stroke-opacity:1" />
      <path
         transform="translate(99.5,91.455681)"
         inkscape:connector-curvature="0"
         id="path3925"
         d="m 20.5,60.9065 110,0 -20,0 0,20 0,-20 -70,0 0,20"
         style="fill:none;stroke:#000000;stroke-width:1px;stroke-linecap:butt;stroke-linejoin:miter;stroke-opacity:1" />
    </g>
    <rect
       style="fill:#89a02c;fill-opacity:1;stroke:#000000;stroke-width:1.02578378000000000;stroke-linecap:round;stroke-linejoin:bevel;stroke-opacity:1"
       id="rect3024-1"
       width="178.91731"
       height="49.989433"
       x="480.82593"
       y="121.96857" />
    <text
       xml:space="preserve"
       style="font-size:20px;font-style:normal;font-weight:normal;line-height:125%;letter-spacing:0px;word-spacing:0px;fill:#ffffff;fill-opacity:1;stroke:none;font-family:Liberation Sans;-inkscape-font-specification:Liberation Sans;font-stretch:normal;font-variant:normal;text-anchor:start;text-align:start;writing-mode:lr"
       x="490"
       y="152.36218"
       id="text3041-7"
       sodipodi:linespacing="125%"><tspan
         sodipodi:role="line"
         id="tspan3043-4"
         x="490"
         y="152.36218">sshd</tspan></text>
    <path
       sodipodi:type="arc"
       style="fill:#89a02c;fill-opacity:1;stroke:#000000;stroke-linecap:round;stroke-linejoin:bevel;stroke-opacity:1"
       id="path3978"
       sodipodi:cx="80.5"
       sodipodi:cy="50.906502"
       sodipodi:rx="30"
       sodipodi:ry="30"
       d="m 110.5,50.906502 c 0,16.568542 -13.431458,30 -30,30 -16.568542,0 -30,-13.431458 -30,-30 0,-16.568543 13.431458,-30 30,-30 16.568542,0 30,13.431457 30,30 z"
       transform="matrix(1.849305,0,0,0.86014501,26.65941,82.510168)" />
    <text
       xml:space="preserve"
       style="font-size:20px;font-style:normal;font-weight:normal;line-height:125%;letter-spacing:0px;word-spacing:0px;fill:#ffffff;fill-opacity:1;stroke:none;font-family:Liberation Sans;-inkscape-font-specification:Liberation Sans;font-stretch:normal;font-variant:normal;text-anchor:start;text-align:start;writing-mode:lr"
       x="160"
       y="132.36218"
       id="text3980"
       sodipodi:linespacing="125%"><tspan
         sodipodi:role="line"
         id="tspan3982"
         x="160"
         y="132.36218">ssh</tspan></text>
    <g
       id="g4000"
       style="fill:#bc5fd3">
      <path
         transform="translate(99.5,91.455681)"
         d="m 240.5,45.906502 c 0,13.807119 -13.43146,25 -30,25 -16.56854,0 -30,-11.192881 -30,-25 0,-13.807119 13.43146,-25 30,-25 16.56854,0 30,11.192881 30,25 z"
         sodipodi:ry="25"
         sodipodi:rx="30"
         sodipodi:cy="45.906502"
         sodipodi:cx="210.5"
         id="path3986"
         style="fill:#bc5fd3;fill-opacity:1;stroke:#000000;stroke-linecap:round;stroke-linejoin:bevel;stroke-opacity:0"
         sodipodi:type="arc" />
      <path
         transform="translate(99.5,91.455681)"
         d="m 250.5,25.9065 c 0,8.284271 -11.19288,15 -25,15 -13.80712,0 -25,-6.715729 -25,-15 0,-8.284271 11.19288,-15 25,-15 13.80712,0 25,6.715729 25,15 z"
         sodipodi:ry="15"
         sodipodi:rx="25"
         sodipodi:cy="25.9065"
         sodipodi:cx="225.5"
         id="path3988"
         style="fill:#bc5fd3;fill-opacity:1;stroke:#000000;stroke-linecap:round;stroke-linejoin:bevel;stroke-opacity:0"
         sodipodi:type="arc" />
      <path
         transform="translate(99.5,91.455681)"
         d="m 260.5,55.906502 c 0,13.807119 -8.95431,25 -20,25 -11.04569,0 -20,-11.192881 -20,-25 0,-13.807119 8.95431,-25 20,-25 11.04569,0 20,11.192881 20,25 z"
         sodipodi:ry="25"
         sodipodi:rx="20"
         sodipodi:cy="55.906502"
         sodipodi:cx="240.5"
         id="path3990"
         style="fill:#bc5fd3;fill-opacity:1;stroke:#000000;stroke-linecap:round;stroke-linejoin:bevel;stroke-opacity:0"
         sodipodi:type="arc" />
      <path
         transform="translate(99.5,91.455681)"
         d="m 280.5,45.906502 c 0,8.284271 -8.95431,15 -20,15 -11.04569,0 -20,-6.715729 -20,-15 0,-8.284271 8.95431,-15 20,-15 11.04569,0 20,6.715729 20,15 z"
         sodipodi:ry="15"
         sodipodi:rx="20"
         sodipodi:cy="45.906502"
         sodipodi:cx="260.5"
         id="path3992"
         style="fill:#bc5fd3;fill-opacity:1;stroke:#000000;stroke-linecap:round;stroke-linejoin:bevel;stroke-opacity:0"
         sodipodi:type="arc" />
      <path
         transform="translate(99.5,91.455681)"
         d="m 310.5,25.9065 c 0,13.807119 -15.67003,25 -35,25 -19.32997,0 -35,-11.192881 -35,-25 0,-13.807119 15.67003,-25.00000014 35,-25.00000014 19.32997,0 35,11.19288114 35,25.00000014 z"
         sodipodi:ry="25"
         sodipodi:rx="35"
         sodipodi:cy="25.9065"
         sodipodi:cx="275.5"
         id="path3994"
         style="fill:#bc5fd3;fill-opacity:1;stroke:#000000;stroke-linecap:round;stroke-linejoin:bevel;stroke-opacity:0"
         sodipodi:type="arc" />
      <path
         transform="translate(99.5,91.455681)"
         d="m 310.5,60.906502 c 0,16.568542 -13.43146,30 -30,30 -16.56854,0 -30,-13.431458 -30,-30 0,-16.568543 13.43146,-30 30,-30 16.56854,0 30,13.431457 30,30 z"
         sodipodi:ry="30"
         sodipodi:rx="30"
         sodipodi:cy="60.906502"
         sodipodi:cx="280.5"
         id="path3998"
         style="fill:#bc5fd3;fill-opacity:1;stroke:#000000;stroke-linecap:round;stroke-linejoin:bevel;stroke-opacity:0"
         sodipodi:type="arc" />
    </g>
    <text
       xml:space="preserve"
       style="font-size:20px;font-style:normal;font-weight:normal;line-height:125%;letter-spacing:0px;word-spacing:0px;fill:#ffffff;fill-opacity:1;stroke:none;font-family:Liberation Sans;-inkscape-font-specification:Liberation Sans;font-stretch:normal;font-variant:normal;text-anchor:start;text-align:start;writing-mode:lr"
       x="310"
       y="142.36218"
       id="text4008"
       sodipodi:linespacing="125%"><tspan
         sodipodi:role="line"
         id="tspan4010"
         x="310"
         y="142.36218">Internet</tspan></text>
  </g>
</svg>
