<?xml version="1.0" encoding="UTF-8" standalone="no"?>
<!-- Created with Inkscape (http://www.inkscape.org/) -->

<svg
   xmlns:osb="http://www.openswatchbook.org/uri/2009/osb"
   xmlns:dc="http://purl.org/dc/elements/1.1/"
   xmlns:cc="http://creativecommons.org/ns#"
   xmlns:rdf="http://www.w3.org/1999/02/22-rdf-syntax-ns#"
   xmlns:svg="http://www.w3.org/2000/svg"
   xmlns="http://www.w3.org/2000/svg"
   xmlns:sodipodi="http://sodipodi.sourceforge.net/DTD/sodipodi-0.dtd"
   xmlns:inkscape="http://www.inkscape.org/namespaces/inkscape"
   width="1200"
   height="775"
   id="svg4173"
   version="1.1"
   inkscape:version="0.48.4 r9939"
   sodipodi:docname="clusteroverview.svg">
  <defs
     id="defs4175">
    <linearGradient
       id="linearGradient4767"
       osb:paint="solid">
      <stop
         style="stop-color:#ffffff;stop-opacity:1;"
         offset="0"
         id="stop4769" />
    </linearGradient>
    <inkscape:perspective
       sodipodi:type="inkscape:persp3d"
       inkscape:vp_x="0 : 526.18109 : 1"
       inkscape:vp_y="0 : 1000 : 0"
       inkscape:vp_z="744.09448 : 526.18109 : 1"
       inkscape:persp3d-origin="372.04724 : 350.78739 : 1"
       id="perspective4229" />
  </defs>
  <sodipodi:namedview
     id="base"
     pagecolor="#ffffff"
     bordercolor="#666666"
     borderopacity="1.0"
     inkscape:pageopacity="0.0"
     inkscape:pageshadow="2"
     inkscape:zoom="0.62144379"
     inkscape:cx="639.72722"
     inkscape:cy="327.66869"
     inkscape:document-units="px"
     inkscape:current-layer="layer1"
     showgrid="true"
     showguides="false"
     inkscape:window-width="1050"
     inkscape:window-height="1628"
     inkscape:window-x="-8"
     inkscape:window-y="-8"
     inkscape:window-maximized="1"
     fit-margin-top="0"
     fit-margin-left="0"
     fit-margin-right="0"
     fit-margin-bottom="0">
    <inkscape:grid
       type="xygrid"
       id="grid4181"
       empspacing="5"
       visible="true"
       enabled="true"
       snapvisiblegridlinesonly="true"
       originx="-167.30437px"
       originy="-1203.2058px" />
  </sodipodi:namedview>
  <metadata
     id="metadata4178">
    <rdf:RDF>
      <cc:Work
         rdf:about="">
        <dc:format>image/svg+xml</dc:format>
        <dc:type
           rdf:resource="http://purl.org/dc/dcmitype/StillImage" />
        <dc:title />
      </cc:Work>
    </rdf:RDF>
  </metadata>
  <g
     inkscape:label="Layer 1"
     inkscape:groupmode="layer"
     id="layer1"
     transform="translate(-1.5,-18.862199)">
    <g
       id="g4787"
       transform="translate(266.19567,-14.294166)"
       style="fill:#8787de">
      <path
         d="m 280,552.36218 c 0,55.22848 -49.24868,100 -110,100 -60.75132,0 -110,-44.77152 -110,-100 0,-55.22847 49.24868,-100 110,-100 60.75132,0 110,44.77153 110,100 z"
         sodipodi:ry="100"
         sodipodi:rx="110"
         sodipodi:cy="552.36218"
         sodipodi:cx="170"
         id="path4773"
         style="fill:#8787de;fill-opacity:1;stroke:#ffffff;stroke-linecap:round;stroke-linejoin:bevel;stroke-opacity:0"
         sodipodi:type="arc" />
      <path
         d="m 420,497.36218 c 0,46.94421 -40.29437,85 -90,85 -49.70563,0 -90,-38.05579 -90,-85 0,-46.9442 40.29437,-85 90,-85 49.70563,0 90,38.0558 90,85 z"
         sodipodi:ry="85"
         sodipodi:rx="90"
         sodipodi:cy="497.36218"
         sodipodi:cx="330"
         id="path4775"
         style="fill:#8787de;fill-opacity:1;stroke:#ffffff;stroke-linecap:round;stroke-linejoin:bevel;stroke-opacity:0"
         sodipodi:type="arc" />
      <path
         d="m 270,697.36218 c 0,57.9899 -55.96441,105 -125,105 -69.035594,0 -125,-47.0101 -125,-105 0,-57.9899 55.964406,-105 125,-105 69.03559,0 125,47.0101 125,105 z"
         sodipodi:ry="105"
         sodipodi:rx="125"
         sodipodi:cy="697.36218"
         sodipodi:cx="145"
         id="path4777"
         style="fill:#8787de;fill-opacity:1;stroke:#ffffff;stroke-linecap:round;stroke-linejoin:bevel;stroke-opacity:0"
         sodipodi:type="arc" />
      <path
         d="m 220,562.36218 c 0,55.22848 -40.29437,100 -90,100 -49.705627,0 -90,-44.77152 -90,-100 0,-55.22847 40.294373,-100 90,-100 49.70563,0 90,44.77153 90,100 z"
         sodipodi:ry="100"
         sodipodi:rx="90"
         sodipodi:cy="562.36218"
         sodipodi:cx="130"
         id="path4779"
         style="fill:#8787de;fill-opacity:1;stroke:#ffffff;stroke-linecap:round;stroke-linejoin:bevel;stroke-opacity:0"
         sodipodi:type="arc" />
      <path
         d="m 560,672.36218 c 0,66.27417 -80.58875,120 -180,120 -99.41125,0 -180,-53.72583 -180,-120 0,-66.27417 80.58875,-120 180,-120 99.41125,0 180,53.72583 180,120 z"
         sodipodi:ry="120"
         sodipodi:rx="180"
         sodipodi:cy="672.36218"
         sodipodi:cx="380"
         id="path4781"
         style="fill:#8787de;fill-opacity:1;stroke:#ffffff;stroke-linecap:round;stroke-linejoin:bevel;stroke-opacity:0"
         sodipodi:type="arc" />
      <path
         d="m 660,647.36218 c 0,69.0356 -98.49736,125 -220,125 -121.50264,0 -220,-55.9644 -220,-125 0,-69.03559 98.49736,-125 220,-125 121.50264,0 220,55.96441 220,125 z"
         sodipodi:ry="125"
         sodipodi:rx="220"
         sodipodi:cy="647.36218"
         sodipodi:cx="440"
         id="path4783"
         style="fill:#8787de;fill-opacity:1;stroke:#ffffff;stroke-linecap:round;stroke-linejoin:bevel;stroke-opacity:0"
         sodipodi:type="arc" />
      <path
         d="m 680,537.36218 c 0,46.94421 -64.91871,85 -145,85 -80.08129,0 -145,-38.05579 -145,-85 0,-46.9442 64.91871,-85 145,-85 80.08129,0 145,38.0558 145,85 z"
         sodipodi:ry="85"
         sodipodi:rx="145"
         sodipodi:cy="537.36218"
         sodipodi:cx="535"
         id="path4785"
         style="fill:#8787de;fill-opacity:1;stroke:#ffffff;stroke-linecap:round;stroke-linejoin:bevel;stroke-opacity:0"
         sodipodi:type="arc" />
    </g>
    <path
       style="fill:#ff9955;fill-opacity:1;stroke:#ffffff;stroke-linecap:round;stroke-linejoin:bevel;stroke-opacity:0"
       id="path4995"
       d="m 609.90077,367.7144 c -9.41332,9.44721 -16.0338,21.15797 -22.75575,32.55445 -13.8031,24.30741 -27.24341,48.82126 -40.36645,73.50199 -12.53239,23.69113 -23.93616,47.9629 -34.30508,72.67327 -1.77192,4.24648 -3.42908,8.53975 -5.18119,12.79428 -0.10373,0.25187 -2.26945,6.04106 -3.31772,6.26335 -0.55155,0.11695 -1.1122,-0.18583 -1.6683,-0.27874 -0.62826,-1.28544 -0.54198,-2.58532 -0.45373,-3.96094 -0.003,-0.0347 0.48805,-0.0795 0.49122,-0.0447 l 0,0 c 0.29458,0.98965 0.5609,2.0004 1.03322,2.92488 -0.25622,0.12584 -0.48756,0.42722 -0.76865,0.37751 -0.18749,-0.0332 0.27909,-0.27479 0.34976,-0.45159 0.25217,-0.63083 0.4181,-1.293 0.60834,-1.94519 0.35566,-1.21934 0.67408,-2.44933 1.02919,-3.66882 1.95208,-6.7036 1.71618,-5.73888 4.1861,-13.21016 3.2619,-8.90303 4.16332,-11.63098 7.94914,-20.74504 7.48839,-18.0277 16.12993,-35.54787 25.13223,-52.86002 13.09267,-24.80373 26.43508,-49.49112 40.89009,-73.53431 7.18785,-11.53914 14.24113,-23.7098 24.7705,-32.57346 0.15438,-0.16809 2.53146,2.01519 2.37708,2.18328 z"
       inkscape:connector-curvature="0" />
    <path
       style="fill:#ff9955;fill-opacity:1;stroke:#ffffff;stroke-linecap:round;stroke-linejoin:bevel;stroke-opacity:0"
       id="path4997"
       d="m 639.8989,371.6707 c 0.2896,13.12101 0.41621,26.24599 0.39211,39.37001 -0.33418,24.6851 -2.60746,49.28401 -4.21775,73.90488 -1.50585,21.63737 -1.06022,43.32436 -0.74689,64.98939 0.0317,8.40788 0.20446,16.82852 -0.31554,25.22727 -0.10136,1.63702 -0.0414,6.53741 -1.50472,8.20105 0.004,0.0149 -0.20701,0.0702 -0.21092,0.0553 l 0,0 c -0.27581,-0.19948 -0.69647,-0.28427 -0.82743,-0.59846 -0.66428,-1.59367 -0.85312,-6.7302 -0.90186,-7.66226 -0.43824,-8.37927 -0.39434,-16.77317 -0.6036,-25.15879 -0.44669,-21.76951 -1.27594,-43.5641 0.0603,-65.32165 1.49996,-24.56589 3.81256,-49.0834 4.6459,-73.68695 0.31626,-13.13907 0.3144,-26.30452 1.28123,-39.41655 0.007,-0.20853 2.95596,-0.11178 2.94912,0.0967 z"
       inkscape:connector-curvature="0" />
    <path
       style="fill:#ff9955;fill-opacity:1;stroke:#ffffff;stroke-linecap:round;stroke-linejoin:bevel;stroke-opacity:0"
       id="path5001"
       d="m 702.59363,383.93605 c 6.15365,21.95183 14.89837,43.02313 23.61716,64.04589 12.05397,28.88303 25.03445,57.44637 34.9549,87.16683 1.66126,4.97691 3.11315,10.02126 4.66972,15.03189 2.11169,8.12711 3.73441,13.24922 4.89858,21.26232 0.2534,1.7442 0.44742,3.51399 0.36799,5.27471 -0.11274,2.49924 -1.67259,3.45954 -4.36257,1.37656 -0.9811,-0.75971 -1.05064,-2.24833 -1.57596,-3.3725 -1.67973,-4.27961 -2.23448,-8.76694 -2.65819,-13.29848 -0.0158,-0.105 1.46923,-0.32808 1.485,-0.22307 l 0,0 c 1.13925,4.21653 2.24767,8.45252 3.87257,12.51654 0.76676,1.77188 2.42102,3.30992 -0.32939,4.49486 -0.33605,0.14478 0.10597,-0.73529 0.0485,-1.09666 -0.26092,-1.64142 -0.60646,-3.26999 -0.99935,-4.88492 -1.99013,-8.18024 -3.35066,-12.10625 -5.95713,-20.64528 -4.90784,-14.53258 -5.44049,-16.558 -11.13199,-31.43245 -9.05457,-23.66364 -19.27918,-46.85218 -28.88963,-70.28957 -7.77759,-19.61604 -16.09841,-39.63393 -20.22896,-60.42552 -0.33153,-1.66882 -0.51799,-3.36321 -0.77698,-5.04481 -0.0323,-0.21183 2.96344,-0.66816 2.99571,-0.45634 z"
       inkscape:connector-curvature="0" />
    <path
       style="fill:#ff9955;fill-opacity:1;stroke:#ffffff;stroke-linecap:round;stroke-linejoin:bevel;stroke-opacity:0"
       id="path5003"
       d="m 613.07344,384.18205 c -6.577,10.15896 -12.0203,20.99963 -17.51507,31.76573 -11.78615,23.03765 -21.89731,46.86007 -31.90525,70.70595 -10.7194,26.45665 -22.57035,52.52338 -31.67393,79.60833 -1.32884,3.95356 -2.48346,7.96355 -3.7252,11.94533 -4.19688,12.92696 -4.92717,26.75962 -9.56941,39.54052 -0.75329,1.52042 -1.70309,3.81803 -3.22967,0.57749 -0.29634,-0.62905 0.82679,-4.53968 1.00917,-5.25232 0.25759,-0.60966 0.51518,-1.21933 0.77278,-1.82899 0.003,-0.0267 0.38079,0.0178 0.37764,0.0445 l 0,0 c 0.0799,0.65401 0.15989,1.30802 0.23983,1.96203 -0.0173,0.33788 -0.2691,4.89783 -0.39103,5.00045 -2.61703,2.20259 -1.46648,-0.63883 -1.36442,-1.1244 2.82999,-13.28912 4.53918,-26.78453 7.72788,-40.00067 1.12073,-4.07603 2.13244,-8.18361 3.36218,-12.22809 8.34904,-27.45925 20.29561,-53.65155 31.57545,-79.98165 10.48946,-23.76612 20.96625,-47.57008 33.16162,-70.5261 5.79848,-10.8052 11.50848,-21.78336 18.91697,-31.59743 0.0982,-0.15772 2.3287,1.23159 2.23046,1.38931 z"
       inkscape:connector-curvature="0" />
    <path
       style="fill:#ff9955;fill-opacity:1;stroke:#ffffff;stroke-linecap:round;stroke-linejoin:bevel;stroke-opacity:0"
       id="path5005"
       d="m 655.73396,347.79798 c 0.66484,12.39567 0.69984,24.82111 0.8752,37.23165 0.26407,16.94707 0.44154,33.89753 -0.11741,50.8412 -0.44328,13.43711 -0.74256,16.51905 -1.59828,30.02859 -2.39439,30.33148 -5.55974,60.58724 -7.28342,90.96872 -1.20112,20.82738 0.2383,41.65597 0.39073,62.48463 0.0638,8.2119 -0.62899,16.40323 -1.969,24.49982 0.002,0.0184 -0.25827,0.0415 -0.2599,0.0231 l 0,0 c -1.16146,-3.13332 -1.01491,-6.63625 -1.11867,-9.93209 -0.17855,-5.67153 -0.18014,-8.73622 -0.24476,-14.55184 -0.38846,-20.90525 -2.06061,-41.77955 -1.56458,-62.70075 0.43963,-13.79981 0.33717,-14.74493 1.34318,-28.81026 1.48651,-20.78337 3.9178,-41.48803 5.38166,-62.2736 1.80812,-26.82874 2.77142,-53.68379 2.72763,-80.57755 0.17536,-12.41054 0.21037,-24.83598 0.87521,-37.23165 0,-0.18119 2.56241,-0.18119 2.56241,0 z"
       inkscape:connector-curvature="0" />
    <path
       style="fill:#ff9955;fill-opacity:1;stroke:#ffffff;stroke-linecap:round;stroke-linejoin:bevel;stroke-opacity:0"
       id="path5011"
       d="m 691.6023,377.9082 c 4.29729,21.09522 8.99449,42.10553 13.45452,63.16649 6.49021,31.89236 12.56818,63.88808 17.38902,96.08074 1.02933,6.87367 1.93693,13.76503 2.9054,20.64755 2.46504,17.86127 4.04134,35.82266 5.79626,53.76136 0.63513,6.49224 1.46044,15.45303 2.51614,22.12605 0.33663,2.12778 0.84369,4.22508 1.26553,6.33762 0.11755,-0.3999 1.24647,6.45843 3.23172,5.43113 0.12351,-0.0639 -0.26882,-0.2612 -0.18642,-0.37322 0.20739,-0.28193 0.59548,-0.3688 0.88108,-0.57111 0.39571,-0.2803 0.77441,-0.58389 1.16161,-0.87584 0.45665,-0.24548 0.91329,-0.49096 1.36994,-0.73643 0.0625,-0.0725 1.08844,0.81173 1.02591,0.88427 l 0,0 c -0.24604,0.37571 -0.49209,0.75142 -0.73814,1.12713 -1.36037,1.78269 -2.35859,3.25338 -4.97959,2.97381 -3.2079,-0.34217 -4.416,-4.96196 -5.44112,-7.12042 -0.60951,-2.16973 -1.33082,-4.31113 -1.82853,-6.50921 -1.55324,-6.85972 -2.71948,-15.39338 -3.62046,-22.20484 -2.35729,-17.8214 -4.13278,-35.71656 -6.64225,-53.51895 -5.50931,-39.01249 -11.96773,-77.87889 -19.37855,-116.57742 -0.0624,-0.33139 -5.33914,-28.35732 -5.58806,-29.71446 -1.79041,-9.76146 -3.67451,-19.58344 -4.56363,-29.48168 -0.1375,-1.53074 -0.14474,-3.07039 -0.21711,-4.60559 -0.0175,-0.15463 2.16927,-0.4016 2.18673,-0.24698 z"
       inkscape:connector-curvature="0" />
    <rect
       style="fill:#b3b3b3;fill-opacity:1;stroke:#000000;stroke-linecap:round;stroke-linejoin:bevel;stroke-opacity:1"
       id="rect4185"
       width="160"
       height="30"
       x="344.19565"
       y="507.06799" />
    <rect
       style="fill:#b3b3b3;fill-opacity:1;stroke:#000000;stroke-linecap:round;stroke-linejoin:bevel;stroke-opacity:1"
       id="rect4187"
       width="160"
       height="30"
       x="344.19565"
       y="567.06799" />
    <rect
       style="fill:#b3b3b3;fill-opacity:1;stroke:#000000;stroke-linecap:round;stroke-linejoin:bevel;stroke-opacity:1"
       id="rect4189"
       width="160"
       height="30"
       x="344.19565"
       y="627.06799" />
    <rect
       style="fill:#b3b3b3;fill-opacity:1;stroke:#000000;stroke-linecap:round;stroke-linejoin:bevel;stroke-opacity:1"
       id="rect4209"
       width="160"
       height="30"
       x="534.19562"
       y="507.06799" />
    <rect
       style="fill:#b3b3b3;fill-opacity:1;stroke:#000000;stroke-linecap:round;stroke-linejoin:bevel;stroke-opacity:1"
       id="rect4211"
       width="160"
       height="30"
       x="724.19562"
       y="507.06799" />
    <rect
       style="fill:#b3b3b3;fill-opacity:1;stroke:#000000;stroke-linecap:round;stroke-linejoin:bevel;stroke-opacity:1"
       id="rect4213"
       width="160"
       height="30"
       x="534.19562"
       y="567.06799" />
    <rect
       style="fill:#b3b3b3;fill-opacity:1;stroke:#000000;stroke-linecap:round;stroke-linejoin:bevel;stroke-opacity:1"
       id="rect4215"
       width="160"
       height="30"
       x="724.19562"
       y="567.06799" />
    <rect
       style="fill:#b3b3b3;fill-opacity:1;stroke:#000000;stroke-linecap:round;stroke-linejoin:bevel;stroke-opacity:1"
       id="rect4217"
       width="160"
       height="30"
       x="534.19562"
       y="627.06799" />
    <rect
       style="fill:#b3b3b3;fill-opacity:1;stroke:#000000;stroke-linecap:round;stroke-linejoin:bevel;stroke-opacity:1"
       id="rect4219"
       width="160"
       height="30"
       x="724.19562"
       y="627.06799" />
    <rect
       style="fill:#b3b3b3;fill-opacity:1;stroke:#000000;stroke-linecap:round;stroke-linejoin:bevel;stroke-opacity:1"
       id="rect4221"
       width="160"
       height="30"
       x="504.19565"
       y="157.06799" />
    <rect
       style="fill:#b3b3b3;fill-opacity:1;stroke:#000000;stroke-linecap:round;stroke-linejoin:bevel;stroke-opacity:1"
       id="rect4225"
       width="160"
       height="30"
       x="754.19562"
       y="157.06799" />
    <rect
       style="fill:#b3b3b3;fill-opacity:1;stroke:#000000;stroke-linecap:round;stroke-linejoin:bevel;stroke-opacity:1"
       id="rect4227"
       width="160"
       height="30"
       x="754.19562"
       y="217.06799" />
    <g
       id="g4930"
       transform="translate(273.19567,5.7058338)"
       style="fill:#abc837">
      <path
         d="m 610,372.36218 c 0,11.0457 -22.38576,20 -50,20 -27.61424,0 -50,-8.9543 -50,-20 0,-11.04569 22.38576,-20 50,-20 27.61424,0 50,8.95431 50,20 z"
         sodipodi:ry="20"
         sodipodi:rx="50"
         sodipodi:cy="372.36218"
         sodipodi:cx="560"
         id="path4247"
         style="fill:#abc837;fill-opacity:1;stroke:#000000;stroke-linecap:round;stroke-linejoin:bevel;stroke-opacity:0"
         sodipodi:type="arc" />
      <rect
         y="312.36218"
         x="510"
         height="60"
         width="100"
         id="rect4249"
         style="fill:#abc837;fill-opacity:1;stroke:#000000;stroke-linecap:round;stroke-linejoin:bevel;stroke-opacity:0" />
      <path
         d="m 610,312.36218 c 0,11.0457 -22.38576,20 -50,20 -27.61424,0 -50,-8.9543 -50,-20 0,-11.04569 22.38576,-20 50,-20 27.61424,0 50,8.95431 50,20 z"
         sodipodi:ry="20"
         sodipodi:rx="50"
         sodipodi:cy="312.36218"
         sodipodi:cx="560"
         id="path4245"
         style="fill:#abc837;fill-opacity:1;stroke:#ffffff;stroke-linecap:round;stroke-linejoin:bevel;stroke-opacity:1"
         sodipodi:type="arc" />
    </g>
    <text
       xml:space="preserve"
       style="font-size:20px;font-style:normal;font-weight:normal;line-height:125%;letter-spacing:0px;word-spacing:0px;fill:#ffffff;fill-opacity:1;stroke:none;font-family:Sans"
       x="558.39124"
       y="701.7738"
       id="text4796"
       sodipodi:linespacing="125%"><tspan
         sodipodi:role="line"
         id="tspan4798"
         x="558.39124"
         y="701.7738">Infiniband</tspan></text>
    <text
       xml:space="preserve"
       style="font-size:20px;font-style:normal;font-weight:normal;line-height:125%;letter-spacing:0px;word-spacing:0px;fill:#ffffff;fill-opacity:1;stroke:none;font-family:Sans"
       x="374.19565"
       y="527.06799"
       id="text4800"
       sodipodi:linespacing="125%"><tspan
         sodipodi:role="line"
         id="tspan4802"
         x="374.19565"
         y="527.06799">Compute</tspan></text>
    <text
       xml:space="preserve"
       style="font-size:20px;font-style:normal;font-weight:normal;line-height:125%;letter-spacing:0px;word-spacing:0px;fill:#ffffff;fill-opacity:1;stroke:none;font-family:Sans"
       x="754.19562"
       y="587.06799"
       id="text4800-8"
       sodipodi:linespacing="125%"><tspan
         sodipodi:role="line"
         id="tspan4802-8"
         x="754.19562"
         y="587.06799">Compute</tspan></text>
    <text
       xml:space="preserve"
       style="font-size:20px;font-style:normal;font-weight:normal;line-height:125%;letter-spacing:0px;word-spacing:0px;fill:#ffffff;fill-opacity:1;stroke:none;font-family:Sans"
       x="754.19562"
       y="647.06799"
       id="text4800-2"
       sodipodi:linespacing="125%"><tspan
         sodipodi:role="line"
         id="tspan4802-45"
         x="754.19562"
         y="647.06799">Compute</tspan></text>
    <text
       xml:space="preserve"
       style="font-size:20px;font-style:normal;font-weight:normal;line-height:125%;letter-spacing:0px;word-spacing:0px;fill:#ffffff;fill-opacity:1;stroke:none;font-family:Sans"
       x="754.19562"
       y="527.06799"
       id="text4800-5"
       sodipodi:linespacing="125%"><tspan
         sodipodi:role="line"
         id="tspan4802-1"
         x="754.19562"
         y="527.06799">Compute</tspan></text>
    <text
       xml:space="preserve"
       style="font-size:20px;font-style:normal;font-weight:normal;line-height:125%;letter-spacing:0px;word-spacing:0px;fill:#ffffff;fill-opacity:1;stroke:none;font-family:Sans"
       x="564.19562"
       y="587.06799"
       id="text4800-7"
       sodipodi:linespacing="125%"><tspan
         sodipodi:role="line"
         id="tspan4802-11"
         x="564.19562"
         y="587.06799">Compute</tspan></text>
    <text
       xml:space="preserve"
       style="font-size:20px;font-style:normal;font-weight:normal;line-height:125%;letter-spacing:0px;word-spacing:0px;fill:#ffffff;fill-opacity:1;stroke:none;font-family:Sans"
       x="564.19562"
       y="527.06799"
       id="text4800-52"
       sodipodi:linespacing="125%"><tspan
         sodipodi:role="line"
         id="tspan4802-7"
         x="564.19562"
         y="527.06799">Compute</tspan></text>
    <text
       xml:space="preserve"
       style="font-size:20px;font-style:normal;font-weight:normal;line-height:125%;letter-spacing:0px;word-spacing:0px;fill:#ffffff;fill-opacity:1;stroke:none;font-family:Sans"
       x="564.19562"
       y="647.06799"
       id="text4800-6"
       sodipodi:linespacing="125%"><tspan
         sodipodi:role="line"
         id="tspan4802-14"
         x="564.19562"
         y="647.06799">Compute</tspan></text>
    <text
       xml:space="preserve"
       style="font-size:20px;font-style:normal;font-weight:normal;line-height:125%;letter-spacing:0px;word-spacing:0px;fill:#ffffff;fill-opacity:1;stroke:none;font-family:Sans"
       x="374.19565"
       y="647.06799"
       id="text4800-23"
       sodipodi:linespacing="125%"><tspan
         sodipodi:role="line"
         id="tspan4802-2"
         x="374.19565"
         y="647.06799">Compute</tspan></text>
    <text
       xml:space="preserve"
       style="font-size:20px;font-style:normal;font-weight:normal;line-height:125%;letter-spacing:0px;word-spacing:0px;fill:#ffffff;fill-opacity:1;stroke:none;font-family:Sans"
       x="374.19565"
       y="587.06799"
       id="text4800-21"
       sodipodi:linespacing="125%"><tspan
         sodipodi:role="line"
         id="tspan4802-6"
         x="374.19565"
         y="587.06799">Compute</tspan></text>
    <text
       xml:space="preserve"
       style="font-size:20px;font-style:normal;font-weight:normal;line-height:125%;letter-spacing:0px;word-spacing:0px;fill:#ffffff;fill-opacity:1;stroke:none;font-family:Sans"
       x="554.19562"
       y="177.06799"
       id="text4897"
       sodipodi:linespacing="125%"><tspan
         sodipodi:role="line"
         id="tspan4899"
         x="554.19562"
         y="177.06799">Login</tspan></text>
    <text
       xml:space="preserve"
       style="font-size:20px;font-style:normal;font-weight:normal;line-height:125%;letter-spacing:0px;word-spacing:0px;fill:#ffffff;fill-opacity:1;stroke:none;font-family:Sans"
       x="804.19562"
       y="177.06799"
       id="text4922"
       sodipodi:linespacing="125%"><tspan
         sodipodi:role="line"
         id="tspan4924"
         x="804.19562"
         y="177.06799">Admin</tspan></text>
    <text
       xml:space="preserve"
       style="font-size:20px;font-style:normal;font-weight:normal;line-height:125%;letter-spacing:0px;word-spacing:0px;fill:#ffffff;fill-opacity:1;stroke:none;font-family:Sans"
       x="794.19562"
       y="237.06799"
       id="text4926"
       sodipodi:linespacing="125%"><tspan
         sodipodi:role="line"
         id="tspan4928"
         x="794.19562"
         y="237.06799">Storage</tspan></text>
    <rect
       style="fill:#b3b3b3;fill-opacity:1;stroke:#000000;stroke-linecap:round;stroke-linejoin:bevel;stroke-opacity:1"
       id="rect4223-7"
       width="160"
       height="30"
       x="594.19562"
       y="308.06799" />
    <text
       xml:space="preserve"
       style="font-size:20px;font-style:normal;font-weight:normal;line-height:125%;letter-spacing:0px;word-spacing:0px;fill:#ffffff;fill-opacity:1;stroke:none;font-family:Sans"
       x="644.19562"
       y="327.06799"
       id="text4953"
       sodipodi:linespacing="125%"><tspan
         sodipodi:role="line"
         id="tspan4955"
         x="644.19562"
         y="327.06799">Switch</tspan></text>
    <path
       style="fill:#ff7f2a;fill-opacity:1;stroke:#ffffff;stroke-linecap:round;stroke-linejoin:bevel;stroke-opacity:0"
       id="path4959"
       d="m 576.25847,205.84767 c -0.99184,-2.82421 -1.79693,-5.72247 -2.34539,-8.66676 -0.0685,-0.368 -0.53948,-1.06193 -0.16829,-1.1103 1.42678,-0.18593 2.85206,0.38316 4.27809,0.57474 2.39004,9.98563 3.7841,20.18424 5.6209,30.2829 2.93269,15.07866 6.15869,30.10983 10.32094,44.90036 1.44776,3.98452 2.35586,8.38056 4.79189,11.93417 0.10163,0.14825 -0.12023,-0.45238 -0.29993,-0.44812 -0.72633,0.0172 -1.41346,0.33695 -2.12018,0.50542 -0.14402,-1.49237 -0.76476,-2.4778 0.0245,-3.83975 -0.0191,-0.0437 0.59921,-0.31392 0.61831,-0.2702 l 0,0 c 0.29572,0.0808 0.62851,0.0779 0.88715,0.24255 1.46953,0.9352 1.62962,3.2838 1.67939,4.78571 -0.84522,0.57051 -1.5491,1.45355 -2.53568,1.71152 -0.8182,0.21394 -2.30949,-1.63939 -2.57228,-2.01387 -2.417,-3.44422 -3.68389,-7.55932 -5.18516,-11.43254 -4.70018,-14.82231 -7.94412,-30.03448 -10.64736,-45.33972 -1.674,-10.03544 -3.0609,-20.11044 -4.57288,-30.17064 1.20593,-0.67319 2.28664,-1.65151 3.6178,-2.01957 0.3161,-0.0874 0.13489,0.64197 0.20992,0.96123 0.13284,0.56524 0.27847,1.12742 0.41366,1.69211 0.5442,2.27327 1.05639,4.55412 1.49896,6.84963 0.0616,0.24851 -3.45279,1.11964 -3.51439,0.87113 z"
       inkscape:connector-curvature="0" />
    <path
       style="fill:#ff7f2a;fill-opacity:1;stroke:#ffffff;stroke-linecap:round;stroke-linejoin:bevel;stroke-opacity:0"
       id="path4965"
       d="m 731.65277,187.06947 c -9.29015,8.21691 -16.29111,18.57195 -23.41887,28.61853 -11.32162,16.35711 -22.84616,32.60613 -32.72614,49.88998 -2.14036,4.31345 -2.79423,5.3114 -4.36067,9.48534 -0.57587,1.53446 -0.84201,3.47568 -1.61267,4.95031 0.0136,0.11151 -1.56349,0.30331 -1.57706,0.1918 l 0,0 c -0.16125,-0.31446 -0.425,-0.59491 -0.48376,-0.94339 -0.73393,-4.35268 2.83929,-11.56336 4.32027,-15.31523 1.18438,-2.35165 2.29599,-4.74138 3.55314,-7.05495 8.32697,-15.32439 18.8639,-29.31353 28.9083,-43.52045 7.53671,-10.1597 14.91636,-20.93848 25.24144,-28.49743 0.15524,-0.15246 2.31126,2.04304 2.15602,2.19549 z"
       inkscape:connector-curvature="0" />
    <path
       style="fill:#ff7f2a;fill-opacity:1;stroke:#ffffff;stroke-linecap:round;stroke-linejoin:bevel;stroke-opacity:0"
       id="path4969"
       d="m 743.24335,241.83686 c -8.57175,6.69337 -16.33138,14.28108 -23.59834,22.35018 -5.72334,7.13461 -11.89389,14.62987 -14.57384,23.56373 -0.31647,1.05498 -0.45136,2.15611 -0.67705,3.23416 -0.25595,2.02205 0.0779,3.88192 0.74616,5.77164 0.25288,0.7151 0.62213,1.31508 0.68303,2.07045 0.0432,0.10611 -1.4575,0.71758 -1.50073,0.61146 l 0,0 c -2.66843,-1.48505 -3.30029,-6.32619 -3.31483,-8.92749 0.16319,-1.24959 0.21941,-2.51787 0.48956,-3.74877 2.11216,-9.62351 8.42893,-17.69867 14.47498,-25.17858 7.47843,-8.27266 15.45315,-16.22657 24.89966,-22.26518 0.17808,-0.16769 2.54948,2.35072 2.3714,2.5184 z"
       inkscape:connector-curvature="0" />
    <path
       style="fill:#ff9955;fill-opacity:1;stroke:#ffffff;stroke-linecap:round;stroke-linejoin:bevel;stroke-opacity:0"
       id="path4973"
       d="m 481.92781,491.60035 c 8.93159,-18.28871 20.4775,-35.12865 32.04339,-51.81668 13.02471,-18.16075 26.95719,-35.76486 42.8031,-51.56577 2.04363,-2.03782 4.17772,-3.98286 6.26659,-5.9743 4.01156,-4.28673 9.34292,-7.26554 13.14139,-11.76823 1.16559,-1.38169 1.35288,-1.93538 2.18162,-3.50419 0.68735,-1.68955 1.41193,-3.31846 2.37776,-4.86337 0.0139,-0.0577 0.82968,0.13962 0.81573,0.1973 l 0,0 c -0.0114,1.90364 -0.33191,3.69493 -1.01361,5.49098 -0.72976,1.81695 -0.93444,2.59639 -2.05384,4.2528 -3.30062,4.88404 -8.34587,8.34135 -12.17815,12.74668 -17.34817,17.96971 -33.20364,37.29746 -47.81122,57.55924 -11.84663,16.48002 -23.45784,33.12361 -34.39576,50.22515 -0.0693,0.15393 -2.24626,-0.82567 -2.177,-0.97961 z"
       inkscape:connector-curvature="0" />
    <path
       style="fill:#ff9955;fill-opacity:1;stroke:#ffffff;stroke-linecap:round;stroke-linejoin:bevel;stroke-opacity:0"
       id="path4975"
       d="m 670.28889,362.38934 c 2.40988,9.59731 4.57115,19.27656 5.74121,29.11392 0.33307,2.80031 0.53642,5.61453 0.80464,8.4218 1.334,17.20326 -0.0133,34.42311 -1.40146,51.57142 -0.7063,8.47328 -1.57225,16.95675 -3.4798,25.25736 -0.99788,4.34219 -1.61193,6.14371 -2.87362,10.33877 -1.172,3.3117 -2.17499,6.74004 -3.82521,9.86249 -0.4526,0.85638 -1.29088,2.08583 -1.66397,1.90662 -0.62881,-0.30203 -0.89425,-1.07089 -1.34137,-1.60634 -0.007,-0.0458 0.64034,-0.14403 0.64729,-0.0983 l 0,0 c -0.32983,0.11149 -0.64483,0.2852 -0.98949,0.33447 -0.13227,0.0189 0.40988,-1.47062 0.41188,-1.47701 1.02544,-3.26927 2.0267,-6.54638 2.98029,-9.83739 1.03927,-3.70822 1.81841,-6.30341 2.66116,-10.09461 1.8167,-8.17263 2.55966,-16.5143 3.10466,-24.85436 1.1077,-16.95548 2.2423,-33.96427 1.15226,-50.95495 -0.23126,-2.75176 -0.40445,-5.50902 -0.69377,-8.25528 -1.03252,-9.80095 -3.13553,-19.42356 -4.63968,-29.15115 -0.0338,-0.24077 3.37121,-0.71827 3.40498,-0.4775 z"
       inkscape:connector-curvature="0" />
    <path
       style="fill:#ff9955;fill-opacity:1;stroke:#ffffff;stroke-linecap:round;stroke-linejoin:bevel;stroke-opacity:0"
       id="path4981"
       d="m 722.95151,360.10951 c 7.56036,11.70886 14.74484,23.65192 21.44243,35.87347 5.37513,10.10842 9.53539,20.79259 12.14309,31.94321 1.10679,4.73265 1.54288,7.84114 2.31841,12.56138 0.2623,1.72552 0.51074,3.45321 0.78689,5.17658 0.51548,3.21687 0.8731,5.45755 1.67132,8.58408 0.93973,3.68079 2.29009,7.23051 3.59088,10.79295 2.5094,6.47415 3.56468,13.31619 2.30008,20.16629 -0.75343,1.87399 -0.17682,1.19955 -1.49944,2.19952 -0.0385,0.079 -1.15556,-0.4653 -1.11707,-0.54429 l 0,0 c -0.23748,-1.01686 -0.15327,-0.38267 -0.0162,-1.91918 0.31234,-6.46936 -0.50479,-12.85952 -2.92323,-18.91296 -2.98737,-8.12619 -5.48921,-16.36778 -6.45713,-25.01719 -0.85384,-4.78276 -1.24499,-7.42383 -2.45537,-12.22806 -2.73193,-10.84355 -6.93001,-21.23023 -12.12865,-31.12202 -6.56883,-12.22482 -13.7866,-24.08981 -20.15245,-36.42042 -0.0801,-0.17653 2.41632,-1.30988 2.49646,-1.13336 z"
       inkscape:connector-curvature="0" />
    <path
       style="fill:#ff7f2a;fill-opacity:1;stroke:#ffffff;stroke-linecap:round;stroke-linejoin:bevel;stroke-opacity:0"
       id="path4987"
       d="m 837.18887,252.54851 c 0.38228,8.70331 0.37052,17.42007 0.3407,26.13012 -0.2009,5.85347 0.14354,11.76836 -0.53625,17.6004 -0.45225,0.88717 -0.40306,0.9255 -2.55393,-0.67253 -0.28053,-0.20843 0.37672,-2.43858 0.6721,-2.8254 0.15141,-0.0543 0.30283,-0.10852 0.45424,-0.16277 0.01,-0.0238 0.34669,0.11576 0.33682,0.13958 l 0,0 c 0.10976,0.0282 0.21952,0.0564 0.32928,0.0846 0.41594,0.54917 0.46358,1.14552 0.54179,1.82737 0.0987,0.86042 -0.0962,4.50904 -2.47269,1.60911 -0.67979,-5.83204 -0.33535,-11.74693 -0.53624,-17.6004 -0.0298,-8.71005 -0.0416,-17.42681 0.3407,-26.13012 0,-0.21803 3.08348,-0.21803 3.08348,0 z"
       inkscape:connector-curvature="0" />
    <path
       style="fill:#ff7f2a;fill-opacity:1;stroke:#ffffff;stroke-linecap:round;stroke-linejoin:bevel;stroke-opacity:0"
       id="path5013"
       d="m 484.11129,88.970972 c 7.6863,-2.703602 15.67501,-1.07278 22.68595,2.773084 2.11125,1.15812 4.04734,2.61028 6.071,3.91543 12.76966,9.660714 20.78225,23.417574 27.81972,37.476344 1.64073,3.48625 2.52308,5.29304 4.00736,8.66839 0.455,1.03471 2.00349,3.65572 1.55463,5.05552 -0.12046,0.37567 -0.41111,0.67346 -0.61666,1.01019 -0.32441,0.0202 -0.64881,0.0405 -0.97322,0.0607 -0.0589,0.0327 -0.52069,-0.79958 -0.46184,-0.83224 l 0,0 c 0.006,-0.0835 0.0125,-0.16694 0.0187,-0.25041 -0.0485,0.16615 0.024,0.46339 -0.14555,0.49846 -0.14297,0.0296 -1.10283,-1.35659 -1.32859,-1.69367 -0.5234,-0.7815 -1.0351,-1.57125 -1.52383,-2.37488 -1.94008,-3.19018 -2.84349,-4.93636 -4.72146,-8.35226 -7.158,-13.18731 -14.69687,-26.44675 -26.7712,-35.811094 -1.84361,-1.22487 -3.60878,-2.57691 -5.53083,-3.67461 -3.82263,-2.18314 -8.41543,-3.9907 -12.89078,-4.13294 -1.95795,-0.0622 -3.75501,0.27234 -5.66486,0.55496 -0.20442,0.10809 -1.733,-2.782894 -1.52858,-2.890984 z"
       inkscape:connector-curvature="0" />
    <path
       style="fill:#c83737;fill-opacity:1;stroke:#ffffff;stroke-linecap:round;stroke-linejoin:bevel;stroke-opacity:0"
       id="path5015"
       d="m 334.2033,41.468386 c 4.11986,8.607832 6.3269,17.970546 8.5758,27.199345 0.65197,4.04427 2.2575,7.980911 2.55198,12.090178 0.12649,1.76504 -0.036,2.196275 -0.29793,3.922437 -0.19157,0.617921 -0.38314,1.235842 -0.57471,1.853763 -0.008,0.111882 -1.58993,0.0031 -1.58224,-0.108761 l 0,0 c -0.093,-0.585542 -0.18605,-1.171084 -0.27907,-1.756625 -0.84188,-5.150465 -2.59918,-10.089962 -3.80788,-15.158404 -2.361,-8.999942 -4.59031,-18.052307 -7.69212,-26.834703 -0.0854,-0.21964 3.0208,-1.426869 3.10617,-1.20723 z"
       inkscape:connector-curvature="0" />
    <path
       style="fill:#c83737;fill-opacity:1;stroke:#ffffff;stroke-linecap:round;stroke-linejoin:bevel;stroke-opacity:0"
       id="path5017"
       d="m 309.94692,62.234044 c 6.72024,-6.979461 15.33308,-11.797533 23.65158,-16.602162 8.08096,-4.186791 16.05261,-9.087407 24.95421,-11.331884 1.46306,-0.146114 5.13644,-0.275511 4.18284,2.461593 -0.16943,0.486335 -0.84977,0.582066 -1.27466,0.8731 -0.0364,0.05962 -0.87966,-0.455504 -0.84324,-0.51513 l 0,0 c -0.0859,-0.152207 -0.30657,-0.624476 -0.25781,-0.456622 0.0877,0.301782 0.14382,0.652947 0.37627,0.864426 0.39419,0.358618 2.05471,-0.03266 -0.34299,0.336386 -8.45264,2.552458 -15.96752,7.509825 -23.82336,11.407427 -8.24747,4.590854 -16.49285,9.251962 -24.09811,14.869665 -0.13483,0.178526 -2.65956,-1.728274 -2.52473,-1.906799 z"
       inkscape:connector-curvature="0" />
    <path
       style="fill:#c83737;fill-opacity:1;stroke:#ffffff;stroke-linecap:round;stroke-linejoin:bevel;stroke-opacity:0"
       id="path5019"
       d="m 358.67749,56.469451 c 7.25893,5.821504 11.98059,14.009915 16.35129,22.071003 -4.33102,-0.742378 2.79502,2.655524 1.70429,2.859641 -3.1405,0.58771 -2.63024,-1.420775 -2.75641,-3.497876 -0.062,-1.021337 -0.13383,-2.042058 -0.20075,-3.063087 -0.18534,-3.091078 -0.37892,-6.183652 -0.41199,-9.281141 -0.0142,-1.327621 -0.0587,-2.642633 0.29878,-3.92633 1.15837,0.218162 2.40351,0.163485 3.47512,0.654486 0.36187,0.165805 0.26113,0.752222 0.40501,1.123355 1.02479,2.64347 2.31403,5.174093 3.57075,7.711777 0.35385,1.612581 4.21252,6.248859 4.00461,7.680324 -0.048,0.330144 -0.2693,0.610454 -0.40395,0.915681 0.006,0.0101 -0.13665,0.09759 -0.14283,0.08749 l 0,0 c -0.32226,0.06061 -0.64063,0.215676 -0.96679,0.181824 -2.81691,-0.292373 -4.70325,-5.511543 -5.91562,-7.50342 -1.02527,-2.16889 -2.05063,-4.329816 -2.89122,-6.579094 -0.19759,-0.528717 -0.38088,-1.062857 -0.55492,-1.59979 -0.12573,-0.387918 -0.66384,-0.920839 -0.34412,-1.17396 0.81558,-0.645698 1.98893,-0.61037 2.98339,-0.915556 0.29671,4.149814 0.32359,8.323199 0.61063,12.474328 0.0314,1.008698 0.43831,7.530739 -0.45445,8.235157 -2.91355,2.298901 -4.35461,-1.022618 -5.54206,-2.721089 -4.55648,-7.417043 -8.90066,-15.156719 -15.27611,-21.202473 -0.17898,-0.17376 2.27836,-2.705007 2.45735,-2.531247 z"
       inkscape:connector-curvature="0" />
    <path
       style="fill:#c83737;fill-opacity:1;stroke:#ffffff;stroke-linecap:round;stroke-linejoin:bevel;stroke-opacity:0"
       id="path5021"
       d="m 389.034,72.972547 c 2.48084,-4.249863 5.85702,-8.849873 5.59521,-13.996158 -0.28118,-0.291332 -0.52785,-0.862909 -0.95548,-0.238496 -0.063,0.09201 0.16422,0.246745 0.0837,0.323904 -0.26016,0.249329 -0.67483,0.280989 -0.9534,0.509572 -1.07138,0.87915 -1.20702,1.546313 -1.83993,2.815558 -1.06428,4.263563 -2.08309,11.035368 1.21908,14.632544 0.60735,0.661608 1.49165,1.000688 2.23747,1.501032 3.64309,1.31801 7.07942,0.593515 10.81301,0.115156 0.1274,-0.06289 1.01681,1.738839 0.8894,1.801729 l 0,0 c -1.55985,0.582968 -3.04257,1.44354 -4.67957,1.748903 -4.78711,0.89298 -5.49444,0.180758 -9.66256,-1.125393 -0.99704,-0.848463 -2.17485,-1.521833 -2.99114,-2.545389 -3.786,-4.747307 -2.7007,-12.234847 -0.96779,-17.524421 1.07068,-1.85759 1.29375,-2.726993 3.01823,-3.997429 1.77159,-1.305141 4.53726,-1.671683 6.14433,0.143227 0.42119,0.475661 0.54504,1.147839 0.81757,1.721758 0.0286,0.721702 0.15795,1.446448 0.0858,2.165106 -0.49932,4.974405 -3.61556,9.487103 -6.422,13.426312 -0.10448,0.171965 -2.53643,-1.30555 -2.43196,-1.477515 z"
       inkscape:connector-curvature="0" />
    <path
       style="fill:#c83737;fill-opacity:1;stroke:#ffffff;stroke-linecap:round;stroke-linejoin:bevel;stroke-opacity:0"
       id="path5023"
       d="m 322.87258,112.78203 c 4.34476,11.82333 6.40229,24.35956 8.74231,36.69719 0.96568,5.29547 2.09541,10.55655 3.32767,15.79534 0.427,1.81535 1.02973,3.53058 0.79399,5.39372 0.0309,0.11975 -1.66267,0.55599 -1.69351,0.43624 l 0,0 c -1.30386,-1.41873 -2.00371,-3.22184 -2.6326,-5.03064 -1.7993,-5.17511 -2.82502,-10.57932 -3.98754,-15.91834 -2.38463,-12.17497 -4.47696,-24.42858 -7.58641,-36.44574 -0.0656,-0.21468 2.97049,-1.14246 3.03609,-0.92777 z"
       inkscape:connector-curvature="0" />
    <path
       style="fill:#c83737;fill-opacity:1;stroke:#ffffff;stroke-linecap:round;stroke-linejoin:bevel;stroke-opacity:0"
       id="path5025"
       d="m 346.54424,139.28582 c 3.68656,5.46931 5.82457,11.75281 7.11474,18.17367 0.0951,0.27408 0.52627,4.56732 -0.12275,4.74456 -3.07441,0.83961 -3.22924,0.0285 -4.00929,-2.00924 -0.46257,-2.43695 -0.0222,-4.98348 0.053,-7.45144 0.12592,-6.62961 -0.17213,-13.31526 1.15528,-19.8454 2.16733,-5.53253 5.61484,-0.20171 7.28035,2.29461 2.2976,3.51574 4.50453,7.07773 6.33901,10.85822 1.79627,3.93674 3.29968,8.01778 4.50093,12.17506 0.18808,1.43987 0.23893,0.76711 -0.065,2.023 0.0293,0.12122 -1.68497,0.53536 -1.71425,0.41415 l 0,0 c -0.92836,-0.82989 -0.49217,-0.32181 -1.22779,-1.59005 -1.53869,-3.93263 -2.79115,-7.97675 -4.5402,-11.82634 -1.73312,-3.69597 -3.74131,-7.22792 -5.94857,-10.66266 -0.66153,-1.05639 -1.00728,-1.66225 -1.73463,-2.63593 -0.1915,-0.25636 -0.71639,-0.43818 -0.61108,-0.74034 0.11414,-0.32749 0.71573,-0.11573 0.98544,-0.33376 0.12307,-0.0995 0.10848,-0.60184 0.0145,-0.47454 -0.19586,0.26521 -0.23187,0.61727 -0.3478,0.9259 -0.92201,6.47882 -0.7047,13.03796 -1.13751,19.55567 -0.0646,0.80696 -0.12144,1.61458 -0.19382,2.42088 -0.11767,1.31091 -0.57817,2.72577 -0.0747,3.99287 0.68635,1.63363 1.1638,1.13832 -1.58176,2.16738 -0.0669,0.0251 0.0591,-0.13504 0.0573,-0.20643 -0.01,-0.39242 -0.0364,-0.78537 -0.0913,-1.17406 -0.0946,-0.67078 -0.23774,-1.33382 -0.35661,-2.00074 -1.45195,-6.0124 -3.52462,-11.86892 -6.55932,-17.27961 -0.10716,-0.1991 2.70865,-1.71453 2.81581,-1.51543 z"
       inkscape:connector-curvature="0" />
    <path
       style="fill:#c83737;fill-opacity:1;stroke:#ffffff;stroke-linecap:round;stroke-linejoin:bevel;stroke-opacity:0"
       id="path5027"
       d="m 369.86158,114.44941 c 4.29927,9.75704 7.69421,19.88605 10.76423,30.08703 0.94679,4.16664 2.37257,8.43647 2.22998,12.77777 -0.0302,0.91892 -0.29608,1.81484 -0.44412,2.72225 0.005,0.12969 -1.82888,0.20198 -1.83399,0.0723 l 0,0 c -1.37982,-4.82861 -2.61526,-9.69906 -4.3291,-14.42777 -3.28938,-10.03623 -6.70223,-20.03037 -10.04406,-30.0488 -0.0836,-0.25859 3.57343,-1.44136 3.65706,-1.18277 z"
       inkscape:connector-curvature="0" />
    <path
       style="fill:#c83737;fill-opacity:1;stroke:#ffffff;stroke-linecap:round;stroke-linejoin:bevel;stroke-opacity:0"
       id="path5029"
       d="m 368.31846,150.45356 c 3.8415,-5.54314 8.93285,-10.03172 14.73548,-13.41329 2.34132,-0.85142 1.24444,-0.73045 3.24739,-0.64385 0.12521,-0.0588 0.95604,1.71201 0.83083,1.77076 l 0,0 c -0.85955,0.85368 -0.28341,0.34068 -1.85213,1.38766 -5.25924,3.61813 -10.13563,7.70055 -14.33548,12.53446 -0.11566,0.18569 -2.74175,-1.45005 -2.62609,-1.63574 z"
       inkscape:connector-curvature="0" />
    <path
       style="fill:#c83737;fill-opacity:1;stroke:#ffffff;stroke-linecap:round;stroke-linejoin:bevel;stroke-opacity:0"
       id="path5031"
       d="m 385.37138,139.90393 c 4.04282,-2.58834 8.32606,-5.64285 9.94116,-10.39834 0.2644,-0.77851 0.33606,-1.60967 0.50409,-2.4145 0.052,-1.75678 -0.3645,-4.48153 -2.76019,-4.18163 -0.12944,0.0162 -0.1875,0.19027 -0.30687,0.24288 -0.35612,0.15695 -0.73618,0.25269 -1.10428,0.37904 -0.28841,0.23518 -0.62714,0.41952 -0.86524,0.70553 -2.09392,2.51525 -1.33545,8.00513 -1.1648,10.9677 0.23824,1.38504 0.13872,10.05831 3.30207,8.595 2.27325,-0.4259 1.12752,-0.0958 3.42249,-1.03986 0.0993,-0.0864 1.32084,1.31787 1.22154,1.40425 l 0,0 c -2.30833,1.9136 -1.06211,1.10018 -3.73768,2.44179 -1.00527,0.0269 -2.02936,0.27608 -3.01581,0.0806 -4.62624,-0.91669 -4.33385,-7.97397 -4.75131,-11.34062 -0.15938,-4.24879 -0.68658,-9.80159 2.45507,-13.23619 0.44133,-0.48248 1.02644,-0.81033 1.53967,-1.21549 0.57921,-0.21732 1.1255,-0.56245 1.73763,-0.65195 3.4489,-0.50431 6.28717,1.16253 6.94291,4.71049 0.16312,0.88264 0.0593,1.7942 0.0889,2.6913 -0.22698,0.98969 -0.33796,2.01338 -0.68095,2.96908 -1.89036,5.26726 -6.44004,8.8593 -11.30812,11.22939 -0.13707,0.10326 -1.59734,-1.83523 -1.46026,-1.93849 z"
       inkscape:connector-curvature="0" />
    <path
       style="fill:#c83737;fill-opacity:1;stroke:#ffffff;stroke-linecap:round;stroke-linejoin:bevel;stroke-opacity:0"
       id="path5033"
       d="m 403.63087,134.4049 c 1.48316,1.74549 3.17716,5.22844 5.57769,5.84294 0.21788,0.0558 -0.39264,-0.26612 -0.48136,-0.47278 -0.0767,-0.17861 0.0189,-0.3883 0.0283,-0.58244 1.339,-5.22446 0.63575,-10.6737 1.4611,-15.96176 1.04575,-2.40643 1.03801,-2.35615 3.21956,-1.0985 0.0524,0.0643 -0.85735,0.80487 -0.90972,0.74055 l 0,0 c 1.27195,0.0142 0.88221,-0.99659 1.01755,0.49826 0.36079,5.9164 0.45512,12.11563 -1.70859,17.71516 -0.65561,0.66938 -1.0841,1.69405 -1.96684,2.00813 -4.36668,1.55368 -7.20426,-4.73169 -8.90136,-7.45106 -0.0876,-0.18835 2.57607,-1.42685 2.66365,-1.2385 z"
       inkscape:connector-curvature="0" />
    <path
       style="fill:#c83737;fill-opacity:1;stroke:#ffffff;stroke-linecap:round;stroke-linejoin:bevel;stroke-opacity:0"
       id="path5035"
       d="m 419.11628,120.50354 c 4.3045,2.8711 8.29207,6.35704 11.41213,10.50553 0.48916,0.86977 1.99563,3.36084 -2.95508,0.11479 -0.59562,-0.39053 -0.27277,-1.39942 -0.35721,-2.10663 -0.31368,-2.62739 -0.21079,-5.18644 -0.003,-7.81324 0.4318,-2.70693 0.99007,-5.31765 4.40212,-5.09836 0.46617,0.03 2.38622,1.2382 2.77413,1.47013 3.40677,2.07683 6.34027,4.26832 8.2803,7.82226 0.42504,2.10301 0.45379,1.06608 -0.0622,3.11134 0.008,0.083 -1.16487,0.20315 -1.17337,0.12018 l 0,0 c -0.91261,-1.19498 -0.45217,-0.59137 -1.38128,-1.81084 -2.25388,-2.64743 -4.80273,-4.96328 -7.79674,-6.76375 -1.98727,-1.23515 -1.90832,-0.49465 -0.68997,-1.48147 0.0701,-0.0568 -0.22289,-0.0567 -0.26993,0.0203 -0.42615,0.6976 -0.55851,2.18206 -0.66526,2.8308 -0.1797,2.41052 -0.28882,4.78557 -0.11245,7.20196 0.0466,0.63889 0.50706,1.34289 0.20971,1.91029 -1.71671,3.27585 -1.67789,3.14801 -2.82106,2.26942 -3.49831,-3.45829 -7.01125,-6.92327 -10.95179,-9.88559 -0.17092,-0.15282 1.9903,-2.56992 2.16122,-2.4171 z"
       inkscape:connector-curvature="0" />
    <path
       style="fill:#c83737;fill-opacity:1;stroke:#ffffff;stroke-linecap:round;stroke-linejoin:bevel;stroke-opacity:0"
       id="path5037"
       d="m 446.32108,118.51583 c 0.64893,-2.45646 1.30967,-4.91311 1.84277,-7.39819 0.297,-1.38451 0.77361,-3.00409 0.42884,-4.42669 0.004,0.21391 0.008,0.42781 0.0122,0.64171 0.24903,0.13649 0.73522,0.12572 0.7471,0.40946 0.0119,0.28499 -0.49916,0.28555 -0.70995,0.47771 -0.28562,0.26036 -0.55182,0.54835 -0.76745,0.86908 -0.76573,1.13898 -0.80331,1.69226 -1.20555,3.0494 -0.19986,2.02864 -1.09673,5.64042 0.32519,7.43608 0.40681,0.51375 1.03875,0.36957 1.56845,0.36211 1.46339,-0.18318 2.8552,-0.56577 4.26801,-0.9741 0.0755,-0.061 0.93805,1.00725 0.86252,1.06824 l 0,0 c -2.00882,1.76112 -3.5185,2.82026 -6.37062,2.692 -0.68665,-0.20014 -1.44413,-0.23667 -2.05994,-0.60043 -3.58282,-2.11631 -2.41851,-7.63144 -1.88625,-10.87708 0.2645,-0.75712 0.45795,-1.54294 0.79349,-2.27137 1.02885,-2.2335 3.38508,-4.89474 6.22325,-4.01961 0.53771,0.1658 0.77521,0.81579 1.16281,1.22368 0.8264,4.32049 -1.44773,8.99917 -2.69533,13.06149 -0.0512,0.17958 -2.59071,-0.54391 -2.53955,-0.72349 z"
       inkscape:connector-curvature="0" />
    <path
       style="fill:#c83737;fill-opacity:1;stroke:#ffffff;stroke-linecap:round;stroke-linejoin:bevel;stroke-opacity:0"
       id="path5039"
       d="m 453.69627,81.242275 c 7.47215,8.987131 12.28164,19.772645 16.74405,30.472545 0.98595,3.212 4.45005,10.84081 2.53042,14.30886 -0.27142,0.49035 -0.85529,0.72451 -1.28293,1.08676 -0.0123,0.0335 -0.48604,-0.14039 -0.47374,-0.17389 l 0,0 c -0.67188,-1.671 -1.03159,-3.42681 -1.66406,-5.12064 -0.95363,-2.55397 -2.53303,-6.10952 -3.57082,-8.51416 -4.56291,-10.25039 -9.16974,-20.563454 -15.51373,-29.866623 -0.15506,-0.228453 3.07575,-2.421305 3.23081,-2.192852 z"
       inkscape:connector-curvature="0" />
    <path
       style="fill:#c83737;fill-opacity:1;stroke:#ffffff;stroke-linecap:round;stroke-linejoin:bevel;stroke-opacity:0"
       id="path5041"
       d="m 450.50899,99.146416 c 5.23137,-3.89241 10.26242,-8.13202 16.00646,-11.259456 0.51482,-0.106162 1.02964,-0.212323 1.54445,-0.318485 0.0795,-0.0822 1.24205,1.042387 1.16253,1.124587 l 0,0 c -0.18496,0.43197 -0.36992,0.86393 -0.55489,1.29589 -4.53561,4.739754 -10.11491,8.301374 -15.57645,11.877588 -0.19235,0.18258 -2.77444,-2.537544 -2.5821,-2.720124 z"
       inkscape:connector-curvature="0" />
  </g>
</svg>
