<?xml version="1.0" encoding="utf-8"?>
<!-- Generator: Adobe Illustrator 14.0.0, SVG Export Plug-In . SVG Version: 6.00 Build 43363)  -->
<!DOCTYPE svg PUBLIC "-//W3C//DTD SVG 1.1//EN" "http://www.w3.org/Graphics/SVG/1.1/DTD/svg11.dtd">
<svg version="1.1" id="Layer_1" xmlns="http://www.w3.org/2000/svg" xmlns:xlink="http://www.w3.org/1999/xlink" x="0px" y="0px"
	 width="558px" height="258px" viewBox="0 0 558 258" enable-background="new 0 0 558 258" xml:space="preserve">
<rect x="36" y="33" fill="#cccccc" fill-opacity="0.4" stroke="#cccccc" width="504" height="90"/>
<rect x="36" y="159" fill="#cccccc" fill-opacity="0.4" stroke="#cccccc" width="504" height="81"/>
<text transform="matrix(1 0 0 1 9 24)" fill="#cccccc" stroke="#cccccc" font-family="'Trebuchet MS'" font-size="26.502">Node 0</text>
<text transform="matrix(1 0 0 1 9 150)" fill="#cccccc" stroke="#cccccc" font-family="'Trebuchet MS'" font-size="26.502">Node 1</text>
<g>
	<line fill="none" stroke="#39B54A" stroke-width="5" stroke-linecap="round" x1="54" y1="51" x2="522" y2="51"/>
	<polygon fill="#39B54A" stroke="#39B54A" stroke-width="3" stroke-linecap="round" points="514.521,40.973 531,50.486 514.521,60 	
		"/>
</g>
<line fill="none" stroke="#39B54A" stroke-width="5" stroke-linecap="round" x1="90" y1="78" x2="432" y2="78"/>
<polygon fill="#39B54A" stroke="#39B54A" stroke-width="3" points="298.521,67.973 315,77.486 298.521,87 "/>
<line fill="none" stroke="#4798ED" stroke-width="5" stroke-linecap="round" x1="81" y1="51" x2="90" y2="78"/>
<line fill="none" stroke="#39B54A" stroke-width="5" stroke-linecap="round" x1="117" y1="105" x2="477" y2="105"/>
<polygon fill="#39B54A" stroke="#39B54A" stroke-width="3" points="298.521,94.973 315,104.486 298.521,114 "/>
<line fill="none" stroke="#4798ED" stroke-width="5" stroke-linecap="round" x1="108" y1="51" x2="117" y2="105"/>
<line fill="none" stroke="#4798ED" stroke-width="5" stroke-linecap="round" x1="153" y1="105" x2="180" y2="78"/>
<line fill="none" stroke="#4798ED" stroke-width="5" stroke-linecap="round" x1="261" y1="51" x2="288" y2="78"/>
<line fill="none" stroke="#4798ED" stroke-width="5" stroke-linecap="round" x1="432" y1="78" x2="450" y2="51"/>
<line fill="none" stroke="#4798ED" stroke-width="5" stroke-linecap="round" x1="477" y1="105" x2="495" y2="51"/>
<circle fill="none" stroke="#ED1C24" stroke-width="10" stroke-linecap="round" cx="289.933" cy="198.819" r="32.215"/>
<line fill="none" stroke="#ED1C24" stroke-width="10" stroke-linecap="round" x1="312" y1="175.36" x2="266.567" y2="220.793"/>
</svg>
