<?xml version="1.0" encoding="UTF-8" standalone="no"?>
<!-- Created with Inkscape (http://www.inkscape.org/) -->

<svg
   xmlns:dc="http://purl.org/dc/elements/1.1/"
   xmlns:cc="http://creativecommons.org/ns#"
   xmlns:rdf="http://www.w3.org/1999/02/22-rdf-syntax-ns#"
   xmlns:svg="http://www.w3.org/2000/svg"
   xmlns="http://www.w3.org/2000/svg"
   xmlns:sodipodi="http://sodipodi.sourceforge.net/DTD/sodipodi-0.dtd"
   xmlns:inkscape="http://www.inkscape.org/namespaces/inkscape"
   width="570.7561"
   height="281"
   id="svg2"
   version="1.1"
   inkscape:version="0.48.4 r9939"
   sodipodi:docname="terminal-local.svg">
  <defs
     id="defs4">
    <inkscape:perspective
       sodipodi:type="inkscape:persp3d"
       inkscape:vp_x="0 : 526.18109 : 1"
       inkscape:vp_y="0 : 1000 : 0"
       inkscape:vp_z="744.09448 : 526.18109 : 1"
       inkscape:persp3d-origin="372.04724 : 350.78739 : 1"
       id="perspective3006" />
  </defs>
  <sodipodi:namedview
     id="base"
     pagecolor="#ffffff"
     bordercolor="#666666"
     borderopacity="1.0"
     inkscape:pageopacity="0.0"
     inkscape:pageshadow="2"
     inkscape:zoom="1.36"
     inkscape:cx="275.4641"
     inkscape:cy="127.88655"
     inkscape:document-units="px"
     inkscape:current-layer="layer1"
     showgrid="true"
     inkscape:snap-global="true"
     fit-margin-top="0"
     fit-margin-left="0"
     fit-margin-right="0"
     fit-margin-bottom="0"
     inkscape:window-width="1048"
     inkscape:window-height="1630"
     inkscape:window-x="0"
     inkscape:window-y="0"
     inkscape:window-maximized="1">
    <inkscape:grid
       type="xygrid"
       id="grid2985"
       empspacing="5"
       visible="true"
       enabled="true"
       snapvisiblegridlinesonly="true"
       originx="-99.5px"
       originy="-679.9065px" />
  </sodipodi:namedview>
  <metadata
     id="metadata7">
    <rdf:RDF>
      <cc:Work
         rdf:about="">
        <dc:format>image/svg+xml</dc:format>
        <dc:type
           rdf:resource="http://purl.org/dc/dcmitype/StillImage" />
        <dc:title />
      </cc:Work>
    </rdf:RDF>
  </metadata>
  <g
     inkscape:label="Layer 1"
     inkscape:groupmode="layer"
     id="layer1"
     transform="translate(-99.5,-91.455681)">
    <rect
       style="fill:#b3b3b3;fill-opacity:1;stroke:#000000;stroke-width:1.02316201;stroke-linecap:round;stroke-linejoin:bevel;stroke-opacity:1"
       id="rect3022"
       width="198.91992"
       height="279.97684"
       x="470.82458"
       y="91.967262" />
    <path
       style="fill:#ececec;fill-opacity:1;stroke:#000000;stroke-linecap:round;stroke-linejoin:bevel;stroke-opacity:0"
       id="path3914"
       d="m 206.70651,123.95035 c 19.83433,-1.98953 39.73969,-3.24248 59.63121,-4.50632 40.15874,-2.05555 80.45369,-3.11422 120.63207,-0.86838 8.58415,0.47983 17.1473,1.28134 25.72095,1.92201 20.568,2.0055 41.08831,4.85608 61.20372,9.6709 6.43214,1.53959 14.26209,3.73115 20.57007,6.30149 1.45211,0.5917 2.79608,1.42017 4.19412,2.13025 0.35186,0.4774 1.20259,0.85763 1.05559,1.43218 -0.85877,3.35627 -7.1453,0.78229 -8.90826,0.25214 -0.048,-0.0202 0.23793,-0.69917 0.28594,-0.67895 l 0,0 c 1.23991,0.0758 2.48119,0.13173 3.71973,0.22734 0.79238,0.0612 1.62454,-0.0276 2.37181,0.24292 0.47136,0.17065 0.87559,0.57272 1.10796,1.01691 0.16741,0.32003 -0.59684,-0.40688 -0.89526,-0.61032 -8.21352,-2.87326 -16.6175,-4.85773 -25.15906,-6.54759 -20.21137,-3.99862 -40.66807,-6.62627 -61.20168,-8.27019 -8.54591,-0.55766 -17.08464,-1.23928 -25.63774,-1.67297 -39.22672,-1.98902 -78.53755,-1.5384 -117.77965,-0.3389 -20.08469,0.82979 -40.16112,1.96778 -60.25976,2.39495 -0.14831,0.0461 -0.80008,-2.05139 -0.65176,-2.09747 z"
       inkscape:connector-curvature="0" />
    <path
       style="fill:#ececec;fill-opacity:1;stroke:#000000;stroke-linecap:round;stroke-linejoin:bevel;stroke-opacity:0"
       id="path3066"
       d="m 573.8783,133.73638 c 0.2373,0.97681 0.5378,1.9404 0.71188,2.93043 1.09444,6.22416 1.16509,12.65455 1.22041,18.9501 0.0611,6.95674 -0.0797,11.38902 -0.22008,18.37767 -0.14627,7.48829 -0.61959,14.96654 -0.73825,22.45551 -0.019,1.20202 -0.0215,2.40471 0.008,3.60651 0.0111,0.44695 0.29971,0.92938 0.11462,1.33636 -0.0984,0.21633 -0.323,-0.3487 -0.4845,-0.52305 0.0438,-0.045 0.68008,0.57502 0.63624,0.62001 l 0,0 c -0.50222,0.0853 -1.06395,0.50792 -1.50667,0.25591 -0.50836,-0.28938 -0.65206,-0.99763 -0.79347,-1.56524 -0.30287,-1.21563 -0.42894,-2.47249 -0.52373,-3.72169 -0.56863,-7.49451 0.0338,-15.02822 0.0792,-22.52544 0.13448,-5.31892 0.34435,-12.94052 0.41316,-18.29384 0.0795,-6.18403 0.18406,-12.42753 -0.48896,-18.58864 -0.10299,-0.9428 -0.29492,-1.87375 -0.44238,-2.81062 -0.0356,-0.14242 1.97849,-0.6464 2.01412,-0.50398 z"
       inkscape:connector-curvature="0" />
    <text
       xml:space="preserve"
       style="font-size:20px;font-style:normal;font-weight:normal;line-height:125%;letter-spacing:0px;word-spacing:0px;fill:#ffffff;fill-opacity:1;stroke:none;font-family:Sans"
       x="133.33173"
       y="131.9431"
       id="text3002"
       sodipodi:linespacing="125%"><tspan
         sodipodi:role="line"
         id="tspan3004"
         x="133.33173"
         y="131.9431">$_</tspan></text>
    <rect
       style="fill:#de8787;fill-opacity:1;stroke:#000000;stroke-width:1.02578378;stroke-linecap:round;stroke-linejoin:bevel;stroke-opacity:1"
       id="rect3024"
       width="178.91731"
       height="49.989433"
       x="480.8259"
       y="101.96857" />
    <rect
       style="fill:#de8787;fill-opacity:1;stroke:#000000;stroke-width:1.02578378;stroke-linecap:round;stroke-linejoin:bevel;stroke-opacity:1"
       id="rect3026"
       width="178.91731"
       height="49.989433"
       x="480.8259"
       y="173.95335" />
    <text
       xml:space="preserve"
       style="font-size:20px;font-style:normal;font-weight:normal;line-height:125%;letter-spacing:0px;word-spacing:0px;fill:#ffffff;fill-opacity:1;stroke:none;font-family:Liberation Sans;-inkscape-font-specification:Liberation Sans;font-stretch:normal;font-variant:normal;text-anchor:start;text-align:start;writing-mode:lr"
       x="490"
       y="132.36218"
       id="text3041"
       sodipodi:linespacing="125%"><tspan
         sodipodi:role="line"
         id="tspan3043"
         x="490"
         y="132.36218"
         style="-inkscape-font-specification:Liberation Sans;font-family:Liberation Sans;font-weight:normal;font-style:normal;font-stretch:normal;font-variant:normal;font-size:20px;text-anchor:start;text-align:start;writing-mode:lr;line-height:125%">Shell</tspan></text>
    <text
       xml:space="preserve"
       style="font-size:20px;font-style:normal;font-weight:normal;line-height:125%;letter-spacing:0px;word-spacing:0px;fill:#ffffff;fill-opacity:1;stroke:none;font-family:Liberation Sans;-inkscape-font-specification:Liberation Sans;font-stretch:normal;font-variant:normal;text-anchor:start;text-align:start;writing-mode:lr"
       x="490"
       y="202.36218"
       id="text3045"
       sodipodi:linespacing="125%"><tspan
         sodipodi:role="line"
         id="tspan3047"
         x="490"
         y="202.36218"
         style="-inkscape-font-specification:Liberation Sans;font-family:Liberation Sans;font-weight:normal;font-style:normal;font-stretch:normal;font-variant:normal;font-size:20px;text-anchor:start;text-align:start;writing-mode:lr;line-height:125%">Operating System</tspan></text>
    <text
       xml:space="preserve"
       style="font-size:20px;font-style:normal;font-weight:normal;line-height:125%;letter-spacing:0px;word-spacing:0px;fill:#ffffff;fill-opacity:1;stroke:none;font-family:Liberation Sans;-inkscape-font-specification:Liberation Sans;font-stretch:normal;font-variant:normal;text-anchor:start;text-align:start;writing-mode:lr"
       x="530"
       y="352.36218"
       id="text3910"
       sodipodi:linespacing="125%"><tspan
         sodipodi:role="line"
         id="tspan3912"
         x="530"
         y="352.36218"
         style="-inkscape-font-specification:Liberation Sans;font-family:Liberation Sans;font-weight:normal;font-style:normal;font-stretch:normal;font-variant:normal;font-size:20px;text-anchor:start;text-align:start;writing-mode:lr;line-height:125%">Computer</tspan></text>
    <text
       xml:space="preserve"
       style="font-size:20px;font-style:normal;font-variant:normal;font-weight:normal;font-stretch:normal;text-align:start;line-height:125%;letter-spacing:0px;word-spacing:0px;writing-mode:lr;text-anchor:start;fill:#d35f5f;fill-opacity:1;stroke:none;font-family:Liberation Sans;-inkscape-font-specification:Liberation Sans"
       x="130.66827"
       y="206.78127"
       id="text3906"
       sodipodi:linespacing="125%"><tspan
         sodipodi:role="line"
         id="tspan3908"
         x="130.66827"
         y="206.78127"
         style="-inkscape-font-specification:Liberation Sans;font-family:Liberation Sans;font-weight:normal;font-style:normal;font-stretch:normal;font-variant:normal;font-size:20px;text-anchor:start;text-align:start;writing-mode:lr;line-height:125%">Terminal</tspan><tspan
         sodipodi:role="line"
         x="130.66827"
         y="231.78127"
         id="tspan3927"
         style="-inkscape-font-specification:Liberation Sans;font-family:Liberation Sans;font-weight:normal;font-style:normal;font-stretch:normal;font-variant:normal;font-size:20px;text-anchor:start;text-align:start;writing-mode:lr;line-height:125%">Emulator</tspan></text>
    <g
       id="g3929"
       transform="translate(-3.3317261,10.419081)">
      <rect
         y="102.36218"
         x="120"
         height="70"
         width="110"
         id="rect2987"
         style="fill:#cccccc;fill-opacity:1;stroke:#000000;stroke-linecap:round;stroke-linejoin:bevel;stroke-opacity:1" />
      <rect
         y="112.36218"
         x="130"
         height="50"
         width="90"
         id="rect2991"
         style="fill:#000000;fill-opacity:1;stroke:#000000;stroke-linecap:round;stroke-linejoin:bevel;stroke-opacity:1" />
      <text
         sodipodi:linespacing="125%"
         id="text3002-2"
         y="131.9431"
         x="133.33173"
         style="font-size:20px;font-style:normal;font-weight:normal;line-height:125%;letter-spacing:0px;word-spacing:0px;fill:#ffffff;fill-opacity:1;stroke:none;font-family:Sans"
         xml:space="preserve"><tspan
           y="131.9431"
           x="133.33173"
           id="tspan3004-9"
           sodipodi:role="line"
           style="-inkscape-font-specification:Nimbus Sans L;font-family:Nimbus Sans L;font-weight:normal;font-style:normal;font-stretch:normal;font-variant:normal;font-size:20px;text-anchor:start;text-align:start;writing-mode:lr;line-height:125%">$_</tspan></text>
      <rect
         transform="translate(99.5,91.455681)"
         y="10.9065"
         x="30.5"
         height="10"
         width="80"
         id="rect3919"
         style="fill:#000080;fill-opacity:1;stroke:#000000;stroke-linecap:round;stroke-linejoin:bevel;stroke-opacity:0" />
      <path
         transform="translate(99.5,91.455681)"
         inkscape:connector-curvature="0"
         id="path3921"
         d="m 20.5,20.9065 c 10,0 100,0 100,0 l 0,-10 0,0"
         style="fill:none;stroke:#000000;stroke-width:1px;stroke-linecap:butt;stroke-linejoin:miter;stroke-opacity:1" />
      <path
         transform="translate(99.5,91.455681)"
         inkscape:connector-curvature="0"
         id="path3923"
         d="m 120.5,20.9065 10,0"
         style="fill:none;stroke:#000000;stroke-width:1px;stroke-linecap:butt;stroke-linejoin:miter;stroke-opacity:1" />
      <path
         transform="translate(99.5,91.455681)"
         inkscape:connector-curvature="0"
         id="path3925"
         d="m 20.5,60.9065 110,0 -20,0 0,20 0,-20 -70,0 0,20"
         style="fill:none;stroke:#000000;stroke-width:1px;stroke-linecap:butt;stroke-linejoin:miter;stroke-opacity:1" />
    </g>
  </g>
</svg>
