<?xml version="1.0" encoding="UTF-8"?>
<!DOCTYPE svg PUBLIC "-//W3C//DTD SVG 1.1//EN" "http://www.w3.org/Graphics/SVG/1.1/DTD/svg11.dtd">
<svg version="1.1" xmlns="http://www.w3.org/2000/svg" xmlns:xlink="http://www.w3.org/1999/xlink" x="0" y="0" width="570.756" height="281" viewBox="0, 0, 570.756, 281">
  <g id="Layer_1">
    <g id="rect3022">
      <path d="M371.325,0.512 L570.245,0.512 L570.245,280.488 L371.325,280.488 z" fill="#B3B3B3"/>
      <path d="M371.325,0.512 L570.245,0.512 L570.245,280.488 L371.325,280.488 z" fill-opacity="0" stroke="#000000" stroke-width="1.023" stroke-linecap="round" stroke-linejoin="bevel"/>
    </g>
    <path d="M435.226,84.167 C441.842,84.218 448.414,85.128 455.006,85.629 C462.486,86.103 469.983,85.855 477.468,85.642 C481.979,85.546 486.5,85.337 491.01,85.588 C492.168,85.725 492.661,85.624 491.366,87.464 C491.089,87.857 490.021,86.882 489.905,86.765 C489.896,86.762 489.928,86.64 489.937,86.643 L489.937,86.643 C490.606,84.372 492.791,87.932 490.458,87.573 C486.343,87.605 482.23,87.722 478.119,87.909 C470.173,88.223 462.205,88.484 454.265,87.87 C447.749,87.31 441.268,86.441 434.75,85.903 C434.627,85.869 435.103,84.133 435.226,84.167 z" fill="#ECB8A2" id="path3897"/>
    <path d="M487.686,92.772 C484.416,96.231 481.186,99.743 478.45,103.65 C477.667,104.768 476.95,105.93 476.2,107.07 C469.763,118.091 466.602,130.579 463.665,142.887 C462.361,149.004 461.276,155.191 460.986,161.45 C460.882,163.702 460.903,166.893 461.246,169.203 C461.37,170.034 461.637,170.837 461.833,171.654 C462.697,173.965 464.381,175.525 466.774,176.074 C466.235,175.971 466.084,177.595 466.506,176.516 C466.497,176.501 466.716,176.37 466.725,176.385 L466.725,176.385 C468.245,176.087 467.451,178.417 466.07,177.794 C462.851,177.394 460.653,175.083 459.453,172.163 C459.205,171.247 458.881,170.35 458.71,169.417 C457.098,160.637 459.061,150.901 460.648,142.286 C461.234,139.831 461.764,137.363 462.406,134.923 C465.063,124.828 468.563,114.837 473.997,105.879 C477.539,100.678 481.397,95.684 486.175,91.542 C486.262,91.435 487.773,92.666 487.686,92.772 z" fill="#ECB8A2" id="path3899"/>
    <path d="M513.069,92.097 C517.44,100.995 521.818,109.88 525.821,118.952 C529.55,127.81 532.091,137.13 532.79,146.737 C533.2,152.374 532.939,154.45 532.674,160 C531.808,166.803 531.504,175.582 527.347,181.398 C526.811,182.148 526.103,182.759 525.481,183.44 C524.794,183.856 524.159,184.375 523.42,184.688 C521.109,185.668 518.08,185.385 516.229,183.6 C515.977,183.357 515.82,183.032 515.616,182.748 C515.446,181.645 515.32,182.14 515.973,181.258 C515.994,181.206 516.728,181.5 516.707,181.551 L516.707,181.551 C516.951,181.576 516.829,181.529 517.044,181.747 C518.384,182.812 520.252,183.536 521.958,182.929 C522.53,182.725 523.024,182.344 523.557,182.051 C524.077,181.491 524.676,180.994 525.118,180.37 C528.928,174.987 529.038,166.165 529.788,159.894 C530.002,154.566 530.236,152.428 529.829,147.028 C529.125,137.67 526.642,128.597 523.046,119.952 C519.106,110.836 514.672,101.933 511.023,92.697 C510.98,92.552 513.026,91.952 513.069,92.097 z" fill="#ECB8A2" id="path3901"/>
    <path d="M73.329,57.122 C75.001,70.979 76.354,84.873 77.794,98.756 C78.883,109.903 80.337,120.998 82.333,132.017 C82.353,132.098 81.206,132.38 81.186,132.299 L81.186,132.299 C80.393,130.364 79.415,128.494 78.806,126.494 C78.012,123.887 77.506,121.198 76.991,118.522 C75.591,111.243 75.141,106.47 74.236,99.063 C72.821,85.163 71.539,71.242 70.802,57.287 C70.79,57.109 73.317,56.943 73.329,57.122 z" fill="#ECB8A2" id="path3984"/>
    <path d="M107.207,32.495 C127.041,30.505 146.946,29.252 166.838,27.988 C206.996,25.933 247.291,24.874 287.47,27.12 C296.054,27.6 304.617,28.401 313.191,29.042 C333.759,31.047 354.279,33.898 374.394,38.713 C380.827,40.252 388.657,42.444 394.965,45.014 C396.417,45.606 397.761,46.435 399.159,47.145 C399.51,47.622 400.361,48.002 400.214,48.577 C399.355,51.933 393.069,49.359 391.306,48.829 C391.258,48.809 391.544,48.13 391.592,48.15 L391.592,48.15 C392.832,48.226 394.073,48.282 395.312,48.377 C396.104,48.439 396.936,48.35 397.683,48.62 C398.155,48.791 398.559,49.193 398.791,49.637 C398.959,49.957 398.195,49.23 397.896,49.027 C389.683,46.154 381.279,44.169 372.737,42.479 C352.526,38.481 332.069,35.853 311.535,34.209 C302.99,33.651 294.451,32.97 285.898,32.536 C246.671,30.547 207.36,30.998 168.118,32.197 C148.033,33.027 127.957,34.165 107.858,34.592 C107.71,34.638 107.058,32.541 107.207,32.495 z" fill="#ECB8A2" id="path3914"/>
    <path d="M405.631,57.283 C405.884,57.764 406.206,58.238 406.392,58.725 C407.562,61.787 407.638,64.951 407.697,68.049 C407.762,71.472 407.612,73.653 407.462,77.091 C407.305,80.776 406.799,84.455 406.672,88.14 C406.652,88.731 406.649,89.323 406.68,89.914 C406.692,90.134 407.001,90.372 406.803,90.572 C406.698,90.678 406.457,90.4 406.285,90.314 C406.331,90.292 407.012,90.597 406.965,90.62 L406.965,90.62 C406.428,90.662 405.827,90.869 405.354,90.745 C404.81,90.603 404.657,90.255 404.505,89.975 C404.182,89.377 404.047,88.759 403.945,88.144 C403.337,84.457 403.982,80.75 404.03,77.061 C404.174,74.444 404.398,70.694 404.472,68.06 C404.557,65.017 404.669,61.945 403.949,58.914 C403.839,58.45 403.634,57.992 403.476,57.531 C403.438,57.461 405.592,57.213 405.63,57.283 z" fill="#ECB8A2" id="path3066"/>
    <g id="rect3026">
      <path d="M381.326,172.498 L560.243,172.498 L560.243,222.487 L381.326,222.487 z" fill="#DE8787"/>
      <path d="M381.326,172.498 L560.243,172.498 L560.243,222.487 L381.326,222.487 z" fill-opacity="0" stroke="#000000" stroke-width="1.026" stroke-linecap="round" stroke-linejoin="bevel"/>
    </g>
    <g id="g3096">
      <g id="rect3024">
        <path d="M381.041,71.061 L440.389,71.061 L440.389,100.787 L381.041,100.787 z" fill="#DE8787"/>
        <path d="M381.041,71.061 L440.389,71.061 L440.389,100.787 L381.041,100.787 z" fill-opacity="0" stroke="#000000" stroke-width="0.456" stroke-linecap="round" stroke-linejoin="bevel"/>
      </g>
      <text transform="matrix(1, 0, 0, 1, 413.236, 84.407)" id="tspan3043">
        <tspan x="-22.736" y="6.5" font-family="Helvetica" font-size="20" fill="#FFFFFF">Shell</tspan>
      </text>
    </g>
    <text transform="matrix(1, 0, 0, 1, 471.034, 194.406)" id="tspan3047">
      <tspan x="-80.534" y="6.5" font-family="Helvetica" font-size="20" fill="#FFFFFF">Operating System</tspan>
    </text>
    <g>
      <text transform="matrix(1, 0, 0, 1, 72.788, 196.406)" id="tspan3908">
        <tspan x="-38.288" y="6.5" font-family="Helvetica" font-size="20" fill="#D35F5F">Terminal</tspan>
      </text>
      <text transform="matrix(1, 0, 0, 1, 75.015, 221.406)" id="tspan3927">
        <tspan x="-40.515" y="6.5" font-family="Helvetica" font-size="20" fill="#D35F5F">Emulator</tspan>
      </text>
    </g>
    <text transform="matrix(1, 0, 0, 1, 474.906, 254.406)" id="tspan3912">
      <tspan x="-44.406" y="6.5" font-family="Helvetica" font-size="20" fill="#FFFFFF">Computer</tspan>
    </text>
    <g id="g3929">
      <g id="rect2987">
        <path d="M20.5,108.907 L130.5,108.907 L130.5,178.907 L20.5,178.907 z" fill="#CCCCCC"/>
        <path d="M20.5,108.907 L130.5,108.907 L130.5,178.907 L20.5,178.907 z" fill-opacity="0" stroke="#000000" stroke-width="1" stroke-linecap="round" stroke-linejoin="bevel"/>
      </g>
      <g id="rect2991">
        <path d="M30.5,118.907 L120.5,118.907 L120.5,168.907 L30.5,168.907 z" fill="#000000"/>
        <path d="M30.5,118.907 L120.5,118.907 L120.5,168.907 L30.5,168.907 z" fill-opacity="0" stroke="#000000" stroke-width="1" stroke-linecap="round" stroke-linejoin="bevel"/>
      </g>
      <text transform="matrix(1, 0, 0, 1, 45.455, 131.987)" id="tspan3004">
        <tspan x="-11.623" y="6.5" font-family="Helvetica" font-size="20" fill="#FFFFFF">$_</tspan>
      </text>
      <path d="M30.5,108.907 L110.5,108.907 L110.5,118.907 L30.5,118.907 z" fill="#000080" id="rect3919"/>
      <path d="M20.5,118.907 C30.5,118.907 120.5,118.907 120.5,118.907 L120.5,108.907 L120.5,108.907" fill-opacity="0" stroke="#000000" stroke-width="1" id="path3921"/>
      <path d="M120.5,118.907 L130.5,118.907" fill-opacity="0" stroke="#000000" stroke-width="1" id="path3923"/>
      <path d="M20.5,158.907 L130.5,158.907 L110.5,158.907 L110.5,178.907 L110.5,158.907 L40.5,158.907 L40.5,178.907" fill-opacity="0" stroke="#000000" stroke-width="1" id="path3925"/>
    </g>
    <g id="rect3024-1">
      <path d="M381.042,30.229 L439.694,30.229 L439.694,60.647 L381.042,60.647 z" fill="#89A02C"/>
      <path d="M381.042,30.229 L439.694,30.229 L439.694,60.647 L381.042,60.647 z" fill-opacity="0" stroke="#000000" stroke-width="0.458" stroke-linecap="round" stroke-linejoin="bevel"/>
    </g>
    <text transform="matrix(1, 0, 0, 1, 412.123, 44.406)" id="tspan3043-4">
      <tspan x="-21.623" y="6.5" font-family="Helvetica" font-size="20" fill="#FFFFFF">sshd</tspan>
    </text>
    <g id="path3978">
      <path d="M131.508,34.841 C131.508,49.093 106.669,60.646 76.028,60.646 C45.388,60.646 20.549,49.093 20.549,34.841 C20.549,20.59 45.388,9.037 76.028,9.037 C106.669,9.037 131.508,20.59 131.508,34.841 z" fill="#89A02C"/>
      <path d="M131.508,34.841 C131.508,49.093 106.669,60.646 76.028,60.646 C45.388,60.646 20.549,49.093 20.549,34.841 C20.549,20.59 45.388,9.037 76.028,9.037 C106.669,9.037 131.508,20.59 131.508,34.841 z" fill-opacity="0" stroke="#000000" stroke-width="1.849" stroke-linecap="round" stroke-linejoin="bevel"/>
    </g>
    <text transform="matrix(1, 0, 0, 1, 76.562, 34.406)" id="tspan3982">
      <tspan x="-16.062" y="6.5" font-family="Helvetica" font-size="20" fill="#FFFFFF">ssh</tspan>
    </text>
    <g id="g4000">
      <path d="M240.5,45.907 C240.5,59.714 227.069,70.907 210.5,70.907 C193.931,70.907 180.5,59.714 180.5,45.907 C180.5,32.099 193.931,20.907 210.5,20.907 C227.069,20.907 240.5,32.099 240.5,45.907 z" fill="#BC5FD3" id="path3986"/>
      <path d="M250.5,25.906 C250.5,34.191 239.307,40.907 225.5,40.907 C211.693,40.907 200.5,34.191 200.5,25.906 C200.5,17.622 211.693,10.906 225.5,10.906 C239.307,10.906 250.5,17.622 250.5,25.906 z" fill="#BC5FD3" id="path3988"/>
      <path d="M260.5,55.907 C260.5,69.714 251.546,80.907 240.5,80.907 C229.454,80.907 220.5,69.714 220.5,55.907 C220.5,42.099 229.454,30.907 240.5,30.907 C251.546,30.907 260.5,42.099 260.5,55.907 z" fill="#BC5FD3" id="path3990"/>
      <path d="M280.5,45.907 C280.5,54.191 271.546,60.907 260.5,60.907 C249.454,60.907 240.5,54.191 240.5,45.907 C240.5,37.622 249.454,30.907 260.5,30.907 C271.546,30.907 280.5,37.622 280.5,45.907 z" fill="#BC5FD3" id="path3992"/>
      <path d="M310.5,25.906 C310.5,39.714 294.83,50.907 275.5,50.907 C256.17,50.907 240.5,39.714 240.5,25.906 C240.5,12.099 256.17,0.906 275.5,0.906 C294.83,0.906 310.5,12.099 310.5,25.906 z" fill="#BC5FD3" id="path3994"/>
      <path d="M310.5,60.907 C310.5,77.475 297.069,90.907 280.5,90.907 C263.931,90.907 250.5,77.475 250.5,60.907 C250.5,44.338 263.931,30.907 280.5,30.907 C297.069,30.907 310.5,44.338 310.5,60.907 z" fill="#BC5FD3" id="path3998"/>
    </g>
    <text transform="matrix(1, 0, 0, 1, 244.911, 44.406)" id="tspan4010">
      <tspan x="-34.411" y="6.5" font-family="Helvetica" font-size="20" fill="#FFFFFF">Internet</tspan>
    </text>
    <g id="rect3115">
      <path d="M430.5,110.906 L490.5,110.906 L490.5,140.906 L430.5,140.906 z" fill="#DE8787"/>
      <path d="M430.5,110.906 L490.5,110.906 L490.5,140.906 L430.5,140.906 z" fill-opacity="0" stroke="#000000" stroke-width="1" stroke-linecap="round" stroke-linejoin="bevel"/>
    </g>
    <g id="rect3117">
      <path d="M499.667,111.184 L559.667,111.184 L559.667,141.184 L499.667,141.184 z" fill="#DE8787"/>
      <path d="M499.667,111.184 L559.667,111.184 L559.667,141.184 L499.667,141.184 z" fill-opacity="0" stroke="#000000" stroke-width="1" stroke-linecap="round" stroke-linejoin="bevel"/>
    </g>
    <g id="rect3887">
      <path d="M471.538,70.973 L548.767,70.973 L548.767,100.84 L471.538,100.84 z" fill="#0088AA"/>
      <path d="M471.538,70.973 L548.767,70.973 L548.767,100.84 L471.538,100.84 z" fill-opacity="0" stroke="#000000" stroke-width="1.132" stroke-linecap="round" stroke-linejoin="bevel"/>
    </g>
    <text transform="matrix(1, 0, 0, 1, 511.015, 84.407)" id="tspan3905">
      <tspan x="-30.515" y="6.5" font-family="Helvetica" font-size="20" fill="#FFFFFF">screen</tspan>
    </text>
    <text transform="matrix(1, 0, 0, 1, 463.236, 124.407)" id="tspan3911">
      <tspan x="-22.736" y="6.5" font-family="Helvetica" font-size="20" fill="#FFFFFF">Shell</tspan>
    </text>
    <text transform="matrix(1, 0, 0, 1, 533.236, 124.407)" id="tspan3917">
      <tspan x="-22.736" y="6.5" font-family="Helvetica" font-size="20" fill="#FFFFFF">Shell</tspan>
    </text>
  </g>
</svg>
