<?xml version="1.0" encoding="UTF-8"?>
<!DOCTYPE svg PUBLIC "-//W3C//DTD SVG 1.1//EN" "http://www.w3.org/Graphics/SVG/1.1/DTD/svg11.dtd">
<svg version="1.1" xmlns="http://www.w3.org/2000/svg" xmlns:xlink="http://www.w3.org/1999/xlink" x="0" y="0" width="570.756" height="281" viewBox="0, 0, 570.756, 281">
  <g id="Layer_1">
    <g id="rect3022">
      <path d="M371.325,0.512 L570.245,0.512 L570.245,280.488 L371.325,280.488 z" fill="#B3B3B3"/>
      <path d="M371.325,0.512 L570.245,0.512 L570.245,280.488 L371.325,280.488 z" fill-opacity="0" stroke="#000000" stroke-width="1.023" stroke-linecap="round" stroke-linejoin="bevel"/>
    </g>
    <path d="M107.207,32.495 C127.041,30.505 146.946,29.252 166.838,27.988 C206.996,25.933 247.291,24.874 287.47,27.12 C296.054,27.6 304.617,28.401 313.191,29.042 C333.759,31.047 354.279,33.898 374.394,38.713 C380.827,40.252 388.657,42.444 394.965,45.014 C396.417,45.606 397.761,46.435 399.159,47.145 C399.51,47.622 400.361,48.002 400.214,48.577 C399.355,51.933 393.069,49.359 391.306,48.829 C391.258,48.809 391.544,48.13 391.592,48.15 L391.592,48.15 C392.832,48.226 394.073,48.282 395.312,48.377 C396.104,48.439 396.936,48.35 397.683,48.62 C398.155,48.791 398.559,49.193 398.791,49.637 C398.959,49.957 398.195,49.23 397.896,49.027 C389.683,46.154 381.279,44.169 372.737,42.479 C352.526,38.481 332.069,35.853 311.535,34.209 C302.99,33.651 294.451,32.97 285.898,32.536 C246.671,30.547 207.36,30.998 168.118,32.197 C148.033,33.027 127.957,34.165 107.858,34.592 C107.71,34.638 107.058,32.541 107.207,32.495 z" fill="#ECB8A2" id="path3914"/>
    <path d="M474.378,42.281 C474.616,43.258 474.916,44.221 475.09,45.211 C476.185,51.435 476.255,57.866 476.311,64.161 C476.372,71.118 476.231,75.55 476.09,82.539 C475.944,90.027 475.471,97.505 475.352,104.994 C475.333,106.196 475.331,107.399 475.36,108.601 C475.371,109.048 475.66,109.53 475.475,109.937 C475.376,110.154 475.152,109.589 474.99,109.414 C475.034,109.369 475.67,109.989 475.627,110.034 L475.627,110.034 C475.124,110.12 474.563,110.542 474.12,110.29 C473.612,110.001 473.468,109.293 473.326,108.725 C473.024,107.509 472.898,106.252 472.803,105.003 C472.234,97.509 472.837,89.975 472.882,82.478 C473.016,77.159 473.226,69.537 473.295,64.184 C473.375,58 473.479,51.756 472.806,45.595 C472.703,44.653 472.511,43.722 472.364,42.785 C472.328,42.642 474.342,42.138 474.378,42.281 z" fill="#ECB8A2" id="path3066"/>
    <text transform="matrix(1, 0, 0, 1, 45.455, 33.987)" id="tspan3004">
      <tspan x="-11.623" y="6.5" font-family="Helvetica" font-size="20" fill="#FFFFFF">$_</tspan>
    </text>
    <g id="rect3024">
      <path d="M381.326,10.513 L560.243,10.513 L560.243,60.502 L381.326,60.502 z" fill="#DE8787"/>
      <path d="M381.326,10.513 L560.243,10.513 L560.243,60.502 L381.326,60.502 z" fill-opacity="0" stroke="#000000" stroke-width="1.026" stroke-linecap="round" stroke-linejoin="bevel"/>
    </g>
    <g id="rect3026">
      <path d="M381.326,82.498 L560.243,82.498 L560.243,132.487 L381.326,132.487 z" fill="#DE8787"/>
      <path d="M381.326,82.498 L560.243,82.498 L560.243,132.487 L381.326,132.487 z" fill-opacity="0" stroke="#000000" stroke-width="1.026" stroke-linecap="round" stroke-linejoin="bevel"/>
    </g>
    <text transform="matrix(1, 0, 0, 1, 413.236, 34.406)" id="tspan3043">
      <tspan x="-22.736" y="6.5" font-family="Helvetica" font-size="20" fill="#FFFFFF">Shell</tspan>
    </text>
    <text transform="matrix(1, 0, 0, 1, 471.034, 104.407)" id="tspan3047">
      <tspan x="-80.534" y="6.5" font-family="Helvetica" font-size="20" fill="#FFFFFF">Operating System</tspan>
    </text>
    <text transform="matrix(1, 0, 0, 1, 474.906, 254.406)" id="tspan3912">
      <tspan x="-44.406" y="6.5" font-family="Helvetica" font-size="20" fill="#FFFFFF">Computer</tspan>
    </text>
    <g>
      <text transform="matrix(1, 0, 0, 1, 69.456, 108.826)" id="tspan3908">
        <tspan x="-38.288" y="6.5" font-family="Helvetica" font-size="20" fill="#D35F5F">Terminal</tspan>
      </text>
      <text transform="matrix(1, 0, 0, 1, 71.683, 133.826)" id="tspan3927">
        <tspan x="-40.515" y="6.5" font-family="Helvetica" font-size="20" fill="#D35F5F">Emulator</tspan>
      </text>
    </g>
    <g id="g3929">
      <g id="rect2987">
        <path d="M17.168,21.326 L127.168,21.326 L127.168,91.326 L17.168,91.326 z" fill="#CCCCCC"/>
        <path d="M17.168,21.326 L127.168,21.326 L127.168,91.326 L17.168,91.326 z" fill-opacity="0" stroke="#000000" stroke-width="1" stroke-linecap="round" stroke-linejoin="bevel"/>
      </g>
      <g id="rect2991">
        <path d="M27.168,31.326 L117.168,31.326 L117.168,81.326 L27.168,81.326 z" fill="#000000"/>
        <path d="M27.168,31.326 L117.168,31.326 L117.168,81.326 L27.168,81.326 z" fill-opacity="0" stroke="#000000" stroke-width="1" stroke-linecap="round" stroke-linejoin="bevel"/>
      </g>
      <text transform="matrix(1, 0, 0, 1, 42.123, 44.407)" id="tspan3004-9">
        <tspan x="-11.623" y="6.5" font-family="Helvetica" font-size="20" fill="#FFFFFF">$_</tspan>
      </text>
      <path d="M27.168,21.326 L107.168,21.326 L107.168,31.326 L27.168,31.326 z" fill="#000080" id="rect3919"/>
      <path d="M17.168,31.326 C27.168,31.326 117.168,31.326 117.168,31.326 L117.168,21.326 L117.168,21.326" fill-opacity="0" stroke="#000000" stroke-width="1" id="path3921"/>
      <path d="M117.168,31.326 L127.168,31.326" fill-opacity="0" stroke="#000000" stroke-width="1" id="path3923"/>
      <path d="M17.168,71.326 L127.168,71.326 L107.168,71.326 L107.168,91.326 L107.168,71.326 L37.168,71.326 L37.168,91.326" fill-opacity="0" stroke="#000000" stroke-width="1" id="path3925"/>
    </g>
  </g>
</svg>
