<?xml version="1.0" encoding="UTF-8"?>
<!DOCTYPE svg PUBLIC "-//W3C//DTD SVG 1.1//EN" "http://www.w3.org/Graphics/SVG/1.1/DTD/svg11.dtd">
<svg version="1.1" xmlns="http://www.w3.org/2000/svg" xmlns:xlink="http://www.w3.org/1999/xlink" x="0" y="0" width="570.756" height="281" viewBox="0, 0, 570.756, 281">
  <g id="Layer_1">
    <g id="rect3022">
      <path d="M371.325,0.512 L570.245,0.512 L570.245,280.488 L371.325,280.488 z" fill="#B3B3B3"/>
      <path d="M371.325,0.512 L570.245,0.512 L570.245,280.488 L371.325,280.488 z" fill-opacity="0" stroke="#000000" stroke-width="1.023" stroke-linecap="round" stroke-linejoin="bevel"/>
    </g>
    <path d="M474.378,42.281 C474.616,43.258 474.916,44.221 475.09,45.211 C476.185,51.435 476.255,57.866 476.311,64.161 C476.372,71.118 476.231,75.55 476.09,82.539 C475.944,90.027 475.471,97.505 475.352,104.994 C475.333,106.196 475.331,107.399 475.36,108.601 C475.371,109.048 475.66,109.53 475.475,109.937 C475.376,110.154 475.152,109.589 474.99,109.414 C475.034,109.369 475.67,109.989 475.627,110.034 L475.627,110.034 C475.124,110.12 474.563,110.542 474.12,110.29 C473.612,110.001 473.468,109.293 473.326,108.725 C473.024,107.509 472.898,106.252 472.803,105.003 C472.234,97.509 472.837,89.975 472.882,82.478 C473.016,77.159 473.226,69.537 473.295,64.184 C473.375,58 473.479,51.756 472.806,45.595 C472.703,44.653 472.511,43.722 472.364,42.785 C472.328,42.642 474.342,42.138 474.378,42.281 z" fill="#ECB8A2" id="path3066"/>
    <g id="path3060">
      <path d="M29.456,70.218 C27.307,76.908 26.124,84.007 26.066,91.043 C26.053,92.575 26.193,94.105 26.257,95.636 C26.644,97.799 27.08,103.882 30.596,103.673 C30.873,103.656 31.093,103.425 31.344,103.307 C31.858,103.067 32.376,102.835 32.892,102.599 C34.449,101.676 35.66,100.33 36.94,99.077 C36.968,99.023 37.736,99.414 37.709,99.469 L37.709,99.469 C36.922,101.689 36.243,102.959 34.318,104.462 C33.648,104.842 33.048,105.389 32.307,105.602 C30.461,106.13 28.698,106.138 27.106,104.967 C24.247,102.864 23.805,98.919 23.231,95.757 C23.145,94.139 22.97,92.524 22.974,90.904 C22.991,83.568 24.315,76.089 27.049,69.283 C27.115,69.113 29.522,70.048 29.456,70.218 z" fill="#000000"/>
      <path d="M29.456,70.218 C27.307,76.908 26.124,84.007 26.066,91.043 C26.053,92.575 26.193,94.105 26.257,95.636 C26.644,97.799 27.08,103.882 30.596,103.673 C30.873,103.656 31.093,103.425 31.344,103.307 C31.858,103.067 32.376,102.835 32.892,102.599 C34.449,101.676 35.66,100.33 36.94,99.077 C36.968,99.023 37.736,99.414 37.709,99.469 L37.709,99.469 C36.922,101.689 36.243,102.959 34.318,104.462 C33.648,104.842 33.048,105.389 32.307,105.602 C30.461,106.13 28.698,106.138 27.106,104.967 C24.247,102.864 23.805,98.919 23.231,95.757 C23.145,94.139 22.97,92.524 22.974,90.904 C22.991,83.568 24.315,76.089 27.049,69.283 C27.115,69.113 29.522,70.048 29.456,70.218 z" fill-opacity="0" stroke="#000000" stroke-width="1" stroke-linecap="round" stroke-linejoin="bevel"/>
    </g>
    <path d="M126.16,64.096 C142.478,55.619 159.835,49.378 177.163,43.339 C191.206,38.746 205.485,34.733 220.106,32.452 C226.737,31.418 235.797,30.498 242.683,30.771 C245.405,30.878 248.092,31.421 250.797,31.747 C252.932,32.758 256.436,33.332 256.425,36.622 C256.421,37.749 255.484,38.67 255.014,39.693 C254.986,39.771 253.881,39.371 253.91,39.293 L253.91,39.293 C254.17,38.656 254.73,38.069 254.691,37.382 C254.563,35.168 250.766,34.911 249.799,34.61 C247.756,34.459 245.719,34.148 243.671,34.157 C236.703,34.185 228.547,35.133 221.777,36.261 C207.34,38.667 193.204,42.554 179.262,46.947 C174.794,48.428 170.31,49.861 165.858,51.39 C152.911,55.839 140.191,60.892 127.468,65.934 C127.338,66.026 126.03,64.188 126.16,64.096 z" fill="#ECB8A2" id="path3062"/>
    <path d="M283.437,58.709 C292.006,64.848 303.238,66.467 313.531,66.819 C317.215,66.945 320.902,66.692 324.587,66.629 C328.906,66.166 333.247,65.882 337.542,65.239 C346.038,63.967 354.014,62.067 362.222,59.588 C367.433,58.015 373.327,55.882 378.345,53.553 C379.544,52.997 380.665,52.285 381.825,51.65 C382.625,50.676 382.716,50.909 381.399,51.03 C381.371,51.017 381.556,50.616 381.584,50.629 L381.584,50.629 C384.374,51.641 383.993,50.676 383.275,53.244 C382.162,54.098 381.142,55.089 379.937,55.805 C375.238,58.596 368.888,61.094 363.863,62.746 C351.443,66.828 338.572,69.372 325.519,70.198 C321.131,70.174 316.736,70.383 312.355,70.127 C302.785,69.567 291.888,67.564 283.906,61.864 C283.131,61.311 282.472,60.612 281.754,59.987 C281.664,59.868 283.346,58.59 283.437,58.709 z" fill="#ECB8A2" id="path3064"/>
    <g id="g2993">
      <g id="rect2987">
        <path d="M20.5,10.906 L130.5,10.906 L130.5,80.907 L20.5,80.907 z" fill="#B3B3B3"/>
        <path d="M20.5,10.906 L130.5,10.906 L130.5,80.907 L20.5,80.907 z" fill-opacity="0" stroke="#000000" stroke-width="1" stroke-linecap="round" stroke-linejoin="bevel"/>
      </g>
      <g id="path2989">
        <path d="M20.5,86.906 L0.5,116.906 L150.5,116.906 L130.5,86.906 L20.5,86.906 z" fill="#B3B3B3"/>
        <path d="M20.5,86.906 L0.5,116.906 L150.5,116.906 L130.5,86.906 L20.5,86.906 z" fill-opacity="0" stroke="#000000" stroke-width="1"/>
      </g>
      <g id="rect2991">
        <path d="M30.5,20.906 L120.5,20.906 L120.5,70.907 L30.5,70.907 z" fill="#000000"/>
        <path d="M30.5,20.906 L120.5,20.906 L120.5,70.907 L30.5,70.907 z" fill-opacity="0" stroke="#000000" stroke-width="1" stroke-linecap="round" stroke-linejoin="bevel"/>
      </g>
    </g>
    <text transform="matrix(1, 0, 0, 1, 45.455, 33.987)" id="tspan3004">
      <tspan x="-11.623" y="6.5" font-family="Helvetica" font-size="20" fill="#FFFFFF">$_</tspan>
    </text>
    <g id="rect3024">
      <path d="M381.326,10.513 L560.243,10.513 L560.243,60.502 L381.326,60.502 z" fill="#DE8787"/>
      <path d="M381.326,10.513 L560.243,10.513 L560.243,60.502 L381.326,60.502 z" fill-opacity="0" stroke="#000000" stroke-width="1.026" stroke-linecap="round" stroke-linejoin="bevel"/>
    </g>
    <g id="rect3026">
      <path d="M381.326,82.498 L560.243,82.498 L560.243,132.487 L381.326,132.487 z" fill="#DE8787"/>
      <path d="M381.326,82.498 L560.243,82.498 L560.243,132.487 L381.326,132.487 z" fill-opacity="0" stroke="#000000" stroke-width="1.026" stroke-linecap="round" stroke-linejoin="bevel"/>
    </g>
    <text transform="matrix(1, 0, 0, 1, 413.236, 34.406)" id="tspan3043">
      <tspan x="-22.736" y="6.5" font-family="Helvetica" font-size="20" fill="#FFFFFF">Shell</tspan>
    </text>
    <text transform="matrix(1, 0, 0, 1, 471.034, 104.407)" id="tspan3047">
      <tspan x="-80.534" y="6.5" font-family="Helvetica" font-size="20" fill="#FFFFFF">Operating System</tspan>
    </text>
    <g id="g3055">
      <g id="path3049">
        <path d="M239.797,27.641 L219.836,53.513 L219.836,66.448 L289.7,66.448 L289.7,53.513 L269.739,27.641 z" fill="#E9AFAF"/>
        <path d="M239.797,27.641 L219.836,53.513 L219.836,66.448 L289.7,66.448 L289.7,53.513 L269.739,27.641 z" fill-opacity="0" stroke="#000000" stroke-width="1.136"/>
      </g>
      <g id="path3051">
        <path d="M209.768,41.573 L219.768,21.573 L229.768,11.573 L279.768,11.573 L289.768,21.573 L299.768,41.573 L279.768,41.573 L269.768,21.573 L239.768,21.573 L229.768,41.573 z" fill="#E9AFAF"/>
        <path d="M209.768,41.573 L219.768,21.573 L229.768,11.573 L279.768,11.573 L289.768,21.573 L299.768,41.573 L279.768,41.573 L269.768,21.573 L239.768,21.573 L229.768,41.573 z" fill-opacity="0" stroke="#000000" stroke-width="1"/>
      </g>
      <g id="path3053">
        <path d="M269.768,42.573 C269.768,50.857 263.053,57.573 254.768,57.573 C246.484,57.573 239.768,50.857 239.768,42.573 C239.768,34.289 246.484,27.573 254.768,27.573 C263.053,27.573 269.768,34.289 269.768,42.573 z" fill="#F2F2F2"/>
        <path d="M269.768,42.573 C269.768,50.857 263.053,57.573 254.768,57.573 C246.484,57.573 239.768,50.857 239.768,42.573 C239.768,34.289 246.484,27.573 254.768,27.573 C263.053,27.573 269.768,34.289 269.768,42.573 z" fill-opacity="0" stroke="#000000" stroke-width="1" stroke-linecap="round" stroke-linejoin="bevel"/>
      </g>
    </g>
    <text transform="matrix(1, 0, 0, 1, 68.788, 144.406)" id="tspan3908">
      <tspan x="-38.288" y="6.5" font-family="Helvetica" font-size="20" fill="#D35F5F">Terminal</tspan>
    </text>
    <text transform="matrix(1, 0, 0, 1, 474.906, 254.406)" id="tspan3912">
      <tspan x="-44.406" y="6.5" font-family="Helvetica" font-size="20" fill="#FFFFFF">Computer</tspan>
    </text>
  </g>
</svg>
