<?xml version="1.0" encoding="UTF-8"?>
<!DOCTYPE svg PUBLIC "-//W3C//DTD SVG 1.1//EN" "http://www.w3.org/Graphics/SVG/1.1/DTD/svg11.dtd">
<svg version="1.1" xmlns="http://www.w3.org/2000/svg" xmlns:xlink="http://www.w3.org/1999/xlink" x="0" y="0" width="570.756" height="281" viewBox="0, 0, 570.756, 281">
  <g id="Layer_1">
    <path d="M73.329,57.122 C75.001,70.979 76.354,84.873 77.794,98.756 C78.883,109.903 80.337,120.998 82.333,132.017 C82.353,132.098 81.206,132.38 81.186,132.299 L81.186,132.299 C80.393,130.364 79.415,128.494 78.806,126.494 C78.012,123.887 77.506,121.198 76.991,118.522 C75.591,111.243 75.141,106.47 74.236,99.063 C72.821,85.163 71.539,71.242 70.802,57.287 C70.79,57.109 73.317,56.943 73.329,57.122 z" fill="#ECB8A2" id="path3984"/>
    <g id="rect3022">
      <path d="M371.325,0.512 L570.245,0.512 L570.245,280.488 L371.325,280.488 z" fill="#B3B3B3"/>
      <path d="M371.325,0.512 L570.245,0.512 L570.245,280.488 L371.325,280.488 z" fill-opacity="0" stroke="#000000" stroke-width="1.023" stroke-linecap="round" stroke-linejoin="bevel"/>
    </g>
    <path d="M107.207,32.495 C127.041,30.505 146.946,29.252 166.838,27.988 C206.996,25.933 247.291,24.874 287.47,27.12 C296.054,27.6 304.617,28.401 313.191,29.042 C333.759,31.047 354.279,33.898 374.394,38.713 C380.827,40.252 388.657,42.444 394.965,45.014 C396.417,45.606 397.761,46.435 399.159,47.145 C399.51,47.622 400.361,48.002 400.214,48.577 C399.355,51.933 393.069,49.359 391.306,48.829 C391.258,48.809 391.544,48.13 391.592,48.15 L391.592,48.15 C392.832,48.226 394.073,48.282 395.312,48.377 C396.104,48.439 396.936,48.35 397.683,48.62 C398.155,48.791 398.559,49.193 398.791,49.637 C398.959,49.957 398.195,49.23 397.896,49.027 C389.683,46.154 381.279,44.169 372.737,42.479 C352.526,38.481 332.069,35.853 311.535,34.209 C302.99,33.651 294.451,32.97 285.898,32.536 C246.671,30.547 207.36,30.998 168.118,32.197 C148.033,33.027 127.957,34.165 107.858,34.592 C107.71,34.638 107.058,32.541 107.207,32.495 z" fill="#ECB8A2" id="path3914"/>
    <path d="M474.376,76.352 C474.595,78.129 474.873,79.882 475.034,81.683 C476.047,93.007 476.112,104.705 476.163,116.158 C476.22,128.814 476.089,136.877 475.96,149.591 C475.824,163.214 475.386,176.818 475.277,190.443 C475.259,192.629 475.257,194.817 475.284,197.004 C475.294,197.817 475.561,198.694 475.39,199.435 C475.299,199.828 475.091,198.8 474.941,198.483 C474.982,198.401 475.571,199.529 475.53,199.611 L475.53,199.611 C475.065,199.766 474.546,200.535 474.136,200.077 C473.666,199.55 473.533,198.262 473.402,197.229 C473.122,195.018 473.006,192.731 472.918,190.459 C472.392,176.824 472.949,163.119 472.991,149.48 C473.116,139.803 473.31,125.938 473.373,116.199 C473.447,104.949 473.544,93.591 472.921,82.382 C472.826,80.667 472.648,78.974 472.512,77.269 C472.479,77.01 474.342,76.093 474.375,76.352 z" fill="#ECB8A2" id="path3066"/>
    <g id="rect3024">
      <path d="M381.326,100.513 L560.243,100.513 L560.243,150.502 L381.326,150.502 z" fill="#DE8787"/>
      <path d="M381.326,100.513 L560.243,100.513 L560.243,150.502 L381.326,150.502 z" fill-opacity="0" stroke="#000000" stroke-width="1.026" stroke-linecap="round" stroke-linejoin="bevel"/>
    </g>
    <g id="rect3026">
      <path d="M381.326,172.498 L560.243,172.498 L560.243,222.487 L381.326,222.487 z" fill="#DE8787"/>
      <path d="M381.326,172.498 L560.243,172.498 L560.243,222.487 L381.326,222.487 z" fill-opacity="0" stroke="#000000" stroke-width="1.026" stroke-linecap="round" stroke-linejoin="bevel"/>
    </g>
    <text transform="matrix(1, 0, 0, 1, 413.236, 124.407)" id="tspan3043">
      <tspan x="-22.736" y="6.5" font-family="Helvetica" font-size="20" fill="#FFFFFF">Shell</tspan>
    </text>
    <text transform="matrix(1, 0, 0, 1, 471.034, 194.406)" id="tspan3047">
      <tspan x="-80.534" y="6.5" font-family="Helvetica" font-size="20" fill="#FFFFFF">Operating System</tspan>
    </text>
    <g>
      <text transform="matrix(1, 0, 0, 1, 72.788, 196.406)" id="tspan3908">
        <tspan x="-38.288" y="6.5" font-family="Helvetica" font-size="20" fill="#D35F5F">Terminal</tspan>
      </text>
      <text transform="matrix(1, 0, 0, 1, 75.015, 221.406)" id="tspan3927">
        <tspan x="-40.515" y="6.5" font-family="Helvetica" font-size="20" fill="#D35F5F">Emulator</tspan>
      </text>
    </g>
    <text transform="matrix(1, 0, 0, 1, 474.906, 254.406)" id="tspan3912">
      <tspan x="-44.406" y="6.5" font-family="Helvetica" font-size="20" fill="#FFFFFF">Computer</tspan>
    </text>
    <g id="g3929">
      <g id="rect2987">
        <path d="M20.5,108.907 L130.5,108.907 L130.5,178.907 L20.5,178.907 z" fill="#CCCCCC"/>
        <path d="M20.5,108.907 L130.5,108.907 L130.5,178.907 L20.5,178.907 z" fill-opacity="0" stroke="#000000" stroke-width="1" stroke-linecap="round" stroke-linejoin="bevel"/>
      </g>
      <g id="rect2991">
        <path d="M30.5,118.907 L120.5,118.907 L120.5,168.907 L30.5,168.907 z" fill="#000000"/>
        <path d="M30.5,118.907 L120.5,118.907 L120.5,168.907 L30.5,168.907 z" fill-opacity="0" stroke="#000000" stroke-width="1" stroke-linecap="round" stroke-linejoin="bevel"/>
      </g>
      <text transform="matrix(1, 0, 0, 1, 45.455, 131.987)" id="tspan3004">
        <tspan x="-11.623" y="6.5" font-family="Helvetica" font-size="20" fill="#FFFFFF">$_</tspan>
      </text>
      <path d="M30.5,108.907 L110.5,108.907 L110.5,118.907 L30.5,118.907 z" fill="#000080" id="rect3919"/>
      <path d="M20.5,118.907 C30.5,118.907 120.5,118.907 120.5,118.907 L120.5,108.907 L120.5,108.907" fill-opacity="0" stroke="#000000" stroke-width="1" id="path3921"/>
      <path d="M120.5,118.907 L130.5,118.907" fill-opacity="0" stroke="#000000" stroke-width="1" id="path3923"/>
      <path d="M20.5,158.907 L130.5,158.907 L110.5,158.907 L110.5,178.907 L110.5,158.907 L40.5,158.907 L40.5,178.907" fill-opacity="0" stroke="#000000" stroke-width="1" id="path3925"/>
    </g>
    <g id="rect3024-1">
      <path d="M381.326,30.513 L560.243,30.513 L560.243,80.502 L381.326,80.502 z" fill="#FFCC00"/>
      <path d="M381.326,30.513 L560.243,30.513 L560.243,80.502 L381.326,80.502 z" fill-opacity="0" stroke="#000000" stroke-width="1.026" stroke-linecap="round" stroke-linejoin="bevel"/>
    </g>
    <text transform="matrix(1, 0, 0, 1, 421.024, 54.406)" id="tspan3043-4">
      <tspan x="-30.524" y="6.5" font-family="Helvetica" font-size="20" fill="#000000">telnetd</tspan>
    </text>
    <g id="path3978">
      <path d="M131.508,34.841 C131.508,49.093 106.669,60.646 76.028,60.646 C45.388,60.646 20.549,49.093 20.549,34.841 C20.549,20.59 45.388,9.037 76.028,9.037 C106.669,9.037 131.508,20.59 131.508,34.841 z" fill="#FFCC00"/>
      <path d="M131.508,34.841 C131.508,49.093 106.669,60.646 76.028,60.646 C45.388,60.646 20.549,49.093 20.549,34.841 C20.549,20.59 45.388,9.037 76.028,9.037 C106.669,9.037 131.508,20.59 131.508,34.841 z" fill-opacity="0" stroke="#000000" stroke-width="1.849" stroke-linecap="round" stroke-linejoin="bevel"/>
    </g>
    <text transform="matrix(1, 0, 0, 1, 75.463, 34.406)" id="tspan3982">
      <tspan x="-24.963" y="6.5" font-family="Helvetica" font-size="20" fill="#000000">telnet</tspan>
    </text>
    <g id="g4000">
      <path d="M240.5,45.907 C240.5,59.714 227.069,70.907 210.5,70.907 C193.931,70.907 180.5,59.714 180.5,45.907 C180.5,32.099 193.931,20.907 210.5,20.907 C227.069,20.907 240.5,32.099 240.5,45.907 z" fill="#BC5FD3" id="path3986"/>
      <path d="M250.5,25.906 C250.5,34.191 239.307,40.907 225.5,40.907 C211.693,40.907 200.5,34.191 200.5,25.906 C200.5,17.622 211.693,10.906 225.5,10.906 C239.307,10.906 250.5,17.622 250.5,25.906 z" fill="#BC5FD3" id="path3988"/>
      <path d="M260.5,55.907 C260.5,69.714 251.546,80.907 240.5,80.907 C229.454,80.907 220.5,69.714 220.5,55.907 C220.5,42.099 229.454,30.907 240.5,30.907 C251.546,30.907 260.5,42.099 260.5,55.907 z" fill="#BC5FD3" id="path3990"/>
      <path d="M280.5,45.907 C280.5,54.191 271.546,60.907 260.5,60.907 C249.454,60.907 240.5,54.191 240.5,45.907 C240.5,37.622 249.454,30.907 260.5,30.907 C271.546,30.907 280.5,37.622 280.5,45.907 z" fill="#BC5FD3" id="path3992"/>
      <path d="M310.5,25.906 C310.5,39.714 294.83,50.907 275.5,50.907 C256.17,50.907 240.5,39.714 240.5,25.906 C240.5,12.099 256.17,0.906 275.5,0.906 C294.83,0.906 310.5,12.099 310.5,25.906 z" fill="#BC5FD3" id="path3994"/>
      <path d="M310.5,60.907 C310.5,77.475 297.069,90.907 280.5,90.907 C263.931,90.907 250.5,77.475 250.5,60.907 C250.5,44.338 263.931,30.907 280.5,30.907 C297.069,30.907 310.5,44.338 310.5,60.907 z" fill="#BC5FD3" id="path3998"/>
    </g>
    <text transform="matrix(1, 0, 0, 1, 244.911, 44.406)" id="tspan4010">
      <tspan x="-34.411" y="6.5" font-family="Helvetica" font-size="20" fill="#FFFFFF">Internet</tspan>
    </text>
  </g>
</svg>
