<?xml version="1.0" encoding="UTF-8"?>
<!DOCTYPE svg PUBLIC "-//W3C//DTD SVG 1.1//EN" "http://www.w3.org/Graphics/SVG/1.1/DTD/svg11.dtd">
<svg version="1.1" xmlns="http://www.w3.org/2000/svg" xmlns:xlink="http://www.w3.org/1999/xlink" x="0" y="0" width="570.756" height="281" viewBox="0, 0, 570.756, 281">
  <g id="Layer_1">
    <g id="rect3022">
      <path d="M371.325,0.512 L570.245,0.512 L570.245,280.488 L371.325,280.488 z" fill="#B3B3B3"/>
      <path d="M371.325,0.512 L570.245,0.512 L570.245,280.488 L371.325,280.488 z" fill-opacity="0" stroke="#000000" stroke-width="1.023" stroke-linecap="round" stroke-linejoin="bevel"/>
    </g>
    <path d="M487.686,92.772 C484.416,96.231 481.186,99.743 478.45,103.65 C477.667,104.768 476.95,105.93 476.2,107.07 C469.763,118.091 466.602,130.579 463.665,142.887 C462.361,149.004 461.276,155.191 460.986,161.45 C460.882,163.702 460.903,166.893 461.246,169.203 C461.37,170.034 461.637,170.837 461.833,171.654 C462.697,173.965 464.381,175.525 466.774,176.074 C466.235,175.971 466.084,177.595 466.506,176.516 C466.497,176.501 466.716,176.37 466.725,176.385 L466.725,176.385 C468.245,176.087 467.451,178.417 466.07,177.794 C462.851,177.394 460.653,175.083 459.453,172.163 C459.205,171.247 458.881,170.35 458.71,169.417 C457.098,160.637 459.061,150.901 460.648,142.286 C461.234,139.831 461.764,137.363 462.406,134.923 C465.063,124.828 468.563,114.837 473.997,105.879 C477.539,100.678 481.397,95.684 486.175,91.542 C486.262,91.435 487.773,92.666 487.686,92.772 z" fill="#ECB8A2" id="path3899"/>
    <path d="M513.069,92.097 C517.44,100.995 521.818,109.88 525.821,118.952 C529.55,127.81 532.091,137.13 532.79,146.737 C533.2,152.374 532.939,154.45 532.674,160 C531.808,166.803 531.504,175.582 527.347,181.398 C526.811,182.148 526.103,182.759 525.481,183.44 C524.794,183.856 524.159,184.375 523.42,184.688 C521.109,185.668 518.08,185.385 516.229,183.6 C515.977,183.357 515.82,183.032 515.616,182.748 C515.446,181.645 515.32,182.14 515.973,181.258 C515.994,181.206 516.728,181.5 516.707,181.551 L516.707,181.551 C516.951,181.576 516.829,181.529 517.044,181.747 C518.384,182.812 520.252,183.536 521.958,182.929 C522.53,182.725 523.024,182.344 523.557,182.051 C524.077,181.491 524.676,180.994 525.118,180.37 C528.928,174.987 529.038,166.165 529.788,159.894 C530.002,154.566 530.236,152.428 529.829,147.028 C529.125,137.67 526.642,128.597 523.046,119.952 C519.106,110.836 514.672,101.933 511.023,92.697 C510.98,92.552 513.026,91.952 513.069,92.097 z" fill="#ECB8A2" id="path3901"/>
    <path d="M73.329,57.122 C75.001,70.979 76.354,84.873 77.794,98.756 C78.883,109.903 80.337,120.998 82.333,132.017 C82.353,132.098 81.206,132.38 81.186,132.299 L81.186,132.299 C80.393,130.364 79.415,128.494 78.806,126.494 C78.012,123.887 77.506,121.198 76.991,118.522 C75.591,111.243 75.141,106.47 74.236,99.063 C72.821,85.163 71.539,71.242 70.802,57.287 C70.79,57.109 73.317,56.943 73.329,57.122 z" fill="#ECB8A2" id="path3984"/>
    <path d="M107.207,32.495 C127.041,30.505 146.946,29.252 166.838,27.988 C206.996,25.933 247.291,24.874 287.47,27.12 C296.054,27.6 304.617,28.401 313.191,29.042 C333.759,31.047 354.279,33.898 374.394,38.713 C380.827,40.252 388.657,42.444 394.965,45.014 C396.417,45.606 397.761,46.435 399.159,47.145 C399.51,47.622 400.361,48.002 400.214,48.577 C399.355,51.933 393.069,49.359 391.306,48.829 C391.258,48.809 391.544,48.13 391.592,48.15 L391.592,48.15 C392.832,48.226 394.073,48.282 395.312,48.377 C396.104,48.439 396.936,48.35 397.683,48.62 C398.155,48.791 398.559,49.193 398.791,49.637 C398.959,49.957 398.195,49.23 397.896,49.027 C389.683,46.154 381.279,44.169 372.737,42.479 C352.526,38.481 332.069,35.853 311.535,34.209 C302.99,33.651 294.451,32.97 285.898,32.536 C246.671,30.547 207.36,30.998 168.118,32.197 C148.033,33.027 127.957,34.165 107.858,34.592 C107.71,34.638 107.058,32.541 107.207,32.495 z" fill="#ECB8A2" id="path3914"/>
    <path d="M405.625,57.631 C405.842,59.572 406.116,61.486 406.275,63.452 C407.274,75.817 407.338,88.591 407.389,101.097 C407.444,114.916 407.316,123.721 407.188,137.604 C407.054,152.48 406.622,167.335 406.514,182.212 C406.497,184.6 406.495,186.989 406.521,189.376 C406.531,190.264 406.795,191.223 406.626,192.031 C406.536,192.461 406.331,191.338 406.184,190.992 C406.223,190.902 406.804,192.134 406.764,192.224 L406.764,192.224 C406.306,192.393 405.793,193.233 405.389,192.732 C404.925,192.157 404.794,190.75 404.665,189.623 C404.389,187.208 404.274,184.711 404.187,182.23 C403.668,167.342 404.218,152.376 404.26,137.483 C404.382,126.917 404.574,111.776 404.637,101.142 C404.709,88.857 404.805,76.455 404.19,64.216 C404.096,62.343 403.921,60.493 403.787,58.632 C403.754,58.349 405.592,57.348 405.625,57.631 z" fill="#ECB8A2" id="path3066"/>
    <g id="rect3026">
      <path d="M381.326,172.498 L560.243,172.498 L560.243,222.487 L381.326,222.487 z" fill="#DE8787"/>
      <path d="M381.326,172.498 L560.243,172.498 L560.243,222.487 L381.326,222.487 z" fill-opacity="0" stroke="#000000" stroke-width="1.026" stroke-linecap="round" stroke-linejoin="bevel"/>
    </g>
    <g id="g3096">
      <g id="rect3024">
        <path d="M381.041,71.061 L440.389,71.061 L440.389,100.787 L381.041,100.787 z" fill="#DE8787"/>
        <path d="M381.041,71.061 L440.389,71.061 L440.389,100.787 L381.041,100.787 z" fill-opacity="0" stroke="#000000" stroke-width="0.456" stroke-linecap="round" stroke-linejoin="bevel"/>
      </g>
      <text transform="matrix(1, 0, 0, 1, 412.626, 83.907)" id="tspan3043">
        <tspan x="-22.126" y="7" font-family="TrebuchetMS" font-size="20" fill="#FFFFFF">Shell</tspan>
      </text>
    </g>
    <text transform="matrix(1, 0, 0, 1, 471.034, 194.406)" id="tspan3047">
      <tspan x="-80.534" y="6.5" font-family="Helvetica" font-size="20" fill="#FFFFFF">Operating System</tspan>
    </text>
    <g>
      <text transform="matrix(1, 0, 0, 1, 72.788, 196.406)" id="tspan3908">
        <tspan x="-38.288" y="6.5" font-family="Helvetica" font-size="20" fill="#D35F5F">Terminal</tspan>
      </text>
      <text transform="matrix(1, 0, 0, 1, 75.015, 221.406)" id="tspan3927">
        <tspan x="-40.515" y="6.5" font-family="Helvetica" font-size="20" fill="#D35F5F">Emulator</tspan>
      </text>
    </g>
    <text transform="matrix(1, 0, 0, 1, 474.906, 254.406)" id="tspan3912">
      <tspan x="-44.406" y="6.5" font-family="Helvetica" font-size="20" fill="#FFFFFF">Computer</tspan>
    </text>
    <g id="g3929">
      <g id="rect2987">
        <path d="M20.5,108.907 L130.5,108.907 L130.5,178.907 L20.5,178.907 z" fill="#CCCCCC"/>
        <path d="M20.5,108.907 L130.5,108.907 L130.5,178.907 L20.5,178.907 z" fill-opacity="0" stroke="#000000" stroke-width="1" stroke-linecap="round" stroke-linejoin="bevel"/>
      </g>
      <g id="rect2991">
        <path d="M30.5,118.907 L120.5,118.907 L120.5,168.907 L30.5,168.907 z" fill="#000000"/>
        <path d="M30.5,118.907 L120.5,118.907 L120.5,168.907 L30.5,168.907 z" fill-opacity="0" stroke="#000000" stroke-width="1" stroke-linecap="round" stroke-linejoin="bevel"/>
      </g>
      <text transform="matrix(1, 0, 0, 1, 45.455, 131.987)" id="tspan3004">
        <tspan x="-11.623" y="6.5" font-family="Helvetica" font-size="20" fill="#FFFFFF">$_</tspan>
      </text>
      <path d="M30.5,108.907 L110.5,108.907 L110.5,118.907 L30.5,118.907 z" fill="#000080" id="rect3919"/>
      <path d="M20.5,118.907 C30.5,118.907 120.5,118.907 120.5,118.907 L120.5,108.907 L120.5,108.907" fill-opacity="0" stroke="#000000" stroke-width="1" id="path3921"/>
      <path d="M120.5,118.907 L130.5,118.907" fill-opacity="0" stroke="#000000" stroke-width="1" id="path3923"/>
      <path d="M20.5,158.907 L130.5,158.907 L110.5,158.907 L110.5,178.907 L110.5,158.907 L40.5,158.907 L40.5,178.907" fill-opacity="0" stroke="#000000" stroke-width="1" id="path3925"/>
    </g>
    <g id="rect3024-1">
      <path d="M381.042,30.229 L439.694,30.229 L439.694,60.647 L381.042,60.647 z" fill="#89A02C"/>
      <path d="M381.042,30.229 L439.694,30.229 L439.694,60.647 L381.042,60.647 z" fill-opacity="0" stroke="#000000" stroke-width="0.458" stroke-linecap="round" stroke-linejoin="bevel"/>
    </g>
    <text transform="matrix(1, 0, 0, 1, 412.123, 44.406)" id="tspan3043-4">
      <tspan x="-21.623" y="6.5" font-family="Helvetica" font-size="20" fill="#FFFFFF">sshd</tspan>
    </text>
    <g id="path3978">
      <path d="M131.508,34.841 C131.508,49.093 106.669,60.646 76.028,60.646 C45.388,60.646 20.549,49.093 20.549,34.841 C20.549,20.59 45.388,9.037 76.028,9.037 C106.669,9.037 131.508,20.59 131.508,34.841 z" fill="#89A02C"/>
      <path d="M131.508,34.841 C131.508,49.093 106.669,60.646 76.028,60.646 C45.388,60.646 20.549,49.093 20.549,34.841 C20.549,20.59 45.388,9.037 76.028,9.037 C106.669,9.037 131.508,20.59 131.508,34.841 z" fill-opacity="0" stroke="#000000" stroke-width="1.849" stroke-linecap="round" stroke-linejoin="bevel"/>
    </g>
    <text transform="matrix(1, 0, 0, 1, 76.562, 34.406)" id="tspan3982">
      <tspan x="-16.062" y="6.5" font-family="Helvetica" font-size="20" fill="#FFFFFF">ssh</tspan>
    </text>
    <g id="g4000">
      <path d="M240.5,45.907 C240.5,59.714 227.069,70.907 210.5,70.907 C193.931,70.907 180.5,59.714 180.5,45.907 C180.5,32.099 193.931,20.907 210.5,20.907 C227.069,20.907 240.5,32.099 240.5,45.907 z" fill="#BC5FD3" id="path3986"/>
      <path d="M250.5,25.906 C250.5,34.191 239.307,40.907 225.5,40.907 C211.693,40.907 200.5,34.191 200.5,25.906 C200.5,17.622 211.693,10.906 225.5,10.906 C239.307,10.906 250.5,17.622 250.5,25.906 z" fill="#BC5FD3" id="path3988"/>
      <path d="M260.5,55.907 C260.5,69.714 251.546,80.907 240.5,80.907 C229.454,80.907 220.5,69.714 220.5,55.907 C220.5,42.099 229.454,30.907 240.5,30.907 C251.546,30.907 260.5,42.099 260.5,55.907 z" fill="#BC5FD3" id="path3990"/>
      <path d="M280.5,45.907 C280.5,54.191 271.546,60.907 260.5,60.907 C249.454,60.907 240.5,54.191 240.5,45.907 C240.5,37.622 249.454,30.907 260.5,30.907 C271.546,30.907 280.5,37.622 280.5,45.907 z" fill="#BC5FD3" id="path3992"/>
      <path d="M310.5,25.906 C310.5,39.714 294.83,50.907 275.5,50.907 C256.17,50.907 240.5,39.714 240.5,25.906 C240.5,12.099 256.17,0.906 275.5,0.906 C294.83,0.906 310.5,12.099 310.5,25.906 z" fill="#BC5FD3" id="path3994"/>
      <path d="M310.5,60.907 C310.5,77.475 297.069,90.907 280.5,90.907 C263.931,90.907 250.5,77.475 250.5,60.907 C250.5,44.338 263.931,30.907 280.5,30.907 C297.069,30.907 310.5,44.338 310.5,60.907 z" fill="#BC5FD3" id="path3998"/>
    </g>
    <text transform="matrix(1, 0, 0, 1, 244.911, 44.406)" id="tspan4010">
      <tspan x="-34.411" y="6.5" font-family="Helvetica" font-size="20" fill="#FFFFFF">Internet</tspan>
    </text>
    <g id="rect3115">
      <path d="M430.5,110.906 L490.5,110.906 L490.5,140.906 L430.5,140.906 z" fill="#DE8787"/>
      <path d="M430.5,110.906 L490.5,110.906 L490.5,140.906 L430.5,140.906 z" fill-opacity="0" stroke="#000000" stroke-width="1" stroke-linecap="round" stroke-linejoin="bevel"/>
    </g>
    <g id="rect3117">
      <path d="M499.667,111.184 L559.667,111.184 L559.667,141.184 L499.667,141.184 z" fill="#DE8787"/>
      <path d="M499.667,111.184 L559.667,111.184 L559.667,141.184 L499.667,141.184 z" fill-opacity="0" stroke="#000000" stroke-width="1" stroke-linecap="round" stroke-linejoin="bevel"/>
    </g>
    <g id="rect3887">
      <path d="M471.538,70.973 L548.767,70.973 L548.767,100.84 L471.538,100.84 z" fill="#0088AA"/>
      <path d="M471.538,70.973 L548.767,70.973 L548.767,100.84 L471.538,100.84 z" fill-opacity="0" stroke="#000000" stroke-width="1.132" stroke-linecap="round" stroke-linejoin="bevel"/>
    </g>
    <g id="g3889">
      <g id="rect3891">
        <path d="M381.041,71.061 L440.389,71.061 L440.389,100.787 L381.041,100.787 z" fill="#DE8787"/>
        <path d="M381.041,71.061 L440.389,71.061 L440.389,100.787 L381.041,100.787 z" fill-opacity="0" stroke="#000000" stroke-width="0.456" stroke-linecap="round" stroke-linejoin="bevel"/>
      </g>
      <text transform="matrix(1, 0, 0, 1, 413.236, 84.407)" id="tspan3895">
        <tspan x="-22.736" y="6.5" font-family="Helvetica" font-size="20" fill="#FFFFFF">Shell</tspan>
      </text>
    </g>
    <text transform="matrix(1, 0, 0, 1, 511.015, 84.407)" id="tspan3905">
      <tspan x="-30.515" y="6.5" font-family="Helvetica" font-size="20" fill="#FFFFFF">screen</tspan>
    </text>
    <text transform="matrix(1, 0, 0, 1, 463.236, 124.407)" id="tspan3911">
      <tspan x="-22.736" y="6.5" font-family="Helvetica" font-size="20" fill="#FFFFFF">Shell</tspan>
    </text>
    <text transform="matrix(1, 0, 0, 1, 533.236, 124.407)" id="tspan3917">
      <tspan x="-22.736" y="6.5" font-family="Helvetica" font-size="20" fill="#FFFFFF">Shell</tspan>
    </text>
  </g>
</svg>
