<?xml version="1.0" encoding="UTF-8"?>
<!DOCTYPE svg PUBLIC "-//W3C//DTD SVG 1.1//EN" "http://www.w3.org/Graphics/SVG/1.1/DTD/svg11.dtd">
<svg version="1.1" xmlns="http://www.w3.org/2000/svg" xmlns:xlink="http://www.w3.org/1999/xlink" x="0" y="0" width="570.756" height="281" viewBox="0, 0, 570.756, 281">
  <g id="Layer_1">
    <g id="rect3022">
      <path d="M371.325,0.512 L570.245,0.512 L570.245,280.488 L371.325,280.488 z" fill="#B3B3B3"/>
      <path d="M371.325,0.512 L570.245,0.512 L570.245,280.488 L371.325,280.488 z" fill-opacity="0" stroke="#000000" stroke-width="1.023" stroke-linecap="round" stroke-linejoin="bevel"/>
    </g>
    <path d="M107.207,32.495 C127.041,30.505 146.946,29.252 166.838,27.988 C206.996,25.933 247.291,24.874 287.47,27.12 C296.054,27.6 304.617,28.401 313.191,29.042 C333.759,31.047 354.279,33.898 374.394,38.713 C380.827,40.252 388.657,42.444 394.965,45.014 C396.417,45.606 397.761,46.435 399.159,47.145 C399.51,47.622 400.361,48.002 400.214,48.577 C399.355,51.933 393.069,49.359 391.306,48.829 C391.258,48.809 391.544,48.13 391.592,48.15 L391.592,48.15 C392.832,48.226 394.073,48.282 395.312,48.377 C396.104,48.439 396.936,48.35 397.683,48.62 C398.155,48.791 398.559,49.193 398.791,49.637 C398.959,49.957 398.195,49.23 397.896,49.027 C389.683,46.154 381.279,44.169 372.737,42.479 C352.526,38.481 332.069,35.853 311.535,34.209 C302.99,33.651 294.451,32.97 285.898,32.536 C246.671,30.547 207.36,30.998 168.118,32.197 C148.033,33.027 127.957,34.165 107.858,34.592 C107.71,34.638 107.058,32.541 107.207,32.495 z" fill="#ECB8A2" id="path3914"/>
    <path d="M474.378,42.281 C474.616,43.258 474.916,44.221 475.09,45.211 C476.185,51.435 476.255,57.866 476.311,64.161 C476.372,71.118 476.231,75.55 476.09,82.539 C475.944,90.027 475.471,97.505 475.352,104.994 C475.333,106.196 475.331,107.399 475.36,108.601 C475.371,109.048 475.66,109.53 475.475,109.937 C475.376,110.154 475.152,109.589 474.99,109.414 C475.034,109.369 475.67,109.989 475.627,110.034 L475.627,110.034 C475.124,110.12 474.563,110.542 474.12,110.29 C473.612,110.001 473.468,109.293 473.326,108.725 C473.024,107.509 472.898,106.252 472.803,105.003 C472.234,97.509 472.837,89.975 472.882,82.478 C473.016,77.159 473.226,69.537 473.295,64.184 C473.375,58 473.479,51.756 472.806,45.595 C472.703,44.653 472.511,43.722 472.364,42.785 C472.328,42.642 474.342,42.138 474.378,42.281 z" fill="#ECB8A2" id="path3066"/>
    <g id="path3060">
      <path d="M29.456,70.218 C27.307,76.908 26.124,84.007 26.066,91.043 C26.053,92.575 26.193,94.105 26.257,95.636 C26.644,97.799 27.08,103.882 30.596,103.673 C30.873,103.656 31.093,103.425 31.344,103.307 C31.858,103.067 32.376,102.835 32.892,102.599 C34.449,101.676 35.66,100.33 36.94,99.077 C36.968,99.023 37.736,99.414 37.709,99.469 L37.709,99.469 C36.922,101.689 36.243,102.959 34.318,104.462 C33.648,104.842 33.048,105.389 32.307,105.602 C30.461,106.13 28.698,106.138 27.106,104.967 C24.247,102.864 23.805,98.919 23.231,95.757 C23.145,94.139 22.97,92.524 22.974,90.904 C22.991,83.568 24.315,76.089 27.049,69.283 C27.115,69.113 29.522,70.048 29.456,70.218 z" fill="#000000"/>
      <path d="M29.456,70.218 C27.307,76.908 26.124,84.007 26.066,91.043 C26.053,92.575 26.193,94.105 26.257,95.636 C26.644,97.799 27.08,103.882 30.596,103.673 C30.873,103.656 31.093,103.425 31.344,103.307 C31.858,103.067 32.376,102.835 32.892,102.599 C34.449,101.676 35.66,100.33 36.94,99.077 C36.968,99.023 37.736,99.414 37.709,99.469 L37.709,99.469 C36.922,101.689 36.243,102.959 34.318,104.462 C33.648,104.842 33.048,105.389 32.307,105.602 C30.461,106.13 28.698,106.138 27.106,104.967 C24.247,102.864 23.805,98.919 23.231,95.757 C23.145,94.139 22.97,92.524 22.974,90.904 C22.991,83.568 24.315,76.089 27.049,69.283 C27.115,69.113 29.522,70.048 29.456,70.218 z" fill-opacity="0" stroke="#000000" stroke-width="1" stroke-linecap="round" stroke-linejoin="bevel"/>
    </g>
    <g id="g2993">
      <g id="rect2987">
        <path d="M20.5,10.906 L130.5,10.906 L130.5,80.907 L20.5,80.907 z" fill="#B3B3B3"/>
        <path d="M20.5,10.906 L130.5,10.906 L130.5,80.907 L20.5,80.907 z" fill-opacity="0" stroke="#000000" stroke-width="1" stroke-linecap="round" stroke-linejoin="bevel"/>
      </g>
      <g id="path2989">
        <path d="M20.5,86.906 L0.5,116.906 L150.5,116.906 L130.5,86.906 L20.5,86.906 z" fill="#B3B3B3"/>
        <path d="M20.5,86.906 L0.5,116.906 L150.5,116.906 L130.5,86.906 L20.5,86.906 z" fill-opacity="0" stroke="#000000" stroke-width="1"/>
      </g>
      <g id="rect2991">
        <path d="M30.5,20.906 L120.5,20.906 L120.5,70.907 L30.5,70.907 z" fill="#000000"/>
        <path d="M30.5,20.906 L120.5,20.906 L120.5,70.907 L30.5,70.907 z" fill-opacity="0" stroke="#000000" stroke-width="1" stroke-linecap="round" stroke-linejoin="bevel"/>
      </g>
    </g>
    <text transform="matrix(1, 0, 0, 1, 45.455, 33.987)" id="tspan3004">
      <tspan x="-11.623" y="6.5" font-family="Helvetica" font-size="20" fill="#FFFFFF">$_</tspan>
    </text>
    <g id="rect3024">
      <path d="M381.326,10.513 L560.243,10.513 L560.243,60.502 L381.326,60.502 z" fill="#DE8787"/>
      <path d="M381.326,10.513 L560.243,10.513 L560.243,60.502 L381.326,60.502 z" fill-opacity="0" stroke="#000000" stroke-width="1.026" stroke-linecap="round" stroke-linejoin="bevel"/>
    </g>
    <g id="rect3026">
      <path d="M381.326,82.498 L560.243,82.498 L560.243,132.487 L381.326,132.487 z" fill="#DE8787"/>
      <path d="M381.326,82.498 L560.243,82.498 L560.243,132.487 L381.326,132.487 z" fill-opacity="0" stroke="#000000" stroke-width="1.026" stroke-linecap="round" stroke-linejoin="bevel"/>
    </g>
    <text transform="matrix(1, 0, 0, 1, 413.236, 34.406)" id="tspan3043">
      <tspan x="-22.736" y="6.5" font-family="Helvetica" font-size="20" fill="#FFFFFF">Shell</tspan>
    </text>
    <text transform="matrix(1, 0, 0, 1, 471.034, 104.407)" id="tspan3047">
      <tspan x="-80.534" y="6.5" font-family="Helvetica" font-size="20" fill="#FFFFFF">Operating System</tspan>
    </text>
    <text transform="matrix(1, 0, 0, 1, 68.788, 144.406)" id="tspan3908">
      <tspan x="-38.288" y="6.5" font-family="Helvetica" font-size="20" fill="#D35F5F">Terminal</tspan>
    </text>
    <text transform="matrix(1, 0, 0, 1, 474.906, 254.406)" id="tspan3912">
      <tspan x="-44.406" y="6.5" font-family="Helvetica" font-size="20" fill="#FFFFFF">Computer</tspan>
    </text>
  </g>
</svg>
