<?xml version="1.0" encoding="UTF-8" standalone="no"?>
<!-- Created with Inkscape (http://www.inkscape.org/) -->

<svg
   xmlns:dc="http://purl.org/dc/elements/1.1/"
   xmlns:cc="http://creativecommons.org/ns#"
   xmlns:rdf="http://www.w3.org/1999/02/22-rdf-syntax-ns#"
   xmlns:svg="http://www.w3.org/2000/svg"
   xmlns="http://www.w3.org/2000/svg"
   xmlns:sodipodi="http://sodipodi.sourceforge.net/DTD/sodipodi-0.dtd"
   xmlns:inkscape="http://www.inkscape.org/namespaces/inkscape"
   width="391"
   height="472.33948"
   id="svg2"
   version="1.1"
   inkscape:version="0.48.4 r9939"
   sodipodi:docname="thecomputer.svg">
  <defs
     id="defs4" />
  <sodipodi:namedview
     id="base"
     pagecolor="#ffffff"
     bordercolor="#666666"
     borderopacity="1.0"
     inkscape:pageopacity="0.0"
     inkscape:pageshadow="2"
     inkscape:zoom="1.3152344"
     inkscape:cx="176.88996"
     inkscape:cy="10.5"
     inkscape:document-units="px"
     inkscape:current-layer="layer1"
     showgrid="true"
     fit-margin-top="0"
     fit-margin-left="0"
     fit-margin-right="0"
     fit-margin-bottom="0"
     inkscape:window-width="1048"
     inkscape:window-height="1630"
     inkscape:window-x="0"
     inkscape:window-y="0"
     inkscape:window-maximized="1">
    <inkscape:grid
       type="xygrid"
       id="grid2985"
       empspacing="5"
       visible="true"
       enabled="true"
       snapvisiblegridlinesonly="true"
       originx="-79.5px"
       originy="-509.5px" />
  </sodipodi:namedview>
  <metadata
     id="metadata7">
    <rdf:RDF>
      <cc:Work
         rdf:about="">
        <dc:format>image/svg+xml</dc:format>
        <dc:type
           rdf:resource="http://purl.org/dc/dcmitype/StillImage" />
        <dc:title />
      </cc:Work>
    </rdf:RDF>
  </metadata>
  <g
     inkscape:label="Layer 1"
     inkscape:groupmode="layer"
     id="layer1"
     transform="translate(-79.5,-70.522712)">
    <rect
       style="fill:#5f8dd3;fill-opacity:1;stroke:#ffffff;stroke-linecap:round;stroke-linejoin:bevel;stroke-opacity:0"
       id="rect2987"
       width="110"
       height="100"
       x="80"
       y="272.36218" />
    <rect
       style="fill:#89a02c;fill-opacity:1;stroke:#ffffff;stroke-linecap:round;stroke-linejoin:bevel;stroke-opacity:0"
       id="rect3007"
       width="110"
       height="100"
       x="220"
       y="272.36218" />
    <rect
       style="fill:#87cdde;fill-opacity:1;stroke:#ffffff;stroke-linecap:round;stroke-linejoin:bevel;stroke-opacity:0"
       id="rect3012"
       width="110"
       height="100"
       x="360"
       y="272.36218" />
    <g
       id="g3808"
       style="fill:#ff7f2a">
      <rect
         y="432.36218"
         x="230"
         height="90"
         width="90"
         id="rect3014"
         style="fill:#ff7f2a;fill-opacity:1;stroke:#ffffff;stroke-linecap:round;stroke-linejoin:bevel;stroke-opacity:0" />
      <path
         d="m 320,432.36218 c 0,11.0457 -20.14719,20 -45,20 -24.85281,0 -45,-8.9543 -45,-20 0,-11.04569 20.14719,-20 45,-20 24.85281,0 45,8.95431 45,20 z"
         sodipodi:ry="20"
         sodipodi:rx="45"
         sodipodi:cy="432.36218"
         sodipodi:cx="275"
         id="path3016"
         style="fill:#ff7f2a;fill-opacity:1;stroke:#ffffff;stroke-linecap:round;stroke-linejoin:bevel;stroke-opacity:1"
         sodipodi:type="arc" />
      <path
         d="m 320,522.36218 c 0,11.0457 -20.14719,20 -45,20 -24.85281,0 -45,-8.9543 -45,-20 0,-11.04569 20.14719,-20 45,-20 24.85281,0 45,8.95431 45,20 z"
         sodipodi:ry="20"
         sodipodi:rx="45"
         sodipodi:cy="522.36218"
         sodipodi:cx="275"
         id="path3018"
         style="fill:#ff7f2a;fill-opacity:1;stroke:#ffffff;stroke-linecap:round;stroke-linejoin:bevel;stroke-opacity:0"
         sodipodi:type="arc" />
    </g>
    <g
       id="g3800"
       transform="translate(-28.131868,48.660529)"
       style="fill:#d35f5f">
      <path
         d="m 280,62.362183 c 0,16.568542 -15.67003,30 -35,30 -19.32997,0 -35,-13.431458 -35,-30 0,-16.568543 15.67003,-30 35,-30 19.32997,0 35,13.431457 35,30 z"
         sodipodi:ry="30"
         sodipodi:rx="35"
         sodipodi:cy="62.362183"
         sodipodi:cx="245"
         id="path3788"
         style="fill:#d35f5f;fill-opacity:1;stroke:#ffffff;stroke-linecap:round;stroke-linejoin:bevel;stroke-opacity:0"
         sodipodi:type="arc" />
      <path
         d="m 310,102.36218 c 0,16.56855 -11.19288,30 -25,30 -13.80712,0 -25,-13.43145 -25,-30 0,-16.56854 11.19288,-29.999997 25,-29.999997 13.80712,0 25,13.431457 25,29.999997 z"
         sodipodi:ry="30"
         sodipodi:rx="25"
         sodipodi:cy="102.36218"
         sodipodi:cx="285"
         id="path3790"
         style="fill:#d35f5f;fill-opacity:1;stroke:#ffffff;stroke-linecap:round;stroke-linejoin:bevel;stroke-opacity:0"
         sodipodi:type="arc" />
      <path
         d="m 410,87.362183 c 0,19.329967 -13.43146,34.999997 -30,34.999997 -16.56854,0 -30,-15.67003 -30,-34.999997 0,-19.329967 13.43146,-35 30,-35 16.56854,0 30,15.670033 30,35 z"
         sodipodi:ry="35"
         sodipodi:rx="30"
         sodipodi:cy="87.362183"
         sodipodi:cx="380"
         id="path3792"
         style="fill:#d35f5f;fill-opacity:1;stroke:#ffffff;stroke-linecap:round;stroke-linejoin:bevel;stroke-opacity:0"
         sodipodi:type="arc" />
      <path
         d="m 370,62.362183 c 0,22.09139 -24.62434,39.999997 -55,39.999997 -30.37566,0 -55,-17.908607 -55,-39.999997 0,-22.09139 24.62434,-40 55,-40 30.37566,0 55,17.90861 55,40 z"
         sodipodi:ry="40"
         sodipodi:rx="55"
         sodipodi:cy="62.362183"
         sodipodi:cx="315"
         id="path3794"
         style="fill:#d35f5f;fill-opacity:1;stroke:#ffffff;stroke-linecap:round;stroke-linejoin:bevel;stroke-opacity:0"
         sodipodi:type="arc" />
      <path
         d="m 380,122.36218 c 0,22.09139 -22.38576,40 -50,40 -27.61424,0 -50,-17.90861 -50,-40 0,-22.09139 22.38576,-39.999997 50,-39.999997 27.61424,0 50,17.908607 50,39.999997 z"
         sodipodi:ry="40"
         sodipodi:rx="50"
         sodipodi:cy="122.36218"
         sodipodi:cx="330"
         id="path3796"
         style="fill:#d35f5f;fill-opacity:1;stroke:#ffffff;stroke-linecap:round;stroke-linejoin:bevel;stroke-opacity:0"
         sodipodi:type="arc" />
      <path
         d="m 340,112.36218 c 0,22.09139 -31.34007,40 -70,40 -38.65993,0 -70,-17.90861 -70,-40 0,-22.091387 31.34007,-39.999997 70,-39.999997 38.65993,0 70,17.90861 70,39.999997 z"
         sodipodi:ry="40"
         sodipodi:rx="70"
         sodipodi:cy="112.36218"
         sodipodi:cx="270"
         id="path3798"
         style="fill:#d35f5f;fill-opacity:1;stroke:#ffffff;stroke-linecap:round;stroke-linejoin:bevel;stroke-opacity:0"
         sodipodi:type="arc" />
    </g>
    <path
       style="fill:#aa87de;fill-opacity:1;stroke:#ffffff;stroke-linecap:round;stroke-linejoin:bevel;stroke-opacity:0"
       id="path3821"
       d="m 276.24225,383.25026 c -1.35284,5.69701 -1.80697,11.54335 -2.00896,17.37861 -0.006,0.81142 -0.0151,1.62282 -0.018,2.43426 -0.002,0.57733 0.005,1.15467 0.003,1.73199 -0.001,0.33698 0.18833,1.12181 -0.12697,1.00292 -0.37708,-0.14218 -0.73056,-0.34046 -1.09584,-0.51069 0.0186,-0.0615 0.88831,0.20142 0.86972,0.26292 l 0,0 c -0.55642,0.35426 -1.02899,0.90418 -1.66927,1.06278 -0.88456,0.21911 -1.21477,-5.79385 -1.16998,-6.03499 0.0227,-6.1004 0.47718,-12.2615 2.39652,-18.09458 0.0542,-0.19941 2.87425,0.56738 2.82003,0.76678 z"
       inkscape:connector-curvature="0" />
    <path
       style="fill:#aa87de;fill-opacity:1;stroke:#ffffff;stroke-linecap:round;stroke-linejoin:bevel;stroke-opacity:0"
       id="path3823"
       d="m 267.66121,395.2715 c 1.57255,4.46732 2.52455,9.42448 5.45901,13.24964 0.20619,0.0848 0.48452,0.43261 0.61856,0.25445 0.1305,-0.17345 -0.41518,-0.17057 -0.56006,-0.3322 -0.0641,-0.0715 -0.0204,-0.19522 0.004,-0.28812 0.46107,-1.75436 0.82873,-3.30641 1.11278,-5.12012 0.65904,-2.09807 0.0195,-5.17042 0.93059,-7.15992 -0.0152,-0.13621 1.91109,-0.35133 1.9263,-0.21512 l 0,0 c 1.29312,2.28927 0.30091,5.36699 0.17908,7.80577 -0.33369,1.84237 -0.97413,6.8726 -3.22127,7.5781 -0.69388,0.21785 -1.47944,0.0544 -2.17644,-0.15323 -0.48333,-0.14399 -0.82754,-0.57665 -1.24131,-0.86498 -0.39259,-0.50046 -0.83645,-0.96466 -1.17778,-1.5014 -2.42522,-3.81373 -3.46998,-8.40142 -4.50452,-12.73373 -0.0367,-0.18746 2.61433,-0.7066 2.65103,-0.51914 z"
       inkscape:connector-curvature="0" />
    <path
       style="fill:#aa87de;fill-opacity:1;stroke:#ffffff;stroke-linecap:round;stroke-linejoin:bevel;stroke-opacity:0"
       id="path3825"
       d="m 275.41108,382.25074 c -2.8346,1.84179 -5.55334,3.84843 -7.98198,6.20333 -0.81885,0.96713 0.10134,0.0909 -0.54995,-0.63813 -0.67232,-0.75258 -1.4697,-0.0981 -0.67413,-0.4747 1.06746,-0.71701 2.32415,-1.06369 3.49213,-1.59319 2.09412,-0.9845 4.08487,-2.22533 6.37063,-2.70326 2.77107,-0.29348 3.97188,1.64459 5.27029,3.77986 1.86231,3.52243 3.02201,7.35534 3.08607,11.34565 -0.28513,1.14949 0.0551,0.75264 -0.9666,1.23498 0.001,0.008 -0.10995,0.0223 -0.11097,0.0145 l 0,0 c -1.11159,-0.31169 -0.71218,0.0259 -1.2106,-0.99799 -0.91367,-3.52108 -1.73169,-7.09826 -3.35885,-10.37842 -0.36228,-0.65021 -0.70464,-1.34067 -1.16286,-1.9357 -0.14679,-0.19061 -0.36442,-0.42101 -0.60947,-0.50511 -0.09,-0.0309 -0.33106,0.0376 -0.28198,-0.0439 0.0602,-0.0999 0.22977,-0.0401 0.34466,-0.0602 -2.13503,0.18774 -3.91266,1.71658 -5.88265,2.42812 -0.81867,0.3499 -1.74773,0.84116 -2.65049,0.96179 -0.0525,0.007 -0.0956,-0.0682 -0.14773,-0.0588 -0.13858,0.0247 -0.539,0.4079 -0.56036,0.42636 -2.40394,1.58007 -4.30803,-0.10827 -2.57118,-2.4124 2.38099,-2.70737 5.27053,-4.89128 8.425,-6.63274 0.14425,-0.1224 1.87527,1.9176 1.73102,2.04 z"
       inkscape:connector-curvature="0" />
    <path
       style="fill:#aa87de;fill-opacity:1;stroke:#ffffff;stroke-linecap:round;stroke-linejoin:bevel;stroke-opacity:0"
       id="path3827"
       d="m 196.30492,316.97953 c 4.87518,-2.07542 10.14264,-2.91841 15.3822,-3.43051 1.37958,0.0877 5.00855,-0.63852 6.05956,0.71996 0.144,0.18612 0.20904,0.42167 0.31356,0.63251 -0.82293,1.14851 -0.31958,1.08883 -1.17426,0.96613 -0.0752,0.0319 -0.52653,-1.03166 -0.45132,-1.06357 l 0,0 c 0.22065,-0.42047 0.10029,-0.21246 -0.19427,0.6943 0.0704,0.1248 0.1769,0.23529 0.21127,0.37441 0.0459,0.18588 -0.38304,-0.005 -0.5742,-0.0158 -1.11666,-0.0642 -2.2235,-0.032 -3.33802,0.0963 -5.06213,0.58824 -10.10181,1.44881 -14.97543,2.97335 -0.13769,0.089 -1.39678,-1.8581 -1.25909,-1.94713 z"
       inkscape:connector-curvature="0" />
    <path
       style="fill:#aa87de;fill-opacity:1;stroke:#ffffff;stroke-linecap:round;stroke-linejoin:bevel;stroke-opacity:0"
       id="path3829"
       d="m 209.41177,304.49545 c 4.1822,0.0439 8.41176,1.20683 11.59674,4.04307 0.58476,0.52074 1.06497,1.14817 1.59745,1.72225 2.38434,3.39402 2.56504,6.57183 1.03692,10.32186 -2.20233,3.67795 -6.40406,4.62727 -10.33437,5.36036 -2.37741,0.31718 -4.79014,0.48287 -7.18607,0.25853 -0.58611,-0.0549 -2.01187,-0.25424 -2.43515,-0.90193 -0.21142,-0.3235 -0.11883,-0.76373 -0.17825,-1.1456 -0.0211,-0.0339 0.45772,-0.33156 0.47878,-0.2977 l 0,0 c 2.62997,-0.77009 5.5597,0.13182 8.22309,-0.55735 3.18136,-0.4898 6.89988,-0.94739 9.11686,-3.53292 1.25396,-2.7659 1.10478,-5.50715 -0.77914,-7.9853 -0.45226,-0.46722 -0.86131,-0.98051 -1.35676,-1.40165 -2.60029,-2.21025 -5.92336,-3.08472 -9.20875,-3.65834 -0.15735,0.0404 -0.7287,-2.18488 -0.57135,-2.22528 z"
       inkscape:connector-curvature="0" />
    <path
       style="fill:#aa87de;fill-opacity:1;stroke:#ffffff;stroke-linecap:round;stroke-linejoin:bevel;stroke-opacity:0"
       id="path3831"
       d="m 337.13206,315.94216 c 5.57695,-1.77458 11.48022,-2.37065 17.31554,-2.07653 1.21396,0.0612 2.41787,0.25236 3.62681,0.37854 1.4563,0.3299 7.04728,1.08144 7.81822,2.78152 0.13673,0.30152 0.009,0.66209 0.0138,0.99314 0.01,0.0531 -0.74083,0.18774 -0.75036,0.13468 l 0,0 c -0.45265,0.13275 -0.16527,0.0757 -1.03944,-0.0547 -2.33561,-0.34862 -4.65839,-0.79109 -7.01491,-0.98941 -2.36757,-0.18061 -4.06901,-0.37134 -6.41306,-0.33333 -4.14106,0.0672 -8.25286,0.6173 -12.3081,1.43502 -0.16043,0.0883 -1.40894,-2.1806 -1.24851,-2.26889 z"
       inkscape:connector-curvature="0" />
    <path
       style="fill:#aa87de;fill-opacity:1;stroke:#ffffff;stroke-linecap:round;stroke-linejoin:bevel;stroke-opacity:0"
       id="path3833"
       d="m 349.55008,300.76175 c 6.23733,-0.29902 10.68721,2.02681 15.57305,5.63559 2.7908,2.38981 5.44556,5.14445 6.5424,8.72388 0.44179,3.42482 -0.84527,5.87583 -2.63399,8.7085 -3.39633,4.32148 -7.98254,7.74891 -13.43758,8.92262 -0.91742,0.19739 -1.86319,0.22578 -2.79479,0.33867 -2.05306,-0.0361 -4.95559,-0.0182 -5.90082,-2.39781 -0.20068,-0.5052 -0.082,-1.0841 -0.12306,-1.62615 -0.0228,-0.11227 1.56493,-0.43427 1.5877,-0.322 l 0,0 c 0.83201,1.1094 2.02473,1.31408 3.37601,1.37766 0.78176,-0.0749 1.5738,-0.0779 2.34528,-0.2248 4.87821,-0.92906 9.03526,-3.91426 12.31857,-7.52087 1.45015,-1.92862 3.00872,-4.08475 2.86508,-6.6284 -1.00894,-3.09537 -3.72903,-5.32061 -6.09062,-7.39107 -3.97922,-2.87822 -7.99996,-4.99491 -12.96008,-5.54463 -0.14504,0.0472 -0.81219,-2.00401 -0.66715,-2.05119 z"
       inkscape:connector-curvature="0" />
    <path
       style="fill:#aa87de;fill-opacity:1;stroke:#ffffff;stroke-linecap:round;stroke-linejoin:bevel;stroke-opacity:0"
       id="path3841"
       d="m 124.82485,241.43578 c 0.10235,-0.865 0.14464,-1.73923 0.30704,-2.59499 1.06997,-5.63797 3.25946,-11.06524 5.59147,-16.27732 3.25935,-7.28466 4.9378,-10.15818 8.76271,-17.4062 8.86705,-15.55529 17.98298,-31.23544 29.81997,-44.77392 1.67294,-1.91341 3.49869,-3.68764 5.24804,-5.53146 3.45096,-2.99455 6.97646,-6.52924 11.55009,-7.77215 1.18217,-0.32126 3.2353,-0.47128 4.26749,0.5376 0.38906,0.38027 0.30505,1.04442 0.45758,1.56664 0.0183,0.0579 -0.80113,0.31735 -0.81948,0.2594 l 0,0 c -0.67884,-1.14908 -1.09314,-1.20628 -2.58963,-0.55432 -3.94733,1.7197 -6.99496,5.12965 -10.07071,7.97452 -1.63148,1.8394 -3.32848,3.62271 -4.89444,5.51819 -11.31879,13.70052 -20.28079,29.1708 -29.35916,44.38232 -6.26,11.14751 -12.98355,22.37951 -16.32361,34.8249 -0.0108,0.1377 -1.95819,-0.0155 -1.94736,-0.15321 z"
       inkscape:connector-curvature="0" />
    <path
       style="fill:#aa87de;fill-opacity:1;stroke:#ffffff;stroke-linecap:round;stroke-linejoin:bevel;stroke-opacity:0"
       id="path3843"
       d="m 128.18242,218.03034 c -1.9604,5.66162 -4.23773,11.69044 -4.44615,17.748 -0.0333,0.96851 0.12947,1.93384 0.19421,2.90076 0.2694,0.65654 0.39453,1.39299 0.80819,1.96963 1.92599,2.68482 7.57865,-0.0522 9.67017,-0.97373 3.77616,-1.80541 6.42699,-4.90055 9.16169,-7.93186 0.03,-0.076 1.10408,0.34803 1.0741,0.42398 l 0,0 c -0.12145,0.63959 -0.14196,1.30691 -0.36435,1.91876 -1.36433,3.75358 -4.83057,6.21274 -8.09502,8.17691 -1.01328,0.4509 -1.99465,0.98173 -3.03985,1.35271 -3.71787,1.31962 -8.82328,1.82828 -11.2813,-2.01591 -0.52334,-0.81849 -0.70927,-1.80891 -1.0639,-2.71336 -0.10076,-1.13279 -0.31593,-2.26119 -0.30229,-3.39837 0.0754,-6.27929 2.47204,-12.88805 5.07543,-18.5225 0.0753,-0.18449 2.68438,0.88049 2.60907,1.06498 z"
       inkscape:connector-curvature="0" />
    <path
       style="fill:#aa87de;fill-opacity:1;stroke:#ffffff;stroke-linecap:round;stroke-linejoin:bevel;stroke-opacity:0"
       id="path3845"
       d="m 366.6445,183.23733 c 0.96699,0.05 1.96051,-0.0805 2.90097,0.14994 2.43426,0.59642 5.29002,2.56485 7.08331,4.07727 6.03964,5.0937 9.72984,10.92797 14.05248,17.42308 6.06085,10.43089 10.94322,21.66702 13.31404,33.54604 0.48911,2.45072 0.70924,4.94753 1.06386,7.42129 0.0256,0.15648 -2.18728,0.51864 -2.21289,0.36216 l 0,0 c -0.59154,-2.36452 -1.10623,-4.7496 -1.77462,-7.09356 -3.23364,-11.34 -7.91822,-22.22621 -13.7746,-32.45562 -4.48004,-7.05979 -9.01655,-14.89803 -16.20599,-19.60378 -0.89067,-0.58297 -2.37059,-1.17447 -3.47255,-1.63266 -0.15515,0.0689 -1.12916,-2.12528 -0.97401,-2.19416 z"
       inkscape:connector-curvature="0" />
    <path
       style="fill:#aa87de;fill-opacity:1;stroke:#ffffff;stroke-linecap:round;stroke-linejoin:bevel;stroke-opacity:0"
       id="path3847"
       d="m 369.27454,188.12314 c 0.26132,4.61192 0.10946,9.23266 0.22344,13.84767 0.0835,2.29523 0.9708,2.0007 -1.41583,1.46708 -0.0142,-0.003 0.0777,-0.63408 0.1292,-1.00734 0.40502,-4.16638 0.42369,-8.36454 0.28899,-12.54484 -0.1194,-1.93067 -0.29938,-3.8653 -0.74475,-5.75185 -0.0707,-0.2994 -0.15557,-0.59599 -0.2576,-0.8862 -0.0255,-0.0725 -0.19947,-0.19532 -0.12261,-0.19529 0.68894,3.1e-4 1.37166,0.13078 2.0575,0.19616 0.005,0.10315 -0.0801,0.49214 0.20022,0.46224 0.12557,-0.0134 0.22119,-0.12839 0.34352,-0.15974 1.43816,-0.36855 2.97579,-0.62018 4.42149,-0.91234 5.46128,-1.10305 11.04172,-2.60547 16.67053,-2.15773 0.92913,0.0739 1.83263,0.34126 2.74895,0.51189 2.01824,0.67658 4.02177,1.58707 5.34933,3.33232 0.27155,0.357 0.42108,0.7921 0.63163,1.18815 0.067,0.0934 -1.25339,1.04114 -1.32041,0.94777 l 0,0 c -1.84275,-1.09798 -3.57765,-2.40711 -5.72433,-2.8677 -1.87418,-0.26206 -2.68136,-0.47606 -4.53502,-0.3705 -4.29064,0.24433 -8.51003,1.21515 -12.72578,1.97331 -2.5488,0.42833 -8.83198,2.07103 -8.33964,-2.50919 0.77414,-0.23322 1.51435,-0.67299 2.32242,-0.69967 0.16751,-0.006 0.60019,1.09381 0.77118,1.67847 0.58433,1.998 0.80058,4.07877 0.95001,6.14694 0.13959,4.33417 0.0849,8.70354 -0.63672,12.99076 -0.0275,0.12042 -0.33114,1.69714 -0.56491,1.82534 -2.73379,1.49938 -2.73254,-0.69005 -3.02079,-2.56483 -0.29013,-4.64012 -0.1662,-9.29821 0.0165,-13.94088 0,-0.16146 2.28346,-0.16146 2.28346,0 z"
       inkscape:connector-curvature="0" />
    <text
       xml:space="preserve"
       style="font-size:20px;font-style:normal;font-weight:normal;line-height:125%;letter-spacing:0px;word-spacing:0px;fill:#ffffff;fill-opacity:1;stroke:none;font-family:Liberation Sans;-inkscape-font-specification:Liberation Sans;font-stretch:normal;font-variant:normal;text-anchor:start;text-align:start;writing-mode:lr"
       x="240"
       y="142.36218"
       id="text3849"
       sodipodi:linespacing="125%"><tspan
         sodipodi:role="line"
         id="tspan3851"
         x="240"
         y="142.36218">Network</tspan></text>
    <text
       xml:space="preserve"
       style="font-size:20px;font-style:normal;font-weight:normal;line-height:125%;letter-spacing:0px;word-spacing:0px;fill:#ffffff;fill-opacity:1;stroke:none;font-family:Liberation Sans;-inkscape-font-specification:Liberation Sans;font-stretch:normal;font-variant:normal;text-anchor:start;text-align:start;writing-mode:lr"
       x="100"
       y="312.36218"
       id="text3853"
       sodipodi:linespacing="125%"><tspan
         sodipodi:role="line"
         id="tspan3855"
         x="100"
         y="312.36218">Input</tspan><tspan
         sodipodi:role="line"
         x="100"
         y="337.36218"
         id="tspan3857">Devices</tspan></text>
    <text
       xml:space="preserve"
       style="font-size:20px;font-style:normal;font-weight:normal;line-height:125%;letter-spacing:0px;word-spacing:0px;fill:#ffffff;fill-opacity:1;stroke:none;font-family:Liberation Sans;-inkscape-font-specification:Liberation Sans;font-stretch:normal;font-variant:normal;text-anchor:start;text-align:start;writing-mode:lr"
       x="230"
       y="302.36218"
       id="text3859"
       sodipodi:linespacing="125%"><tspan
         sodipodi:role="line"
         id="tspan3861"
         x="230"
         y="302.36218">Central</tspan><tspan
         sodipodi:role="line"
         x="230"
         y="327.36218"
         id="tspan3863">Processing</tspan><tspan
         sodipodi:role="line"
         x="230"
         y="352.36218"
         id="tspan3865">Unit</tspan></text>
    <text
       xml:space="preserve"
       style="font-size:20px;font-style:normal;font-weight:normal;line-height:125%;letter-spacing:0px;word-spacing:0px;fill:#ffffff;fill-opacity:1;stroke:none;font-family:Liberation Sans;-inkscape-font-specification:Liberation Sans;font-stretch:normal;font-variant:normal;text-anchor:start;text-align:start;writing-mode:lr"
       x="380"
       y="312.36218"
       id="text3867"
       sodipodi:linespacing="125%"><tspan
         sodipodi:role="line"
         id="tspan3869"
         x="380"
         y="312.36218">Output</tspan><tspan
         sodipodi:role="line"
         x="380"
         y="337.36218"
         id="tspan3871">Devices</tspan></text>
    <text
       xml:space="preserve"
       style="font-size:20px;font-style:normal;font-weight:normal;line-height:125%;letter-spacing:0px;word-spacing:0px;fill:#ffffff;fill-opacity:1;stroke:none;font-family:Liberation Sans;-inkscape-font-specification:Liberation Sans;font-stretch:normal;font-variant:normal;text-anchor:start;text-align:start;writing-mode:lr"
       x="242.54231"
       y="492.00577"
       id="text3873"
       sodipodi:linespacing="125%"><tspan
         sodipodi:role="line"
         id="tspan3875"
         x="242.54231"
         y="492.00577">Storage</tspan></text>
  </g>
</svg>
