<?xml version="1.0" encoding="UTF-8" standalone="no"?>
<!-- Created with Inkscape (http://www.inkscape.org/) -->

<svg
   xmlns:dc="http://purl.org/dc/elements/1.1/"
   xmlns:cc="http://creativecommons.org/ns#"
   xmlns:rdf="http://www.w3.org/1999/02/22-rdf-syntax-ns#"
   xmlns:svg="http://www.w3.org/2000/svg"
   xmlns="http://www.w3.org/2000/svg"
   xmlns:sodipodi="http://sodipodi.sourceforge.net/DTD/sodipodi-0.dtd"
   xmlns:inkscape="http://www.inkscape.org/namespaces/inkscape"
   width="570.7561"
   height="281"
   id="svg2"
   version="1.1"
   inkscape:version="0.48.4 r9939"
   sodipodi:docname="terminal-screen-1.svg">
  <defs
     id="defs4">
    <inkscape:perspective
       sodipodi:type="inkscape:persp3d"
       inkscape:vp_x="0 : 526.18109 : 1"
       inkscape:vp_y="0 : 1000 : 0"
       inkscape:vp_z="744.09448 : 526.18109 : 1"
       inkscape:persp3d-origin="372.04724 : 350.78739 : 1"
       id="perspective3006" />
  </defs>
  <sodipodi:namedview
     id="base"
     pagecolor="#ffffff"
     bordercolor="#666666"
     borderopacity="1.0"
     inkscape:pageopacity="0.0"
     inkscape:pageshadow="2"
     inkscape:zoom="1.92"
     inkscape:cx="278.95898"
     inkscape:cy="-35.85973"
     inkscape:document-units="px"
     inkscape:current-layer="layer1"
     showgrid="true"
     inkscape:snap-global="true"
     fit-margin-top="0"
     fit-margin-left="0"
     fit-margin-right="0"
     fit-margin-bottom="0"
     inkscape:window-width="1048"
     inkscape:window-height="1630"
     inkscape:window-x="0"
     inkscape:window-y="0"
     inkscape:window-maximized="1"
     showguides="true"
     inkscape:guide-bbox="true">
    <inkscape:grid
       type="xygrid"
       id="grid2985"
       empspacing="5"
       visible="true"
       enabled="true"
       snapvisiblegridlinesonly="true"
       originx="-99.5px"
       originy="-679.9065px" />
  </sodipodi:namedview>
  <metadata
     id="metadata7">
    <rdf:RDF>
      <cc:Work
         rdf:about="">
        <dc:format>image/svg+xml</dc:format>
        <dc:type
           rdf:resource="http://purl.org/dc/dcmitype/StillImage" />
        <dc:title />
      </cc:Work>
    </rdf:RDF>
  </metadata>
  <g
     inkscape:label="Layer 1"
     inkscape:groupmode="layer"
     id="layer1"
     transform="translate(-99.5,-91.455681)">
    <rect
       style="fill:#b3b3b3;fill-opacity:1;stroke:#000000;stroke-width:1.02316201;stroke-linecap:round;stroke-linejoin:bevel;stroke-opacity:1"
       id="rect3022"
       width="198.91992"
       height="279.97684"
       x="470.82458"
       y="91.967262" />
    <path
       style="fill:#ececec;fill-opacity:1;stroke:#000000;stroke-linecap:round;stroke-linejoin:bevel;stroke-opacity:0"
       id="path3897"
       d="m 435.22565,84.166551 c 6.61685,0.05167 13.18849,0.961014 19.7802,1.462586 7.48019,0.47387 14.9775,0.226022 22.46172,0.01301 4.51124,-0.09608 9.03269,-0.304744 13.54262,-0.05462 1.15783,0.137241 1.65042,0.0369 0.35553,1.876457 -0.27686,0.39332 -1.34464,-0.582094 -1.46076,-0.699193 -0.009,-0.0023 0.0233,-0.124353 0.032,-0.122092 l 0,0 c 0.66938,-2.270919 2.8539,1.289408 0.52068,0.929951 -4.1146,0.032 -8.22804,0.149382 -12.3385,0.336774 -7.94641,0.313317 -15.91393,0.57461 -23.85402,-0.03929 -6.51581,-0.559805 -12.99741,-1.429043 -19.51512,-1.96714 -0.12279,-0.03364 0.35288,-1.770081 0.47567,-1.736446 z"
       inkscape:connector-curvature="0"
       transform="translate(99.5,91.455681)" />
    <path
       style="fill:#ececec;fill-opacity:1;stroke:#000000;stroke-linecap:round;stroke-linejoin:bevel;stroke-opacity:0"
       id="path3901"
       d="m 513.06862,92.096864 c 4.37108,8.898386 8.7494,17.783066 12.75229,26.854806 3.72878,8.85819 6.27026,18.17862 6.969,27.78555 0.40998,5.63683 0.14942,7.71298 -0.11592,13.26294 -0.86599,6.80248 -1.17033,15.5823 -5.32669,21.39736 -0.53616,0.75013 -1.24394,1.36135 -1.86592,2.04203 -0.68726,0.41629 -1.32202,0.93524 -2.06179,1.24886 -2.3104,0.97948 -5.33974,0.69667 -7.19052,-1.08888 -0.25171,-0.24284 -0.40865,-0.56773 -0.61298,-0.85159 -0.17011,-1.10317 -0.29622,-0.60827 0.35725,-1.48992 0.0208,-0.0519 0.75488,0.24155 0.73413,0.29346 l 0,0 c 0.24305,0.0241 0.12189,-0.0222 0.33644,0.19549 1.34042,1.06468 3.20762,1.78949 4.91363,1.18188 0.57286,-0.20403 1.06628,-0.58501 1.59942,-0.87751 0.52034,-0.56046 1.11913,-1.0572 1.561,-1.68138 3.81046,-5.38261 3.91992,-14.20518 4.67028,-20.47644 0.21352,-5.32704 0.4475,-7.46585 0.041,-12.86544 -0.70442,-9.35772 -3.18771,-18.43119 -6.7835,-27.07638 -3.93945,-9.11603 -8.37355,-18.01908 -12.0232,-27.254605 -0.0424,-0.144678 2.00361,-0.744908 2.04605,-0.600231 z"
       inkscape:connector-curvature="0"
       transform="translate(99.5,91.455681)" />
    <path
       style="fill:#ececec;fill-opacity:1;stroke:#000000;stroke-linecap:round;stroke-linejoin:bevel;stroke-opacity:0"
       id="path3984"
       d="m 73.328929,57.121738 c 1.671892,13.857615 3.025074,27.751399 4.465451,41.634373 1.088171,11.146529 2.542162,22.242189 4.539008,33.260949 0.01991,0.0811 -1.127391,0.36269 -1.147301,0.28156 l 0,0 c -0.793467,-1.93492 -1.771179,-3.80417 -2.3804,-5.80476 -0.793909,-2.60708 -1.300148,-5.29564 -1.814865,-7.97188 -1.39996,-7.27899 -1.84971,-12.05233 -2.755176,-19.459005 -1.414569,-13.89974 -2.696526,-27.821402 -3.433676,-41.775511 -0.01172,-0.178683 2.515241,-0.344409 2.526959,-0.165726 z"
       inkscape:connector-curvature="0"
       transform="translate(99.5,91.455681)" />
    <path
       style="fill:#ececec;fill-opacity:1;stroke:#000000;stroke-linecap:round;stroke-linejoin:bevel;stroke-opacity:0"
       id="path3914"
       d="m 206.70651,123.95035 c 19.83433,-1.98953 39.73969,-3.24248 59.63121,-4.50632 40.15874,-2.05555 80.45369,-3.11422 120.63207,-0.86838 8.58415,0.47983 17.1473,1.28134 25.72095,1.92201 20.568,2.0055 41.08831,4.85608 61.20372,9.6709 6.43214,1.53959 14.26209,3.73115 20.57007,6.30149 1.45211,0.5917 2.79608,1.42017 4.19412,2.13025 0.35186,0.4774 1.20259,0.85763 1.05559,1.43218 -0.85877,3.35627 -7.1453,0.78229 -8.90826,0.25214 -0.048,-0.0202 0.23793,-0.69917 0.28594,-0.67895 l 0,0 c 1.23991,0.0758 2.48119,0.13173 3.71973,0.22734 0.79238,0.0612 1.62454,-0.0276 2.37181,0.24292 0.47136,0.17065 0.87559,0.57272 1.10796,1.01691 0.16741,0.32003 -0.59684,-0.40688 -0.89526,-0.61032 -8.21352,-2.87326 -16.6175,-4.85773 -25.15906,-6.54759 -20.21137,-3.99862 -40.66807,-6.62627 -61.20168,-8.27019 -8.54591,-0.55766 -17.08464,-1.23928 -25.63774,-1.67297 -39.22672,-1.98902 -78.53755,-1.5384 -117.77965,-0.3389 -20.08469,0.82979 -40.16112,1.96778 -60.25976,2.39495 -0.14831,0.0461 -0.80008,-2.05139 -0.65176,-2.09747 z"
       inkscape:connector-curvature="0" />
    <path
       style="fill:#ececec;fill-opacity:1;stroke:#000000;stroke-width:0.72534645;stroke-linecap:round;stroke-linejoin:bevel;stroke-opacity:0"
       id="path3066"
       d="m 505.13069,148.73875 c 0.25375,0.48061 0.57507,0.95472 0.76122,1.44184 1.17028,3.06245 1.24584,6.22637 1.305,9.32394 0.0653,3.4229 -0.0852,5.60369 -0.23535,9.04229 -0.1564,3.68443 -0.66253,7.36393 -0.7894,11.04869 -0.0204,0.59143 -0.023,1.18318 0.008,1.7745 0.0119,0.21991 0.32047,0.45728 0.12256,0.65752 -0.1052,0.10644 -0.34539,-0.17157 -0.51809,-0.25735 0.0468,-0.0222 0.72723,0.28292 0.68034,0.30506 l 0,0 c -0.53702,0.042 -1.13768,0.24991 -1.61109,0.12591 -0.5436,-0.14238 -0.69726,-0.49086 -0.84847,-0.77014 -0.32386,-0.59812 -0.45866,-1.21652 -0.56002,-1.83116 -0.60804,-3.6875 0.0362,-7.39428 0.0847,-11.0831 0.1438,-2.61705 0.36822,-6.36707 0.44179,-9.00104 0.085,-3.04271 0.19683,-6.11467 -0.52285,-9.14609 -0.11017,-0.46389 -0.31535,-0.92194 -0.47303,-1.3829 -0.038,-0.0701 2.11561,-0.31805 2.15371,-0.24797 z"
       inkscape:connector-curvature="0" />
    <rect
       style="fill:#de8787;fill-opacity:1;stroke:#000000;stroke-width:1.02578378;stroke-linecap:round;stroke-linejoin:bevel;stroke-opacity:1"
       id="rect3026"
       width="178.91731"
       height="49.989433"
       x="480.8259"
       y="263.95337" />
    <g
       id="g3096">
      <rect
         y="162.51678"
         x="480.5408"
         height="29.726303"
         width="59.348625"
         id="rect3024"
         style="fill:#de8787;fill-opacity:1;stroke:#000000;stroke-width:0.45558172000000002;stroke-linecap:round;stroke-linejoin:bevel;stroke-opacity:1" />
      <text
         sodipodi:linespacing="125%"
         id="text3041"
         y="182.36218"
         x="490"
         style="font-size:20px;font-style:normal;font-variant:normal;font-weight:normal;font-stretch:normal;text-align:start;line-height:125%;letter-spacing:0px;word-spacing:0px;writing-mode:lr-tb;text-anchor:start;fill:#ffffff;fill-opacity:1;stroke:none;font-family:Trebuchet MS;-inkscape-font-specification:Trebuchet MS"
         xml:space="preserve"><tspan
           y="182.36218"
           x="490"
           id="tspan3043"
           sodipodi:role="line">Shell</tspan></text>
    </g>
    <text
       xml:space="preserve"
       style="font-size:20px;font-style:normal;font-weight:normal;line-height:125%;letter-spacing:0px;word-spacing:0px;fill:#ffffff;fill-opacity:1;stroke:none;font-family:Liberation Sans;-inkscape-font-specification:Liberation Sans;font-stretch:normal;font-variant:normal;text-anchor:start;text-align:start;writing-mode:lr"
       x="490"
       y="292.36218"
       id="text3045"
       sodipodi:linespacing="125%"><tspan
         sodipodi:role="line"
         id="tspan3047"
         x="490"
         y="292.36218">Operating System</tspan></text>
    <text
       xml:space="preserve"
       style="font-size:20px;font-style:normal;font-weight:normal;line-height:125%;letter-spacing:0px;word-spacing:0px;fill:#d35f5f;fill-opacity:1;stroke:none;font-family:Liberation Sans;-inkscape-font-specification:Liberation Sans;font-stretch:normal;font-variant:normal;text-anchor:start;text-align:start;writing-mode:lr"
       x="134"
       y="294.36218"
       id="text3906"
       sodipodi:linespacing="125%"><tspan
         sodipodi:role="line"
         id="tspan3908"
         x="134"
         y="294.36218">Terminal</tspan><tspan
         sodipodi:role="line"
         x="134"
         y="319.36218"
         id="tspan3927">Emulator</tspan></text>
    <text
       xml:space="preserve"
       style="font-size:20px;font-style:normal;font-weight:normal;line-height:125%;letter-spacing:0px;word-spacing:0px;fill:#ffffff;fill-opacity:1;stroke:none;font-family:Liberation Sans;-inkscape-font-specification:Liberation Sans;font-stretch:normal;font-variant:normal;text-anchor:start;text-align:start;writing-mode:lr"
       x="530"
       y="352.36218"
       id="text3910"
       sodipodi:linespacing="125%"><tspan
         sodipodi:role="line"
         id="tspan3912"
         x="530"
         y="352.36218">Computer</tspan></text>
    <g
       id="g3929"
       transform="translate(0,98)">
      <rect
         y="102.36218"
         x="120"
         height="70"
         width="110"
         id="rect2987"
         style="fill:#cccccc;fill-opacity:1;stroke:#000000;stroke-linecap:round;stroke-linejoin:bevel;stroke-opacity:1" />
      <rect
         y="112.36218"
         x="130"
         height="50"
         width="90"
         id="rect2991"
         style="fill:#000000;fill-opacity:1;stroke:#000000;stroke-linecap:round;stroke-linejoin:bevel;stroke-opacity:1" />
      <text
         sodipodi:linespacing="125%"
         id="text3002"
         y="131.9431"
         x="133.33173"
         style="font-size:20px;font-style:normal;font-weight:normal;line-height:125%;letter-spacing:0px;word-spacing:0px;fill:#ffffff;fill-opacity:1;stroke:none;font-family:Sans"
         xml:space="preserve"><tspan
           y="131.9431"
           x="133.33173"
           id="tspan3004"
           sodipodi:role="line">$_</tspan></text>
      <rect
         transform="translate(99.5,91.455681)"
         y="10.9065"
         x="30.5"
         height="10"
         width="80"
         id="rect3919"
         style="fill:#000080;fill-opacity:1;stroke:#000000;stroke-linecap:round;stroke-linejoin:bevel;stroke-opacity:0" />
      <path
         transform="translate(99.5,91.455681)"
         inkscape:connector-curvature="0"
         id="path3921"
         d="m 20.5,20.9065 c 10,0 100,0 100,0 l 0,-10 0,0"
         style="fill:none;stroke:#000000;stroke-width:1px;stroke-linecap:butt;stroke-linejoin:miter;stroke-opacity:1" />
      <path
         transform="translate(99.5,91.455681)"
         inkscape:connector-curvature="0"
         id="path3923"
         d="m 120.5,20.9065 10,0"
         style="fill:none;stroke:#000000;stroke-width:1px;stroke-linecap:butt;stroke-linejoin:miter;stroke-opacity:1" />
      <path
         transform="translate(99.5,91.455681)"
         inkscape:connector-curvature="0"
         id="path3925"
         d="m 20.5,60.9065 110,0 -20,0 0,20 0,-20 -70,0 0,20"
         style="fill:none;stroke:#000000;stroke-width:1px;stroke-linecap:butt;stroke-linejoin:miter;stroke-opacity:1" />
    </g>
    <rect
       style="fill:#89a02c;fill-opacity:1;stroke:#000000;stroke-width:0.458139;stroke-linecap:round;stroke-linejoin:bevel;stroke-opacity:1"
       id="rect3024-1"
       width="58.651627"
       height="30.418192"
       x="480.54211"
       y="121.68475" />
    <text
       xml:space="preserve"
       style="font-size:20px;font-style:normal;font-variant:normal;font-weight:normal;font-stretch:normal;text-align:start;line-height:125%;letter-spacing:0px;word-spacing:0px;writing-mode:lr;text-anchor:start;fill:#ffffff;fill-opacity:1;stroke:none;font-family:Liberation Sans;-inkscape-font-specification:Liberation Sans"
       x="490"
       y="142.36218"
       id="text3041-7"
       sodipodi:linespacing="125%"><tspan
         sodipodi:role="line"
         id="tspan3043-4"
         x="490"
         y="142.36218">sshd</tspan></text>
    <path
       sodipodi:type="arc"
       style="fill:#89a02c;fill-opacity:1;stroke:#000000;stroke-linecap:round;stroke-linejoin:bevel;stroke-opacity:1"
       id="path3978"
       sodipodi:cx="80.5"
       sodipodi:cy="50.906502"
       sodipodi:rx="30"
       sodipodi:ry="30"
       d="m 110.5,50.906502 c 0,16.568542 -13.431458,30 -30,30 -16.568542,0 -30,-13.431458 -30,-30 0,-16.568543 13.431458,-30 30,-30 16.568542,0 30,13.431457 30,30 z"
       transform="matrix(1.849305,0,0,0.86014501,26.65941,82.510168)" />
    <text
       xml:space="preserve"
       style="font-size:20px;font-style:normal;font-weight:normal;line-height:125%;letter-spacing:0px;word-spacing:0px;fill:#ffffff;fill-opacity:1;stroke:none;font-family:Liberation Sans;-inkscape-font-specification:Liberation Sans;font-stretch:normal;font-variant:normal;text-anchor:start;text-align:start;writing-mode:lr"
       x="160"
       y="132.36218"
       id="text3980"
       sodipodi:linespacing="125%"><tspan
         sodipodi:role="line"
         id="tspan3982"
         x="160"
         y="132.36218">ssh</tspan></text>
    <g
       id="g4000"
       style="fill:#bc5fd3">
      <path
         transform="translate(99.5,91.455681)"
         d="m 240.5,45.906502 c 0,13.807119 -13.43146,25 -30,25 -16.56854,0 -30,-11.192881 -30,-25 0,-13.807119 13.43146,-25 30,-25 16.56854,0 30,11.192881 30,25 z"
         sodipodi:ry="25"
         sodipodi:rx="30"
         sodipodi:cy="45.906502"
         sodipodi:cx="210.5"
         id="path3986"
         style="fill:#bc5fd3;fill-opacity:1;stroke:#000000;stroke-linecap:round;stroke-linejoin:bevel;stroke-opacity:0"
         sodipodi:type="arc" />
      <path
         transform="translate(99.5,91.455681)"
         d="m 250.5,25.9065 c 0,8.284271 -11.19288,15 -25,15 -13.80712,0 -25,-6.715729 -25,-15 0,-8.284271 11.19288,-15 25,-15 13.80712,0 25,6.715729 25,15 z"
         sodipodi:ry="15"
         sodipodi:rx="25"
         sodipodi:cy="25.9065"
         sodipodi:cx="225.5"
         id="path3988"
         style="fill:#bc5fd3;fill-opacity:1;stroke:#000000;stroke-linecap:round;stroke-linejoin:bevel;stroke-opacity:0"
         sodipodi:type="arc" />
      <path
         transform="translate(99.5,91.455681)"
         d="m 260.5,55.906502 c 0,13.807119 -8.95431,25 -20,25 -11.04569,0 -20,-11.192881 -20,-25 0,-13.807119 8.95431,-25 20,-25 11.04569,0 20,11.192881 20,25 z"
         sodipodi:ry="25"
         sodipodi:rx="20"
         sodipodi:cy="55.906502"
         sodipodi:cx="240.5"
         id="path3990"
         style="fill:#bc5fd3;fill-opacity:1;stroke:#000000;stroke-linecap:round;stroke-linejoin:bevel;stroke-opacity:0"
         sodipodi:type="arc" />
      <path
         transform="translate(99.5,91.455681)"
         d="m 280.5,45.906502 c 0,8.284271 -8.95431,15 -20,15 -11.04569,0 -20,-6.715729 -20,-15 0,-8.284271 8.95431,-15 20,-15 11.04569,0 20,6.715729 20,15 z"
         sodipodi:ry="15"
         sodipodi:rx="20"
         sodipodi:cy="45.906502"
         sodipodi:cx="260.5"
         id="path3992"
         style="fill:#bc5fd3;fill-opacity:1;stroke:#000000;stroke-linecap:round;stroke-linejoin:bevel;stroke-opacity:0"
         sodipodi:type="arc" />
      <path
         transform="translate(99.5,91.455681)"
         d="m 310.5,25.9065 c 0,13.807119 -15.67003,25 -35,25 -19.32997,0 -35,-11.192881 -35,-25 0,-13.807119 15.67003,-25.00000014 35,-25.00000014 19.32997,0 35,11.19288114 35,25.00000014 z"
         sodipodi:ry="25"
         sodipodi:rx="35"
         sodipodi:cy="25.9065"
         sodipodi:cx="275.5"
         id="path3994"
         style="fill:#bc5fd3;fill-opacity:1;stroke:#000000;stroke-linecap:round;stroke-linejoin:bevel;stroke-opacity:0"
         sodipodi:type="arc" />
      <path
         transform="translate(99.5,91.455681)"
         d="m 310.5,60.906502 c 0,16.568542 -13.43146,30 -30,30 -16.56854,0 -30,-13.431458 -30,-30 0,-16.568543 13.43146,-30 30,-30 16.56854,0 30,13.431457 30,30 z"
         sodipodi:ry="30"
         sodipodi:rx="30"
         sodipodi:cy="60.906502"
         sodipodi:cx="280.5"
         id="path3998"
         style="fill:#bc5fd3;fill-opacity:1;stroke:#000000;stroke-linecap:round;stroke-linejoin:bevel;stroke-opacity:0"
         sodipodi:type="arc" />
    </g>
    <text
       xml:space="preserve"
       style="font-size:20px;font-style:normal;font-weight:normal;line-height:125%;letter-spacing:0px;word-spacing:0px;fill:#ffffff;fill-opacity:1;stroke:none;font-family:Liberation Sans;-inkscape-font-specification:Liberation Sans;font-stretch:normal;font-variant:normal;text-anchor:start;text-align:start;writing-mode:lr"
       x="310"
       y="142.36218"
       id="text4008"
       sodipodi:linespacing="125%"><tspan
         sodipodi:role="line"
         id="tspan4010"
         x="310"
         y="142.36218">Internet</tspan></text>
    <rect
       style="fill:#de8787;fill-opacity:1;stroke:#000000;stroke-linecap:round;stroke-linejoin:bevel;stroke-opacity:1"
       id="rect3117"
       width="60"
       height="30"
       x="599.16669"
       y="202.63995" />
    <rect
       style="fill:#0088aa;fill-opacity:1;stroke:#000000;stroke-width:1.13202775;stroke-linecap:round;stroke-linejoin:bevel;stroke-opacity:1"
       id="rect3887"
       width="77.22908"
       height="29.867971"
       x="571.03827"
       y="162.42819" />
    <text
       xml:space="preserve"
       style="font-size:20px;font-style:normal;font-weight:normal;line-height:125%;letter-spacing:0px;word-spacing:0px;fill:#ffffff;fill-opacity:1;stroke:none;font-family:Liberation Sans;-inkscape-font-specification:Liberation Sans;font-stretch:normal;font-variant:normal;text-anchor:start;text-align:start;writing-mode:lr"
       x="580"
       y="182.36218"
       id="text3903"
       sodipodi:linespacing="125%"><tspan
         sodipodi:role="line"
         id="tspan3905"
         x="580"
         y="182.36218"
         style="font-style:normal;font-variant:normal;font-weight:normal;font-stretch:normal;font-family:Liberation Sans;-inkscape-font-specification:Liberation Sans;font-size:20px;text-anchor:start;text-align:start;writing-mode:lr;line-height:125%">screen</tspan></text>
    <text
       xml:space="preserve"
       style="font-size:20px;font-style:normal;font-weight:normal;line-height:125%;letter-spacing:0px;word-spacing:0px;fill:#ffffff;fill-opacity:1;stroke:none;font-family:Liberation Sans;-inkscape-font-specification:Liberation Sans;font-stretch:normal;font-variant:normal;text-anchor:start;text-align:start;writing-mode:lr"
       x="610"
       y="222.36218"
       id="text3915"
       sodipodi:linespacing="125%"
       inkscape:transform-center-y="63.953634"><tspan
         sodipodi:role="line"
         id="tspan3917"
         x="610"
         y="222.36218"
         style="font-style:normal;font-variant:normal;font-weight:normal;font-stretch:normal;font-family:Liberation Sans;-inkscape-font-specification:Liberation Sans;font-size:20px;text-anchor:start;text-align:start;writing-mode:lr;line-height:125%">Shell</tspan></text>
  </g>
</svg>
