<?xml version="1.0" encoding="UTF-8" standalone="no"?>
<!-- Created with Inkscape (http://www.inkscape.org/) -->

<svg
   xmlns:dc="http://purl.org/dc/elements/1.1/"
   xmlns:cc="http://creativecommons.org/ns#"
   xmlns:rdf="http://www.w3.org/1999/02/22-rdf-syntax-ns#"
   xmlns:svg="http://www.w3.org/2000/svg"
   xmlns="http://www.w3.org/2000/svg"
   xmlns:sodipodi="http://sodipodi.sourceforge.net/DTD/sodipodi-0.dtd"
   xmlns:inkscape="http://www.inkscape.org/namespaces/inkscape"
   width="570.7561"
   height="281"
   id="svg2"
   version="1.1"
   inkscape:version="0.48.4 r9939"
   sodipodi:docname="terminal-screen-logged-out.svg">
  <defs
     id="defs4">
    <inkscape:perspective
       sodipodi:type="inkscape:persp3d"
       inkscape:vp_x="0 : 526.18109 : 1"
       inkscape:vp_y="0 : 1000 : 0"
       inkscape:vp_z="744.09448 : 526.18109 : 1"
       inkscape:persp3d-origin="372.04724 : 350.78739 : 1"
       id="perspective3006" />
  </defs>
  <sodipodi:namedview
     id="base"
     pagecolor="#ffffff"
     bordercolor="#666666"
     borderopacity="1.0"
     inkscape:pageopacity="0.0"
     inkscape:pageshadow="2"
     inkscape:zoom="1.49"
     inkscape:cx="278.95898"
     inkscape:cy="-35.85973"
     inkscape:document-units="px"
     inkscape:current-layer="layer1"
     showgrid="true"
     inkscape:snap-global="true"
     fit-margin-top="0"
     fit-margin-left="0"
     fit-margin-right="0"
     fit-margin-bottom="0"
     inkscape:window-width="1050"
     inkscape:window-height="1658"
     inkscape:window-x="1042"
     inkscape:window-y="-8"
     inkscape:window-maximized="1"
     showguides="true"
     inkscape:guide-bbox="true">
    <inkscape:grid
       type="xygrid"
       id="grid2985"
       empspacing="5"
       visible="true"
       enabled="true"
       snapvisiblegridlinesonly="true"
       originx="-99.5px"
       originy="-679.9065px" />
  </sodipodi:namedview>
  <metadata
     id="metadata7">
    <rdf:RDF>
      <cc:Work
         rdf:about="">
        <dc:format>image/svg+xml</dc:format>
        <dc:type
           rdf:resource="http://purl.org/dc/dcmitype/StillImage" />
        <dc:title />
      </cc:Work>
    </rdf:RDF>
  </metadata>
  <g
     inkscape:label="Layer 1"
     inkscape:groupmode="layer"
     id="layer1"
     transform="translate(-99.5,-91.455681)">
    <rect
       style="fill:#b3b3b3;fill-opacity:1;stroke:#000000;stroke-width:1.02316201;stroke-linecap:round;stroke-linejoin:bevel;stroke-opacity:1"
       id="rect3022"
       width="198.91992"
       height="279.97684"
       x="470.82458"
       y="91.967262" />
    <path
       style="fill:#ececec;fill-opacity:1;stroke:#000000;stroke-linecap:round;stroke-linejoin:bevel;stroke-opacity:0"
       id="path3899"
       d="m 487.68577,92.772451 c -3.26953,3.4581 -6.50002,6.970943 -9.23586,10.877559 -0.78276,1.11775 -1.49963,2.28022 -2.24944,3.42033 -6.43703,11.02025 -9.59827,23.50906 -12.53563,35.81713 -1.30415,6.11688 -2.38919,12.3031 -2.67879,18.56206 -0.10422,2.25232 -0.0834,5.44371 0.26042,7.75387 0.12365,0.83083 0.3909,1.63385 0.58634,2.45078 0.86416,2.31069 2.54859,3.8705 4.94132,4.41962 -0.53894,-0.1029 -0.69043,1.52119 -0.26824,0.44223 -0.009,-0.0155 0.21013,-0.14638 0.21938,-0.13086 l 0,0 c 1.52006,-0.29799 0.72524,2.03208 -0.65502,1.40878 -3.21889,-0.39984 -5.417,-2.71085 -6.61737,-5.6314 -0.24778,-0.91505 -0.57215,-1.81274 -0.74333,-2.74516 -1.61197,-8.78028 0.35187,-18.51634 1.93819,-27.13164 0.58612,-2.45428 1.11609,-4.92266 1.75838,-7.36284 2.65707,-10.09476 6.15704,-20.08591 11.59089,-29.0435 3.54157,-5.20151 7.40013,-10.195065 12.17792,-14.337668 0.087,-0.106833 1.59787,1.123876 1.51084,1.230709 z"
       inkscape:connector-curvature="0"
       transform="translate(99.5,91.455681)" />
    <path
       style="fill:#ececec;fill-opacity:1;stroke:#000000;stroke-linecap:round;stroke-linejoin:bevel;stroke-opacity:0"
       id="path3901"
       d="m 513.06862,92.096864 c 4.37108,8.898386 8.7494,17.783066 12.75229,26.854806 3.72878,8.85819 6.27026,18.17862 6.969,27.78555 0.40998,5.63683 0.14942,7.71298 -0.11592,13.26294 -0.86599,6.80248 -1.17033,15.5823 -5.32669,21.39736 -0.53616,0.75013 -1.24394,1.36135 -1.86592,2.04203 -0.68726,0.41629 -1.32202,0.93524 -2.06179,1.24886 -2.3104,0.97948 -5.33974,0.69667 -7.19052,-1.08888 -0.25171,-0.24284 -0.40865,-0.56773 -0.61298,-0.85159 -0.17011,-1.10317 -0.29622,-0.60827 0.35725,-1.48992 0.0208,-0.0519 0.75488,0.24155 0.73413,0.29346 l 0,0 c 0.24305,0.0241 0.12189,-0.0222 0.33644,0.19549 1.34042,1.06468 3.20762,1.78949 4.91363,1.18188 0.57286,-0.20403 1.06628,-0.58501 1.59942,-0.87751 0.52034,-0.56046 1.11913,-1.0572 1.561,-1.68138 3.81046,-5.38261 3.91992,-14.20518 4.67028,-20.47644 0.21352,-5.32704 0.4475,-7.46585 0.041,-12.86544 -0.70442,-9.35772 -3.18771,-18.43119 -6.7835,-27.07638 -3.93945,-9.11603 -8.37355,-18.01908 -12.0232,-27.254605 -0.0424,-0.144678 2.00361,-0.744908 2.04605,-0.600231 z"
       inkscape:connector-curvature="0"
       transform="translate(99.5,91.455681)" />
    <rect
       style="fill:#de8787;fill-opacity:1;stroke:#000000;stroke-width:1.02578378;stroke-linecap:round;stroke-linejoin:bevel;stroke-opacity:1"
       id="rect3026"
       width="178.91731"
       height="49.989433"
       x="480.8259"
       y="263.95337" />
    <text
       xml:space="preserve"
       style="font-size:20px;font-style:normal;font-weight:normal;line-height:125%;letter-spacing:0px;word-spacing:0px;fill:#ffffff;fill-opacity:1;stroke:none;font-family:Trebuchet MS;-inkscape-font-specification:Trebuchet MS;font-stretch:normal;font-variant:normal;text-anchor:start;text-align:start;writing-mode:lr"
       x="490"
       y="292.36218"
       id="text3045"
       sodipodi:linespacing="125%"><tspan
         sodipodi:role="line"
         id="tspan3047"
         x="490"
         y="292.36218">Operating System</tspan></text>
    <text
       xml:space="preserve"
       style="font-size:20px;font-style:normal;font-weight:normal;line-height:125%;letter-spacing:0px;word-spacing:0px;fill:#d35f5f;fill-opacity:1;stroke:none;font-family:Trebuchet MS;-inkscape-font-specification:Trebuchet MS;font-stretch:normal;font-variant:normal;text-anchor:start;text-align:start;writing-mode:lr"
       x="134"
       y="294.36218"
       id="text3906"
       sodipodi:linespacing="125%"><tspan
         sodipodi:role="line"
         id="tspan3908"
         x="134"
         y="294.36218">Terminal</tspan><tspan
         sodipodi:role="line"
         x="134"
         y="319.36218"
         id="tspan3927">Emulator</tspan></text>
    <text
       xml:space="preserve"
       style="font-size:20px;font-style:normal;font-weight:normal;line-height:125%;letter-spacing:0px;word-spacing:0px;fill:#ffffff;fill-opacity:1;stroke:none;font-family:Trebuchet MS;-inkscape-font-specification:Trebuchet MS;font-stretch:normal;font-variant:normal;text-anchor:start;text-align:start;writing-mode:lr"
       x="530"
       y="352.36218"
       id="text3910"
       sodipodi:linespacing="125%"><tspan
         sodipodi:role="line"
         id="tspan3912"
         x="530"
         y="352.36218">Computer</tspan></text>
    <g
       id="g3929"
       transform="translate(0,98)">
      <rect
         y="102.36218"
         x="120"
         height="70"
         width="110"
         id="rect2987"
         style="fill:#cccccc;fill-opacity:1;stroke:#000000;stroke-linecap:round;stroke-linejoin:bevel;stroke-opacity:1" />
      <rect
         y="112.36218"
         x="130"
         height="50"
         width="90"
         id="rect2991"
         style="fill:#000000;fill-opacity:1;stroke:#000000;stroke-linecap:round;stroke-linejoin:bevel;stroke-opacity:1" />
      <text
         sodipodi:linespacing="125%"
         id="text3002"
         y="131.9431"
         x="133.33173"
         style="font-size:20px;font-style:normal;font-weight:normal;line-height:125%;letter-spacing:0px;word-spacing:0px;fill:#ffffff;fill-opacity:1;stroke:none;font-family:Sans"
         xml:space="preserve"><tspan
           y="131.9431"
           x="133.33173"
           id="tspan3004"
           sodipodi:role="line">$_</tspan></text>
      <rect
         transform="translate(99.5,91.455681)"
         y="10.9065"
         x="30.5"
         height="10"
         width="80"
         id="rect3919"
         style="fill:#000080;fill-opacity:1;stroke:#000000;stroke-linecap:round;stroke-linejoin:bevel;stroke-opacity:0" />
      <path
         transform="translate(99.5,91.455681)"
         inkscape:connector-curvature="0"
         id="path3921"
         d="m 20.5,20.9065 c 10,0 100,0 100,0 l 0,-10 0,0"
         style="fill:none;stroke:#000000;stroke-width:1px;stroke-linecap:butt;stroke-linejoin:miter;stroke-opacity:1" />
      <path
         transform="translate(99.5,91.455681)"
         inkscape:connector-curvature="0"
         id="path3923"
         d="m 120.5,20.9065 10,0"
         style="fill:none;stroke:#000000;stroke-width:1px;stroke-linecap:butt;stroke-linejoin:miter;stroke-opacity:1" />
      <path
         transform="translate(99.5,91.455681)"
         inkscape:connector-curvature="0"
         id="path3925"
         d="m 20.5,60.9065 110,0 -20,0 0,20 0,-20 -70,0 0,20"
         style="fill:none;stroke:#000000;stroke-width:1px;stroke-linecap:butt;stroke-linejoin:miter;stroke-opacity:1" />
    </g>
    <rect
       style="fill:#de8787;fill-opacity:1;stroke:#000000;stroke-linecap:round;stroke-linejoin:bevel;stroke-opacity:1"
       id="rect3115"
       width="60"
       height="30"
       x="530"
       y="202.36218" />
    <rect
       style="fill:#de8787;fill-opacity:1;stroke:#000000;stroke-linecap:round;stroke-linejoin:bevel;stroke-opacity:1"
       id="rect3117"
       width="60"
       height="30"
       x="599.16669"
       y="202.63995" />
    <rect
       style="fill:#0088aa;fill-opacity:1;stroke:#000000;stroke-width:1.13202775;stroke-linecap:round;stroke-linejoin:bevel;stroke-opacity:1"
       id="rect3887"
       width="77.22908"
       height="29.867971"
       x="571.03827"
       y="162.42819" />
    <text
       xml:space="preserve"
       style="font-size:20px;font-style:normal;font-weight:normal;line-height:125%;letter-spacing:0px;word-spacing:0px;fill:#ffffff;fill-opacity:1;stroke:none;font-family:Sans"
       x="580"
       y="182.36218"
       id="text3903"
       sodipodi:linespacing="125%"><tspan
         sodipodi:role="line"
         id="tspan3905"
         x="580"
         y="182.36218"
         style="font-style:normal;font-variant:normal;font-weight:normal;font-stretch:normal;font-family:Trebuchet MS;-inkscape-font-specification:Trebuchet MS">screen</tspan></text>
    <text
       xml:space="preserve"
       style="font-size:20px;font-style:normal;font-weight:normal;line-height:125%;letter-spacing:0px;word-spacing:0px;fill:#ffffff;fill-opacity:1;stroke:none;font-family:Sans"
       x="540"
       y="222.36218"
       id="text3907"
       sodipodi:linespacing="125%"><tspan
         sodipodi:role="line"
         x="540"
         y="222.36218"
         id="tspan3911"
         style="-inkscape-font-specification:Trebuchet MS;font-family:Trebuchet MS;font-weight:normal;font-style:normal;font-stretch:normal;font-variant:normal">Shell</tspan></text>
    <text
       xml:space="preserve"
       style="font-size:20px;font-style:normal;font-weight:normal;line-height:125%;letter-spacing:0px;word-spacing:0px;fill:#ffffff;fill-opacity:1;stroke:none;font-family:Sans"
       x="610"
       y="222.36218"
       id="text3915"
       sodipodi:linespacing="125%"
       inkscape:transform-center-y="63.953634"><tspan
         sodipodi:role="line"
         id="tspan3917"
         x="610"
         y="222.36218"
         style="font-style:normal;font-variant:normal;font-weight:normal;font-stretch:normal;font-family:Trebuchet MS;-inkscape-font-specification:Trebuchet MS">Shell</tspan></text>
  </g>
</svg>
