<?xml version="1.0" encoding="UTF-8" standalone="no"?>
<!-- Created with Inkscape (http://www.inkscape.org/) -->

<svg
   xmlns:dc="http://purl.org/dc/elements/1.1/"
   xmlns:cc="http://creativecommons.org/ns#"
   xmlns:rdf="http://www.w3.org/1999/02/22-rdf-syntax-ns#"
   xmlns:svg="http://www.w3.org/2000/svg"
   xmlns="http://www.w3.org/2000/svg"
   xmlns:sodipodi="http://sodipodi.sourceforge.net/DTD/sodipodi-0.dtd"
   xmlns:inkscape="http://www.inkscape.org/namespaces/inkscape"
   width="683.79132"
   height="321"
   id="svg2"
   version="1.1"
   inkscape:version="0.48.4 r9939"
   sodipodi:docname="stack.svg">
  <defs
     id="defs4" />
  <sodipodi:namedview
     id="base"
     pagecolor="#ffffff"
     bordercolor="#666666"
     borderopacity="1.0"
     inkscape:pageopacity="0.0"
     inkscape:pageshadow="2"
     inkscape:zoom="1.3152344"
     inkscape:cx="324.37545"
     inkscape:cy="-13.649094"
     inkscape:document-units="px"
     inkscape:current-layer="layer1"
     showgrid="true"
     inkscape:window-width="1050"
     inkscape:window-height="1628"
     inkscape:window-x="-8"
     inkscape:window-y="-8"
     inkscape:window-maximized="1"
     fit-margin-top="0"
     fit-margin-left="0"
     fit-margin-right="0"
     fit-margin-bottom="0">
    <inkscape:grid
       type="xygrid"
       id="grid2985"
       empspacing="5"
       visible="true"
       enabled="true"
       snapvisiblegridlinesonly="true"
       originx="-29.970703px"
       originy="-559.5px" />
  </sodipodi:namedview>
  <metadata
     id="metadata7">
    <rdf:RDF>
      <cc:Work
         rdf:about="">
        <dc:format>image/svg+xml</dc:format>
        <dc:type
           rdf:resource="http://purl.org/dc/dcmitype/StillImage" />
        <dc:title></dc:title>
      </cc:Work>
    </rdf:RDF>
  </metadata>
  <g
     inkscape:label="Layer 1"
     inkscape:groupmode="layer"
     id="layer1"
     transform="translate(-29.970703,-171.86218)">
    <rect
       style="fill:#ff7f2a;fill-opacity:1;stroke:#000000;stroke-linecap:round;stroke-linejoin:bevel;stroke-opacity:1"
       id="rect2987"
       width="150"
       height="30"
       x="150"
       y="172.36218" />
    <rect
       style="fill:#ff7f2a;fill-opacity:1;stroke:#000000;stroke-linecap:round;stroke-linejoin:bevel;stroke-opacity:1"
       id="rect2989"
       width="150"
       height="30"
       x="150"
       y="222.36218" />
    <rect
       style="fill:#ff7f2a;fill-opacity:1;stroke:#000000;stroke-linecap:round;stroke-linejoin:bevel;stroke-opacity:1"
       id="rect3011"
       width="150"
       height="30"
       x="330"
       y="172.36218" />
    <rect
       style="fill:#ff7f2a;fill-opacity:1;stroke:#000000;stroke-linecap:round;stroke-linejoin:bevel;stroke-opacity:1"
       id="rect3022"
       width="150"
       height="30"
       x="330"
       y="222.36218" />
    <rect
       style="fill:#abc837;fill-opacity:1;stroke:#000000;stroke-linecap:round;stroke-linejoin:bevel;stroke-opacity:1"
       id="rect3026"
       width="150"
       height="30"
       x="150"
       y="282.36218" />
    <rect
       style="fill:#abc837;fill-opacity:1;stroke:#000000;stroke-linecap:round;stroke-linejoin:bevel;stroke-opacity:1"
       id="rect3032"
       width="150"
       height="30"
       x="150"
       y="342.36218" />
    <rect
       style="fill:#abc837;fill-opacity:1;stroke:#000000;stroke-linecap:round;stroke-linejoin:bevel;stroke-opacity:1"
       id="rect3034"
       width="150"
       height="30"
       x="330"
       y="342.36218" />
    <rect
       style="fill:#abc837;fill-opacity:1;stroke:#000000;stroke-linecap:round;stroke-linejoin:bevel;stroke-opacity:1"
       id="rect3036"
       width="150"
       height="30"
       x="510"
       y="342.36218" />
    <rect
       style="fill:#abc837;fill-opacity:1;stroke:#000000;stroke-linecap:round;stroke-linejoin:bevel;stroke-opacity:1"
       id="rect3038"
       width="150"
       height="30"
       x="150"
       y="402.36218" />
    <rect
       style="fill:#abc837;fill-opacity:1;stroke:#000000;stroke-linecap:round;stroke-linejoin:bevel;stroke-opacity:1"
       id="rect3040"
       width="150"
       height="30"
       x="330"
       y="402.36218" />
    <rect
       style="fill:#abc837;fill-opacity:1;stroke:#000000;stroke-linecap:round;stroke-linejoin:bevel;stroke-opacity:1"
       id="rect3044"
       width="150"
       height="30"
       x="150"
       y="462.36218" />
    <rect
       style="fill:#abc837;fill-opacity:1;stroke:#000000;stroke-linecap:round;stroke-linejoin:bevel;stroke-opacity:1"
       id="rect3046"
       width="150"
       height="30"
       x="330"
       y="462.36218" />
    <rect
       style="fill:#abc837;fill-opacity:1;stroke:#000000;stroke-linecap:round;stroke-linejoin:bevel;stroke-opacity:1"
       id="rect3048"
       width="150"
       height="30"
       x="510"
       y="462.36218" />
    <text
       xml:space="preserve"
       style="font-size:20px;font-style:normal;font-weight:normal;line-height:125%;letter-spacing:0px;word-spacing:0px;fill:#ff00ff;fill-opacity:1;stroke:none;font-family:Sans"
       x="145.22127"
       y="40.375252"
       id="text3050"
       sodipodi:linespacing="125%"><tspan
         sodipodi:role="line"
         id="tspan3052"
         x="145.22127"
         y="40.375252" /></text>
    <text
       xml:space="preserve"
       style="font-size:20px;font-style:normal;font-weight:normal;line-height:125%;letter-spacing:0px;word-spacing:0px;fill:#ffffff;fill-opacity:1;stroke:none;font-family:Sans"
       x="170"
       y="192.36218"
       id="text3054"
       sodipodi:linespacing="125%"><tspan
         sodipodi:role="line"
         id="tspan3056"
         x="170"
         y="192.36218">Central Apps</tspan></text>
    <text
       xml:space="preserve"
       style="font-size:20px;font-style:normal;font-weight:normal;line-height:125%;letter-spacing:0px;word-spacing:0px;fill:#ffffff;fill-opacity:1;stroke:none;font-family:Sans"
       x="360"
       y="192.36218"
       id="text3058"
       sodipodi:linespacing="125%"><tspan
         sodipodi:role="line"
         id="tspan3060"
         x="360"
         y="192.36218">Your Code</tspan></text>
    <text
       xml:space="preserve"
       style="font-size:20px;font-style:normal;font-weight:normal;line-height:125%;letter-spacing:0px;word-spacing:0px;fill:#ffffff;fill-opacity:1;stroke:none;font-family:Sans"
       x="200"
       y="242.36218"
       id="text3062"
       sodipodi:linespacing="125%"><tspan
         sodipodi:role="line"
         id="tspan3064"
         x="200"
         y="242.36218">MPI</tspan></text>
    <text
       xml:space="preserve"
       style="font-size:20px;font-style:normal;font-weight:normal;line-height:125%;letter-spacing:0px;word-spacing:0px;fill:#ffffff;fill-opacity:1;stroke:none;font-family:Sans"
       x="380"
       y="242.36218"
       id="text3066"
       sodipodi:linespacing="125%"><tspan
         sodipodi:role="line"
         id="tspan3068"
         x="380"
         y="242.36218">PVM</tspan></text>
    <text
       xml:space="preserve"
       style="font-size:20px;font-style:normal;font-weight:normal;line-height:125%;letter-spacing:0px;word-spacing:0px;fill:#ffffff;fill-opacity:1;stroke:none;font-family:Sans"
       x="190"
       y="302.36218"
       id="text3070"
       sodipodi:linespacing="125%"><tspan
         sodipodi:role="line"
         id="tspan3072"
         x="190"
         y="302.36218">Linux</tspan></text>
    <text
       xml:space="preserve"
       style="font-size:20px;font-style:normal;font-weight:normal;line-height:125%;letter-spacing:0px;word-spacing:0px;fill:#ffffff;fill-opacity:1;stroke:none;font-family:Sans"
       x="190"
       y="362.36218"
       id="text3074"
       sodipodi:linespacing="125%"><tspan
         sodipodi:role="line"
         id="tspan3076"
         x="190"
         y="362.36218">TCP/IP</tspan></text>
    <text
       xml:space="preserve"
       style="font-size:20px;font-style:normal;font-weight:normal;line-height:125%;letter-spacing:0px;word-spacing:0px;fill:#ffffff;fill-opacity:1;stroke:none;font-family:Sans"
       x="380"
       y="362.36218"
       id="text3078"
       sodipodi:linespacing="125%"><tspan
         sodipodi:role="line"
         id="tspan3080"
         x="380"
         y="362.36218">PSM</tspan></text>
    <text
       xml:space="preserve"
       style="font-size:20px;font-style:normal;font-weight:normal;line-height:125%;letter-spacing:0px;word-spacing:0px;fill:#ffffff;fill-opacity:1;stroke:none;font-family:Sans"
       x="560"
       y="362.36218"
       id="text3082"
       sodipodi:linespacing="125%"><tspan
         sodipodi:role="line"
         id="tspan3084"
         x="560"
         y="362.36218">Verbs</tspan></text>
    <text
       xml:space="preserve"
       style="font-size:20px;font-style:normal;font-weight:normal;line-height:125%;letter-spacing:0px;word-spacing:0px;fill:#ffffff;fill-opacity:1;stroke:none;font-family:Sans"
       x="360"
       y="422.36218"
       id="text3086"
       sodipodi:linespacing="125%"><tspan
         sodipodi:role="line"
         id="tspan3088"
         x="360"
         y="422.36218">Ethernet</tspan></text>
    <text
       xml:space="preserve"
       style="font-size:20px;font-style:normal;font-weight:normal;line-height:125%;letter-spacing:0px;word-spacing:0px;fill:#ffffff;fill-opacity:1;stroke:none;font-family:Sans"
       x="180"
       y="422.36218"
       id="text3090"
       sodipodi:linespacing="125%"><tspan
         sodipodi:role="line"
         id="tspan3092"
         x="180"
         y="422.36218">Infiniband</tspan></text>
    <text
       xml:space="preserve"
       style="font-size:20px;font-style:normal;font-weight:normal;line-height:125%;letter-spacing:0px;word-spacing:0px;fill:#ffffff;fill-opacity:1;stroke:none;font-family:Sans"
       x="180"
       y="482.36218"
       id="text3094"
       sodipodi:linespacing="125%"><tspan
         sodipodi:role="line"
         id="tspan3096"
         x="180"
         y="482.36218">Compute</tspan></text>
    <text
       xml:space="preserve"
       style="font-size:20px;font-style:normal;font-weight:normal;line-height:125%;letter-spacing:0px;word-spacing:0px;fill:#ffffff;fill-opacity:1;stroke:none;font-family:Sans"
       x="530"
       y="482.36218"
       id="text3098"
       sodipodi:linespacing="125%"><tspan
         sodipodi:role="line"
         id="tspan3100"
         x="530"
         y="482.36218">Accelerator</tspan></text>
    <text
       xml:space="preserve"
       style="font-size:20px;font-style:normal;font-weight:normal;line-height:125%;letter-spacing:0px;word-spacing:0px;fill:#ffffff;fill-opacity:1;stroke:none;font-family:Sans"
       x="370"
       y="482.36218"
       id="text3102"
       sodipodi:linespacing="125%"><tspan
         sodipodi:role="line"
         id="tspan3104"
         x="370"
         y="482.36218">Storage</tspan></text>
    <text
       xml:space="preserve"
       style="font-size:20px;font-style:normal;font-weight:normal;line-height:125%;letter-spacing:0px;word-spacing:0px;fill:#8d5fd3;fill-opacity:1;stroke:none;font-family:Sans"
       x="30"
       y="192.36218"
       id="text3106"
       sodipodi:linespacing="125%"><tspan
         sodipodi:role="line"
         id="tspan3108"
         x="30"
         y="192.36218">Applications</tspan></text>
    <text
       xml:space="preserve"
       style="font-size:20px;font-style:normal;font-weight:normal;line-height:125%;letter-spacing:0px;word-spacing:0px;fill:#8d5fd3;fill-opacity:1;stroke:none;font-family:Sans"
       x="30"
       y="242.36218"
       id="text3110"
       sodipodi:linespacing="125%"><tspan
         sodipodi:role="line"
         id="tspan3112"
         x="30"
         y="242.36218">Middleware</tspan></text>
    <text
       xml:space="preserve"
       style="font-size:20px;font-style:normal;font-weight:normal;line-height:125%;letter-spacing:0px;word-spacing:0px;fill:#8d5fd3;fill-opacity:1;stroke:none;font-family:Sans"
       x="30"
       y="302.36218"
       id="text3114"
       sodipodi:linespacing="125%"><tspan
         sodipodi:role="line"
         id="tspan3116"
         x="30"
         y="302.36218">OS</tspan></text>
    <text
       xml:space="preserve"
       style="font-size:20px;font-style:normal;font-weight:normal;line-height:125%;letter-spacing:0px;word-spacing:0px;fill:#8d5fd3;fill-opacity:1;stroke:none;font-family:Sans"
       x="30"
       y="362.36218"
       id="text3118"
       sodipodi:linespacing="125%"><tspan
         sodipodi:role="line"
         id="tspan3120"
         x="30"
         y="362.36218">Protocol</tspan></text>
    <text
       xml:space="preserve"
       style="font-size:20px;font-style:normal;font-weight:normal;line-height:125%;letter-spacing:0px;word-spacing:0px;fill:#8d5fd3;fill-opacity:1;stroke:none;font-family:Sans"
       x="30"
       y="422.36218"
       id="text3122"
       sodipodi:linespacing="125%"><tspan
         sodipodi:role="line"
         id="tspan3124"
         x="30"
         y="422.36218">Interconnect</tspan></text>
    <text
       xml:space="preserve"
       style="font-size:20px;font-style:normal;font-weight:normal;line-height:125%;letter-spacing:0px;word-spacing:0px;fill:#8d5fd3;fill-opacity:1;stroke:none;font-family:Sans"
       x="30"
       y="482.36218"
       id="text3126"
       sodipodi:linespacing="125%"><tspan
         sodipodi:role="line"
         id="tspan3128"
         x="30"
         y="482.36218">Hardware</tspan></text>
    <path
       style="fill:#8d5fd3;fill-opacity:1;stroke:#000000;stroke-linecap:round;stroke-linejoin:bevel;stroke-opacity:0"
       id="path3958"
       d="m 214.53012,200.83054 c 3.03807,4.52231 5.79817,9.22954 8.49347,13.96246 0.3693,1.00767 2.61365,4.06508 2.49514,5.19959 -0.016,0.15267 -0.17164,0.25453 -0.25746,0.38179 0.0207,0.0179 -0.23287,0.31106 -0.2536,0.29313 l 0,0 c -0.24291,0.031 -0.49075,0.15063 -0.72873,0.0929 -1.40625,-0.341 -3.10793,-3.65023 -3.97295,-4.60767 -3.01531,-4.53701 -5.86113,-9.1861 -8.53109,-13.93502 -0.0981,-0.19483 2.65713,-1.58203 2.75522,-1.3872 z"
       inkscape:connector-curvature="0" />
    <path
       style="fill:#8d5fd3;fill-opacity:1;stroke:#000000;stroke-linecap:round;stroke-linejoin:bevel;stroke-opacity:0"
       id="path3960"
       d="m 217.10158,217.96411 c 3.44815,1.32704 6.9134,2.80005 10.62473,3.14123 -0.0763,-0.0484 -0.26973,-0.17543 -0.28123,-0.27408 -0.14421,-1.2363 -0.0272,-2.60021 -0.0634,-3.84404 -0.013,-2.89341 -0.27099,-5.80679 0.0356,-8.69207 0.38906,-1.03029 0.0172,-0.54104 1.84348,-0.0221 0.005,0.01 -0.12998,0.08 -0.13496,0.0705 l 0,0 c 1.20753,-0.46058 0.95054,-0.77728 1.22256,-0.0493 0.31391,2.86784 0.18332,5.76769 0.2969,8.64638 0.0107,1.96782 0.55829,6.17941 -2.02714,6.94925 -0.61608,0.18344 -1.28335,0.0765 -1.92503,0.11473 -3.97057,-0.48628 -7.72817,-1.93068 -11.24515,-3.81182 -0.15759,-0.11693 1.49599,-2.3456 1.65358,-2.22868 z"
       inkscape:connector-curvature="0" />
    <path
       style="fill:#8d5fd3;fill-opacity:1;stroke:#000000;stroke-linecap:round;stroke-linejoin:bevel;stroke-opacity:0"
       id="path3962"
       d="m 281.00114,214.79917 c 13.62954,-0.96505 26.94786,-4.09131 40.20843,-7.21164 9.07658,-2.14879 18.07297,-4.66449 27.23027,-6.46603 2.46942,-0.48581 7.68237,-1.42541 10.5427,-1.42669 1.13501,-5e-4 2.25661,0.2464 3.38492,0.3696 0.4682,0.49911 1.19847,0.84478 1.40461,1.49734 0.87222,2.7612 -2.27203,5.17954 -4.36606,6.17451 -0.39757,0.1889 -0.83451,0.28033 -1.25177,0.4205 -0.33432,-0.0317 -0.66863,-0.0634 -1.00295,-0.0951 -0.0913,0.0377 -0.62507,-1.25388 -0.53374,-1.29162 l 0,0 c 0.12151,-0.10868 0.24301,-0.21737 0.36452,-0.32605 1.11607,-0.67072 2.12752,-1.37644 3.06682,-2.28985 0.2945,-0.28639 0.49977,-0.66965 0.83638,-0.90511 0.49626,-0.34713 0.65859,0.20638 0.47076,-0.24424 -3.30567,-0.18599 -8.08806,1.14676 -11.13297,1.86477 -9.06107,2.13664 -18.00973,4.72286 -27.08183,6.81588 -13.58506,3.0287 -27.4744,6.3612 -41.49297,5.6341 -0.17822,0.0458 -0.82534,-2.4746 -0.64712,-2.52036 z"
       inkscape:connector-curvature="0" />
    <path
       style="fill:#8d5fd3;fill-opacity:1;stroke:#000000;stroke-linecap:round;stroke-linejoin:bevel;stroke-opacity:0"
       id="path3964"
       d="m 297.38922,201.69981 c -5.50527,3.41292 -10.92751,6.92423 -15.86171,11.13292 -2.23085,2.22808 -4.05352,4.54169 -1.74036,7.45945 0.40167,0.50666 0.90452,0.92415 1.35678,1.38623 0.6627,0.46041 1.28219,0.99031 1.98811,1.38124 5.49306,3.04194 12.24486,2.81391 18.29042,2.34761 3.55036,-0.32063 6.98015,-1.26494 10.40645,-2.18601 0.0923,-0.0668 1.03703,1.23917 0.94469,1.30597 l 0,0 c -0.79162,0.56852 -1.51494,1.24684 -2.37485,1.70555 -2.84802,1.51926 -4.72349,1.7235 -7.89806,2.47416 -1.90765,0.14654 -3.81013,0.3977 -5.72293,0.43962 -5.4438,0.11933 -11.37228,-0.72665 -15.99642,-3.80395 -0.81135,-0.53994 -1.50169,-1.24268 -2.25253,-1.86402 -1.2603,-1.5764 -1.97271,-2.13329 -2.54444,-4.08613 -1.00294,-3.42572 0.80555,-6.30348 3.08565,-8.69414 0.84016,-0.75469 1.64747,-1.54765 2.5205,-2.26407 4.2935,-3.5233 9.13855,-6.34263 14.08142,-8.84042 0.14891,-0.12144 1.8662,1.98456 1.71728,2.10599 z"
       inkscape:connector-curvature="0" />
    <path
       style="fill:#8d5fd3;fill-opacity:1;stroke:#000000;stroke-linecap:round;stroke-linejoin:bevel;stroke-opacity:0"
       id="path3966"
       d="m 240.26609,257.93864 c 0.29929,5.57464 0.30339,11.156 0.64362,16.72953 -0.40648,0.1301 0.87886,5.28059 0.66379,5.6634 -0.0516,0.0918 -0.2106,-0.004 -0.3159,-0.006 0.0511,0.0175 -0.19636,0.73967 -0.24742,0.72218 l 0,0 c -0.25964,-0.0166 -0.54307,0.06 -0.7789,-0.0499 -1.65516,-0.77099 -1.90258,-4.73532 -2.25337,-6.12597 -0.58134,-5.61351 -0.61027,-11.25168 -0.40798,-16.88972 -0.003,-0.19065 2.6931,-0.2338 2.69616,-0.0431 z"
       inkscape:connector-curvature="0" />
    <path
       style="fill:#8d5fd3;fill-opacity:1;stroke:#000000;stroke-linecap:round;stroke-linejoin:bevel;stroke-opacity:0"
       id="path3968"
       d="m 234.06415,270.54344 c 3.68459,4.81228 7.59165,9.46255 12.31556,13.2837 0.9285,0.53524 1.56134,1.13799 2.65242,1.11129 0.10536,-0.003 -0.21433,-0.10929 -0.23377,-0.21288 -0.0203,-0.10827 0.0976,-0.19782 0.13743,-0.30055 0.47509,-1.22687 0.40049,-1.14244 0.82164,-2.6838 0.54456,-2.28983 1.08927,-4.58137 1.77343,-6.83461 0.14614,-0.48131 0.69774,-2.34236 1.10821,-2.9106 0.14956,-0.20705 0.41269,-0.30107 0.61904,-0.4516 0.0184,-0.0781 1.12257,0.18277 1.10413,0.26084 l 0,0 c 0.10629,0.2025 0.28582,0.3812 0.31887,0.60749 0.10144,0.69448 -0.25445,2.56214 -0.3451,3.06005 -0.42958,2.35972 -0.97073,4.70059 -1.62453,7.00819 -0.48768,1.50348 -1.00961,4.17948 -2.76552,4.859 -2.10127,0.81318 -4.08885,-0.41499 -5.76903,-1.46049 -4.9336,-3.95543 -9.08046,-8.7107 -12.37089,-14.11979 -0.086,-0.15967 2.17211,-1.37591 2.25811,-1.21624 z"
       inkscape:connector-curvature="0" />
    <path
       style="fill:#8d5fd3;fill-opacity:1;stroke:#000000;stroke-linecap:round;stroke-linejoin:bevel;stroke-opacity:0"
       id="path3972"
       d="m 292.63013,273.92219 c 0.84705,0.0137 1.69535,0.0894 2.54114,0.0412 9.73434,-0.55466 19.60361,-4.75826 28.47068,-8.45411 6.26064,-2.75982 12.28725,-6.0018 18.41569,-9.03311 2.33869,-1.15678 5.4117,-2.68385 7.93476,-3.59927 0.87152,-0.31621 1.78017,-0.51876 2.67025,-0.77814 1.96729,-0.43184 3.8229,-0.21656 5.64509,0.57842 0.0302,0.0132 1.60476,0.89122 1.73257,0.48446 1.64325,-0.10768 2.64742,-1.60963 4.10363,-2.12177 0.0367,-0.0781 1.14126,0.44098 1.10455,0.51909 l 0,0 c -0.12188,2.20738 -2.65202,3.47166 -4.48647,4.08849 -0.62732,-0.008 -1.25797,0.0419 -1.88197,-0.0231 -1.67097,-0.17397 -2.95691,-1.4496 -4.70515,-0.80687 -3.6125,1.23637 -6.45672,2.80029 -9.83881,4.61756 -6.0936,3.27422 -12.14405,6.64399 -18.47688,9.44736 -10.03399,4.13972 -20.57899,8.51761 -31.66795,7.96735 -0.9371,-0.0465 -1.85328,-0.29434 -2.77991,-0.44151 -0.17579,-0.0862 1.04299,-2.57221 1.21878,-2.48603 z"
       inkscape:connector-curvature="0" />
    <path
       style="fill:#8d5fd3;fill-opacity:1;stroke:#000000;stroke-linecap:round;stroke-linejoin:bevel;stroke-opacity:0"
       id="path3974"
       d="m 297.41478,262.29064 c -4.25262,4.20545 -8.53202,8.11856 -11.94545,13.06959 -1.32095,2.41245 -1.61603,5.24613 0.79448,7.09877 0.51662,0.39705 1.11982,0.66649 1.67973,0.99973 6.15865,2.35896 12.90428,1.74971 19.35111,1.34536 3.75839,-0.38881 1.97747,-0.18868 5.34379,-0.59116 0.11413,-0.0635 1.0124,1.55056 0.89827,1.61408 l 0,0 c -3.11332,1.64009 -1.40152,0.94012 -5.18352,1.97816 -6.47606,0.94678 -13.56999,1.50997 -19.88586,-0.68271 -0.9666,-0.33557 -1.86173,-0.84946 -2.79259,-1.2742 -1.72471,-1.32497 -2.44379,-1.57647 -3.49617,-3.47497 -1.54452,-2.78632 -0.94523,-5.86827 0.4065,-8.57049 0.51875,-0.79756 0.9914,-1.62708 1.55626,-2.39267 3.10776,-4.2122 7.15035,-7.66198 11.14574,-10.99258 0.13245,-0.15045 2.26016,1.72263 2.12771,1.87309 z"
       inkscape:connector-curvature="0" />
    <path
       style="fill:#8d5fd3;fill-opacity:1;stroke:#000000;stroke-linecap:round;stroke-linejoin:bevel;stroke-opacity:0"
       id="path3976"
       d="m 228.79657,317.42505 c 0.41119,4.20073 0.47854,8.4258 0.48621,12.6436 -0.0812,2.58428 0.21912,5.12453 1.02002,7.57992 -0.84519,0.0584 0.57289,0.6223 0.33875,0.78454 -0.068,0.0471 -0.0964,-0.18608 -0.17807,-0.17291 -0.44173,0.0713 -0.84267,0.30814 -1.27884,0.40792 -0.25153,0.0575 0.27276,-0.18827 0.73332,-0.41381 -5.3e-4,-0.004 0.0598,-0.0118 0.0604,-0.008 l 0,0 c 1.15555,0.59867 1.0994,1.26566 -0.68667,1.85215 -0.58837,0.1932 -1.41887,-1.35604 -1.60433,-1.63564 -1.10973,-2.66139 -1.40586,-5.51592 -1.38746,-8.38628 -0.0203,-4.1922 -0.11419,-8.38592 -0.003,-12.57736 -0.005,-0.17678 2.49472,-0.25134 2.5,-0.0746 z"
       inkscape:connector-curvature="0" />
    <path
       style="fill:#8d5fd3;fill-opacity:1;stroke:#000000;stroke-linecap:round;stroke-linejoin:bevel;stroke-opacity:0"
       id="path3978"
       d="m 219.20443,328.22039 c 2.28823,4.35573 4.44695,8.99294 7.89902,12.58585 0.5843,0.60814 1.27651,1.10248 1.91476,1.65373 1.16163,0.529 1.92059,1.16844 3.24828,0.78725 0.23959,-0.0688 0.31664,-0.38574 0.48934,-0.5655 0.41497,-0.43191 0.90441,-0.79611 1.27268,-1.26847 1.21532,-1.55885 1.64597,-2.76611 2.49012,-4.56818 0.89238,-2.12166 1.5105,-4.33417 2.05163,-6.56523 0.0658,-0.27115 0.0418,-0.5796 0.19198,-0.81473 0.0497,-0.0778 0.13825,0.15076 0.2305,0.15337 0.16811,0.005 0.32445,-0.0887 0.48668,-0.13306 -0.008,0.009 -0.13633,-0.10821 -0.12804,-0.11726 l 0,0 c 0.38297,-0.22582 0.70469,-0.69568 1.14891,-0.67747 0.75467,0.0309 0.90428,1.67549 0.90625,1.98605 0.0162,2.55529 -1.01378,5.00634 -1.8577,7.35854 -1.1527,2.37338 -2.65197,5.90182 -5.1698,7.21271 -2.81787,1.46709 -5.19371,0.77373 -7.69287,-0.76313 -0.73966,-0.65627 -1.5395,-1.25043 -2.21899,-1.96882 -3.58934,-3.79486 -5.92077,-8.68549 -7.79999,-13.4928 -0.0568,-0.17941 2.48047,-0.98226 2.53724,-0.80285 z"
       inkscape:connector-curvature="0" />
    <path
       style="fill:#8d5fd3;fill-opacity:1;stroke:#000000;stroke-linecap:round;stroke-linejoin:bevel;stroke-opacity:0"
       id="path3984"
       d="m 298.12038,318.585 c 4.91659,5.15333 11.06095,9.0225 17.5718,11.85149 2.1019,0.91328 4.2813,1.63668 6.42195,2.45502 10.95742,3.82552 22.56219,4.60823 33.92203,6.46909 0.4158,0.11591 2.49271,0.46536 2.95234,1.19077 0.13938,0.21997 -0.0254,0.52019 -0.0381,0.78028 0.009,0.0115 -0.15349,0.13356 -0.16213,0.1221 l 0,0 c -1.06409,0.76865 -2.2752,0.22939 -3.59657,0.31728 -11.90767,-0.51003 -23.86936,-1.52999 -35.18544,-5.57997 -2.20951,-0.90692 -4.46677,-1.70528 -6.62854,-2.72077 -6.71714,-3.15536 -13.20452,-7.4865 -17.63591,-13.52742 -0.096,-0.16819 2.28255,-1.52606 2.37856,-1.35787 z"
       inkscape:connector-curvature="0" />
    <path
       style="fill:#8d5fd3;fill-opacity:1;stroke:#000000;stroke-linecap:round;stroke-linejoin:bevel;stroke-opacity:0"
       id="path3986"
       d="m 342.51419,326.61004 c 5.87778,3.70667 12.07092,6.86736 18.23222,10.06652 1.2937,0.87853 5.41985,2.01347 4.58364,4.48357 -0.29248,0.86396 -1.49647,1.36269 -2.18454,1.74296 -4.16609,2.19147 -8.2848,4.44594 -12.72664,6.0297 -1.83743,0.40257 -4.04634,0.99273 -5.92389,0.31396 -0.35424,-0.12807 -0.56029,-0.50362 -0.84044,-0.75542 -0.0865,-0.0587 0.74396,-1.28201 0.83045,-1.22329 l 0,0 c 1.4863,-0.19604 2.97743,-0.40345 4.40505,-0.88622 4.375,-1.57077 8.42219,-3.83605 12.67918,-5.68577 0.34726,-0.13003 0.67248,-0.35672 1.04178,-0.39009 0.12895,-0.0117 0.20733,0.16261 0.27846,0.2708 0.14036,0.21348 0.43306,0.44161 0.34844,0.68268 -0.064,0.18229 -0.29962,-0.24724 -0.4681,-0.34179 -0.81404,-0.45683 -3.21638,-1.57713 -3.80675,-1.8583 -6.33749,-3.08192 -12.67661,-6.30051 -18.27706,-10.62202 -0.1292,-0.12927 1.69899,-1.95656 1.8282,-1.82729 z"
       inkscape:connector-curvature="0" />
    <path
       style="fill:#8d5fd3;fill-opacity:1;stroke:#000000;stroke-linecap:round;stroke-linejoin:bevel;stroke-opacity:0"
       id="path3988"
       d="m 326.97382,308.21167 c 15.15181,0.57144 30.31622,0.40832 45.4484,-0.56815 5.37101,-0.34658 10.73406,-0.80725 16.10108,-1.21087 23.88713,-2.0235 47.58984,-5.71761 71.44115,-8.07304 15.56201,-1.53683 16.11355,-1.39079 31.11217,-2.13646 8.96763,0.0744 14.27789,-0.23166 23.02688,1.11482 4.77568,0.73498 11.53533,2.42591 14.81492,6.47539 0.60349,0.74516 0.83854,1.72473 1.25781,2.5871 -0.045,0.82672 0.10377,1.68742 -0.13506,2.48018 -0.78228,2.59676 -3.76237,4.16046 -6.32926,4.01807 -0.5617,-0.0312 -1.10768,-0.19735 -1.66152,-0.29603 -1.8288,-0.8745 -1.56132,-1.51316 -2.13197,0.3631 -0.14753,0.61339 -0.41228,1.09235 -0.83624,1.54364 -0.0162,0.0319 -0.46692,-0.19775 -0.45069,-0.22962 l 0,0 c 0.1698,-0.52011 0.35097,-1.03648 0.56803,-1.53924 0.88338,-1.97574 1.38942,-1.6548 3.33758,-1.50495 1.76661,-0.17629 4.26157,-0.7311 5.11191,-2.54391 0.18976,-0.40456 0.14851,-0.88128 0.22276,-1.32191 -0.30952,-0.55824 -0.47233,-1.22831 -0.92857,-1.67471 -1.83676,-1.79711 -4.85136,-2.80479 -7.19342,-3.35409 -8.87977,-2.08263 -18.11456,-1.52264 -27.1275,-1.19281 -14.99043,1.14454 -15.04243,1.02972 -30.65495,2.74697 -23.91235,2.63016 -47.72693,6.20295 -71.73416,7.93162 -5.44658,0.31371 -10.8882,0.73075 -16.33975,0.94113 -15.9743,0.61645 -32.12869,0.54385 -47.96206,-1.87903 -0.1893,-0.0737 0.85315,-2.75092 1.04246,-2.6772 z"
       inkscape:connector-curvature="0" />
    <path
       style="fill:#8d5fd3;fill-opacity:1;stroke:#000000;stroke-linecap:round;stroke-linejoin:bevel;stroke-opacity:0"
       id="path3990"
       d="m 509.3409,311.90503 c 0.51056,7.91593 3.33145,15.36986 6.35908,22.61445 1.16614,2.04919 3.27342,8.39946 6.51674,8.25096 0.23658,-0.0108 0.35134,-0.3198 0.54634,-0.45419 0.57271,-0.3947 1.16907,-0.75394 1.7536,-1.1309 4.85293,-4.53243 8.27896,-10.32829 11.29726,-16.1833 0.56236,-1.04715 0.14763,-0.95727 0.97074,-0.82366 -0.0314,-0.0565 0.76795,-0.50037 0.79933,-0.44385 l 0,0 c 1.30095,0.99979 0.90424,0.31972 0.96857,2.15426 -0.21965,0.76313 -0.37111,1.54928 -0.65894,2.28939 -2.26836,5.83271 -6.53009,11.42764 -11.17267,15.56062 -2.59726,1.53102 -2.92979,2.28979 -6.22218,1.80343 -4.21894,-0.62322 -6.59488,-6.67621 -8.27501,-9.81764 -3.19687,-7.59006 -6.17817,-15.55567 -5.87306,-23.92856 0.008,-0.21144 2.9979,-0.10245 2.9902,0.10899 z"
       inkscape:connector-curvature="0" />
    <path
       style="fill:#8d5fd3;fill-opacity:1;stroke:#000000;stroke-linecap:round;stroke-linejoin:bevel;stroke-opacity:0"
       id="path3992"
       d="m 233.67225,382.11903 c -0.0583,5.57769 0.33416,11.14533 0.46549,16.71915 -0.009,0.19861 0.0253,1.80666 -0.26457,2.24334 -0.0789,0.1188 -0.26415,0.10748 -0.39623,0.16122 0.004,0.002 -0.0269,0.0547 -0.0306,0.0526 l 0,0 c -0.26379,0.009 -0.56054,0.15482 -0.79138,0.0268 -0.60972,-0.33803 -0.87926,-1.91766 -0.98855,-2.29832 -0.87516,-5.65137 -1.16896,-11.40971 -0.60543,-17.11026 0.0145,-0.18464 2.62577,0.0208 2.61124,0.20545 z"
       inkscape:connector-curvature="0" />
    <path
       style="fill:#8d5fd3;fill-opacity:1;stroke:#000000;stroke-linecap:round;stroke-linejoin:bevel;stroke-opacity:0"
       id="path3994"
       d="m 226.64492,395.57971 c 1.08433,4.0166 2.3398,8.45736 5.39483,11.48081 0.43115,0.42669 0.97653,0.71986 1.46479,1.0798 0.40906,0.0985 0.80711,0.27154 1.22718,0.29547 0.0899,0.005 0.0925,-0.15867 0.1616,-0.21637 0.16499,-0.13781 0.38889,-0.20375 0.53269,-0.36354 0.65731,-0.73038 0.73537,-1.87283 0.8797,-2.7824 0.14764,-1.77855 -0.0447,-1.77556 1.08169,-3.17245 1.4e-4,-0.0114 0.16118,-0.009 0.16104,0.002 l 0,0 c 1.09303,1.1842 1.24853,1.74677 1.34659,3.39897 -0.0358,0.53263 -0.007,1.07367 -0.10744,1.59791 -0.56252,2.92623 -2.40836,4.50345 -5.47369,3.98608 -0.66604,-0.11242 -1.2542,-0.50198 -1.88129,-0.75296 -0.62304,-0.50079 -1.3126,-0.92855 -1.86912,-1.50236 -3.30514,-3.40786 -4.80879,-8.2839 -5.38376,-12.87522 -0.0124,-0.17432 2.45277,-0.35003 2.46519,-0.17572 z"
       inkscape:connector-curvature="0" />
    <path
       style="fill:#8d5fd3;fill-opacity:1;stroke:#000000;stroke-linecap:round;stroke-linejoin:bevel;stroke-opacity:0"
       id="path3996"
       d="m 387.0716,380.40026 c 1.50814,5.33202 2.78646,10.72451 3.76711,16.17792 0.0775,1.73543 1.15258,4.32009 -0.17815,5.82256 -0.008,0.0741 -1.05664,-0.0416 -1.04845,-0.11574 l 0,0 c -1.08359,-1.11284 -1.0608,-3.80604 -1.771,-5.1385 -1.46743,-5.33832 -2.81511,-10.71667 -3.80788,-16.16562 -0.0411,-0.21485 2.99731,-0.79547 3.03837,-0.58062 z"
       inkscape:connector-curvature="0" />
    <path
       style="fill:#8d5fd3;fill-opacity:1;stroke:#000000;stroke-linecap:round;stroke-linejoin:bevel;stroke-opacity:0"
       id="path3998"
       d="m 378.79484,396.84861 c 1.22303,3.82855 3.78619,7.04868 7.24826,9.1094 0.69894,0.41603 1.46324,0.71085 2.19486,1.06627 1.85107,0.57808 4.41013,1.30348 5.27441,-1.05054 0.17542,-0.47779 0.25596,-0.98524 0.38394,-1.47786 0.54904,-2.87405 0.0519,-5.78536 0.15833,-8.6748 -0.0297,-0.14136 1.96955,-0.56058 1.99919,-0.41921 l 0,0 c 0.20272,0.3904 0.4609,0.75669 0.60817,1.17121 0.98199,2.76392 0.79839,5.85411 0.38444,8.69423 -0.51597,1.62515 -0.6288,2.66022 -1.86222,3.9288 -2.36677,2.43424 -6.19789,1.45279 -8.97078,0.51765 -0.8571,-0.44954 -1.75639,-0.8265 -2.57131,-1.34862 -3.98554,-2.55351 -6.90625,-6.50153 -7.76861,-11.17636 -0.024,-0.20657 2.89727,-0.54673 2.92132,-0.34017 z"
       inkscape:connector-curvature="0" />
    <path
       style="fill:#8d5fd3;fill-opacity:1;stroke:#000000;stroke-linecap:round;stroke-linejoin:bevel;stroke-opacity:0"
       id="path4004"
       d="m 531.31593,377.10251 c -5.34014,0.32509 -10.572,1.30975 -15.77574,2.50619 -7.3235,1.76415 -14.65669,3.44419 -21.84291,5.71485 -7.32164,2.40573 -14.05686,6.17423 -20.93533,9.578 -1.97041,0.83597 -6.17343,2.73695 -8.09195,0.75198 -0.19992,-0.20686 -0.28387,-0.50046 -0.42581,-0.75068 0.0381,-0.26428 0.0763,-0.52856 0.11444,-0.79284 -0.0101,-0.0796 1.1161,-0.2225 1.1262,-0.14286 l 0,0 c 0.0766,-0.0101 0.15325,-0.0201 0.22987,-0.0302 0.23255,0.0487 0.57578,0.22343 0.78153,0.2147 1.61963,-0.0688 3.01366,-0.85493 4.39968,-1.6308 6.7732,-3.92832 13.5778,-7.88407 21.07311,-10.30551 7.27924,-2.28236 14.71123,-3.93266 22.13296,-5.6805 5.84124,-1.29204 11.78913,-2.50812 17.79935,-1.71233 0.16122,0.0414 -0.42418,2.32139 -0.5854,2.27999 z"
       inkscape:connector-curvature="0" />
    <path
       style="fill:#8d5fd3;fill-opacity:1;stroke:#000000;stroke-linecap:round;stroke-linejoin:bevel;stroke-opacity:0"
       id="path4006"
       d="m 467.51708,389.00266 c -3.28072,3.14341 -6.88038,6.421 -8.56884,10.76505 -0.26527,0.68247 -0.36809,1.41741 -0.55213,2.12611 0.0803,0.53517 0.0137,1.11438 0.24097,1.60551 1.3511,2.91989 9.11035,2.35402 11.62869,2.31155 5.01517,-0.19722 2.51105,-0.13481 7.51235,-0.18798 0.0603,-0.0272 0.44511,0.826 0.38478,0.85321 l 0,0 c -4.48902,1.93374 -2.13583,1.20831 -7.07261,2.13351 -4.72741,0.27172 -13.4686,1.12558 -15.45809,-4.82372 -0.26859,-0.80317 -0.15278,-1.68687 -0.22917,-2.5303 0.22361,-0.88715 0.35028,-1.80455 0.67085,-2.66145 1.77555,-4.74615 5.65847,-8.39401 9.56576,-11.41901 0.12923,-0.13276 2.00667,1.69477 1.87744,1.82752 z"
       inkscape:connector-curvature="0" />
    <path
       style="fill:#8d5fd3;fill-opacity:1;stroke:#000000;stroke-linecap:round;stroke-linejoin:bevel;stroke-opacity:0"
       id="path4008"
       d="m 261.1248,377.31059 c 10.04197,1.07619 19.76964,4.1597 29.51954,6.68432 10.12243,2.74564 20.48453,4.49709 30.61223,7.20877 1.72886,0.57068 3.56438,1.07505 5.0161,2.23514 0.31907,0.25497 0.78769,0.63367 0.49149,1.02271 0.0448,0.0143 -0.15788,0.64743 -0.20265,0.6331 l 0,0 c -0.95086,0.27949 -1.56456,-0.0486 -2.51879,-0.31712 -1.92665,-0.5422 -1.79073,-0.47359 -4.01386,-0.96126 -10.39202,-1.95514 -20.82086,-3.77351 -31.03399,-6.55967 -9.50968,-2.56035 -18.92532,-5.55359 -28.57383,-7.5478 -0.16958,-0.0498 0.53419,-2.44796 0.70376,-2.39819 z"
       inkscape:connector-curvature="0" />
    <path
       style="fill:#8d5fd3;fill-opacity:1;stroke:#000000;stroke-linecap:round;stroke-linejoin:bevel;stroke-opacity:0"
       id="path4010"
       d="m 324.03992,387.12273 c 4.73245,2.23666 9.27909,5.12089 12.96949,8.87111 0.71775,0.72939 1.33789,1.54879 2.00684,2.32319 1.85094,2.88089 2.73073,5.62651 0.0622,8.40022 -1.47784,1.53608 -2.99557,2.08731 -4.86953,3.0347 -3.09505,1.1611 -6.37308,1.91676 -9.70298,1.75623 -1.12187,-0.0541 -2.22703,-0.294 -3.34055,-0.44099 -0.14189,-0.0424 0.45715,-2.04898 0.59904,-2.00662 l 0,0 c 3.55725,-0.38255 7.13796,-0.77097 10.52033,-2.02072 1.24966,-0.52451 5.41587,-1.89121 5.43836,-3.80658 0.0143,-1.22138 -0.76893,-2.11638 -1.35724,-3.09545 -0.60645,-0.68977 -1.17226,-1.41751 -1.81934,-2.06932 -3.52216,-3.54785 -7.79878,-6.24532 -12.08882,-8.75332 -0.15503,-0.11188 1.42717,-2.30433 1.5822,-2.19245 z"
       inkscape:connector-curvature="0" />
    <path
       style="fill:#8d5fd3;fill-opacity:1;stroke:#000000;stroke-linecap:round;stroke-linejoin:bevel;stroke-opacity:0"
       id="path4012"
       d="m 229.23433,438.64471 c -0.45121,5.40928 -0.86657,10.82096 -1.43277,16.21974 -0.37668,3.74618 -0.96302,7.48451 -2.58558,10.90805 -0.69189,0.86113 -0.24526,0.61813 -1.33549,0.73702 -0.006,0.0131 -0.19074,-0.0668 -0.18509,-0.0799 l 0,0 c -0.69541,-0.63363 -0.51284,-0.23883 -0.53703,-1.18928 0.52184,-3.539 1.06729,-7.07591 1.35975,-10.64396 0.48821,-5.44862 0.8057,-10.92974 1.75683,-16.32276 0.0262,-0.20926 2.98562,0.1618 2.95938,0.37106 z"
       inkscape:connector-curvature="0" />
    <path
       style="fill:#8d5fd3;fill-opacity:1;stroke:#000000;stroke-linecap:round;stroke-linejoin:bevel;stroke-opacity:0"
       id="path4016"
       d="m 217.40906,447.53653 c -0.0178,4.16918 0.18249,8.61071 2.08335,12.4218 0.32143,0.64446 0.76888,1.21795 1.15331,1.82692 2.7928,3.08299 6.76485,3.87274 10.75147,3.93961 1.11494,-0.22196 1.74974,-0.26589 2.80821,-0.95681 3.36417,-2.196 5.2192,-6.92105 6.87513,-10.37733 1.8365,-3.9779 0.90853,-2.12548 2.74762,-5.57531 0.023,-0.0821 1.18389,0.24321 1.16089,0.3253 l 0,0 c -0.63706,3.90706 -0.18131,1.84946 -1.46699,6.14987 -1.89812,4.55024 -4.59292,11.49019 -9.99421,12.89063 -0.95123,0.24663 -1.95484,0.20322 -2.93225,0.30483 -4.95828,-0.27299 -9.24117,-1.42814 -12.52204,-5.42291 -0.4437,-0.74505 -0.95936,-1.45171 -1.33111,-2.23514 -1.98429,-4.18169 -2.13178,-9.01874 -1.60206,-13.5293 0.0168,-0.16042 2.2855,0.0774 2.26868,0.23784 z"
       inkscape:connector-curvature="0" />
    <path
       style="fill:#8d5fd3;fill-opacity:1;stroke:#000000;stroke-linecap:round;stroke-linejoin:bevel;stroke-opacity:0"
       id="path4022"
       d="m 453.41273,435.42887 c 7.17213,4.28817 14.78937,7.84614 22.72987,10.46512 2.34181,0.77239 4.72674,1.40733 7.09012,2.111 13.86989,3.69463 28.2145,4.78063 42.42682,6.3591 2.79854,0.37001 4.76427,0.54966 7.43361,1.15425 0.43788,0.0992 2.14472,0.45486 2.65199,1.03638 0.15427,0.17683 0.14619,0.44598 0.21928,0.66898 0.0389,0.0833 -1.13982,0.63395 -1.17875,0.5506 l 0,0 c 0.11798,0.65828 0.22761,0.48177 -0.76442,0.42404 -3.14005,-0.18273 -6.26481,-0.64504 -9.41265,-0.72527 -14.53687,-0.98061 -29.17365,-2.03727 -43.25758,-6.04208 -2.40773,-0.76556 -4.84178,-1.4528 -7.22318,-2.29668 -8.02519,-2.84381 -15.83807,-6.64733 -22.6242,-11.82166 -0.13321,-0.13499 1.77589,-2.01878 1.90909,-1.88378 z"
       inkscape:connector-curvature="0" />
    <path
       style="fill:#8d5fd3;fill-opacity:1;stroke:#000000;stroke-linecap:round;stroke-linejoin:bevel;stroke-opacity:0"
       id="path4024"
       d="m 520.06826,446.72185 c 5.19815,1.48219 10.33523,3.15204 15.127,5.67402 2.28742,1.43895 3.91771,3.53846 2.83636,6.3435 -0.6172,1.60106 -1.61874,2.49002 -2.73309,3.7613 -4.24169,3.8854 -9.2186,7.26872 -14.86829,8.69596 -0.97062,0.2452 -1.97498,0.32923 -2.96247,0.49385 -1.26826,-0.0564 -3.62869,0.10006 -4.67461,-0.99542 -0.41511,-0.43478 -0.19208,-1.1868 -0.28812,-1.7802 -0.0147,-0.0304 0.41567,-0.23773 0.43032,-0.2073 l 0,0 c 1.20278,0.25434 1.93511,0.25243 3.25457,0.005 0.83829,-0.17389 1.68973,-0.29339 2.51487,-0.52168 5.16428,-1.42879 9.79299,-4.33603 13.91782,-7.68515 0.51063,-0.4814 3.26002,-2.70426 2.77805,-3.81794 -0.37516,-0.86686 -1.38062,-1.3628 -2.07152,-1.85121 -4.70092,-2.39292 -9.75302,-3.88841 -14.62529,-5.88139 -0.15791,-0.0965 1.20649,-2.32963 1.3644,-2.23315 z"
       inkscape:connector-curvature="0" />
    <path
       style="fill:#8d5fd3;fill-opacity:1;stroke:#000000;stroke-linecap:round;stroke-linejoin:bevel;stroke-opacity:0"
       id="path4032"
       d="m 397.96385,438.36148 c -0.93218,5.72245 -0.84933,11.53998 -0.36737,17.29831 -0.16523,0.14216 0.73263,3.68125 0.7275,3.68716 -0.10568,0.12176 -0.31961,-0.0428 -0.47942,-0.0642 0.0802,-0.0215 0.38349,1.11283 0.30329,1.13428 l 0,0 c -0.45162,-0.0179 -0.92945,0.0989 -1.35485,-0.0538 -1.56266,-0.56082 -1.81025,-3.20311 -2.25519,-4.39072 -0.96452,-6.111 -0.9796,-12.28082 0.58129,-18.30535 0.0491,-0.20115 2.89385,0.49315 2.84475,0.6943 z"
       inkscape:connector-curvature="0" />
    <path
       style="fill:#8d5fd3;fill-opacity:1;stroke:#000000;stroke-linecap:round;stroke-linejoin:bevel;stroke-opacity:0"
       id="path4038"
       d="m 388.05404,452.58545 c 3.56741,3.98898 7.36874,7.77606 11.89274,10.664 3.52559,1.57059 3.89317,0.71801 5.50818,-2.46449 2.04828,-4.43972 3.3213,-9.21397 5.50301,-13.59068 0.15619,-0.18794 0.31239,-0.37588 0.46858,-0.56382 0.0185,-0.0747 1.07476,0.18681 1.05627,0.2615 l 0,0 c 0.0279,0.24365 0.0558,0.4873 0.0837,0.73095 -0.78962,4.92307 -2.96034,9.55968 -4.79211,14.15765 -0.673,1.25085 -1.20011,2.51517 -2.27306,3.49764 -2.11642,1.93795 -5.05392,1.03603 -7.31847,-0.0351 -0.72763,-0.4547 -1.48169,-0.86961 -2.1829,-1.36409 -3.86245,-2.72372 -7.11831,-6.26798 -10.00117,-9.98288 -0.0927,-0.14533 1.96253,-1.45596 2.0552,-1.31064 z"
       inkscape:connector-curvature="0" />
    <path
       style="fill:#8d5fd3;fill-opacity:1;stroke:#000000;stroke-linecap:round;stroke-linejoin:bevel;stroke-opacity:0"
       id="path4046"
       d="m 338.95807,439.26525 c -6.35973,0.53006 -12.63994,1.6022 -18.87157,2.9502 -10.12089,2.32114 -19.76571,6.23297 -29.33254,10.19102 -4.38825,1.75396 -8.65075,3.86719 -13.16337,5.30471 -1.74058,0.55447 -3.58886,1.0336 -5.43596,1.04194 -0.9213,0.004 -1.83608,-0.15514 -2.75411,-0.23272 -1.03014,-0.3599 -3.99337,-1.46139 -3.98529,-2.9691 10e-4,-0.269 0.21692,-0.49234 0.32537,-0.73851 -0.005,-0.0507 0.71225,-0.12154 0.71726,-0.0708 l 0,0 c 1.13605,-0.34414 2.58217,1.25127 3.87594,1.14026 1.91632,0.33704 3.74748,-0.24868 5.5507,-0.89801 4.40911,-1.58768 8.55409,-3.82696 12.89157,-5.58499 9.7425,-4.05591 19.6357,-7.84353 29.96832,-10.12238 6.42971,-1.3616 12.94276,-2.5796 19.5466,-2.4318 0.17114,-0.0472 0.83822,2.37303 0.66708,2.4202 z"
       inkscape:connector-curvature="0" />
    <path
       style="fill:#8d5fd3;fill-opacity:1;stroke:#000000;stroke-linecap:round;stroke-linejoin:bevel;stroke-opacity:0"
       id="path4052"
       d="m 272.51621,451.64401 c -2.28887,4.6416 -5.05755,9.0265 -7.88203,13.35596 -0.47144,0.72993 -1.12925,1.70272 -1.56177,2.50569 -0.0718,0.1333 -0.0429,0.49125 -0.17585,0.41882 -0.14246,-0.0776 0.0961,-0.32573 0.0575,-0.4833 -0.0891,-0.36363 -0.26579,-0.64802 -0.44722,-0.9497 3.71794,-0.19362 7.44286,-0.0186 11.16262,0.0277 2.09172,0.0578 4.1383,-0.36441 6.22328,-0.34524 0.0427,-0.0311 0.48225,0.57249 0.43957,0.60357 l 0,0 c -0.26109,0.34255 -0.45522,0.74855 -0.78327,1.02764 -1.40519,1.19545 -3.371,1.42968 -5.11203,1.65717 -3.71334,0.0447 -7.42131,-0.0641 -11.13065,-0.22061 -0.57712,-0.0152 -1.18452,0.13964 -1.73136,-0.0455 -2.85867,-0.9677 -0.52035,-4.14344 0.31554,-5.60225 2.67585,-4.37131 5.35684,-8.73958 8.04319,-13.1044 0.0816,-0.18261 2.66411,0.97176 2.58249,1.15437 z"
       inkscape:connector-curvature="0" />
    <path
       style="fill:#8d5fd3;fill-opacity:1;stroke:#000000;stroke-linecap:round;stroke-linejoin:bevel;stroke-opacity:0"
       id="path4054"
       d="m 217.89547,443.05207 c 1.3694,-4.22564 3.23419,-8.27293 6.12739,-11.66464 1.68504,-1.81415 3.21806,-2.03997 5.45124,-2.46226 0.61891,-0.0456 1.14396,-1.13968 0.95728,-0.39136 0.82014,0.15455 1.67289,0.18737 2.4604,0.46365 0.17015,0.0597 0.15015,0.32856 0.24123,0.48418 0.13248,0.22632 0.27374,0.44808 0.42842,0.65985 0.74398,1.01857 1.65914,1.89223 2.54331,2.78515 2.21956,2.09062 4.30362,4.30462 6.23244,6.66451 0.6164,0.93208 1.53217,1.56165 2.2961,2.35417 0.67771,0.7898 0.73862,1.56703 0.76275,2.56339 0.0112,0.0386 -0.53478,0.1964 -0.54594,0.15779 l 0,0 c -0.47945,-0.54591 -0.92211,-1.06846 -1.60333,-1.36874 -1.1623,-0.58948 -2.219,-1.20575 -3.00107,-2.29889 -1.99403,-2.24754 -4.09227,-4.39296 -6.21796,-6.51604 -1.20559,-1.29058 -2.52056,-2.6001 -3.23531,-4.24903 -0.12992,-0.29972 -0.55896,-0.72169 -0.3077,-0.93043 0.61288,-0.50914 1.52162,-0.47338 2.28242,-0.71007 -0.19235,1.24515 -1.10561,2.04113 -2.24851,2.51436 -1.59513,0.43174 -3.14406,0.3025 -4.32352,1.73366 -2.69871,3.22116 -4.25905,7.12529 -5.94056,10.93833 -0.0514,0.16681 -2.41052,-0.56077 -2.35908,-0.72758 z"
       inkscape:connector-curvature="0" />
    <path
       style="fill:#8d5fd3;fill-opacity:1;stroke:#000000;stroke-linecap:round;stroke-linejoin:bevel;stroke-opacity:0"
       id="path4056"
       d="m 325.90085,428.21131 c 4.16346,-2.39094 8.82667,-3.60719 13.57768,-4.02726 4.53039,-0.19986 6.29304,1.6238 7.80183,5.63835 0.76756,2.91979 0.8041,5.61819 -0.49638,8.36661 -1.71135,2.26193 -4.63329,2.9358 -7.24647,1.88177 -0.82161,-0.6845 -0.9067,-0.81415 -0.27602,-1.66119 -0.003,-0.0122 0.17011,-0.0519 0.17292,-0.0397 l 0,0 c 0.40868,-0.17883 0.69888,-0.43535 1.14177,-0.44784 1.2324,0.0184 2.56511,0.0413 3.51751,-0.86499 1.11427,-1.8956 0.80155,-4.31224 0.34156,-6.3654 -0.78478,-2.18623 -1.42835,-3.61105 -4.00084,-3.63759 -4.4525,0.34952 -8.77914,1.51246 -12.90196,3.22711 -0.14637,0.11537 -1.77796,-1.9545 -1.6316,-2.06987 z"
       inkscape:connector-curvature="0" />
    <path
       style="fill:#8d5fd3;fill-opacity:1;stroke:#000000;stroke-linecap:round;stroke-linejoin:bevel;stroke-opacity:0"
       id="path4058"
       d="m 394.14349,438.85553 c -2.5392,1.71435 -5.51772,3.46624 -7.06209,6.22707 0.28818,-1.04732 0.11063,0.0781 -1.31985,-1.41253 -0.0306,-0.0319 0.61066,-0.68384 1.00141,-1.12755 0.73829,-0.83835 1.81187,-2.13304 2.50371,-2.95927 2.4975,-2.74827 4.60842,-5.99467 7.73761,-8.07977 2.65557,-1.12439 5.00048,0.49056 6.93827,2.18582 1.85327,1.91649 3.02806,4.31307 4.2209,6.6624 0.4613,0.86642 0.65552,1.06419 -2.32341,0.22209 -0.21036,-0.0595 0.11618,-0.43001 0.23947,-0.61054 0.53967,-0.7902 0.61578,-0.56759 1.55206,-0.60043 0.0338,-0.0277 0.42544,0.45023 0.39164,0.47793 l 0,0 c 0.12339,0.18071 0.31752,0.32728 0.3759,0.53816 0.33369,1.20524 -2.27627,2.34119 -2.74645,1.12382 -1.23685,-2.01547 -2.22078,-4.21431 -3.8615,-5.95335 -0.77408,-0.6879 -1.45967,-1.2141 -2.4167,-1.62077 -0.17393,-0.0739 -0.46705,-0.0159 -0.53309,-0.19291 -0.0503,-0.13494 0.38689,-0.005 0.406,-0.14779 0.017,-0.12679 -0.25533,-0.016 -0.38299,-0.0241 -1.09633,0.68039 -1.86977,1.59583 -2.72016,2.56546 -1.48907,1.69784 -2.92411,3.44263 -4.43029,5.12563 -0.53528,0.59886 -4.0787,4.80731 -4.89196,4.77926 -0.77018,-0.0266 -1.56046,-0.36619 -2.14055,-0.87351 -0.25834,-0.22595 -0.0233,-0.68603 -0.0349,-1.02905 1.4735,-3.42747 4.7963,-5.6699 7.95999,-7.40589 0.1506,-0.10867 1.68756,2.0211 1.53696,2.12978 z"
       inkscape:connector-curvature="0" />
    <path
       style="fill:#8d5fd3;fill-opacity:1;stroke:#000000;stroke-linecap:round;stroke-linejoin:bevel;stroke-opacity:0"
       id="path4060"
       d="m 381.70827,378.22379 c -0.72346,1.50373 -3.54572,6.10819 -3.3971,7.59232 1.07248,-1.06704 -0.87355,-0.73424 -0.75159,-1.18614 0.0845,-0.31309 0.53949,-0.36266 0.78585,-0.57355 0.36853,-0.31546 0.7193,-0.65228 1.05514,-1.00234 0.94897,-0.98915 1.35252,-1.56071 2.20046,-2.64264 0.96044,-1.22556 1.90252,-2.76612 2.49481,-4.10012 2.48625,-0.46035 4.4244,-0.23128 6.7948,0.53673 2.2912,1.05089 4.94902,2.09012 6.55831,4.13487 0.15411,0.85846 0.20647,0.39762 -0.44865,1.3171 -10e-4,0.0195 -0.27714,-5.4e-4 -0.27572,-0.02 l 0,0 c -0.60572,0.27881 -0.32344,0.18213 -0.83534,0.32173 -2.27269,-0.77185 -4.10406,-2.53114 -6.42417,-3.23143 -1.30449,-0.42235 -3.12637,-0.57276 -4.2739,-1.28537 -0.25304,-0.15713 -0.88468,-0.37009 -0.67682,-0.58344 0.53495,-0.54907 1.41205,-0.59725 2.11808,-0.89587 -0.21292,1.98355 -1.62457,3.67106 -2.65768,5.28135 -1.36344,1.75804 -4.45203,6.03154 -7.17663,5.24086 -0.50817,-0.14747 -0.70773,-0.78681 -1.06159,-1.18022 -0.16425,-3.19711 2.06201,-6.38326 3.65753,-9.00423 0.0905,-0.16364 2.40475,1.11679 2.31421,1.28043 z"
       inkscape:connector-curvature="0" />
    <path
       style="fill:#8d5fd3;fill-opacity:1;stroke:#000000;stroke-linecap:round;stroke-linejoin:bevel;stroke-opacity:0"
       id="path4062"
       d="m 452.68327,435.05824 c 2.85292,3.17178 5.57606,6.66911 7.09936,10.70287 0.2329,0.61671 0.37095,1.26519 0.55642,1.89778 0.29565,1.90228 -0.1355,4.58003 -2.88845,3.7557 -0.78569,-0.23526 -0.93257,-1.60648 -1.0675,-2.14927 -0.0568,-2.08143 -0.0964,-1.00044 0.15483,-3.24145 -0.003,-0.0421 0.59242,-0.0866 0.59557,-0.0444 l 0,0 c 0.61288,1.9999 0.31184,1.08077 0.88834,2.7622 0.12215,0.16867 0.22448,0.35364 0.36645,0.506 0.0214,0.0229 0.12314,-0.022 0.0932,-0.0127 -0.34347,0.1063 -0.72427,0.12304 -1.03487,0.30415 -0.10004,0.0583 -0.0226,0.44578 -0.0702,0.34023 -0.19201,-0.42561 0.81827,-1.04478 -0.12414,-1.39523 -1.53624,-4.31151 -4.26359,-8.02544 -7.07961,-11.59263 -0.12963,-0.17753 2.38102,-2.01072 2.51065,-1.83319 z"
       inkscape:connector-curvature="0" />
    <path
       style="fill:#8d5fd3;fill-opacity:1;stroke:#000000;stroke-linecap:round;stroke-linejoin:bevel;stroke-opacity:0"
       id="path4064"
       d="m 451.51797,436.8936 c 5.32344,-3.52416 11.23135,-6.05728 17.17669,-8.32603 0.72809,-0.24184 1.44862,-0.50777 2.18428,-0.72552 0.5008,-0.14823 1.00857,-0.27657 1.52215,-0.37153 0.31349,-0.058 0.73167,-0.31595 0.95256,-0.0861 2.24505,2.33664 1.58983,2.76632 -0.38105,3.52416 -0.3066,-6e-4 -0.61321,-10e-4 -0.91982,-0.002 -0.11023,0.0564 -0.90729,-1.50254 -0.79706,-1.5589 l 0,0 c 0.10541,-0.11173 0.21082,-0.22346 0.31622,-0.33519 1.21525,-0.89792 0.86812,-0.87936 2.68673,1.14112 0.10307,0.11451 -0.31186,-0.0133 -0.46163,0.0228 -1.00834,0.24326 -2.44872,0.84274 -3.32908,1.17872 -5.79035,2.35487 -11.53746,4.83081 -17.1264,7.63508 -0.14827,0.12895 -1.97186,-1.96792 -1.82359,-2.09687 z"
       inkscape:connector-curvature="0" />
    <path
       style="fill:#8d5fd3;fill-opacity:1;stroke:#000000;stroke-linecap:round;stroke-linejoin:bevel;stroke-opacity:0"
       id="path4066"
       d="m 526.90687,357.99258 c 6.01908,0.54999 11.9934,1.85081 17.45481,4.4753 1.4396,0.95789 2.72226,2.08925 2.10868,4.02596 -0.37397,1.18039 -1.7206,2.01277 -2.62378,2.74613 -1.46135,1.20078 -1.21327,3.04766 -1.4245,4.76063 -0.95586,4.28163 -5.03211,6.12857 -8.56348,8.03105 -3.59229,1.86769 -7.2018,3.70299 -10.82382,5.51241 -1.45744,0.67341 -0.80207,0.53003 -1.78428,-1.83406 0.0738,-0.1009 1.50068,0.94281 1.42688,1.0437 l 0,0 c -2.029,-1.69941 -2.25313,-0.99432 -1.54222,-1.51949 3.41559,-2.2146 7.10574,-3.96185 10.72391,-5.81173 2.07657,-1.03867 5.05898,-2.16516 6.66301,-3.92201 0.6328,-0.69309 0.63977,-0.98214 0.93391,-1.83027 0.33597,-2.33925 0.24292,-4.75921 2.19527,-6.45253 0.35151,-0.28844 1.12135,-0.95376 1.55716,-1.19695 0.11582,-0.0646 0.25184,-0.12556 0.38319,-0.10715 0.11414,0.016 0.21917,0.29713 0.28181,0.20038 0.30054,-0.46417 -2.52076,-1.09794 -1.32289,-1.00096 -5.33445,-2.12869 -10.97132,-3.31038 -16.62143,-4.26728 -0.20175,-0.0691 0.77602,-2.92227 0.97777,-2.85313 z"
       inkscape:connector-curvature="0" />
    <path
       style="fill:#8d5fd3;fill-opacity:1;stroke:#000000;stroke-linecap:round;stroke-linejoin:bevel;stroke-opacity:0"
       id="path4068"
       d="m 328.9128,311.67342 c 3.35006,2.44627 6.34174,5.3461 9.0876,8.44584 1.07153,1.39008 1.42679,1.54518 -1.71135,2.20064 -0.18422,0.0385 -1.56039,-1.66061 -1.68618,-1.81823 -1.53782,-2.317 -2.91747,-4.71982 -4.6262,-6.91925 -1.39954,-1.49475 -2.88359,-2.85048 -3.88729,-4.65519 -0.50744,-1.11536 -0.83683,-2.72924 0.66547,-3.25375 2.29056,-1.17077 4.45842,-2.58475 6.68808,-3.87114 2.28859,-1.1426 4.93065,-2.78524 7.63334,-2.21238 0.28994,0.0614 0.51342,0.29625 0.77012,0.44438 1.00511,0.88637 0.37097,3.03776 -1.11579,2.56692 -0.28048,-0.0888 -0.4959,-0.31673 -0.74386,-0.47509 -0.0465,-0.0169 0.19198,-0.67395 0.23844,-0.65709 l 0,0 c -0.42078,-1.25032 -0.55914,0.35869 -0.0245,0.66331 0.16329,-0.0197 1.24592,-0.3538 -0.5757,0.0704 -1.54194,0.35911 -2.93107,1.16545 -4.32489,1.8791 -2.45009,1.35731 -4.85632,2.83312 -7.44705,3.91089 -0.11055,-0.0158 0.32206,-0.48776 0.38397,-0.96497 0.0149,-0.11479 0.0354,0.23034 0.0753,0.33899 0.057,0.1552 0.12835,0.30475 0.19252,0.45713 0.95616,1.69512 2.51233,2.86505 3.7602,4.33324 1.71996,2.19107 3.10875,4.57725 4.54277,6.95935 0.4156,0.53498 0.44464,0.61208 0.9027,1.06318 0.15023,0.14795 0.56267,0.23927 0.46667,0.427 -1.28426,2.5114 -1.30222,2.15242 -2.34866,1.11607 -2.86064,-2.83409 -5.76448,-5.62585 -8.81651,-8.25511 -0.12687,-0.1344 1.77391,-1.92869 1.90078,-1.79428 z"
       inkscape:connector-curvature="0" />
    <path
       style="fill:#8d5fd3;fill-opacity:1;stroke:#000000;stroke-linecap:round;stroke-linejoin:bevel;stroke-opacity:0"
       id="path4070"
       d="m 299.67518,323.09349 c 0.0928,3.69989 0.28114,7.42808 -0.0374,11.12287 -0.43763,0.88073 -0.45073,1.00355 -2.61164,-0.76449 -0.31644,-0.25892 -0.0157,-0.81759 -0.0215,-1.22641 -0.0246,-1.73437 -0.0331,-3.46734 -0.0226,-5.20185 0.132,-3.05349 0.13929,-5.74827 2.57376,-7.87748 1.80319,-1.13824 3.63276,-0.31508 5.45297,0.22739 1.66993,0.38248 3.17533,1.2184 4.80831,1.71672 1.31317,0.32287 2.64262,0.40535 3.98668,0.43775 0.10347,-0.0457 0.75032,1.41762 0.64684,1.46335 l 0,0 c -0.48081,0.20039 -0.93427,0.48665 -1.44243,0.60115 -1.49937,0.33785 -3.0539,0.21536 -4.52201,-0.16351 -1.60674,-0.55776 -3.12569,-1.33678 -4.7699,-1.79017 -1.08826,-0.38932 -1.50314,-0.72585 -2.36109,-0.73149 -1.96516,1.031 -1.41339,4.36191 -1.65162,6.13876 -0.0235,1.72643 -0.0354,3.45297 -0.0599,5.17938 -0.006,0.40882 0.29491,0.96749 -0.0215,1.22641 -2.16091,1.76804 -2.17401,1.64522 -2.61163,0.76449 -0.31855,-3.69479 -0.13023,-7.42298 -0.0374,-11.12287 0,-0.19107 2.70214,-0.19107 2.70214,0 z"
       inkscape:connector-curvature="0" />
    <path
       style="fill:#8d5fd3;fill-opacity:1;stroke:#000000;stroke-linecap:round;stroke-linejoin:bevel;stroke-opacity:0"
       id="path4072"
       d="m 225.35249,316.92373 c 0.27881,-1.98612 0.91662,-3.90162 1.29872,-5.86449 0.028,-0.14399 -0.047,-0.56399 0.0299,-0.43905 0.16996,0.27626 0.1829,0.62239 0.27435,0.93359 0.34541,0.12099 0.95617,0.006 1.03622,0.36299 0.0807,0.35991 -0.52554,0.51792 -0.7786,0.78626 -0.39239,0.41608 -0.77532,0.84101 -1.15738,1.26659 -1.35716,1.51176 -2.69372,3.04284 -4.04008,4.56423 -0.35656,0.39027 -0.70763,0.78561 -1.06966,1.1708 -0.56567,0.60185 -1.20405,1.22566 -1.24884,1.19747 -2.64985,-1.66793 -2.18539,-1.54613 -1.22349,-3.01075 0.88568,-2.02377 2.06627,-3.7997 3.54729,-5.43369 1.67218,-1.68826 3.72002,-2.48547 6.03666,-2.71282 0.97842,-0.0615 1.94724,-0.21291 2.9204,-0.32382 0.34655,-0.007 0.69687,-0.0721 1.03964,-0.0206 1.67411,0.25155 2.80096,2.64171 3.60105,3.87269 1.22366,2.13658 2.78401,4.27602 3.21639,6.75229 -0.0339,0.0837 -0.0678,0.16745 -0.10173,0.25117 0.0493,0.13786 -1.90027,0.83558 -1.94961,0.69773 l 0,0 c -0.0899,-0.0455 -0.17991,-0.0911 -0.26986,-0.13662 -1.42929,-1.90693 -2.17479,-4.25675 -3.54429,-6.20942 -0.36469,-0.59667 -0.83811,-1.39224 -1.2433,-1.98558 -0.40589,-0.59437 -0.71541,-0.60656 0.026,-0.61828 -0.95891,-0.0472 -1.89962,0.22757 -2.85656,0.25265 -1.76803,0.10843 -3.31608,0.53199 -4.63292,1.81642 -1.43302,1.48677 -2.60121,3.12213 -3.42684,5.02527 -0.94134,1.49856 -0.67816,1.58014 -3.24065,0.1064 -0.1358,-0.0781 0.2084,-0.23399 0.31021,-0.35305 0.56699,-0.66296 1.12014,-1.33768 1.68876,-1.99925 1.34416,-1.57268 2.70002,-3.13454 4.12581,-4.6346 0.13348,-0.14043 2.14193,-2.2316 2.47662,-2.37388 0.72736,-0.30921 1.5531,-0.29416 2.32966,-0.44124 0.28743,0.4076 0.67215,0.76172 0.8623,1.2228 0.45732,1.10889 -1.19309,5.56089 -1.45245,6.82538 -0.0387,0.1827 -2.62244,-0.36492 -2.58372,-0.54762 z"
       inkscape:connector-curvature="0" />
    <path
       style="fill:#8d5fd3;fill-opacity:1;stroke:#000000;stroke-linecap:round;stroke-linejoin:bevel;stroke-opacity:0"
       id="path4074"
       d="m 230.60232,382.70676 c -2.78831,0.96037 -5.58907,2.15611 -8.53405,2.55392 -0.26546,-0.78358 -0.73463,-1.52572 -0.79638,-2.35074 -0.0162,-0.21565 0.4026,-0.15813 0.60238,-0.24092 0.75716,-0.31378 1.2786,-0.70943 1.83439,-1.30818 0.92339,-1.32923 1.75505,-2.67628 2.9157,-3.81711 1.87218,-1.53646 4.12157,-1.76671 6.44514,-1.37867 2.19115,0.26558 3.54004,1.09834 5.15294,2.5814 2.19512,2.34343 3.8597,5.11848 5.36567,7.93807 1.74846,1.74229 -3.29045,2.21157 -1.69786,0.42925 -0.0228,-0.1127 1.57107,-0.43489 1.59386,-0.32219 l 0,0 c 2.04628,1.84461 -2.06252,3.16012 -2.51479,1.11532 -1.54665,-2.52219 -3.03005,-5.11124 -4.95417,-7.37102 -1.2322,-1.22179 -2.17513,-1.72547 -3.90566,-1.95858 -1.23361,-0.1655 -2.42637,-0.19038 -3.51567,0.60443 -1.2056,1.01525 -1.88468,2.40723 -2.8133,3.6587 -0.76052,0.84743 -1.53385,1.56316 -2.60842,1.99249 -0.17296,0.0691 -0.39304,0.28822 -0.53354,0.16595 -0.64775,-0.56376 -1.06516,-1.34724 -1.59774,-2.02085 2.75037,-0.85773 5.49703,-1.72858 8.26211,-2.53814 0.16029,-0.0919 1.45968,2.17499 1.29939,2.26687 z"
       inkscape:connector-curvature="0" />
    <path
       style="fill:#8d5fd3;fill-opacity:1;stroke:#000000;stroke-linecap:round;stroke-linejoin:bevel;stroke-opacity:0"
       id="path4076"
       d="m 229.47848,262.45996 c 2.80972,-4.25196 6.31792,-7.97602 9.95025,-11.52754 1.66847,-1.45191 2.18182,-2.95519 3.56732,0.52315 0.0147,0.0369 -0.9662,1.03043 -1.0035,1.06868 -0.22688,0.23123 -0.3557,0.3392 -0.52962,0.573 -0.0582,0.0783 0.11363,-0.26795 0.19659,-0.21668 0.10334,0.0639 0.17268,0.17091 0.25901,0.25636 1.61218,1.69442 3.52047,3.06809 5.43827,4.39098 1.76861,1.00014 3.38258,2.4378 5.29536,3.17953 2.68824,3.82905 -2.75576,2.00848 -2.40112,1.18423 0.0703,-0.16341 0.2605,-0.24231 0.39076,-0.36347 -0.0481,0.0217 -0.35498,-0.65825 -0.3069,-0.67995 l 0,0 c 0.80368,-0.38354 0.88147,-0.64636 1.64114,-0.43653 1.4743,0.40723 0.13624,1.01848 -0.71668,2.60253 -2.15484,-0.75721 -4.02954,-2.16525 -5.93409,-3.38436 -2.06482,-1.49443 -4.12173,-3.05839 -5.72315,-5.06398 -0.93447,-1.38754 -1.01062,-2.45713 0.20445,-3.6893 0.0259,-0.027 0.95881,-1.00296 0.9711,-0.99994 3.84624,0.9443 2.39349,1.24882 0.95454,2.82814 -3.43201,3.57838 -6.83029,7.1928 -9.93786,11.0616 -0.0924,0.16376 -2.40825,-1.14269 -2.31587,-1.30645 z"
       inkscape:connector-curvature="0" />
    <path
       style="fill:#8d5fd3;fill-opacity:1;stroke:#000000;stroke-linecap:round;stroke-linejoin:bevel;stroke-opacity:0"
       id="path4078"
       d="m 355.34166,243.72664 c 4.39714,0.58967 8.58726,2.18292 12.3178,4.56001 2.66379,2.13562 1.89913,3.35737 0.23822,5.70865 -1.01757,2.13693 -1.13051,4.60542 -1.61739,6.90662 -0.76558,2.84895 -1.42244,5.05445 -4.1034,6.57394 -1.90277,0.57257 -4.1688,-0.21506 -3.9408,-2.42191 0.12753,-0.14489 0.25507,-0.28978 0.38261,-0.43468 -8.2e-4,-0.10323 1.45913,-0.11475 1.45995,-0.0115 l 0,0 c 0.12944,0.0587 0.25889,0.11741 0.38834,0.17611 0.21344,-0.0959 0.63866,-0.0263 0.46289,-1e-5 -0.65038,0.0974 -0.82153,-0.14157 -0.44851,0.20088 1.65647,-0.13736 2.33415,-3.41007 2.72413,-4.63748 0.58105,-2.63912 0.75188,-5.4595 2.07509,-7.86026 0.0893,-0.12278 0.74238,-1.08081 0.98991,-1.24314 0.0454,-0.0298 0.86545,0.60511 0.15661,0.015 -0.25181,-0.20962 -0.53421,-0.37949 -0.80132,-0.56923 -3.5439,-1.94654 -7.36881,-3.33767 -11.33617,-4.13541 -0.19994,-0.0744 0.8521,-2.90198 1.05204,-2.82759 z"
       inkscape:connector-curvature="0" />
    <path
       style="fill:#8d5fd3;fill-opacity:1;stroke:#000000;stroke-linecap:round;stroke-linejoin:bevel;stroke-opacity:0"
       id="path4080"
       d="m 351.99487,195.23742 c 3.66216,-0.75767 7.51723,-1.65156 11.26723,-0.91872 0.59811,0.11689 1.14616,0.41463 1.71925,0.62194 2.88432,1.65905 3.3606,4.61746 3.63482,7.65664 0.11274,2.7092 0.31985,5.5096 -0.57767,8.1236 -0.24224,0.7055 -0.5966,1.36738 -0.89491,2.05108 -1.6235,2.60595 -4.38949,6.05721 -7.8257,6.10152 -0.66851,0.009 -1.3255,-0.176 -1.98825,-0.264 -1.20499,-0.92786 -1.45778,-1.13505 -0.99326,-2.5761 -0.0105,-0.086 1.2059,-0.23506 1.21644,-0.14905 l 0,0 c 0.29017,0.0932 0.57006,0.17443 0.86894,0.23044 -0.7573,0.41522 1.22635,-0.0455 2.00207,-0.48147 1.06845,-0.60048 1.98329,-1.42811 2.77574,-2.35563 0.42315,-0.49527 0.76789,-1.05249 1.15183,-1.57874 0.27358,-0.54128 0.59385,-1.06138 0.82073,-1.62383 0.92998,-2.30541 0.71225,-4.85255 0.66984,-7.27807 -0.16648,-2.05992 -0.22027,-4.35446 -2.24316,-5.45886 -0.67028,-0.20103 -1.57993,-0.53053 -2.31197,-0.56166 -2.78725,-0.11852 -5.54886,0.47617 -8.31151,0.72447 -0.16005,0.0693 -1.14052,-2.19423 -0.98046,-2.26356 z"
       inkscape:connector-curvature="0" />
    <path
       style="fill:#8d5fd3;fill-opacity:1;stroke:#000000;stroke-linecap:round;stroke-linejoin:bevel;stroke-opacity:0"
       id="path4092"
       d="m 209.081,212.0845 c 0.45621,-3.22026 0.89041,-6.46418 1.71485,-9.61564 0.46826,-1.47816 0.35122,-0.45773 1.89531,-1.34104 0.26912,-0.15396 -0.61326,0.0932 -0.92158,0.12587 -0.10466,0.0111 -0.0136,-0.21169 0.002,-0.31572 0.039,-0.17134 0.13074,-2.28579 0.16744,-2.28548 0.79521,0.007 1.58041,0.1786 2.37061,0.2679 0.53344,1.12636 -0.60546,-0.60646 0.56531,0.75135 0.46353,0.53185 1.0524,0.73847 1.72434,0.85209 1.25873,0.15876 2.52134,0.25829 3.7896,0.28499 0.77882,0.008 1.55743,-0.0147 2.33562,-0.0443 1.23374,-0.16612 1.97776,0.49414 2.43544,1.52567 0.11145,0.54993 -0.0944,0.86304 -0.5668,1.10575 -0.0171,0.0686 -0.98689,-0.1727 -0.96983,-0.24128 l 0,0 c -0.29663,-0.42672 -0.2666,-0.23643 -0.46952,0.007 -0.77204,-1.04524 1.03213,-0.11509 0.22764,-0.27293 -1.20705,0.0945 -2.41494,0.18579 -3.62737,0.13058 -1.38972,-0.0632 -2.7838,-0.17545 -4.14536,-0.47385 -1.01034,-0.30409 -1.90564,-0.79178 -2.56816,-1.63678 -0.27981,-0.33376 -0.83068,-0.79966 -0.94581,-1.43735 0.69443,-0.23129 1.37108,-0.52515 2.08331,-0.69385 0.19286,-0.0457 10e-4,0.39641 -1.7e-4,0.5946 -0.004,0.67819 -0.0171,1.35896 -0.15754,2.02589 -0.30112,1.06793 -0.56083,1.85598 -1.97026,1.87278 -0.36692,0.004 0.69126,-0.26441 0.99607,-0.46872 0.083,-0.0556 0.0615,-0.36034 0.1156,-0.27642 0.0652,0.10101 -0.0434,0.23649 -0.0651,0.35474 -0.52332,3.18759 -1.04642,6.37877 -1.79467,9.5231 -0.0226,0.15707 -2.2439,-0.162 -2.22134,-0.31907 z"
       inkscape:connector-curvature="0" />
    <path
       style="fill:#ff7f2a;fill-opacity:1;stroke:#000000;stroke-linecap:round;stroke-linejoin:bevel;stroke-opacity:0"
       id="path4094"
       d="m 616.45287,196.73148 c -0.66383,7.49214 -0.85902,15.00463 -0.63458,22.5198 0.0852,1.25851 0.14866,2.51868 0.25561,3.77552 0.15816,1.85865 0.40396,3.80113 0.66326,5.65521 0.0767,0.54848 0.16183,1.09578 0.24885,1.64272 0.0426,0.26783 0.15475,0.53066 0.14006,0.80147 -0.007,0.12957 -0.10959,-0.23524 -0.16438,-0.35286 -0.85746,0.11383 -1.71476,0.45413 -2.57238,0.34147 -0.2309,-0.0303 -0.0561,-0.4626 -0.0962,-0.692 -0.0686,-0.39182 -0.1442,-0.78253 -0.22977,-1.17099 -0.52135,-2.36683 -1.06836,-4.70707 -1.5201,-7.09059 -1.01878,-6.31653 -1.38737,-12.78687 -0.0221,-19.08491 0.28596,-1.31917 0.70762,-2.60522 1.06143,-3.90783 1.80871,-4.72915 3.99374,-10.62709 8.49001,-13.52571 0.59536,-0.38381 1.2849,-0.59675 1.92735,-0.89512 0.64196,-0.0771 1.28085,-0.2759 1.92587,-0.23119 2.857,0.19801 5.0149,1.79161 5.89164,4.53327 0.20786,0.65001 0.26487,1.33894 0.39731,2.00841 0.57986,7.27304 -2.49349,12.85541 -6.14023,18.88431 -2.39742,3.75471 -5.21307,7.21212 -7.79151,10.83792 -1.42285,2.00082 -2.71336,3.86852 -3.45697,6.20563 0.065,0.11408 0.0669,0.37087 0.19502,0.34224 0.18771,-0.0419 0.17209,-0.37782 0.34464,-0.46279 0.33509,-0.16502 0.72856,-0.16519 1.09337,-0.24537 2.15073,-0.47271 4.34331,-0.75761 6.51622,-1.1101 2.33414,-0.33455 3.0046,-0.45729 5.28224,-0.68674 0.79803,-0.0804 2.21927,-0.20378 3.11019,-0.19827 0.14518,8.9e-4 0.44657,-0.0929 0.43248,0.0516 -0.0644,0.65992 -0.41455,1.25963 -0.62182,1.88945 -0.12107,-0.25569 -0.24213,-0.51137 -0.3632,-0.76706 -0.0752,-0.0873 1.15988,-1.15049 1.23505,-1.06316 l 0,0 c 0.21716,0.0438 0.43431,0.0875 0.65146,0.1313 0.0818,0.81552 0.33468,1.63182 0.24551,2.44658 -0.0197,0.18035 -1.06135,0.35113 -1.67303,0.44827 -2.32819,0.36973 -4.6768,0.60276 -7.00273,0.98876 -2.53509,0.37468 -8.56111,1.72361 -10.79796,0.60848 -0.61904,-0.30861 -1.16713,-0.81948 -1.51648,-1.41648 -0.2845,-0.48618 -0.1913,-1.11025 -0.28696,-1.66538 0.15079,-0.64117 0.22595,-1.30498 0.45235,-1.92351 0.687,-1.87687 1.90345,-3.78427 2.9949,-5.41341 2.43542,-3.6352 5.22274,-7.02307 7.64789,-10.66595 3.27352,-5.12685 6.51899,-10.43859 6.26324,-16.75361 -0.16666,-1.20837 -0.27343,-2.336 -1.25274,-3.19611 -0.24857,-0.21831 -0.58352,-0.31937 -0.84074,-0.52741 -0.0815,-0.0659 -0.0528,-0.24143 -0.152,-0.27548 -0.33398,-0.11465 -0.70027,-0.0915 -1.05041,-0.13727 -0.43125,0.14655 -0.90054,0.20979 -1.29375,0.43964 -3.77073,2.20421 -6.00165,8.30598 -7.48025,12.11855 -0.33546,1.20353 -0.7345,2.39113 -1.00639,3.6106 -1.33212,5.97476 -0.9622,12.11704 -0.14997,18.1335 0.44656,2.83217 1.15644,5.6854 1.40579,8.54413 0.0273,0.31323 0.27371,0.74173 0.0319,0.94273 -0.73098,0.60766 -1.72878,0.79096 -2.59317,1.18644 -0.64487,-1.01461 -0.86552,-2.0655 -1.10991,-3.25502 -0.66052,-3.21493 -1.05018,-6.48113 -1.25807,-9.75517 -0.28012,-7.68642 -0.16498,-15.43179 1.25852,-23.01609 0.0281,-0.20617 2.94375,0.19141 2.91564,0.39758 z"
       inkscape:connector-curvature="0" />
    <path
       style="fill:#ff7f2a;fill-opacity:1;stroke:#000000;stroke-linecap:round;stroke-linejoin:bevel;stroke-opacity:0"
       id="path4096"
       d="m 650.13755,193.64944 c -5.16714,4.13927 -8.62064,10.08423 -10.3877,16.42559 -0.43605,1.56483 -0.65412,3.18237 -0.98118,4.77355 -0.28449,3.17921 -1.37694,12.54587 4.10448,12.41292 0.42157,-0.0102 0.81238,-0.22662 1.21857,-0.33992 5.40891,-1.62781 9.27674,-5.93765 13.29936,-9.66341 0.0557,-0.0832 1.23257,0.70381 1.17692,0.78703 l 0,0 c -0.68024,1.03723 -1.29559,2.12004 -2.0407,3.11169 -2.95109,3.92748 -6.67593,7.29035 -11.37129,8.90721 -2.81312,0.0874 -4.34003,0.67282 -6.71055,-1.03044 -4.55867,-3.2755 -3.88655,-10.0717 -3.54083,-14.84634 0.35523,-1.74423 0.58291,-3.51938 1.06569,-5.2327 1.9876,-7.05362 5.99925,-13.66981 12.13045,-17.80977 0.1771,-0.14402 2.21388,2.36057 2.03678,2.50459 z"
       inkscape:connector-curvature="0" />
    <path
       style="fill:#ff7f2a;fill-opacity:1;stroke:#000000;stroke-linecap:round;stroke-linejoin:bevel;stroke-opacity:0"
       id="path4098"
       d="m 668.12588,187.26506 c -0.72779,5.78679 -0.7149,11.59877 -0.35899,17.40821 0.22306,4.61707 1.28785,9.26919 0.71442,13.89631 -0.26099,0.83047 -0.0635,0.48442 -0.53357,1.06954 -0.0383,0.11566 -1.674,-0.42595 -1.63571,-0.54161 l 0,0 c -0.33808,0.0193 -0.15302,0.0634 -0.29199,-0.49042 -0.79524,-4.55087 -1.18685,-9.16712 -1.65755,-13.75886 -0.36843,-6.02481 -0.46889,-12.13061 0.98882,-18.03667 0.0321,-0.19619 2.80664,0.25731 2.77457,0.4535 z"
       inkscape:connector-curvature="0" />
    <path
       style="fill:#ff7f2a;fill-opacity:1;stroke:#000000;stroke-linecap:round;stroke-linejoin:bevel;stroke-opacity:0"
       id="path4100"
       d="m 663.20421,195.77408 c 0.96801,-3.70813 3.03483,-7.43244 6.59976,-9.21135 0.58489,-0.29187 1.23708,-0.42284 1.85562,-0.63427 0.86461,0.0398 1.77116,-0.14969 2.59383,0.11928 3.01906,0.98709 2.88275,5.92978 2.47052,8.30196 -0.1821,1.04789 -0.52216,2.0621 -0.78324,3.09315 -2.01572,5.05523 -5.7325,11.26617 -10.95345,13.56351 -0.67932,0.29891 -1.44448,0.34169 -2.16672,0.51254 -0.093,0.0626 -0.97863,-1.25232 -0.88565,-1.31495 l 0,0 c 1.10072,-0.82568 2.22649,-1.63216 3.22133,-2.58929 3.20652,-3.08496 5.74492,-6.8225 7.43158,-10.93515 0.58401,-1.97132 1.71611,-5.22706 0.87069,-7.32661 -0.39584,-0.98304 -0.31988,0.0215 -0.33636,-0.64955 -0.42091,0.0855 -0.86211,0.10166 -1.26272,0.25653 -3.12677,1.20883 -4.82,4.50643 -6.11494,7.36624 -0.039,0.17962 -2.57929,-0.37242 -2.54025,-0.55204 z"
       inkscape:connector-curvature="0" />
    <path
       style="fill:#ff7f2a;fill-opacity:1;stroke:#000000;stroke-linecap:round;stroke-linejoin:bevel;stroke-opacity:0"
       id="path4102"
       d="m 693.96636,183.92235 c -4.44917,3.26486 -8.34287,7.31057 -11.28432,11.99352 -0.58271,0.92769 -1.06156,1.9167 -1.59233,2.87505 -0.0527,0.60255 -2.1127,3.82631 -0.82393,4.61562 0.14659,0.0898 3.62377,0.0617 3.97066,0.0717 3.63429,0.27808 9.04423,0.44515 11.51599,3.63512 0.45939,0.59288 0.67079,1.34172 1.00619,2.01257 0.0247,0.83093 0.2158,1.67367 0.074,2.49278 -0.96547,5.57636 -7.97757,10.65849 -12.18781,13.76424 -2.97214,1.80156 -6.1497,3.76553 -9.74592,3.91774 -0.71581,0.0303 -1.41939,-0.19641 -2.12908,-0.29462 -0.12897,0.0343 -0.61373,-1.78963 -0.48476,-1.8239 l 0,0 c 3.52851,-0.82762 6.78566,-2.3629 9.79205,-4.39613 3.49354,-2.50561 10.00146,-7.01874 11.52602,-11.24466 0.14541,-0.40305 0.12089,-0.84838 0.18133,-1.27257 -0.13925,-0.34594 -0.18861,-0.7436 -0.41776,-1.0378 -1.88818,-2.42426 -7.31559,-2.46186 -10.07642,-2.79048 -2.05858,-0.21559 -4.52941,-0.20203 -5.83969,-2.16664 -1.38477,-2.0763 -0.0516,-4.81569 0.59751,-6.81592 0.55287,-1.06505 1.03911,-2.16743 1.6586,-3.19517 3.05922,-5.07529 7.32837,-9.43881 12.36395,-12.55306 0.15645,-0.13405 2.0522,2.07852 1.89574,2.21257 z"
       inkscape:connector-curvature="0" />
    <path
       style="fill:#abc837;fill-opacity:1;stroke:#000000;stroke-linecap:round;stroke-linejoin:bevel;stroke-opacity:0"
       id="path4104"
       d="m 598.01825,397.20042 c -4.86614,1.56076 -9.6318,3.43487 -13.92914,6.2251 0.48359,-2.95347 -1.21685,1.6862 -1.08521,1.17065 0.30301,-1.18664 0.97655,-0.66489 2.01034,-0.481 4.60239,1.16678 9.05916,2.82649 13.39511,4.7462 2.61425,1.43468 7.36621,3.56174 6.65771,7.40421 -0.12475,0.6766 -0.52275,1.27285 -0.78413,1.90927 -0.52235,0.60949 -0.98928,1.27123 -1.56705,1.82846 -3.17529,3.06242 -7.45349,5.36275 -11.62783,6.7036 -0.97059,0.31176 -1.97925,0.48939 -2.96888,0.73409 -1.31873,-0.0374 -4.84031,0.9973 -5.51199,-0.96763 -0.12795,-0.37432 0.081,-0.78701 0.12156,-1.18052 0.003,-0.0615 0.8721,-0.0199 0.86917,0.0415 l 0,0 c 0.37452,-0.87356 2.92118,0.34398 3.05518,-0.73856 5.31569,-1.6172 10.50824,-3.97977 14.6907,-7.71325 0.29686,-0.32565 0.81113,-0.67844 0.72404,-1.22314 -0.30974,-1.93725 -4.13346,-3.28867 -5.4853,-4.14306 -4.15089,-1.85269 -8.3831,-3.55608 -12.73895,-4.86739 -1.05406,-0.27267 -2.55196,-0.47598 -3.13908,-1.57514 -0.82447,-1.54352 0.37703,-2.77641 1.36983,-3.76181 4.38691,-3.23494 9.47646,-5.29109 14.80098,-6.42694 0.16372,-0.0808 1.30666,2.23452 1.14294,2.31534 z"
       inkscape:connector-curvature="0" />
    <path
       style="fill:#abc837;fill-opacity:1;stroke:#000000;stroke-linecap:round;stroke-linejoin:bevel;stroke-opacity:0"
       id="path4106"
       d="m 606.45413,404.75688 c 4.71037,2.32209 9.12554,5.19864 12.93393,8.81884 0.60287,0.83532 1.92912,1.88914 1.89557,3.09681 -0.005,0.19524 -0.13456,0.36672 -0.20184,0.55008 0.004,0.092 -1.29696,0.14436 -1.30067,0.0524 l 0,0 c -0.072,0.0838 -0.10577,0.25692 -0.21616,0.25141 -0.72032,-0.0359 -1.78746,-1.92775 -2.41096,-2.01391 -3.93156,-3.1676 -8.15571,-5.91503 -12.492,-8.49644 -0.15975,-0.12672 1.63238,-2.38591 1.79213,-2.25918 z"
       inkscape:connector-curvature="0" />
    <path
       style="fill:#abc837;fill-opacity:1;stroke:#000000;stroke-linecap:round;stroke-linejoin:bevel;stroke-opacity:0"
       id="path4108"
       d="m 622.39511,404.24124 c -1.66591,6.78393 -3.45348,13.53681 -5.07291,20.33218 -0.52951,2.43696 -1.09219,4.88408 -1.29224,7.37669 -0.027,0.33615 0.32238,1.11682 0.002,1.0117 -0.61556,-0.20194 -1.22072,-0.43429 -1.83108,-0.65144 0.46428,-0.76888 1.02112,-1.46064 1.5867,-2.15577 0.0112,-0.0458 0.65872,0.11208 0.64755,0.15787 l 0,0 c 0.1294,1.09551 0.2591,2.07672 -0.21776,3.11829 -0.86551,0.15282 -1.72424,0.56613 -2.59651,0.45845 -0.30461,-0.0376 -0.53655,-1.38849 -0.5625,-2.1078 -0.0954,-2.64431 0.49962,-5.26199 0.97269,-7.84185 1.53538,-6.89313 3.28657,-13.75156 5.55732,-20.44283 0.0526,-0.19847 2.85944,0.54604 2.80679,0.74451 z"
       inkscape:connector-curvature="0" />
    <path
       style="fill:#abc837;fill-opacity:1;stroke:#000000;stroke-linecap:round;stroke-linejoin:bevel;stroke-opacity:0"
       id="path4110"
       d="m 633.5372,398.90955 c -2.74022,3.51495 -5.71145,7.06018 -7.27802,11.29737 -0.21238,0.57445 -0.32377,1.18134 -0.48566,1.77201 0.0309,0.35657 -0.0488,0.74094 0.0926,1.06971 0.2608,0.60619 4.85645,0.0329 5.44763,-0.0156 1.90627,-0.0233 6.58438,-1.32526 7.02204,1.59237 0.0727,0.48493 -0.22589,0.95434 -0.33884,1.43151 -2.53613,3.80313 -6.18365,6.73688 -9.77993,9.49341 -1.99977,1.16413 -0.99942,0.8424 -2.93554,1.1491 -0.0183,0.0199 -0.30016,-0.23898 -0.28186,-0.25891 l 0,0 c 0.43821,-1.67476 0.0536,-0.81045 1.37357,-2.48355 2.94998,-2.99643 6.05343,-5.83813 8.92206,-8.91357 0.3587,0.171 0.57371,0.23967 0.82689,0.67752 0.006,0.0106 -0.46958,-0.0597 -0.48974,-0.059 -1.19209,0.0412 -2.15735,0.14738 -3.36051,0.25574 -2.90288,0.24223 -8.11427,1.08252 -9.20745,-2.72753 -0.16692,-0.58179 -0.0539,-1.20932 -0.0808,-1.81399 0.17665,-0.71703 0.29133,-1.45224 0.52994,-2.1511 1.55986,-4.56851 4.70774,-8.4548 8.0446,-11.8482 0.10838,-0.13994 2.08738,1.39276 1.979,1.5327 z"
       inkscape:connector-curvature="0" />
    <path
       style="fill:#abc837;fill-opacity:1;stroke:#000000;stroke-linecap:round;stroke-linejoin:bevel;stroke-opacity:0"
       id="path4112"
       d="m 642.46658,402.45809 c 1.62479,5.22256 3.79999,10.24934 5.69987,15.37373 0.70123,2.12117 1.45299,4.28889 1.59143,6.54122 0.0398,0.64715 -0.0405,1.91109 -0.37969,1.98834 -0.65839,0.14996 -1.34124,-0.15793 -2.01186,-0.23689 -0.0485,-0.0668 0.89569,-0.75341 0.94424,-0.68664 l 0,0 c -0.44314,0.16594 -0.86683,0.39823 -1.32943,0.49784 -0.14171,0.0305 -0.19995,-0.58767 -0.31694,-1.05398 -0.51021,-2.03359 -1.19885,-4.01583 -1.90578,-5.98775 -1.99439,-5.22944 -4.28921,-10.39985 -5.46728,-15.89233 -0.0384,-0.22454 3.13701,-0.76808 3.17544,-0.54354 z"
       inkscape:connector-curvature="0" />
    <path
       style="fill:#abc837;fill-opacity:1;stroke:#000000;stroke-linecap:round;stroke-linejoin:bevel;stroke-opacity:0"
       id="path4114"
       d="m 633.66716,408.05637 c 2.35226,-3.70322 5.92282,-6.70436 10.17383,-7.97891 0.7033,-0.21087 1.44109,-0.28218 2.16164,-0.42328 1.0783,-0.0109 2.44549,-0.12048 3.49357,0.25741 0.24774,0.0893 0.37241,0.37245 0.55861,0.55868 0.0371,-0.0112 0.19516,0.51404 0.15802,0.52522 l 0,0 c -1.08017,0.59037 -1.74361,1.03221 -2.9945,1.16996 -4.26919,1.28596 -8.05709,3.58651 -10.82266,7.1518 -0.0892,0.19293 -2.81766,-1.06795 -2.72851,-1.26088 z"
       inkscape:connector-curvature="0" />
    <path
       style="fill:#abc837;fill-opacity:1;stroke:#000000;stroke-linecap:round;stroke-linejoin:bevel;stroke-opacity:0"
       id="path4116"
       d="m 659.45915,401.92503 c -0.42662,5.74923 -0.93765,11.50588 -0.6506,17.27189 0.25189,1.48966 0.48366,3.9837 2.474,4.12684 0.77927,0.0561 0.66096,0.10209 1.00141,-0.18658 1.63707,-0.24474 3.12269,-1.19363 4.80576,-1.05183 0.43113,0.31403 0.15059,0.16878 0.90311,0.28734 0.004,-0.008 0.11558,0.0435 0.11195,0.0514 l 0,0 c 0.30222,1.01336 0.35393,0.55704 0.0147,1.37766 -1.17602,1.3505 -3.13524,1.80481 -4.76451,2.32667 -1.50816,0.0907 -2.50745,0.35368 -3.91214,-0.19361 -2.76629,-1.0778 -3.63689,-3.89913 -4.06171,-6.57151 -0.38799,-5.95146 0.0813,-11.93754 1.10098,-17.81154 0.0264,-0.21051 3.00348,0.16277 2.97708,0.37328 z"
       inkscape:connector-curvature="0" />
    <path
       style="fill:#abc837;fill-opacity:1;stroke:#000000;stroke-linecap:round;stroke-linejoin:bevel;stroke-opacity:0"
       id="path4118"
       d="m 657.0307,411.79666 c 2.23651,-1.68208 4.35868,-3.71938 6.91588,-4.9293 0.56091,-0.26539 1.1746,-0.40064 1.7619,-0.60095 0.0169,-0.0196 0.29465,0.21993 0.27771,0.23957 l 0,0 c -0.2337,0.52472 -0.38496,1.09458 -0.70111,1.57416 -1.54379,2.34188 -4.14495,3.89432 -6.20762,5.71134 -0.14106,0.14473 -2.18782,-1.85009 -2.04676,-1.99482 z"
       inkscape:connector-curvature="0" />
    <path
       style="fill:#abc837;fill-opacity:1;stroke:#000000;stroke-linecap:round;stroke-linejoin:bevel;stroke-opacity:0"
       id="path4124"
       d="m 656.06684,403.77194 c 2.52709,-2.43068 5.45145,-4.82819 8.96582,-5.55466 3.66169,0.30418 1.85447,2.74345 0.0184,3.65634 -0.62201,0.12992 -0.24121,0.1388 -0.42751,-1.05975 0.0273,-0.014 0.22543,0.37276 0.19808,0.38676 l 0,0 c -1.25903,-0.85537 -1.48032,-0.41145 -1.1476,-0.94723 2.04637,-1.59466 -0.17206,0.48279 2.36611,0.29756 -2.85879,0.44374 -5.67243,3.19803 -7.95142,4.82365 -0.11332,0.14297 -2.13522,-1.4597 -2.02189,-1.60267 z"
       inkscape:connector-curvature="0" />
    <path
       style="fill:#abc837;fill-opacity:1;stroke:#000000;stroke-linecap:round;stroke-linejoin:bevel;stroke-opacity:0"
       id="path4126"
       d="m 673.77638,403.16911 c 0.40207,6.74171 1.1659,13.45468 1.90687,20.16553 0.092,0.89777 0.18752,1.79519 0.2759,2.69332 10e-4,0.0127 0.22996,2.29383 0.22853,2.76089 -0.003,0.85472 -1.75969,0.18897 -2.562,-0.10576 -0.2746,-0.10087 -0.0913,-0.57792 -0.1369,-0.86688 -0.51975,-3.85945 -0.94786,-7.72995 -1.24301,-11.61298 -0.16478,-3.9844 -0.46835,-8.03186 0.31073,-11.9689 0.55327,-1.7281 1.34737,-2.98316 3.45551,-2.65751 0.26219,0.0405 1.00275,0.7318 1.25997,0.96043 1.85882,1.88774 3.33064,4.10923 4.99537,6.16312 0.3313,0.35159 0.88893,1.04225 1.38921,1.28858 0.0831,0.0409 0.3687,0.004 0.27748,-0.0117 -1.52737,-0.26324 -1.42262,0.14615 -1.00175,-1.38452 0.73762,-2.79428 1.03229,-5.79389 2.34695,-8.40238 1.08019,0.32031 2.32497,0.30436 3.24056,0.96093 0.50253,0.36036 0.38768,1.17461 0.564,1.76731 0.23456,0.78851 0.45076,1.58239 0.66847,2.37571 0.81232,2.96002 1.5707,5.9345 2.33515,8.90711 0.417,1.92106 1.04171,3.79202 1.50563,5.70065 0.0357,0.14705 0.21681,0.41502 0.0693,0.4487 -2.82593,0.64507 -2.24272,0.26615 -1.50658,-0.7221 -0.003,-0.0345 0.48525,-0.0739 0.48804,-0.0394 l 0,0 c 0.92028,1.00421 1.60292,1.26945 -1.3502,1.78697 -0.60456,0.10595 -2.50784,-5.98878 -2.58526,-6.4328 -1.00808,-3.74536 -1.91595,-7.50845 -2.78669,-11.28776 -0.11942,-0.51833 -0.72472,-1.16217 -0.3645,-1.55355 0.60473,-0.65704 1.70001,-0.54732 2.55001,-0.82099 -1.0498,2.59032 -1.24035,5.47854 -2.16389,8.11236 -0.2236,0.63381 -0.72643,2.42586 -1.40409,2.80644 -2.12084,1.19108 -3.62504,-0.41779 -4.913,-1.79496 -1.58639,-1.94817 -2.9575,-4.06174 -4.6126,-5.95002 -0.0959,-0.088 -0.2158,-0.15547 -0.28776,-0.26392 -0.0319,-0.0481 0.10162,0.0781 0.15871,0.0694 0.38959,-0.0592 0.78776,-0.11637 1.1513,-0.26844 0.0649,-0.0272 0.0635,-0.227 -0.005,-0.21106 -0.11424,0.0266 -0.17668,0.16164 -0.23054,0.26583 -0.10831,0.20952 -0.16615,0.44149 -0.24923,0.66223 -0.66608,3.72484 -0.14194,7.5641 -0.13416,11.32042 0.2091,3.85024 0.50558,7.69503 0.67021,11.54759 0.10417,1.64643 0.35871,1.09648 -2.34904,1.77007 -0.0963,0.0239 -0.2485,-0.6877 -0.34372,-1.17227 -0.11986,-0.60996 -0.22767,-1.22232 -0.32836,-1.83574 -0.14691,-0.89498 -0.27624,-1.79276 -0.41436,-2.68913 -0.93434,-6.79324 -1.77374,-13.64703 -1.55038,-20.51746 0.003,-0.18916 2.67775,-0.15259 2.67516,0.0366 z"
       inkscape:connector-curvature="0" />
    <path
       style="fill:#abc837;fill-opacity:1;stroke:#000000;stroke-linecap:round;stroke-linejoin:bevel;stroke-opacity:0"
       id="path4128"
       d="m 706.65998,394.56501 c -3.55683,5.82944 -6.6822,11.83413 -8.66986,18.38243 -0.054,0.42047 -0.63567,2.31014 0.13244,2.89952 0.19545,0.14997 0.49263,-0.0226 0.73724,-0.0519 1.71398,-0.20518 3.39161,-0.7168 5.06983,-1.10446 2.17815,-0.54083 4.33365,-1.16662 6.51802,-1.68267 0.35767,-0.0845 0.7157,-0.1685 1.07684,-0.23664 0.17689,-0.0334 0.46121,-0.23149 0.53579,-0.0677 0.47427,1.04193 0.62489,2.20266 0.93734,3.30399 -4.36497,4.12166 -9.1248,7.77549 -14.28608,10.83571 -0.79011,0.34877 -1.58022,0.69755 -2.37033,1.04632 -0.11753,0.10274 -1.57049,-1.55941 -1.45296,-1.66215 l 0,0 c 0.60106,-0.51564 1.20212,-1.03127 1.80318,-1.54691 4.61873,-3.5744 9.23415,-7.15288 13.81768,-10.77231 0.91362,0.55621 1.86045,1.06123 2.74087,1.66863 0.0658,0.0454 -0.15554,0.0376 -0.23148,0.0626 -0.34473,0.11332 -0.68433,0.24209 -1.03013,0.35212 -2.17905,0.69337 -4.3931,1.27032 -6.61023,1.82695 -2.4931,0.52645 -6.06249,1.5419 -8.51319,0.3566 -2.50789,-1.21295 -2.44184,-3.64498 -2.13216,-5.99344 0.27367,-1.04277 0.48822,-2.10288 0.82101,-3.12831 1.87288,-5.77105 4.98621,-11.0965 8.5393,-15.98013 0.10548,-0.1815 2.67236,1.31015 2.56688,1.49166 z"
       inkscape:connector-curvature="0" />
    <path
       style="fill:#8d5fd3;fill-opacity:1;stroke:#000000;stroke-linecap:round;stroke-linejoin:bevel;stroke-opacity:0"
       id="path4062-7"
       d="m 262.60308,375.10873 c 2.85292,3.17178 5.57606,6.66911 7.09936,10.70287 0.2329,0.61671 0.37095,1.26519 0.55642,1.89778 0.29565,1.90228 -0.1355,4.58003 -2.88845,3.7557 -0.78569,-0.23526 -0.93257,-1.60648 -1.0675,-2.14927 -0.0568,-2.08143 -0.0964,-1.00044 0.15483,-3.24145 -0.003,-0.0421 0.59242,-0.0866 0.59557,-0.0444 l 0,0 c 0.61288,1.9999 0.31184,1.08077 0.88834,2.7622 0.12215,0.16867 0.22448,0.35364 0.36645,0.506 0.0214,0.0229 0.12314,-0.022 0.0932,-0.0127 -0.34347,0.1063 -0.72427,0.12304 -1.03487,0.30415 -0.10004,0.0583 -0.0226,0.44578 -0.0702,0.34023 -0.19201,-0.42561 0.81827,-1.04478 -0.12414,-1.39523 -1.53624,-4.31151 -4.26359,-8.02544 -7.07961,-11.59263 -0.12963,-0.17753 2.38102,-2.01072 2.51065,-1.83319 z"
       inkscape:connector-curvature="0" />
    <path
       style="fill:#8d5fd3;fill-opacity:1;stroke:#000000;stroke-linecap:round;stroke-linejoin:bevel;stroke-opacity:0"
       id="path4064-4"
       d="m 261.43778,376.94409 c 5.32344,-3.52416 11.23135,-6.05728 17.17669,-8.32603 0.72809,-0.24184 1.44862,-0.50777 2.18428,-0.72552 0.5008,-0.14823 1.00857,-0.27657 1.52215,-0.37153 0.31349,-0.058 0.73167,-0.31595 0.95256,-0.0861 2.24505,2.33664 1.58983,2.76632 -0.38105,3.52416 -0.3066,-6e-4 -0.61321,-10e-4 -0.91982,-0.002 -0.11023,0.0564 -0.90729,-1.50254 -0.79706,-1.5589 l 0,0 c 0.10541,-0.11173 0.21082,-0.22346 0.31622,-0.33519 1.21525,-0.89792 0.86812,-0.87936 2.68673,1.14112 0.10307,0.11451 -0.31186,-0.0133 -0.46163,0.0228 -1.00834,0.24326 -2.44872,0.84274 -3.32908,1.17872 -5.79035,2.35487 -11.53746,4.83081 -17.1264,7.63508 -0.14827,0.12895 -1.97186,-1.96792 -1.82359,-2.09687 z"
       inkscape:connector-curvature="0" />
  </g>
</svg>
