<?xml version="1.0" encoding="UTF-8" standalone="no"?>
<!-- Created with Inkscape (http://www.inkscape.org/) -->

<svg
   xmlns:dc="http://purl.org/dc/elements/1.1/"
   xmlns:cc="http://creativecommons.org/ns#"
   xmlns:rdf="http://www.w3.org/1999/02/22-rdf-syntax-ns#"
   xmlns:svg="http://www.w3.org/2000/svg"
   xmlns="http://www.w3.org/2000/svg"
   xmlns:sodipodi="http://sodipodi.sourceforge.net/DTD/sodipodi-0.dtd"
   xmlns:inkscape="http://www.inkscape.org/namespaces/inkscape"
   width="570.7561"
   height="281"
   id="svg2"
   version="1.1"
   inkscape:version="0.48.4 r9939"
   sodipodi:docname="terminal-phone.svg">
  <defs
     id="defs4">
    <inkscape:perspective
       sodipodi:type="inkscape:persp3d"
       inkscape:vp_x="0 : 526.18109 : 1"
       inkscape:vp_y="0 : 1000 : 0"
       inkscape:vp_z="744.09448 : 526.18109 : 1"
       inkscape:persp3d-origin="372.04724 : 350.78739 : 1"
       id="perspective3006" />
  </defs>
  <sodipodi:namedview
     id="base"
     pagecolor="#ffffff"
     bordercolor="#666666"
     borderopacity="1.0"
     inkscape:pageopacity="0.0"
     inkscape:pageshadow="2"
     inkscape:zoom="0.90028971"
     inkscape:cx="275.5"
     inkscape:cy="-116.89626"
     inkscape:document-units="px"
     inkscape:current-layer="layer1"
     showgrid="true"
     inkscape:snap-global="true"
     fit-margin-top="0"
     fit-margin-left="0"
     fit-margin-right="0"
     fit-margin-bottom="0"
     inkscape:window-width="1050"
     inkscape:window-height="1628"
     inkscape:window-x="-8"
     inkscape:window-y="-8"
     inkscape:window-maximized="1">
    <inkscape:grid
       type="xygrid"
       id="grid2985"
       empspacing="5"
       visible="true"
       enabled="true"
       snapvisiblegridlinesonly="true"
       originx="-99.5px"
       originy="-679.9065px" />
  </sodipodi:namedview>
  <metadata
     id="metadata7">
    <rdf:RDF>
      <cc:Work
         rdf:about="">
        <dc:format>image/svg+xml</dc:format>
        <dc:type
           rdf:resource="http://purl.org/dc/dcmitype/StillImage" />
        <dc:title />
      </cc:Work>
    </rdf:RDF>
  </metadata>
  <g
     inkscape:label="Layer 1"
     inkscape:groupmode="layer"
     id="layer1"
     transform="translate(-99.5,-91.455681)">
    <rect
       style="fill:#b3b3b3;fill-opacity:1;stroke:#000000;stroke-width:1.02316201;stroke-linecap:round;stroke-linejoin:bevel;stroke-opacity:1"
       id="rect3022"
       width="198.91992"
       height="279.97684"
       x="470.82458"
       y="91.967262" />
    <path
       style="fill:#ececec;fill-opacity:1;stroke:#000000;stroke-linecap:round;stroke-linejoin:bevel;stroke-opacity:0"
       id="path3066"
       d="m 573.8783,133.73638 c 0.2373,0.97681 0.5378,1.9404 0.71188,2.93043 1.09444,6.22416 1.16509,12.65455 1.22041,18.9501 0.0611,6.95674 -0.0797,11.38902 -0.22008,18.37767 -0.14627,7.48829 -0.61959,14.96654 -0.73825,22.45551 -0.019,1.20202 -0.0215,2.40471 0.008,3.60651 0.0111,0.44695 0.29971,0.92938 0.11462,1.33636 -0.0984,0.21633 -0.323,-0.3487 -0.4845,-0.52305 0.0438,-0.045 0.68008,0.57502 0.63624,0.62001 l 0,0 c -0.50222,0.0853 -1.06395,0.50792 -1.50667,0.25591 -0.50836,-0.28938 -0.65206,-0.99763 -0.79347,-1.56524 -0.30287,-1.21563 -0.42894,-2.47249 -0.52373,-3.72169 -0.56863,-7.49451 0.0338,-15.02822 0.0792,-22.52544 0.13448,-5.31892 0.34435,-12.94052 0.41316,-18.29384 0.0795,-6.18403 0.18406,-12.42753 -0.48896,-18.58864 -0.10299,-0.9428 -0.29492,-1.87375 -0.44238,-2.81062 -0.0356,-0.14242 1.97849,-0.6464 2.01412,-0.50398 z"
       inkscape:connector-curvature="0" />
    <path
       style="fill:#000000;fill-opacity:1;stroke:#000000;stroke-linecap:round;stroke-linejoin:bevel;stroke-opacity:1"
       id="path3060"
       d="m 128.95613,161.67371 c -2.14867,6.68967 -3.33226,13.7889 -3.39023,20.82491 -0.0126,1.5323 0.12715,3.06206 0.19073,4.59308 0.38697,2.16289 0.8229,8.24605 4.33934,8.03651 0.27706,-0.0165 0.49672,-0.24795 0.74815,-0.36549 0.51387,-0.24024 1.03172,-0.47186 1.54758,-0.70779 1.55703,-0.92363 2.76852,-2.26911 4.04864,-3.52204 0.0277,-0.0543 0.79611,0.33728 0.76842,0.39162 l 0,0 c -0.78692,2.22039 -1.46574,3.49047 -3.3906,4.99333 -0.67041,0.37979 -1.2705,0.92726 -2.01124,1.13937 -1.8461,0.52862 -3.60894,0.53601 -5.20133,-0.63497 -2.85905,-2.10241 -3.30092,-6.04735 -3.87459,-9.21005 -0.0857,-1.61748 -0.26103,-3.2327 -0.25716,-4.85244 0.0175,-7.3362 1.34136,-14.81513 4.07511,-21.62088 0.0661,-0.17021 2.47328,0.76463 2.40718,0.93484 z"
       inkscape:connector-curvature="0" />
    <path
       style="fill:#ececec;fill-opacity:1;stroke:#000000;stroke-linecap:round;stroke-linejoin:bevel;stroke-opacity:0"
       id="path3062"
       d="m 225.66005,155.5512 c 16.31801,-8.47679 33.67457,-14.71733 51.00335,-20.75699 14.04216,-4.59296 28.32117,-8.60572 42.94227,-10.88622 6.63166,-1.03435 15.6913,-1.95418 22.57758,-1.68179 2.72183,0.10766 5.40892,0.65077 8.11337,0.97615 2.13544,1.01095 5.63938,1.58561 5.62796,4.87548 -0.004,1.12651 -0.9402,2.04748 -1.4103,3.07123 -0.0283,0.0781 -1.13281,-0.32272 -1.10447,-0.40081 l 0,0 c 0.26034,-0.6367 0.82058,-1.22337 0.78101,-1.9101 -0.12761,-2.21493 -3.9244,-2.47121 -4.89195,-2.77289 -2.04253,-0.15102 -4.0795,-0.46157 -6.12758,-0.45306 -6.9683,0.0289 -15.12427,0.97652 -21.89461,2.10465 -14.43639,2.40551 -28.57276,6.29305 -42.51511,10.68627 -4.46782,1.48091 -8.95201,2.91331 -13.40346,4.44274 -12.94724,4.44842 -25.66701,9.50202 -38.3902,14.5437 -0.12999,0.0925 -1.43786,-1.74588 -1.30786,-1.83836 z"
       inkscape:connector-curvature="0" />
    <path
       style="fill:#ececec;fill-opacity:1;stroke:#000000;stroke-linecap:round;stroke-linejoin:bevel;stroke-opacity:0"
       id="path3064"
       d="m 382.93677,150.16425 c 8.56925,6.13962 19.80104,7.75803 30.09426,8.10998 3.68384,0.12596 7.3709,-0.12652 11.05635,-0.18978 4.31819,-0.46318 8.6595,-0.7464 12.95458,-1.38955 8.49627,-1.27223 16.47228,-3.1727 24.6805,-5.6512 5.21068,-1.57339 11.1048,-3.70599 16.12215,-6.03453 1.19933,-0.55661 2.32013,-1.26879 3.4802,-1.90318 0.79997,-0.97463 0.89145,-0.74101 -0.42588,-0.62058 -0.0283,-0.0131 0.15683,-0.41363 0.18515,-0.40054 l 0,0 c 2.79022,1.01223 2.40882,0.0468 1.69101,2.61504 -1.11285,0.85367 -2.13264,1.84481 -3.33855,2.56102 -4.69816,2.7903 -11.04904,5.28873 -16.07365,6.94043 -12.41995,4.08273 -25.29128,6.62676 -38.34341,7.45225 -4.38826,-0.0236 -8.78395,0.18532 -13.16479,-0.0709 -9.57006,-0.55976 -20.46626,-2.56347 -28.44902,-8.26323 -0.77448,-0.55299 -1.43415,-1.2513 -2.15123,-1.87694 -0.0904,-0.11896 1.59194,-1.39723 1.68233,-1.27827 z"
       inkscape:connector-curvature="0" />
    <g
       id="g2993">
      <rect
         y="102.36218"
         x="120"
         height="70"
         width="110"
         id="rect2987"
         style="fill:#b3b3b3;fill-opacity:1;stroke:#000000;stroke-linecap:round;stroke-linejoin:bevel;stroke-opacity:1" />
      <path
         inkscape:connector-curvature="0"
         id="path2989"
         d="m 120,178.36218 -20,30 150,0 -20,-30 -110,0 z"
         style="fill:#b3b3b3;stroke:#000000;stroke-width:1px;stroke-linecap:butt;stroke-linejoin:miter;stroke-opacity:1" />
      <rect
         y="112.36218"
         x="130"
         height="50"
         width="90"
         id="rect2991"
         style="fill:#000000;fill-opacity:1;stroke:#000000;stroke-linecap:round;stroke-linejoin:bevel;stroke-opacity:1" />
    </g>
    <text
       xml:space="preserve"
       style="font-size:20px;font-style:normal;font-weight:normal;line-height:125%;letter-spacing:0px;word-spacing:0px;fill:#ffffff;fill-opacity:1;stroke:none;font-family:Sans"
       x="133.33173"
       y="131.9431"
       id="text3002"
       sodipodi:linespacing="125%"><tspan
         sodipodi:role="line"
         id="tspan3004"
         x="133.33173"
         y="131.9431">$_</tspan></text>
    <rect
       style="fill:#de8787;fill-opacity:1;stroke:#000000;stroke-width:1.02578378;stroke-linecap:round;stroke-linejoin:bevel;stroke-opacity:1"
       id="rect3024"
       width="178.91731"
       height="49.989433"
       x="480.8259"
       y="101.96857" />
    <rect
       style="fill:#de8787;fill-opacity:1;stroke:#000000;stroke-width:1.02578378;stroke-linecap:round;stroke-linejoin:bevel;stroke-opacity:1"
       id="rect3026"
       width="178.91731"
       height="49.989433"
       x="480.8259"
       y="173.95335" />
    <text
       xml:space="preserve"
       style="font-size:20px;font-style:normal;font-weight:normal;line-height:125%;letter-spacing:0px;word-spacing:0px;fill:#ffffff;fill-opacity:1;stroke:none;font-family:Trebuchet MS;-inkscape-font-specification:Trebuchet MS;font-stretch:normal;font-variant:normal;text-anchor:start;text-align:start;writing-mode:lr"
       x="490"
       y="132.36218"
       id="text3041"
       sodipodi:linespacing="125%"><tspan
         sodipodi:role="line"
         id="tspan3043"
         x="490"
         y="132.36218">Shell</tspan></text>
    <text
       xml:space="preserve"
       style="font-size:20px;font-style:normal;font-weight:normal;line-height:125%;letter-spacing:0px;word-spacing:0px;fill:#ffffff;fill-opacity:1;stroke:none;font-family:Trebuchet MS;-inkscape-font-specification:Trebuchet MS;font-stretch:normal;font-variant:normal;text-anchor:start;text-align:start;writing-mode:lr"
       x="490"
       y="202.36218"
       id="text3045"
       sodipodi:linespacing="125%"><tspan
         sodipodi:role="line"
         id="tspan3047"
         x="490"
         y="202.36218">Operating System</tspan></text>
    <g
       id="g3055"
       transform="translate(29.268293,-33.333333)">
      <path
         inkscape:connector-curvature="0"
         id="path3049"
         d="m 310.02919,152.4303 -19.96107,25.87123 0,12.93562 69.86376,0 0,-12.93562 -19.96107,-25.87123 z"
         style="fill:#e9afaf;stroke:#000000;stroke-width:1.1362412px;stroke-linecap:butt;stroke-linejoin:miter;stroke-opacity:1" />
      <path
         inkscape:connector-curvature="0"
         id="path3051"
         d="m 280,166.36218 10,-20 10,-10 50,0 10,10 10,20 -20,0 -10,-20 -30,0 -10,20 z"
         style="fill:#e9afaf;stroke:#000000;stroke-width:1px;stroke-linecap:butt;stroke-linejoin:miter;stroke-opacity:1" />
      <path
         transform="translate(0,-10)"
         d="m 340,177.36218 c 0,8.28427 -6.71573,15 -15,15 -8.28427,0 -15,-6.71573 -15,-15 0,-8.28427 6.71573,-15 15,-15 8.28427,0 15,6.71573 15,15 z"
         sodipodi:ry="15"
         sodipodi:rx="15"
         sodipodi:cy="177.36218"
         sodipodi:cx="325"
         id="path3053"
         style="fill:#f2f2f2;fill-opacity:1;stroke:#000000;stroke-linecap:round;stroke-linejoin:bevel;stroke-opacity:1"
         sodipodi:type="arc" />
    </g>
    <text
       xml:space="preserve"
       style="font-size:20px;font-style:normal;font-weight:normal;line-height:125%;letter-spacing:0px;word-spacing:0px;fill:#d35f5f;fill-opacity:1;stroke:none;font-family:Trebuchet MS;-inkscape-font-specification:Trebuchet MS;font-stretch:normal;font-variant:normal;text-anchor:start;text-align:start;writing-mode:lr"
       x="130"
       y="242.36218"
       id="text3906"
       sodipodi:linespacing="125%"><tspan
         sodipodi:role="line"
         id="tspan3908"
         x="130"
         y="242.36218">Terminal</tspan></text>
    <text
       xml:space="preserve"
       style="font-size:20px;font-style:normal;font-weight:normal;line-height:125%;letter-spacing:0px;word-spacing:0px;fill:#ffffff;fill-opacity:1;stroke:none;font-family:Trebuchet MS;-inkscape-font-specification:Trebuchet MS;font-stretch:normal;font-variant:normal;text-anchor:start;text-align:start;writing-mode:lr"
       x="530"
       y="352.36218"
       id="text3910"
       sodipodi:linespacing="125%"><tspan
         sodipodi:role="line"
         id="tspan3912"
         x="530"
         y="352.36218">Computer</tspan></text>
  </g>
</svg>
